<?xml version="1.0" encoding="UTF-8"?>
<svg id="_1" data-name=" 1" xmlns="http://www.w3.org/2000/svg" viewBox="0 0 203.82 200">
  <defs>
    <style>
      .cls-1, .cls-2 {
        fill: #fff;
      }

      .cls-3 {
        fill: #004812;
      }

      .cls-4 {
        fill: #ddb724;
      }

      .cls-5 {
        fill: gray;
      }

      .cls-2 {
        isolation: isolate;
        opacity: .7;
      }

      .cls-6 {
        fill: none;
      }

      .cls-7 {
        fill: #263238;
      }

      .cls-8 {
        fill: #5e5e5e;
      }
    </style>
  </defs>
  <g id="Background_Simple" data-name="Background Simple">
    <path id="Path_129" data-name="Path 129" class="cls-4" d="M183.5,49.28c-6.02-15.63-18.06-26.07-32.51-34.36C119.61-3.07,97.46-5.39,76.23,11.23c-21.23,16.62-39.69,48.46-53.09,55.38C9.73,73.54-.87,82.31,.06,108.62c.92,26.31,19.87,21.69,22.18,42.92s17.08,38.31,41.54,42.91c24.46,4.6,32.29-12.92,54-16.62,21.7-3.69,24.92,8.31,53.09,4.61,28.17-3.69,36.92-51.23,31.38-77.53-2.91-13.62-7.17-26.91-12.73-39.68-2.26-5.14-3.96-10.64-6.01-15.96Z"/>
    <path id="Path_130" data-name="Path 130" class="cls-2" d="M183.5,49.28c-6.02-15.63-18.06-26.07-32.51-34.36C119.61-3.07,97.46-5.39,76.23,11.23c-21.23,16.62-39.69,48.46-53.09,55.38C9.73,73.54-.87,82.31,.06,108.62c.92,26.31,19.87,21.69,22.18,42.92s17.08,38.31,41.54,42.91c24.46,4.6,32.29-12.92,54-16.62,21.7-3.69,24.92,8.31,53.09,4.61,28.17-3.69,36.92-51.23,31.38-77.53-2.91-13.62-7.17-26.91-12.73-39.68-2.26-5.14-3.96-10.64-6.01-15.96Z"/>
  </g>
  <g id="Plant">
    <rect id="Rectangle_187" data-name="Rectangle 187" class="cls-8" x="52.94" y="107.87" width="2.19" height="49.76"/>
    <rect id="Rectangle_188" data-name="Rectangle 188" class="cls-8" x="46.75" y="89.91" width="2.19" height="68.72"/>
    <rect id="Rectangle_189" data-name="Rectangle 189" class="cls-8" x="60.79" y="134.83" width="2.19" height="24.14"/>
    <path id="Path_131" data-name="Path 131" class="cls-3" d="M45.43,96.69c-1.59-2.56-3.39-4.99-5.38-7.25-4.14-4.97-21.35-18.42-21.35-18.42,0,0,9.75,5.17,12.84,7.87s7.25,6.02,7.25,6.02c0,0-11.58-12.64-12.81-13.48s11.8,9.94,11.8,9.94c0,0-4.97-9.94-7.46-13.22s-7.25-11.18-7.25-11.18c0,0,13.46,18.01,14.08,19.05s3.32,5.59,3.32,5.59l-4.77-12.43,5.8,10.15s-8.28-17.2-8.7-18.04,5.8,8.07,5.8,8.07l-5.38-16.15,12.42,25.47-.83-9.94,2.28,10.36,.62-25.47,1.45,25.26s2.28-16.15,2.69-19.46,.62-6.83,.62-6.83c0,0-.42,21.95-.42,22.57s-.42,5.59-.42,5.59c0,0,3.11-9.3,3.94-11.8s1.64-10.97,2.07-12.22-2.07,19.06-2.28,19.88c-.37,1.35-.85,2.67-1.45,3.94-.62,1.24,4.55-7.46,6.42-11.18l5.38-10.77s-3.1,10.35-3.93,12.22-6.21,11.8-6.21,11.8c0,0,8.07-9.52,11.59-12.01s9.94-7.25,9.94-7.25c0,0-10.35,11.18-12.43,13.25s-8.07,9.3-8.07,9.3c0,0,10.35-6.62,10.97-7.25s8.07-5.38,8.07-5.38c0,0-15.03,11.87-15.74,12.63-6.02,6.42-8.07,9.52-9.3,10.77-1.25,1.44-3.43,1.59-4.87,.34-.11-.1-.22-.2-.32-.31Z"/>
    <path id="Path_132" data-name="Path 132" class="cls-3" d="M52.58,114.84c-1.13-1.81-2.41-3.53-3.83-5.12-2.95-3.51-15.08-13.04-15.08-13.04,0,0,6.89,3.66,9.08,5.57s5.13,4.25,5.13,4.25c0,0-8.21-8.93-9.08-9.52s8.35,7.03,8.35,7.03c-1.58-3.22-3.34-6.35-5.27-9.37-1.75-2.34-5.13-7.91-5.13-7.91,0,0,9.52,12.74,9.96,13.48s2.34,3.95,2.34,3.95l-3.37-8.76,4.1,7.18s-5.86-12.16-6.15-12.74,4.12,5.69,4.12,5.69l-3.83-11.42,8.81,17.99-.58-7.03,1.61,7.32,.44-18.01,1.02,17.87s1.61-11.42,1.9-13.77,.44-4.83,.44-4.83c0,0-.3,15.52-.3,15.97s-.29,3.95-.29,3.95l2.78-8.35c.58-1.75,1.17-7.76,1.47-8.64s-1.47,13.48-1.61,14.06c-.26,.96-.6,1.89-1.02,2.78-.44,.88,3.22-5.27,4.54-7.91l3.83-7.61s-2.19,7.32-2.78,8.64-4.38,8.35-4.38,8.35c0,0,5.71-6.74,8.21-8.49s7.03-5.13,7.03-5.13c0,0-7.37,7.93-8.84,9.39s-5.71,6.57-5.71,6.57c0,0,7.32-4.69,7.76-5.13s5.71-3.8,5.71-3.8c0,0-10.63,8.4-11.13,8.93-4.25,4.54-5.71,6.74-6.57,7.61-.87,1.02-2.41,1.14-3.43,.27-.09-.08-.17-.16-.25-.25h0Z"/>
    <path id="Path_133" data-name="Path 133" class="cls-3" d="M60.04,135.75c-1.13-1.82-2.41-3.53-3.83-5.13-2.95-3.51-15.08-13.03-15.08-13.03,0,0,6.89,3.66,9.08,5.57s5.12,4.25,5.12,4.25c0,0-8.21-8.93-9.08-9.52s8.35,7.03,8.35,7.03c-1.58-3.22-3.35-6.35-5.28-9.38-1.75-2.34-5.12-7.9-5.12-7.9,0,0,9.52,12.74,9.96,13.47s2.34,3.96,2.34,3.96l-3.37-8.79,4.14,7.15s-5.86-12.16-6.15-12.74,4.11,5.71,4.11,5.71l-3.83-11.42,8.76,18.01-.58-7.03,1.61,7.32,.44-18.01,1.03,17.88s1.61-11.42,1.9-13.77,.44-4.83,.44-4.83c0,0-.29,15.52-.29,15.96s-.3,3.96-.3,3.96l2.79-8.35c.58-1.75,1.17-7.76,1.46-8.64s-1.46,13.47-1.61,14.06c-.26,.96-.6,1.89-1.02,2.79-.44,.88,3.22-5.27,4.54-7.91l3.83-7.61s-2.19,7.32-2.79,8.64-4.38,8.35-4.38,8.35c0,0,5.71-6.73,8.21-8.49s7.02-5.1,7.02-5.1c0,0-7.32,7.91-8.79,9.37s-5.71,6.57-5.71,6.57c0,0,7.32-4.69,7.76-5.12s5.71-3.83,5.71-3.83c0,0-10.63,8.4-11.13,8.93-4.25,4.54-5.71,6.74-6.57,7.62-.87,1.03-2.4,1.16-3.43,.29-.09-.08-.18-.16-.26-.25h0Z"/>
    <path id="Path_134" data-name="Path 134" class="cls-1" d="M69.31,175.08c0,9.78-2.57,18.41-6.5,23.62h-17.43c-3.93-5.22-6.5-13.85-6.5-23.62,0-.85,0-1.7,.06-2.53,.09-2.12,.32-4.22,.67-6.31,.13-.77,.28-1.52,.44-2.26,.14-.61,.28-1.21,.44-1.8,.67-2.6,1.63-5.12,2.87-7.51h21.47c1.23,2.39,2.2,4.91,2.87,7.51,.15,.59,.3,1.19,.43,1.8,.16,.74,.31,1.49,.44,2.26,.35,2.09,.58,4.2,.67,6.31,.07,.83,.07,1.68,.07,2.53Z"/>
    <path id="Path_135" data-name="Path 135" class="cls-7" d="M62.94,198.96h-17.72l-.08-.11c-4.11-5.45-6.57-14.34-6.57-23.79,0-.89,0-1.74,.06-2.55,.09-2.13,.32-4.25,.67-6.34,.14-.82,.28-1.56,.44-2.27s.29-1.24,.44-1.82c.67-2.62,1.64-5.16,2.89-7.57l.08-.15h21.81l.08,.15c1.25,2.4,2.22,4.94,2.89,7.57,.15,.58,.3,1.17,.44,1.82s.3,1.45,.44,2.27c.35,2.1,.58,4.22,.67,6.35,.04,.8,.06,1.64,.06,2.55,0,9.45-2.46,18.34-6.57,23.79l-.03,.11Zm-17.43-.55h17.15c3.98-5.37,6.36-14.08,6.36-23.35,0-.88,0-1.72-.06-2.52-.09-2.1-.32-4.2-.67-6.28-.14-.81-.28-1.54-.43-2.24s-.28-1.22-.44-1.79c-.65-2.53-1.58-4.98-2.77-7.31h-21.14c-1.19,2.33-2.12,4.78-2.77,7.31-.15,.55-.29,1.15-.43,1.79s-.3,1.43-.43,2.24c-.36,2.08-.58,4.18-.68,6.29-.04,.8-.05,1.64-.05,2.52,0,9.27,2.38,17.98,6.37,23.34h0Z"/>
    <path id="Path_136" data-name="Path 136" class="cls-3" d="M67.7,162.17h-27.22c-.16,.59-.3,1.19-.44,1.8h28.09c-.13-.59-.28-1.21-.43-1.8Zm.87,4.06h-28.96c-.35,2.09-.57,4.2-.67,6.31h30.3c-.09-2.12-.32-4.23-.67-6.31Z"/>
    <path id="Path_137" data-name="Path 137" class="cls-3" d="M69.52,172.82h-30.87v-.28c.09-2.13,.32-4.25,.67-6.35l.04-.23h29.43l.04,.23c.35,2.1,.58,4.22,.67,6.35l.02,.28Zm-30.3-.55h29.73c-.1-1.93-.3-3.86-.62-5.77h-28.49c-.32,1.91-.54,3.84-.64,5.77h.02Zm29.25-8.02h-28.76l.07-.33c.15-.65,.29-1.24,.44-1.82l.05-.2h27.63l.05,.2c.15,.58,.3,1.17,.44,1.82l.07,.33Zm-28.09-.55h27.4c-.1-.43-.2-.85-.31-1.25h-26.79c-.11,.39-.21,.82-.3,1.25h0Z"/>
  </g>
  <g id="Speech_bubble_2" data-name="Speech bubble 2">
    <path id="Path_138" data-name="Path 138" class="cls-7" d="M91.93,12.44c11.79,0,21.35,7.46,21.35,16.67,0,7.08-5.65,13.14-13.62,15.53l6.87,9.38-12.04-8.36c-.83,.08-1.67,.12-2.53,.12-11.79,0-21.35-7.46-21.35-16.67s9.54-16.66,21.33-16.66Z"/>
    <path id="Path_139" data-name="Path 139" class="cls-7" d="M106.53,54.34c-.06,0-.13-.02-.18-.05l-11.97-8.3c-.85,.08-1.64,.12-2.45,.12-11.95,0-21.67-7.62-21.67-16.97s9.72-16.97,21.67-16.97,21.67,7.62,21.67,16.97c0,6.95-5.25,13.08-13.42,15.71l6.61,9.01c.09,.12,.08,.3-.03,.41-.07,.06-.15,.09-.24,.08Zm-12.04-9c.06,0,.13,.02,.18,.05l10.52,7.28-5.77-7.83c-.06-.08-.08-.19-.04-.29,.03-.1,.11-.17,.21-.2,8.13-2.47,13.39-8.45,13.39-15.23,0-9.01-9.43-16.35-21.03-16.35s-21.03,7.33-21.03,16.35,9.44,16.35,21.03,16.35c.82,0,1.64-.04,2.5-.12h.05Z"/>
    <path id="Path_140" data-name="Path 140" class="cls-4" d="M91.69,43.23h-.25c-3.38-.07-6.57-1.43-7.79-3.32-.62-1.03-.53-2.35,.23-3.28-2.95,1.13-6.41,1.31-8.85-1.27-2.04-2.19-1.47-5.54-.36-7.77,1.26-2.53,3.26-4.03,5.1-3.83,1.56,.28,2.93,1.21,3.74,2.57,1.58,.22,3.12,.64,4.6,1.25l1.33,.47c-.02-1.37-.56-2.67-1.5-3.66-1.73,1.17-3.56,1.5-4.74,.76-.7-.44-1.75-1.64-.79-4.78,.64-1.91,2.37-3.24,4.38-3.37,.64-1.23,1.73-2.17,3.04-2.63,3.08-1.13,7.43-.03,11.37,2.86,.14,.1,.17,.3,.07,.44-.1,.14-.29,.18-.43,.08,0,0,0,0,0,0-3.77-2.76-7.9-3.83-10.77-2.77-1.02,.35-1.89,1.04-2.47,1.94,1.76-.1,3.52,.16,5.17,.79,1.01-1.35,1.97-2.3,2.98-2.24,.72,.04,1.36,.58,1.95,1.64,1.31,2.48,1.63,5.38,.88,8.08,.04,.18,.09,.35,.14,.55,.78,3.03,1.64,6.45,3.34,7.2,.27,.12,.56,.17,.85,.15,1.1-2.02,2.47-3.89,4.07-5.54,0-.32-.02-.65-.07-.97-.32-2.35-1.69-4.17-3.39-4.53-1.64-.34-2.03-.04-2.12,.11-.21,.32,.13,1.02,.33,1.31,.1,.15,.06,.34-.08,.44-.14,.1-.34,.06-.44-.08,0,0,0,0,0,0-.09-.13-.84-1.26-.33-2.02,.38-.58,1.29-.7,2.79-.38,1.97,.41,3.54,2.45,3.89,5.06,0,.2,.05,.4,.06,.6,.55-.4,1.29-.44,1.88-.1,.75,.48,1.22,1.3,1.25,2.19,.27,2.74-1.75,6.84-4.6,9.37-.72,.81-1.78,1.24-2.86,1.16-1.05-.33-1.93-1.05-2.46-2.01-.4,.63-.81,1.26-1.23,1.86-1.86,2.45-4.81,3.83-7.88,3.69Zm-6.71-7.12c-1.06,1.42-1.46,2.4-.79,3.44,1.09,1.69,4.13,2.97,7.26,3.03,1.94,.03,5.47-.35,7.59-3.42,.46-.66,.91-1.36,1.37-2.08-.35-.58-.7-1.2-1.06-1.86-.5-.9-1.01-1.82-1.59-2.74-.59-1.18-1.88-1.83-3.17-1.59-.86,.22-1.63,.69-2.23,1.34,1.37-.16,2.75,.09,3.98,.72,1.14,.65,1.7,1.98,1.37,3.25-.47,2.49-2.87,4.12-5.35,3.66-1.66-.13-2.91-1.59-2.77-3.25,0-.1,.02-.2,.04-.29,.18-1.15,.61-2.25,1.24-3.22-1.18,.23-2.3,.7-3.28,1.4-.8,.63-1.66,1.18-2.57,1.64h0Zm6.77-3.16c-.77,1.02-1.28,2.21-1.48,3.46-.25,1.29,.6,2.54,1.89,2.79,.1,.02,.2,.03,.3,.04,2.14,.4,4.21-1,4.62-3.14,.27-1.01-.18-2.08-1.09-2.58-1.31-.64-2.8-.84-4.23-.56h0Zm9.41,4.13c.7,1.07,1.38,1.83,2.19,1.97,.89,.03,1.75-.34,2.33-1.01,2.67-2.38,4.64-6.33,4.38-8.83,0-.69-.36-1.33-.94-1.71-.45-.26-.98-.12-1.55,.32,0,2.27-1.24,4.36-3.24,5.43-.34,.18-.71,.31-1.09,.39l-.64,1.06c-.45,.79-.96,1.59-1.46,2.38h.02Zm-21.73-12.73c-1.48,0-3.13,1.37-4.19,3.49-1.02,2.04-1.57,5.11,.25,7.04,2.44,2.58,6.17,2.04,9.08,.7,.32-.42,.67-.86,1.05-1.31,1.19-1.38,2.25-2.86,3.18-4.43,.22-.37,.39-.78,.51-1.19-.48-.16-.95-.33-1.42-.5-1.29-.51-2.62-.9-3.98-1.16,.27,.53,.48,1.09,.63,1.67,.67,2.09-.09,4.37-1.87,5.64-1.5,1.02-2.92,.94-3.78-.22-1.23-1.64-.94-5.09,1.28-6.89,.72-.58,1.61-.9,2.53-.91-.7-1.02-1.78-1.71-2.99-1.94-.09,0-.18,0-.27,0Zm15.72,5.87c1.31,.06,2.49,.8,3.12,1.95,.6,.91,1.09,1.85,1.61,2.74,.3,.55,.59,1.09,.88,1.56,.43-.7,.87-1.4,1.29-2.1l.42-.69c-.25-.03-.5-.09-.73-.2-1.89-.84-2.78-4.06-3.61-7.27-.07,.14-.13,.28-.21,.42-.73,1.56-2.22,2.63-3.93,2.83-1.39,.06-2.78-.15-4.08-.62-.13,.46-.31,.9-.55,1.31-.95,1.6-2.03,3.11-3.24,4.52l-.12,.14c.41-.25,.81-.52,1.19-.82,1.25-.88,2.69-1.44,4.21-1.64,.75-1.01,1.82-1.73,3.03-2.07,.23-.04,.47-.06,.71-.05h0Zm-12.21-3.29c-.86-.03-1.71,.25-2.38,.78-1.79,1.46-2.28,3.99-1.17,6.02,.66,.88,1.7,.91,2.91,.07,1.57-1.12,2.22-3.13,1.61-4.96-.17-.67-.43-1.3-.79-1.89l-.18-.02Zm23.92,1.54c-1.17,1.36-2.21,2.83-3.11,4.38l.27-.13c1.61-.85,2.67-2.46,2.84-4.27v.02Zm-16.82-.23c1.25,.45,2.57,.66,3.89,.61,1.5-.19,2.79-1.13,3.43-2.5,.19-.38,.36-.77,.49-1.17-.3-1.28-.7-2.53-1.2-3.74-.85-1.4-2.17-2.45-3.72-2.97-.28,.38-.55,.79-.85,1.21-.87,1.36-1.87,2.62-3,3.77-.2,.19-.42,.38-.64,.55h0c1.08,1.14,1.65,2.66,1.6,4.23v.02Zm-3.6-10.54c-1.59,.23-2.92,1.33-3.44,2.85-.62,2.02-.44,3.46,.51,4.06s2.52,.27,4.03-.74c-1.47-1.7-1.89-4.07-1.11-6.18v.02Zm6.89,.23c1.63,.59,3.01,1.73,3.9,3.23,.39,.89,.7,1.8,.94,2.74,.34-2.22-.04-4.48-1.09-6.46-.47-.86-.95-1.31-1.43-1.34-.67-.09-1.48,.71-2.32,1.81v.02Zm-6.15-.36c-.15,.33-.27,.68-.35,1.04-.38,1.73,.07,3.53,1.23,4.87,.2-.15,.39-.32,.58-.5,1.09-1.12,2.06-2.35,2.91-3.67,.26-.37,.51-.74,.77-1.09-1.52-.54-3.13-.78-4.74-.69l-.4,.04Z"/>
  </g>
  <g id="Character_2" data-name="Character 2">
    <path id="Path_141" data-name="Path 141" class="cls-1" d="M167.92,199.68h.21c.87-.12,1.48-.93,1.35-1.8,0,0,0,0,0-.01l-7.3-55.49c-.1-.87-.88-1.5-1.76-1.41-.87,.1-1.5,.88-1.41,1.76,0,.02,0,.05,0,.07l7.31,55.5c.11,.79,.78,1.38,1.58,1.38Z"/>
    <path id="Path_142" data-name="Path 142" class="cls-7" d="M167.91,200c-.95,0-1.76-.7-1.9-1.64l-7.32-55.52c-.16-1.04,.56-2.02,1.61-2.17,1.04-.16,2.02,.56,2.17,1.61,0,.02,0,.04,0,.06l7.32,55.49c.07,.5-.07,1.01-.38,1.41-.3,.41-.76,.67-1.26,.73l-.24,.02Zm-7.31-58.68h-.17c-.69,.1-1.18,.74-1.09,1.43l7.31,55.5c.08,.7,.72,1.2,1.42,1.12,.7-.08,1.2-.72,1.12-1.42,0-.01,0-.02,0-.03l-7.31-55.49c-.09-.63-.63-1.11-1.26-1.11h0Z"/>
    <path id="Path_143" data-name="Path 143" class="cls-1" d="M131.09,199.68h.21c.87-.11,1.49-.91,1.37-1.78l-7.32-55.51c-.13-.87-.95-1.47-1.82-1.33-.84,.13-1.43,.9-1.34,1.75l7.32,55.49c.1,.79,.77,1.38,1.57,1.39Z"/>
    <path id="Path_144" data-name="Path 144" class="cls-7" d="M131.09,200c-.95,0-1.76-.7-1.9-1.64l-7.33-55.51c-.16-1.04,.56-2.02,1.61-2.17s2.02,.56,2.17,1.61c0,.02,0,.04,0,.06l7.31,55.49c.14,1.04-.59,2-1.64,2.15l-.23,.02Zm-7.31-58.68h-.17c-.34,.04-.64,.22-.84,.49-.21,.27-.3,.61-.26,.94l7.32,55.5c.1,.7,.75,1.18,1.45,1.08,.68-.1,1.17-.73,1.08-1.41l-7.32-55.49c-.08-.63-.62-1.11-1.26-1.11h0Z"/>
    <path id="Path_145" data-name="Path 145" class="cls-1" d="M133.73,57.4h40.21l-9.78,71.18c-.35,2.55-1.43,4.94-3.12,6.89l-2.04,2.36-40.22-1.07h0c4.24-8.72,7.04-18.07,8.28-27.69l6.67-51.67Z"/>
    <path id="Path_146" data-name="Path 146" class="cls-7" d="M158.99,138.14h0l-40.21-1.07c-.11,0-.21-.06-.27-.15-.05-.1-.05-.21,0-.31,4.23-8.69,7.02-18,8.25-27.59l6.66-51.67c.02-.16,.16-.28,.32-.28h40.21c.18,0,.32,.15,.32,.33,0,.01,0,.02,0,.04l-9.8,71.18c-.36,2.61-1.48,5.06-3.21,7.05l-2.04,2.36c-.06,.07-.14,.11-.23,.11Zm-39.71-1.69l39.57,1.05,1.94-2.25c1.65-1.9,2.7-4.23,3.04-6.72l9.74-70.8h-39.57l-6.63,51.38c-1.22,9.48-3.96,18.71-8.1,27.32h0Z"/>
    <path id="Path_147" data-name="Path 147" class="cls-1" d="M85.18,199.68c-.07,0-.14,0-.21,0-.87-.11-1.49-.91-1.37-1.78l7.31-55.5c.13-.87,.95-1.47,1.82-1.33,.84,.13,1.44,.9,1.34,1.75l-7.31,55.48c-.11,.79-.78,1.38-1.58,1.38Z"/>
    <path id="Path_148" data-name="Path 148" class="cls-7" d="M85.18,200c-.08,0-.17,0-.25,0-1.04-.14-1.78-1.1-1.64-2.15l7.31-55.51c.13-1.05,1.08-1.8,2.13-1.67,1.05,.13,1.8,1.08,1.67,2.13,0,.01,0,.02,0,.04l-7.32,55.49c-.12,.95-.93,1.66-1.89,1.66h0Zm7.31-58.68c-.28,0-.55,.09-.78,.26-.27,.21-.44,.51-.49,.85l-7.31,55.49c-.08,.7,.42,1.33,1.12,1.42,.69,.08,1.31-.4,1.41-1.08l7.31-55.49c.09-.7-.4-1.33-1.09-1.43h-.17Z"/>
    <path id="Path_149" data-name="Path 149" class="cls-1" d="M122.01,199.67h-.21c-.87-.11-1.49-.91-1.37-1.78l7.32-55.5c.1-.87,.88-1.5,1.76-1.41,.87,.1,1.5,.88,1.41,1.76,0,.02,0,.05,0,.07l-7.31,55.48c-.11,.79-.78,1.38-1.58,1.38Z"/>
    <path id="Path_150" data-name="Path 150" class="cls-7" d="M122.01,200h-.26c-.5-.06-.96-.33-1.26-.73-.31-.4-.45-.91-.38-1.42l7.32-55.49c.15-1.04,1.1-1.77,2.15-1.64,.51,.06,.96,.33,1.27,.73,.31,.4,.44,.91,.38,1.41l-7.32,55.47c-.13,.95-.93,1.66-1.89,1.66Zm7.31-58.68c-.63,0-1.17,.47-1.26,1.09l-7.3,55.51c-.08,.7,.42,1.33,1.12,1.42,.69,.08,1.31-.4,1.41-1.08l7.32-55.49c.09-.7-.4-1.34-1.09-1.43,0,0,0,0,0,0h-.2Z"/>
    <rect id="Rectangle_190" data-name="Rectangle 190" class="cls-1" x="88.21" y="140.51" width="74.09" height="3.6"/>
    <path id="Path_151" data-name="Path 151" class="cls-7" d="M162.3,144.42H88.21c-.18,0-.32-.14-.32-.32v-3.6c0-.18,.14-.32,.32-.32h74.09c.18,0,.32,.14,.32,.32v3.6c0,.18-.14,.32-.32,.32h0Zm-73.77-.63h73.45v-2.96H88.53v2.96Z"/>
    <rect id="Rectangle_191" data-name="Rectangle 191" class="cls-1" x="88.2" y="140.51" width="39.33" height="3.6"/>
    <path id="Path_152" data-name="Path 152" class="cls-7" d="M127.53,144.42h-39.32c-.18,0-.32-.14-.32-.32v-3.6c0-.18,.14-.32,.32-.32h39.32c.18,0,.32,.14,.32,.32v3.6c0,.18-.15,.32-.32,.32Zm-39-.63h38.69v-2.96h-38.69v2.96Z"/>
    <path id="Path_153" data-name="Path 153" class="cls-1" d="M162.3,140.51s-2.96-3.72-5.74-3.98-61.53,.03-63.57,.03-4.79,3.98-4.79,3.98l74.1-.03Z"/>
    <path id="Path_154" data-name="Path 154" class="cls-7" d="M162.3,140.83H88.21c-.18,0-.32-.14-.32-.32,0-.06,.02-.13,.06-.18,.12-.17,2.9-4.11,5.05-4.11h3.97c14.15-.05,57.23-.21,59.63,0,2.87,.26,5.83,3.94,5.95,4.09,.11,.14,.09,.34-.05,.45-.06,.04-.13,.07-.2,.07h0Zm-73.46-.63h72.77c-.91-1.01-3.07-3.16-5.07-3.34-1.57-.14-21.61-.14-59.57,0h-3.97c-1.31,0-3.2,2.09-4.16,3.34Z"/>
    <path id="Path_155" data-name="Path 155" class="cls-5" d="M110.01,137.58c-1.87-.09-3.71-.44-5.47-1.06-3.19-1.06-2.83-3.54-.35-4.95s5.82,.53,5.82,6.02Z"/>
    <path id="Path_156" data-name="Path 156" class="cls-7" d="M110.01,137.89c-1.9-.09-3.79-.46-5.58-1.09-1.51-.5-2.4-1.37-2.51-2.44,.21-2.15,2.12-3.72,4.27-3.51,.49,.05,.97,.19,1.41,.42,1.73,1.01,2.74,3.28,2.74,6.28,.01,.18-.11,.33-.29,.34-.01,0-.03,0-.04,0Zm-4.21-6.45c-.52,0-1.03,.14-1.48,.4-1.01,.43-1.7,1.39-1.77,2.48,.09,.84,.82,1.47,2.07,1.89,1.63,.56,3.33,.91,5.06,1.03-.07-2.59-.94-4.54-2.41-5.4-.44-.26-.95-.4-1.47-.41h0Z"/>
    <path id="Path_157" data-name="Path 157" class="cls-1" d="M110.01,102.59l-5.57,25.29,6.43-.63,6.43-19.93s-2.55-4.52-7.29-4.73Z"/>
    <path id="Path_158" data-name="Path 158" class="cls-7" d="M104.43,128.2c-.09,0-.18-.04-.24-.1-.07-.08-.09-.18-.07-.28l5.57-25.29c.03-.15,.17-.26,.33-.25,4.83,.22,7.44,4.69,7.55,4.87,.04,.08,.05,.17,.03,.26l-6.43,19.93c-.04,.12-.14,.21-.27,.22l-6.43,.65h-.04Zm5.82-25.28l-5.42,24.6,5.79-.58,6.31-19.6c-.42-.67-2.77-4.1-6.67-4.42Z"/>
    <path id="Path_159" data-name="Path 159" class="cls-4" d="M123.29,79.01s-8.36,.21-9.64,2.14-9,20.8-9,20.8l9.43,4.29-.64,10.72s-2.79,1.07-3.22,2.35-1.29,4.29-1.29,4.29c3.87,1.01,7.81,1.72,11.79,2.14,5.36,.43,9.22,.43,11.58,.43s7.93,2.57,8.79,4.29,.43,5.14,1.29,4.93,3.65-3.43,3.65-8.58-1.72-22.93-1.72-22.93c0,0-.21-16.94-1.5-20.15s-10.95-4.07-10.95-4.07l-8.56-.64Z"/>
    <path id="Path_160" data-name="Path 160" class="cls-7" d="M142.3,135.72c-.12,0-.23-.04-.32-.1-.38-.27-.46-.91-.58-2.14-.04-.98-.24-1.96-.59-2.88-.75-1.5-6.15-4.11-8.51-4.11s-6.23,0-11.6-.43c-4-.42-7.96-1.14-11.85-2.15-.08-.02-.15-.08-.19-.15-.04-.07-.06-.16-.03-.24,0-.03,.87-3.02,1.29-4.3s2.52-2.19,3.21-2.48l.62-10.27-9.24-4.2c-.15-.07-.23-.25-.16-.41,.32-.77,7.75-18.92,9.03-20.85s9.03-2.26,9.91-2.28h.03l8.57,.64c.4,.04,9.85,.91,11.2,4.27,1.29,3.24,1.52,19.57,1.52,20.25,0,.15,1.72,17.84,1.72,22.94s-2.74,8.6-3.89,8.89c-.05,0-.1,.01-.15,.01h.02Zm-32.97-12.35c3.75,.97,7.57,1.65,11.43,2.05,5.35,.43,9.23,.43,11.55,.43s8.16,2.63,9.08,4.47c.39,.99,.61,2.04,.66,3.1,0,.57,.11,1.14,.31,1.68,.63-.19,3.36-3.25,3.36-8.28s-1.7-22.73-1.71-22.91-.23-16.94-1.48-20.06c-1-2.48-8.04-3.64-10.66-3.87l-8.56-.64c-2.29,.06-8.4,.55-9.38,2-1.17,1.75-7.88,18.06-8.86,20.45l9.15,4.16c.12,.06,.19,.18,.19,.31l-.64,10.72c0,.12-.09,.23-.2,.28-.74,.28-2.74,1.23-3.03,2.16s-.97,3.15-1.2,3.96h0Z"/>
    <line id="Line_115" data-name="Line 115" class="cls-6" x1="114.08" y1="106.24" x2="114.3" y2="89.3"/>
    <path id="Path_161" data-name="Path 161" class="cls-7" d="M114.08,106.55h0c-.18,0-.32-.15-.32-.32l.21-16.94c0-.17,.14-.31,.32-.32h0c.17,0,.31,.15,.32,.32l-.21,16.94c0,.17-.15,.31-.32,.32Z"/>
    <path id="Path_162" data-name="Path 162" class="cls-7" d="M124.64,120.5h-.5c-3.18-.21-6.23-1.35-8.76-3.28-.13-.11-.15-.31-.04-.45,.11-.14,.31-.16,.45-.05,0,0,0,0,0,0,2.43,1.83,5.35,2.92,8.39,3.14,1.85,0,3.69-.24,5.47-.7,3.08-.66,5.98-1.29,8.24,.55,.14,.1,.18,.3,.07,.45-.1,.14-.3,.18-.45,.07-.01,0-.02-.02-.03-.03-2.03-1.64-4.78-1.05-7.7-.43-1.68,.42-3.41,.67-5.14,.73Z"/>
    <path id="Path_163" data-name="Path 163" class="cls-7" d="M119.69,121.53c-2.69-.01-5.37-.22-8.02-.62-.17-.03-.29-.19-.26-.36,0,0,0,0,0,0,.02-.17,.18-.29,.35-.27,0,0,0,0,.01,0,.09,0,9.22,1.47,15.08-.21,.17-.04,.34,.07,.38,.24,.04,.16-.05,.32-.21,.37-2.4,.61-4.87,.89-7.34,.84Z"/>
    <path id="Path_164" data-name="Path 164" class="cls-1" d="M122.77,71.34s-1.14,10.86-.81,11.84,3.72,5.52,7.62,3.57,4.54-4.06,4.54-4.06l-.97-6.02-9.73-6.16-.65,.83Z"/>
    <path id="Path_165" data-name="Path 165" class="cls-7" d="M127.62,87.54c-.66,0-1.31-.14-1.92-.4-1.74-.8-3.17-2.16-4.04-3.86-.33-.99,.61-10.15,.8-11.98,0-.06,.03-.12,.07-.16l.65-.82c.1-.12,.28-.15,.42-.07l9.75,6.16c.08,.05,.13,.13,.15,.22l.97,6.02s0,.1,0,.14c-.03,.09-.73,2.27-4.71,4.25-.66,.33-1.4,.5-2.14,.5Zm-4.54-16.08c-.44,4.18-1.03,10.95-.82,11.62,.81,1.53,2.1,2.76,3.68,3.48,1.12,.5,2.41,.46,3.5-.09,3.36-1.68,4.21-3.45,4.38-3.8l-.96-5.76-9.37-5.95-.41,.51Z"/>
    <path id="Path_166" data-name="Path 166" class="cls-7" d="M123.66,70.68l-.85,3.28s4.24,7.25,10.21,10.34c.47-.46,.85-1.02,1.09-1.64l-.97-6.02-9.48-5.97Z"/>
    <path id="Path_167" data-name="Path 167" class="cls-7" d="M133.09,84.71l-.21-.11c-5.98-3.09-10.16-10.16-10.33-10.46l-.07-.12,.99-3.83,9.99,6.33,1,6.19v.08c-.27,.66-.67,1.25-1.18,1.75l-.18,.18Zm-9.93-10.78c.55,.91,4.49,7.12,9.8,9.99,.35-.37,.63-.8,.84-1.26l-.94-5.76-9-5.7-.7,2.73Z"/>
    <path id="Path_168" data-name="Path 168" class="cls-7" d="M138.64,59.09c1.73-1.69,2.88-3.88,3.28-6.27,.31-3.45-5.8-5.01-5.8-5.01,0,0,3.45-1.25-.32-1.88s-13.14-.94-16.6,1.88c-1.96,1.44-3.31,3.57-3.76,5.95,0,0-3.14,0-3.45,1.57s2.35,1.41,2.35,1.41c0,0-5.17,4.85-4.38,7.99s6.43,6.9,7.66,7.52,3.28,2.04,5.02,.47,1.25-5.01,1.88-6.9,3.45-5.01,4.38-5.33,2.66,.16,5.17-.47c2.51-.63,4.56-.94,4.56-.94Z"/>
    <path id="Path_169" data-name="Path 169" class="cls-7" d="M120.88,73.76c-1.04-.09-2.04-.43-2.92-.98l-.48-.26c-1.37-.68-7.04-4.52-7.84-7.73-.67-2.68,2.61-6.4,3.95-7.77-.61-.02-1.19-.26-1.64-.67-.26-.3-.35-.71-.26-1.09,.3-1.52,2.67-1.77,3.49-1.82,.55-2.35,1.91-4.43,3.83-5.89,3.42-2.79,12.67-2.65,16.86-1.95,1.35,.22,1.97,.55,2.02,1.09,.04,.44-.39,.8-.85,1.06,1.71,.58,5.47,2.19,5.21,5.1-.32,3.53-3.28,6.35-3.39,6.48-.05,.04-.11,.07-.17,.08,0,0-2.05,.32-4.52,.94-1.21,.28-2.45,.4-3.68,.35-.49-.03-.99,0-1.47,.1-1.81,1.32-3.25,3.09-4.19,5.13-.2,.75-.33,1.52-.38,2.29-.17,1.7-.37,3.62-1.59,4.73-.54,.51-1.25,.79-1.99,.79h0Zm-6.52-17.33c.18,0,.32,.14,.32,.32,0,.09-.04,.17-.1,.23-.05,.05-5.03,4.77-4.3,7.66,.75,3,6.37,6.74,7.51,7.31l.47,.25c1.26,.67,2.83,1.51,4.19,.27,1.04-.95,1.23-2.74,1.38-4.33,.05-.82,.19-1.64,.41-2.44,.63-1.9,3.47-5.16,4.59-5.53,.54-.13,1.09-.18,1.64-.14,1.18,.04,2.37-.07,3.53-.34,2.19-.55,4.03-.86,4.47-.94,1.64-1.63,2.74-3.74,3.13-6.02,.28-3.14-5.5-4.66-5.56-4.68-.13-.03-.23-.15-.23-.29-.01-.14,.07-.27,.21-.32,.48-.13,.91-.39,1.23-.77h0s-.12-.27-1.49-.5c-4.09-.68-13.1-.85-16.36,1.81-1.87,1.41-3.16,3.45-3.64,5.74-.02,.16-.16,.28-.32,.28-.8,0-2.92,.24-3.14,1.31-.05,.19,0,.39,.12,.55,.56,.37,1.23,.54,1.9,.47l.05,.06Z"/>
    <path id="Path_170" data-name="Path 170" class="cls-1" d="M129.08,57.68s-2.19,1.88-3.76,3.45-3.6,2.98-3.45,5.33,1.41,3.76,.47,4.54-2.98-1.09-3.45-1.88-4.07,.15-3.6,2.51c.44,2.14,2.36,3.66,4.54,3.6,1.13,.05,2.22-.41,2.98-1.25,2.09,3.09,5.18,5.37,8.76,6.43,5.95,1.72,11.29-2.19,12.23-6.43s-4.84-16.78-4.84-16.78l-2.82,.94,.62-1.57s-3.28,3.28-5.47,3.45-2.2-2.33-2.2-2.33Z"/>
    <path id="Path_171" data-name="Path 171" class="cls-7" d="M134.49,81.14c-1.01,0-2.02-.15-2.99-.43-3.53-1.04-6.6-3.23-8.73-6.22-.81,.71-1.86,1.09-2.93,1.06-2.34,.05-4.37-1.57-4.85-3.86-.19-1.31,.63-2.56,1.91-2.9,.88-.34,1.94-.39,2.28,.17,.6,.88,1.46,1.54,2.46,1.9,.18,.04,.36,0,.51-.1,.38-.32,.25-.8-.05-1.77-.28-.81-.46-1.65-.55-2.51-.14-2.11,1.32-3.48,2.74-4.81,.27-.25,.55-.51,.8-.77,1.56-1.55,3.75-3.44,3.78-3.46,.1-.08,.23-.1,.34-.04,.11,.05,.19,.17,.19,.29,.01,.6,.24,1.18,.63,1.64,.33,.29,.78,.43,1.21,.37,2.05-.15,5.25-3.32,5.28-3.36,.11-.11,.27-.12,.4-.04,.13,.08,.18,.24,.12,.38l-.37,.94,2.19-.72c.15-.05,.32,.02,.39,.16,.23,.52,5.83,12.69,4.88,16.97-.63,2.39-2.2,4.42-4.35,5.64-1.59,.96-3.41,1.47-5.27,1.48Zm-11.67-7.48h0c.11,0,.2,.06,.26,.15,2.07,3.03,5.12,5.25,8.64,6.28,2.61,.78,5.42,.43,7.76-.96,2-1.12,3.47-3,4.06-5.22,.83-3.75-3.9-14.5-4.72-16.31l-2.55,.85c-.12,.04-.25,0-.33-.08-.08-.09-.11-.22-.06-.34l.1-.27c-1.18,1.01-3.13,2.47-4.65,2.58-.62,.07-1.23-.13-1.7-.55-.4-.41-.67-.93-.77-1.49-.72,.63-2.19,1.92-3.28,3.04-.26,.26-.55,.55-.82,.78-1.36,1.29-2.66,2.5-2.53,4.3,.07,.81,.24,1.6,.5,2.36,.31,.99,.55,1.85-.15,2.45-.29,.23-.66,.31-1.02,.23-1.19-.39-2.21-1.16-2.91-2.19-.07-.12-.66-.23-1.5,.09-.42,.16-1.79,.81-1.52,2.19,.4,2,2.19,3.42,4.23,3.35,1.03,.05,2.04-.36,2.74-1.13,.05-.07,.12-.11,.21-.13h0Z"/>
    <path id="Path_172" data-name="Path 172" class="cls-7" d="M136.45,67.55c-.18,.01-.33-.12-.34-.3-.01-.18,.12-.33,.3-.34,.01,0,.03,0,.04,0,.06,0,1.44,0,1.57-1.13,.02-.2-.04-.4-.16-.55-.49-.4-1.1-.63-1.74-.66-.1,0-.2-.06-.25-.15l-.94-1.57c-.09-.15-.05-.34,.1-.43,0,0,0,0,.01,0,.15-.09,.35-.04,.44,.11l.86,1.43c.75,.05,1.46,.36,2.01,.87,.25,.28,.36,.66,.31,1.03-.2,1.04-1.14,1.76-2.2,1.68Z"/>
    <path id="Path_173" data-name="Path 173" class="cls-7" d="M130.74,64.44c.28,.63,.22,1.28-.13,1.43s-.88-.22-1.16-.85-.22-1.28,.13-1.43,.87,.22,1.16,.85Z"/>
    <path id="Path_174" data-name="Path 174" class="cls-7" d="M137.73,62.07c.28,.63,.22,1.28-.13,1.43s-.88-.22-1.16-.86-.22-1.27,.13-1.43,.84,.23,1.16,.85Z"/>
    <path id="Path_175" data-name="Path 175" class="cls-7" d="M138.82,70.85c.28,.63,.22,1.27-.13,1.43s-.87-.22-1.16-.85-.22-1.28,.13-1.43,.85,.22,1.16,.86Z"/>
    <path id="Path_176" data-name="Path 176" class="cls-7" d="M126.89,63.17h-.09c-.17-.05-.27-.22-.22-.39,.03-.1,.71-2.58,2.35-2.58,.18-.01,.33,.12,.34,.3,.01,.18-.12,.33-.3,.34-.01,0-.03,0-.04,0-1.13,0-1.72,2.1-1.73,2.12-.04,.13-.17,.22-.31,.22h0Z"/>
    <path id="Path_177" data-name="Path 177" class="cls-7" d="M138.17,60.04c-.08,0-.16-.03-.22-.09-.53-.61-1.46-.67-2.07-.14-.13,.11-.33,.1-.45-.03-.11-.13-.1-.33,.03-.45,.86-.76,2.17-.68,2.94,.18,.12,.12,.13,.32,0,.44,0,0,0,0,0,0-.06,.06-.14,.09-.22,.09Z"/>
    <path id="Path_178" data-name="Path 178" class="cls-4" d="M102.5,163.68c-.82,2.97-2.37,5.69-4.5,7.91-3.43,3.43-1.95,7.62,.21,7.93,3.65,.54,7.27-1.15,9.22-4.29,1.07-2.15,.86-4.5,1.29-5.36s2.57-2.36,2.57-4.72-3.83-5.36-3.83-5.36l-4.96,3.88Z"/>
    <path id="Path_179" data-name="Path 179" class="cls-7" d="M99.52,179.96c-.45,0-.9-.03-1.35-.09-1.12-.25-2-1.11-2.28-2.22-.62-2.27,.11-4.7,1.88-6.25,2.09-2.19,3.61-4.86,4.42-7.78,.02-.07,.05-.13,.11-.18l4.93-3.83c.12-.09,.28-.09,.39,0,.16,.13,3.98,3.13,3.98,5.61-.13,1.54-.83,2.98-1.96,4.04-.24,.25-.46,.52-.65,.82-.16,.47-.26,.97-.29,1.47-.1,1.34-.44,2.66-1,3.89-1.76,2.82-4.86,4.54-8.19,4.53Zm3.28-16.09c-.84,2.99-2.41,5.73-4.56,7.97-1.59,1.39-2.26,3.56-1.73,5.61,.21,.88,.89,1.57,1.76,1.79,3.52,.52,7.01-1.1,8.89-4.12,.52-1.16,.84-2.41,.94-3.68,.03-.57,.15-1.14,.35-1.67,.21-.35,.46-.67,.74-.96,1.03-.94,1.67-2.23,1.8-3.62,0-1.88-2.78-4.32-3.55-4.93l-4.64,3.61Z"/>
    <path id="Path_180" data-name="Path 180" class="cls-1" d="M107.43,175.26c1.09-2.15,.86-4.5,1.29-5.36s2.57-2.36,2.57-4.72c-.04-.6-.23-1.19-.55-1.7-1.26,2.89-2.74,5.21-3.97,8.13s-1.72,5.14-5.36,6.22c-1.92,.6-4.02,.08-5.44-1.34-.03,1.4,.88,2.65,2.22,3.05,3.66,.54,7.28-1.15,9.23-4.29Z"/>
    <path id="Path_181" data-name="Path 181" class="cls-7" d="M99.52,179.96c-.45,0-.9-.03-1.35-.09-1.5-.41-2.53-1.79-2.5-3.34,0-.13,.06-.26,.18-.32,.12-.05,.26-.03,.35,.06,1.35,1.33,3.32,1.82,5.13,1.26,3.05-.9,3.72-2.52,4.71-4.97,.14-.34,.28-.7,.44-1.07,.65-1.51,1.36-2.88,2.05-4.21,.65-1.24,1.31-2.53,1.93-3.93,.05-.11,.15-.19,.27-.19,.12-.01,.24,.05,.3,.16,.34,.56,.53,1.2,.55,1.86-.13,1.54-.83,2.98-1.96,4.04-.24,.25-.46,.52-.65,.82-.16,.47-.26,.97-.29,1.47-.1,1.34-.44,2.66-1,3.89-1.74,2.85-4.84,4.58-8.17,4.56Zm-3.05-2.65c.18,.93,.88,1.68,1.79,1.93,3.52,.52,7.01-1.1,8.89-4.12,.52-1.16,.84-2.41,.94-3.68,.03-.57,.15-1.14,.35-1.67,.21-.35,.46-.67,.74-.96,1.03-.94,1.67-2.23,1.8-3.62-.01-.32-.08-.64-.2-.94-.55,1.18-1.09,2.27-1.64,3.34-.68,1.31-1.38,2.67-2.03,4.16l-.44,1.05c-.99,2.43-1.77,4.38-5.12,5.34-1.73,.55-3.62,.24-5.08-.83h0Z"/>
    <path id="Path_182" data-name="Path 182" class="cls-1" d="M110.86,122.74s-11.58,4.52-17.36,7.29,0,12,.64,15,7.93,20.15,7.93,20.15c0,0,4.29,.86,5.79-1.71s-1.09-6.43-1.09-6.43l-4.48-21.03s25.72-6.02,27.87-8.36,.43-4.51-.43-4.51-18.86-.41-18.86-.41Z"/>
    <path id="Path_183" data-name="Path 183" class="cls-7" d="M103.69,165.64c-.56,0-1.13-.05-1.68-.15-.11-.02-.2-.09-.23-.19-.3-.7-7.31-17.21-7.95-20.21-.27-.95-.6-1.88-1.01-2.77-1.68-4.1-4.21-10.3,.55-12.59,5.74-2.74,17.27-7.25,17.39-7.3,.04,0,.08,0,.12,0,.18,0,18.01,.43,18.86,.43,.71,.13,1.3,.63,1.54,1.31,.52,1.3,.17,2.79-.87,3.73-2.09,2.29-24.68,7.66-27.73,8.39l4.4,20.62c.32,.5,2.56,4.14,1.05,6.72-.97,1.68-2.98,2.01-4.43,2.01Zm-1.4-.74c.77,.12,4.08,.48,5.29-1.59,1.38-2.37-1.03-6.06-1.06-6.1-.02-.03-.04-.07-.04-.11l-4.51-21.01c-.03-.17,.07-.34,.24-.38,7.12-1.64,26-6.39,27.7-8.26,.87-.75,1.18-1.97,.76-3.04-.25-.55-.72-.92-.95-.92-.83,0-17.45-.4-18.81-.43-.9,.35-11.78,4.61-17.28,7.26-4.21,2.03-1.82,7.89-.23,11.77,.42,.93,.77,1.9,1.05,2.88,.58,2.78,7.1,18.18,7.84,19.93h0Z"/>
    <path id="Path_184" data-name="Path 184" class="cls-7" d="M110,122.74l-12.86,5.36s4.72-.64,7.93,1.93,4.93,7.54,4.93,7.54c0,0,18.22-7.12,20.58-8.62s1.5-4.93,0-5.36-20.57-.86-20.57-.86Z"/>
    <path id="Path_185" data-name="Path 185" class="cls-7" d="M110.01,137.89s-.09,0-.14-.03c-.08-.04-.14-.1-.16-.19,0-.05-1.73-4.93-4.83-7.4s-7.66-1.87-7.66-1.86c-.17,.03-.34-.08-.37-.25-.03-.15,.06-.31,.21-.36l12.86-5.36s.08,0,.13,0c.78,0,19.16,.43,20.66,.87,.95,.41,1.58,1.33,1.64,2.36,.25,1.4-.37,2.81-1.57,3.57-2.36,1.5-19.89,8.35-20.63,8.64-.04,0-.08,0-.13,0Zm-11.1-10.18c2.29,0,4.52,.72,6.37,2.07,2.21,2.03,3.89,4.56,4.93,7.38,2.39-.94,18.06-7.12,20.21-8.47,.98-.63,1.49-1.79,1.29-2.95-.04-.78-.5-1.49-1.2-1.84-1.19-.34-15.08-.72-20.43-.85l-11.16,4.65Z"/>
    <path id="Path_186" data-name="Path 186" class="cls-5" d="M122.01,148.47l-7.4-4c-.12-1.71,.99-3.27,2.65-3.71,3.01-1.06,5.66-.55,6.02,.35s-1.27,7.36-1.27,7.36Z"/>
    <path id="Path_187" data-name="Path 187" class="cls-7" d="M122.01,148.79c-.05,0-.1-.02-.15-.04l-7.41-3.98c-.09-.05-.15-.14-.16-.24-.12-1.86,1.07-3.55,2.86-4.06,3.06-1.09,5.96-.6,6.41,.55,.38,.94-.97,6.45-1.25,7.55-.03,.09-.09,.17-.18,.21-.04,0-.09,0-.13,0Zm-7.12-4.51l6.89,3.72c.74-3.03,1.37-6.29,1.18-6.76-.26-.66-2.74-1.18-5.61-.17-1.45,.39-2.45,1.71-2.43,3.21h-.02Z"/>
    <path id="Path_188" data-name="Path 188" class="cls-1" d="M109.14,134.53c-.81,2.16-1.81,4.24-3,6.22-1.07,1.29-16.08,19.08-16.08,19.08l2.57,5.79s12-6.64,16.5-10.5,9-11.98,9-11.98l3.83-1.93s-5.12-9.02-12.83-6.67Z"/>
    <path id="Path_189" data-name="Path 189" class="cls-7" d="M92.64,165.93s-.07,0-.1,0c-.08-.03-.15-.09-.19-.18l-2.57-5.79c-.05-.11-.03-.24,.05-.33,.15-.18,15.01-17.81,16.07-19.08,1.17-1.95,2.16-4,2.95-6.12,.04-.09,.11-.16,.2-.19,7.87-2.4,13.18,6.7,13.23,6.79,.09,.15,.03,.35-.12,.43,0,0-.01,0-.02,0l-3.77,1.88c-.55,.94-4.73,8.33-9.03,12.01-4.47,3.83-16.42,10.47-16.56,10.54-.05,.02-.1,.03-.15,.02Zm-2.19-6.05l2.35,5.29c1.9-1.06,12.12-6.85,16.15-10.3,4.38-3.77,8.89-11.83,8.93-11.92,.03-.05,.08-.1,.14-.13l3.55-1.77c-.95-1.48-5.64-8.13-12.17-6.25-.79,2.15-1.8,4.21-2.99,6.16-1,1.2-14.49,17.18-15.96,18.93h.01Z"/>
    <path id="Path_190" data-name="Path 190" class="cls-7" d="M121.37,127.03l-12.22,7.51c3.56,1.22,6.69,3.45,9,6.41,3.41,4.7,3.83,7.5,3.83,7.5,0,0,3-4.72,6.86-6.64,3.85-1.93,11.36-3,13.51-6.43s.21-7.29-3-9.22-15.64-1.29-15.64-1.29"/>
    <path id="Path_191" data-name="Path 191" class="cls-7" d="M122.01,148.78h-.07c-.13-.03-.23-.13-.25-.26,0,0-.47-2.79-3.83-7.37-2.28-2.91-5.35-5.1-8.84-6.31-.12-.04-.2-.14-.22-.27-.02-.12,.04-.25,.15-.31l12.22-7.5c.15-.09,.35-.04,.44,.11,.09,.15,.04,.35-.11,.44l-11.65,7.15c3.37,1.27,6.32,3.46,8.52,6.32,1.62,2.08,2.89,4.42,3.74,6.92,1.7-2.52,3.95-4.62,6.57-6.16,1.55-.7,3.14-1.29,4.77-1.77,3.39-1.09,7.24-2.35,8.6-4.54,.8-1.23,1.05-2.74,.7-4.17-.55-1.95-1.84-3.6-3.6-4.6-3.1-1.86-15.33-1.25-15.47-1.24-.17,.02-.32-.1-.34-.27,0,0,0-.02,0-.03,0-.18,.13-.33,.31-.34,0,0,0,0,0,0,.51-.03,12.59-.62,15.82,1.34,1.91,1.08,3.31,2.88,3.89,5,.39,1.59,.11,3.28-.78,4.66-1.49,2.39-5.28,3.62-8.95,4.81-1.6,.47-3.16,1.05-4.68,1.74-3.73,1.87-6.71,6.48-6.74,6.53-.05,.08-.14,.13-.23,.14h0Z"/>
    <path id="Path_192" data-name="Path 192" class="cls-4" d="M91.36,159.4s-1.5-2.79-3.21-6.64-4.51-6.86-7.29-3.86-1.09,10.72,0,12.65,3.21,3.64,3.65,5.14,.85,4.93,5.36,3.43,3.65-5.36,3.65-5.36c-.83-1.74-1.55-3.53-2.15-5.36Z"/>
    <path id="Path_193" data-name="Path 193" class="cls-7" d="M87.86,170.81c-.57,.02-1.13-.11-1.64-.38-1.07-.76-1.78-1.94-1.95-3.24l-.11-.42c-.42-.95-1.01-1.82-1.74-2.55-.7-.78-1.33-1.62-1.88-2.52-1.12-2.02-2.9-9.85,.04-13.02,.72-.93,1.88-1.42,3.05-1.29,2.29,.38,3.97,3.44,4.77,5.23,1.69,3.83,3.19,6.6,3.2,6.62,.01,.02,.02,.05,.03,.08,.59,1.81,1.3,3.58,2.12,5.3,.01,.02,.02,.04,.03,.07,0,.04,.86,4.16-3.86,5.73-.66,.24-1.36,.37-2.06,.39h0Zm-4.65-22.81c-.83,.05-1.6,.45-2.12,1.09-2.57,2.77-1.05,10.3,.04,12.28,.52,.86,1.13,1.68,1.81,2.43,.8,.8,1.43,1.75,1.87,2.79,.04,.13,.07,.28,.12,.43,.14,1.13,.73,2.16,1.64,2.84,1.03,.42,2.18,.4,3.2-.05,4-1.34,3.51-4.58,3.44-4.96-.83-1.73-1.55-3.52-2.14-5.34-.18-.33-1.61-3.04-3.21-6.63-1.26-2.85-2.82-4.61-4.29-4.86-.12-.01-.24-.01-.36,0Z"/>
    <path id="Path_194" data-name="Path 194" class="cls-1" d="M92.33,168.63c-.11-.85-.33-1.68-.66-2.47-1.23-3.08-4.01-13.41-6.62-15.71-1.13-1.08-2.65-1.65-4.21-1.55-2.79,3-1.09,10.72,0,12.65s3.21,3.64,3.65,5.14,.85,4.93,5.36,3.43c.94-.29,1.79-.8,2.48-1.49Z"/>
    <path id="Path_195" data-name="Path 195" class="cls-7" d="M87.86,170.81c-.57,.02-1.13-.11-1.64-.38-1.07-.76-1.78-1.94-1.95-3.24l-.11-.42c-.42-.95-1.01-1.82-1.74-2.55-.7-.78-1.33-1.62-1.88-2.52-1.12-2.02-2.9-9.85,.04-13.02,.06-.05,.14-.08,.21-.08,1.64-.1,3.26,.49,4.44,1.64,2.02,1.78,4.03,7.89,5.51,12.35,.48,1.45,.89,2.71,1.2,3.48,.33,.82,.56,1.67,.68,2.55,.01,.1-.02,.19-.09,.26-.73,.73-1.63,1.27-2.61,1.57-.67,.23-1.37,.35-2.08,.35Zm-6.86-21.6c-2.46,2.84-.96,10.22,.13,12.18,.52,.86,1.13,1.68,1.81,2.43,.8,.8,1.43,1.75,1.87,2.79,.04,.13,.07,.28,.12,.43,.14,1.13,.73,2.16,1.64,2.84,1.03,.42,2.18,.4,3.2-.05,.84-.26,1.6-.7,2.24-1.3-.12-.77-.32-1.52-.61-2.23-.32-.79-.73-2.06-1.22-3.53-1.36-4.14-3.43-10.4-5.32-12.07-1.03-.99-2.42-1.53-3.85-1.48Z"/>
    <path id="Path_196" data-name="Path 196" class="cls-1" d="M82.56,149.97c-.95-.54-2.16-.21-2.7,.74-.01,.02-.02,.04-.03,.06-1.18,3.57,.15,9.17,1.04,10.78,1.09,1.93,3.21,3.64,3.65,5.14s.85,4.82,5.17,3.49v-2.63c-.04-3.65-3.26-15.87-7.12-17.58Z"/>
    <path id="Path_197" data-name="Path 197" class="cls-7" d="M87.87,170.79c-.57,.01-1.13-.12-1.64-.39-1.05-.78-1.74-1.94-1.93-3.23-.03-.14-.07-.28-.1-.4-.42-.95-1.01-1.82-1.74-2.55-.7-.78-1.33-1.62-1.88-2.52-.88-1.59-2.31-7.26-1.06-11.03,0-.02,.02-.05,.03-.07,.59-1.12,1.97-1.55,3.09-.96,.02,.01,.04,.02,.07,.04h0c4.16,1.86,7.26,14.44,7.26,17.87v2.63c0,.14-.09,.26-.22,.3-.61,.2-1.24,.31-1.88,.32Zm-7.77-19.89c-1.15,3.54,.21,9.01,1.03,10.48,.52,.86,1.13,1.68,1.81,2.43,.8,.8,1.43,1.75,1.87,2.79l.11,.42c.14,1.13,.73,2.15,1.64,2.83,.89,.39,1.9,.42,2.82,.08v-2.39c0-3.87-3.34-15.71-6.88-17.29h0c-.8-.49-1.85-.24-2.34,.56-.02,.03-.03,.06-.05,.08h0Z"/>
    <path id="Path_198" data-name="Path 198" class="cls-1" d="M140.02,105.16l4.72,34.3s2.57,1.71,3.64,1.71,5.23-.55,5.23-.55c.24,.58,.67,1.07,1.21,1.38,.85,.43,2.07-.76,3.28-1.64,1.57-1.09-.82-2.27-1.03-2.92s-8.28-2.32-8.28-2.32l-1.93-32.58-6.84,2.61Z"/>
    <path id="Path_199" data-name="Path 199" class="cls-7" d="M155.21,142.43c-.19,0-.38-.04-.55-.13-.55-.3-.99-.76-1.26-1.32-.9,.12-4.09,.51-5.04,.51-1.13,0-3.55-1.59-3.83-1.77-.08-.05-.13-.13-.14-.22l-4.72-34.3c-.02-.15,.06-.29,.2-.34l6.86-2.57c.09-.03,.2-.02,.28,.03,.08,.06,.14,.15,.14,.25l1.92,32.34c5.32,1.09,8.1,1.94,8.28,2.47,.14,.2,.32,.39,.51,.55,.5,.47,1.12,1.05,1.09,1.72-.06,.42-.3,.79-.67,1-.24,.17-.48,.35-.72,.55-.66,.63-1.48,1.05-2.37,1.23Zm-1.61-2.1c.13,0,.25,.08,.3,.21,.21,.51,.58,.93,1.05,1.2,.51,.26,1.38-.41,2.23-1.05,.25-.18,.49-.37,.74-.55,.21-.12,.35-.32,.39-.55,0-.38-.47-.84-.87-1.21-.27-.21-.49-.48-.66-.78-.46-.39-4.43-1.4-8.06-2.15-.14-.03-.24-.15-.25-.3l-1.9-32.15-6.22,2.36,4.66,33.94c1.01,.73,2.14,1.26,3.34,1.58,1.04,0,5.14-.55,5.19-.55h.04Z"/>
    <path id="Path_200" data-name="Path 200" class="cls-7" d="M155.53,141.11c-.18,0-.32-.15-.31-.33,0-.13,.09-.25,.21-.29,.08-.03,.16-.06,.23-.11-.29-.13-.59-.24-.89-.33l-.96,.84c-.13,.11-.33,.1-.45-.03s-.1-.33,.03-.45h0l1.09-.95c.08-.07,.19-.1,.3-.07,1.51,.43,1.61,.73,1.64,.85,.04,.12,.02,.26-.06,.37-.2,.23-.45,.4-.74,.5-.03,.01-.06,.02-.09,.02Z"/>
    <path id="Path_201" data-name="Path 201" class="cls-1" d="M150.09,136.46c.89,.46,1.82,.82,2.79,1.09,1.09,.21,5.36,0,4.93,1.29s-4.07,.65-4.07,.65c-1.23,.54-2.53,.91-3.86,1.09-1.18-.12-2.33-.41-3.43-.86"/>
    <path id="Path_202" data-name="Path 202" class="cls-7" d="M149.87,140.85c-1.22-.12-2.41-.42-3.55-.88-.16-.06-.24-.25-.18-.41,0,0,0,0,0,0,.06-.16,.24-.24,.4-.18,0,0,0,0,0,0,1.06,.43,2.17,.71,3.31,.83,1.29-.18,2.55-.53,3.74-1.05,.06-.01,.12-.01,.18,0,1.4,.25,3.48,.28,3.71-.43,.02-.04,.02-.1,0-.14-.31-.45-2.27-.55-3.32-.61-.46-.01-.91-.05-1.37-.12-.99-.27-1.95-.63-2.86-1.09-.13-.13-.13-.33,0-.46,.07-.08,.18-.11,.29-.09,.86,.44,1.77,.79,2.7,1.05,.43,.06,.86,.1,1.29,.11,1.88,.1,3.36,.23,3.8,.89,.14,.21,.17,.47,.09,.7-.47,1.41-3.51,1.01-4.34,.87-1.26,.49-2.57,.83-3.91,1.01Z"/>
    <path id="Path_203" data-name="Path 203" class="cls-4" d="M137.87,92.3l-.43,15.65,13.08-4.72s-6.02-18.22-7.72-19.51"/>
    <path id="Path_204" data-name="Path 204" class="cls-7" d="M137.44,108.27c-.07,0-.13-.02-.19-.06-.09-.06-.14-.16-.13-.27l.43-15.65c0-.17,.15-.31,.32-.31h0c.18,0,.31,.15,.31,.32l-.42,15.18,12.34-4.45c-2.41-7.29-6.33-18.17-7.51-19.06-.14-.11-.17-.31-.07-.45,.11-.14,.31-.16,.45-.06,1.75,1.31,7.21,17.78,7.83,19.66,.06,.16-.03,.34-.19,.4l-13.08,4.72s-.06,.01-.09,.02Z"/>
  </g>
</svg>