<?xml version="1.0" encoding="UTF-8"?>
<svg id="_2" data-name=" 2" xmlns="http://www.w3.org/2000/svg" xmlns:xlink="http://www.w3.org/1999/xlink" viewBox="0 0 218.03 200.5">
  <defs>
    <style>
      .cls-1, .cls-2, .cls-3, .cls-4, .cls-5, .cls-6, .cls-7, .cls-8, .cls-9, .cls-10, .cls-11, .cls-12, .cls-13, .cls-14 {
        stroke-linecap: round;
      }

      .cls-1, .cls-2, .cls-3, .cls-4, .cls-5, .cls-6, .cls-7, .cls-8, .cls-9, .cls-10, .cls-11, .cls-13, .cls-14 {
        stroke: #263238;
      }

      .cls-1, .cls-3, .cls-5, .cls-6, .cls-12 {
        stroke-miterlimit: 10;
      }

      .cls-1, .cls-15, .cls-10 {
        fill: #2d2d2d;
      }

      .cls-2 {
        fill: #d1d1d1;
      }

      .cls-2, .cls-7, .cls-8, .cls-10, .cls-14 {
        stroke-linejoin: round;
      }

      .cls-3, .cls-5, .cls-16, .cls-8, .cls-12 {
        fill: none;
      }

      .cls-4 {
        stroke-miterlimit: 10;
        stroke-width: 1px;
      }

      .cls-4, .cls-6, .cls-7, .cls-17, .cls-9, .cls-11, .cls-13, .cls-14 {
        fill: #fff;
      }

      .cls-5 {
        stroke-width: 2px;
      }

      .cls-18 {
        fill: #004812;
      }

      .cls-19 {
        fill: #ddb724;
      }

      .cls-20 {
        clip-path: url(#clippath);
      }

      .cls-17 {
        isolation: isolate;
        opacity: .7;
      }

      .cls-9 {
        stroke-miterlimit: 10;
        stroke-width: 1px;
      }

      .cls-11 {
        stroke-miterlimit: 10;
        stroke-width: 1px;
      }

      .cls-12 {
        stroke: #858585;
      }

      .cls-13 {
        stroke-miterlimit: 10;
        stroke-width: 1px;
      }

      .cls-14 {
        stroke-width: 1px;
      }
    </style>
    <clipPath id="clippath">
      <rect class="cls-16" x="66.99" y="112.13" width="147.86" height="73.47"/>
    </clipPath>
  </defs>
  <g id="Background_Simple" data-name="Background Simple">
    <path id="Path_205" data-name="Path 205" class="cls-19" d="M215.41,120.13s10.95-57.9-18.89-90.79C170.19,.33,128.51-10.96,94.51,13.03c-12.11,8.55-20.93,25.14-35.09,30.28-15.86,5.75-36.26,7.8-50.98,32.45-14.73,24.66-9.44,56.28,10.2,73.11,19.64,16.83,54.01,.41,84.97-.82,30.97-1.23,95.58,43.56,111.81-27.92Z"/>
    <path id="Path_206" data-name="Path 206" class="cls-17" d="M215.41,120.13s10.95-57.9-18.89-90.79C170.19,.33,128.51-10.96,94.51,13.03c-12.11,8.55-20.93,25.14-35.09,30.28-15.86,5.75-36.26,7.8-50.98,32.45-14.73,24.66-9.44,56.28,10.2,73.11,19.64,16.83,54.01,.41,84.97-.82,30.97-1.23,95.58,43.56,111.81-27.92Z"/>
  </g>
  <g id="Plants">
    <path id="Path_207" data-name="Path 207" class="cls-18" d="M33.02,67.82s0-2.64-3.69-6.34-6.06-5.8-6.06-5.8c0,0-1.84,6.07,1.58,9.75,2.52,2.6,5.25,4.98,8.17,7.12v-4.73Z"/>
    <path id="Path_208" data-name="Path 208" class="cls-18" d="M27.66,84.29s0-2.64-3.69-6.34-6.06-5.8-6.06-5.8c0,0-1.84,6.06,1.58,9.75,2.52,2.6,5.26,4.98,8.17,7.12v-4.73Z"/>
    <path id="Path_209" data-name="Path 209" class="cls-18" d="M32.79,72.31s.28-2.62,4.34-5.9,6.65-5.13,6.65-5.13c0,0,1.19,6.23-2.61,9.54-2.78,2.31-5.75,4.39-8.88,6.21l.5-4.72Z"/>
    <path id="Path_210" data-name="Path 210" class="cls-18" d="M26.32,91.76s.55-2.58,4.94-5.42,7.14-4.39,7.14-4.39c0,0,.53,6.34-3.59,9.21-3.01,2.01-6.18,3.77-9.48,5.25l.99-4.65Z"/>
    <path id="Path_211" data-name="Path 211" class="cls-18" d="M27.53,112.96s0-2.64,3.69-6.34,6.07-5.8,6.07-5.8c0,0,1.84,6.06-1.58,9.75-2.52,2.6-5.25,4.98-8.17,7.12v-4.73Z"/>
    <path id="Path_212" data-name="Path 212" class="cls-18" d="M27.47,118.14s.38-2.61-2.75-6.79-5.19-6.6-5.19-6.6c0,0-2.68,5.74,.18,9.88,2.13,2.93,4.5,5.67,7.08,8.21l.68-4.7Z"/>
    <path id="Path_213" data-name="Path 213" class="cls-18" d="M23.83,133.48s0-2.64,3.69-6.34,6.06-5.8,6.06-5.8c0,0,1.84,6.06-1.58,9.75-2.52,2.6-5.25,4.98-8.17,7.12v-4.73Z"/>
    <path id="Path_214" data-name="Path 214" class="cls-18" d="M26.3,147.39s-.67-2.55,1.95-7.06,4.39-7.14,4.39-7.14c0,0,3.32,5.4,.94,9.84-1.78,3.15-3.82,6.15-6.11,8.96l-1.17-4.6Z"/>
    <path id="Path_215" data-name="Path 215" class="cls-8" d="M33.35,67.15c-.19,2.75-.52,5.48-1.01,8.19-1.46,7.54-5.11,12.4-6.57,19.21s2.73,15.6,1.6,24.33c-1.13,8.73-4.52,13.61-3.55,19.45s6.08,21.64,6.08,21.64"/>
    <line id="Line_116" data-name="Line 116" class="cls-8" x1="32.75" y1="74.07" x2="36.73" y2="71.01"/>
    <line id="Line_117" data-name="Line 117" class="cls-8" x1="32.94" y1="70.55" x2="31.27" y2="67.59"/>
    <path id="Path_216" data-name="Path 216" class="cls-8" d="M26,94.23s3.33-2.49,6.76-5"/>
    <path id="Path_217" data-name="Path 217" class="cls-8" d="M27.66,89.03c-1.66-3.21-3.64-6.24-5.92-9.05"/>
    <path id="Path_218" data-name="Path 218" class="cls-8" d="M27.67,116.72c1.9-3.5,4.3-6.71,7.12-9.53"/>
    <path id="Path_219" data-name="Path 219" class="cls-8" d="M27.02,120.41c-1.01-2.37-2.22-4.65-3.61-6.82-1.95-2.87-2.22-3.24-2.22-3.24"/>
    <path id="Path_220" data-name="Path 220" class="cls-8" d="M23.83,138.33c.84-2.1,1.85-4.12,3-6.07,1.16-1.8,2.46-3.5,3.9-5.09"/>
    <path id="Path_221" data-name="Path 221" class="cls-8" d="M27.5,151.98c-.19-2,.14-4.02,.97-5.85,1.36-2.69,2.96-6.19,3.61-7.58"/>
    <path id="Path_222" data-name="Path 222" class="cls-18" d="M8.85,103.05s-.29-1.66,1.63-4.39,3.17-4.28,3.17-4.28c0,0,1.81,3.6,.07,6.29-1.3,1.91-2.75,3.7-4.35,5.36l-.52-2.99Z"/>
    <path id="Path_223" data-name="Path 223" class="cls-18" d="M13.98,112.79s-.29-1.65,1.63-4.39,3.19-4.27,3.19-4.27c0,0,1.82,3.6,.07,6.29-1.3,1.9-2.76,3.7-4.35,5.36l-.53-3Z"/>
    <path id="Path_224" data-name="Path 224" class="cls-18" d="M9.49,105.84s-.49-1.61-3.36-3.23-4.72-2.49-4.72-2.49c0,0-.09,4.02,2.67,5.69,2,1.15,4.08,2.13,6.24,2.92l-.82-2.9Z"/>
    <path id="Path_225" data-name="Path 225" class="cls-18" d="M15.65,117.33s-.63-1.55-3.69-2.86-4.96-1.98-4.96-1.98c0,0,.35,4.02,3.25,5.36,2.11,.93,4.29,1.69,6.52,2.26l-1.12-2.78Z"/>
    <path id="Path_226" data-name="Path 226" class="cls-18" d="M17.19,130.76s-.28-1.66-3-3.57-4.43-2.98-4.43-2.98c0,0-.49,4.01,2.05,5.95,1.86,1.35,3.84,2.55,5.9,3.57l-.52-2.96Z"/>
    <path id="Path_227" data-name="Path 227" class="cls-18" d="M17.79,134s-.52-1.59,.97-4.56,2.52-4.7,2.52-4.7c0,0,2.3,3.31,.97,6.22-1.02,2.07-2.2,4.05-3.55,5.92l-.93-2.88Z"/>
    <path id="Path_228" data-name="Path 228" class="cls-18" d="M22.42,147.34s.19-1.67,2.79-3.73,4.25-3.23,4.25-3.23c0,0,.73,3.97-1.71,6.05-1.78,1.46-3.68,2.76-5.68,3.9l.34-3Z"/>
    <path id="Path_229" data-name="Path 229" class="cls-18" d="M21.74,143.22s-.29-1.66-3-3.57-4.44-2.98-4.44-2.98c0,0-.49,4.01,2.05,5.95,1.87,1.35,3.84,2.55,5.91,3.57l-.53-2.96Z"/>
    <path id="Path_230" data-name="Path 230" class="cls-18" d="M21.7,152.21s.14-1.67-2-4.21-3.53-4.01-3.53-4.01c0,0-1.5,3.75,.49,6.27,1.46,1.78,3.06,3.44,4.8,4.96l.24-3.01Z"/>
    <path id="Path_231" data-name="Path 231" class="cls-18" d="M8.57,102.67c.41,1.7,.92,3.37,1.52,5.01,1.74,4.57,4.55,7.22,6.2,11.34s0,10.07,1.63,15.43,4.35,8.04,4.35,11.81-1.46,14.24-1.46,14.24"/>
    <line id="Line_118" data-name="Line 118" class="cls-16" x1="9.69" y1="106.93" x2="6.87" y2="105.45"/>
    <line id="Line_119" data-name="Line 119" class="cls-16" x1="9.19" y1="104.75" x2="9.92" y2="102.71"/>
    <path id="Path_232" data-name="Path 232" class="cls-18" d="M16.12,118.85s-2.36-1.21-4.78-2.4"/>
    <path id="Path_233" data-name="Path 233" class="cls-18" d="M14.51,115.77c.69-2.2,1.6-4.32,2.73-6.34"/>
    <path id="Path_234" data-name="Path 234" class="cls-18" d="M17.51,133.13c-1.57-1.99-3.41-3.74-5.48-5.2"/>
    <path id="Path_235" data-name="Path 235" class="cls-18" d="M18.32,135.38c.37-1.6,.87-3.17,1.51-4.68,.91-2.01,1.04-2.27,1.04-2.27"/>
    <path id="Path_236" data-name="Path 236" class="cls-18" d="M22.13,149.12c.92-1.14,1.94-2.19,3.04-3.15,.69-.52,1.35-1.09,1.95-1.72"/>
    <path id="Path_237" data-name="Path 237" class="cls-18" d="M22.27,146.26c-.76-1.22-1.6-2.39-2.54-3.48-.92-1-1.92-1.93-2.99-2.77"/>
    <path id="Path_238" data-name="Path 238" class="cls-18" d="M21.45,155.22c-.1-1.28-.54-2.5-1.27-3.55-1.16-1.53-2.54-3.56-3.08-4.39"/>
    <path id="Path_239" data-name="Path 239" class="cls-10" d="M32.3,185.6h-15.4c-.67,0-1.21-.54-1.21-1.21l-3.82-25.52h25.48l-3.82,25.52c0,.67-.55,1.22-1.22,1.21,0,0,0,0,0,0Z"/>
  </g>
  <g id="Desk">
    <path id="Path_240" data-name="Path 240" class="cls-10" d="M123.37,56.82l17.48,.14s1.15-.14,1.46,.73c0,0,3.04,7.65,3.18,10.4s-.58,2.3,.58,5.92,4.47,12.13,6.34,19.07c2.52,9.31,3.18,19.2,3.34,28.82,.02,1.55,.95,14.82-1.46,14.82-1.99,0-20.38,2.44-20.6-1.11-.88-14.13,1.67-27.93-3.24-41.67-1.91-5.34-4.09-10.97-5.71-16.57s-1.9-11.39-2.95-17.1c-.72-3.89,1.59-3.45,1.59-3.45Z"/>
    <path id="Path_241" data-name="Path 241" class="cls-2" d="M121.66,58.55c.18-2.02,1.71-1.73,1.71-1.73l17.48,.14s1.15-.14,1.46,.73c0,0,3.04,7.65,3.18,10.4,.04,.72,.02,1.45-.06,2.17l-.37,.57s-.58,5.05-7.51,5.36-10.83-2.88-12.27-5.92-2.02-7.94-3.18-10.83c-.13-.3-.27-.6-.43-.89Z"/>
    <path id="Path_242" data-name="Path 242" class="cls-2" d="M125.71,64.17c1.17,4.22,.49,5.39,1.64,12.68s5.39,15.47,7.03,22.97,.94,33.99,.7,35.16c-.09,.62-.12,1.25-.1,1.88-.78-.29-1.27-.69-1.3-1.25-.88-14.13,1.67-27.93-3.24-41.67-1.91-5.34-4.09-10.97-5.71-16.57s-1.9-11.39-2.95-17.1c-.45-2.4,.25-3.15,.86-3.38h0c1.33,2.29,2.36,4.74,3.07,7.29Z"/>
    <path id="Path_243" data-name="Path 243" class="cls-10" d="M159.46,170.83l.12-.09v-16.31h-2.34v-10.33h8.67v10.33h-2.34v16.57l20.74,6.61v1.64c0,1.04-.84,1.88-1.88,1.88s-1.88-.84-1.88-1.88v-.23l-17.35-2.01v2.49c-.05,.91-.82,1.6-1.73,1.55-.84-.04-1.51-.71-1.55-1.55v-2.57l-18.03,2.09v.23c0,1.04-.84,1.88-1.88,1.88-1.04,0-1.88-.84-1.88-1.88h0v-1.64l21.32-6.77Z"/>
    <rect id="Rectangle_192" data-name="Rectangle 192" class="cls-10" x="132.36" y="134.06" width="56.26" height="11.96" rx="4.61" ry="4.61"/>
    <rect id="Rectangle_193" data-name="Rectangle 193" class="cls-7" x="176.65" y="86.01" width="20.72" height="23.93"/>
    <path id="Path_244" data-name="Path 244" class="cls-2" d="M175.04,111.01h23.4v-21.61h-11.07l-12.33,21.61Z"/>
    <path id="Path_245" data-name="Path 245" class="cls-2" d="M203.46,112.21h-13.38c-.54,0-.98-.43-.98-.97s.43-.98,.97-.98h13.39c1.27,0,2.29-1.02,2.3-2.28,0-.22-.03-.43-.09-.64l-4.75-17.01c-.14-.52,.16-1.05,.67-1.19s1.05,.16,1.19,.67l4.75,17.01c.63,2.25-.69,4.58-2.94,5.21-.37,.1-.75,.16-1.13,.16v.04Z"/>
    <rect id="Rectangle_194" data-name="Rectangle 194" class="cls-14" x="178.22" y="85.84" width="39.46" height="3.05" transform="translate(87.66 273.52) rotate(-83.17)"/>
    <path id="Path_246" data-name="Path 246" class="cls-2" d="M201.8,67.98c2.96,13.21,1.3,27.04-4.7,39.18l4.7-39.18Z"/>
    <rect id="Rectangle_195" data-name="Rectangle 195" class="cls-15" x="66.99" y="112.13" width="147.86" height="73.47"/>
    <g class="cls-20">
      <g id="Group_209" data-name="Group 209">
        <rect id="Rectangle_196" data-name="Rectangle 196" class="cls-7" x="66.99" y="112.13" width="147.86" height="73.47"/>
      </g>
    </g>
    <rect id="Rectangle_198" data-name="Rectangle 198" class="cls-8" x="66.99" y="112.13" width="147.86" height="73.47"/>
    <rect id="Rectangle_199" data-name="Rectangle 199" class="cls-15" x="67.08" y="113.78" width="147.71" height="1.91"/>
    <rect id="Rectangle_200" data-name="Rectangle 200" class="cls-7" x="66.1" y="110.99" width="151.43" height="3.02"/>
  </g>
  <g id="Papers">
    <path id="Path_247" data-name="Path 247" class="cls-6" d="M68.57,81.45c-1.05,3.26-2.46,6.39-4.2,9.33-2.41,3.74-5.06,7.32-7.93,10.72l-18.65-7.92c3.28-3.47,6.25-7.22,8.86-11.21,4.66-7,5.76-8.44,5.76-8.44,0,0,11.77,5.98,16.16,7.52Z"/>
    <path id="Path_248" data-name="Path 248" class="cls-6" d="M73.65,128.81c-3.13,1.37-6.4,2.39-9.75,3.05-4.4,.68-8.83,1.08-13.28,1.18l-6.45-19.22c4.76,.16,9.53-.11,14.25-.79,8.33-1.15,10.13-1.29,10.13-1.29,0,0,3.36,12.79,5.1,17.07Z"/>
    <path id="Path_249" data-name="Path 249" class="cls-6" d="M169.71,136.73c-3.13,1.37-6.4,2.39-9.75,3.05-4.4,.68-8.83,1.08-13.28,1.19l-6.47-19.22c4.76,.16,9.53-.11,14.25-.8,8.33-1.15,10.13-1.29,10.13-1.29,0,0,3.4,12.79,5.12,17.07Z"/>
    <path id="Path_250" data-name="Path 250" class="cls-6" d="M168.02,92.7c-3.16-1.3-6.17-2.96-8.96-4.93-3.54-2.7-6.9-5.63-10.06-8.77l9.39-17.95c3.19,3.55,6.68,6.82,10.45,9.75,6.6,5.21,7.95,6.41,7.95,6.41,0,0-6.88,11.27-8.77,15.48Z"/>
    <path id="Path_251" data-name="Path 251" class="cls-6" d="M132.34,90.25l11.92,10.59s3.09-9.49,8.38-12.35c3.41-1.82,6.95-3.37,10.59-4.63l-16.33-10.15s-16.55,6.4-14.57,16.55Z"/>
    <path id="Path_252" data-name="Path 252" class="cls-6" d="M47.94,62.74l11.92,10.59s3.09-9.49,8.38-12.35c3.41-1.82,6.95-3.37,10.59-4.63l-16.33-10.15s-16.55,6.39-14.56,16.55Z"/>
  </g>
  <g id="Character">
    <path id="Path_253" data-name="Path 253" class="cls-1" d="M75.11,188.75l-1.74,2.2s-5.23,2.05-6.22,2.96c-1.14,1.49-2.13,3.09-2.96,4.78l.83,1.14s3.49,.23,5.62,.15c1.85-.1,3.67-.53,5.36-1.29,1.06-1.15,2.05-2.36,2.96-3.64,.38-.45,1.21-.23,2.28-.76s.91-4.7,.91-4.7l-7.04-.83Z"/>
    <path id="Path_254" data-name="Path 254" class="cls-6" d="M78.6,189.21c0,.11,.03,.23,.07,.34,.12,.52,.36,1.46,.69,1.56,.45,.15,2.81-1.52,2.81-1.52"/>
    <path id="Path_255" data-name="Path 255" class="cls-1" d="M141.67,188.75l1.74,2.2s5.24,2.05,6.22,2.96c1.14,1.49,2.13,3.09,2.96,4.78l-.84,1.14s-3.49,.23-5.61,.15c-1.86-.1-3.68-.54-5.38-1.3-1.07-1.14-2.06-2.36-2.96-3.64-.38-.45-1.22-.23-2.28-.76s-.91-4.7-.91-4.7l7.04-.83Z"/>
    <path id="Path_256" data-name="Path 256" class="cls-6" d="M138.2,189.21s-.02,.14-.07,.34c-.12,.52-.37,1.46-.69,1.56-.46,.15-2.81-1.52-2.81-1.52"/>
    <path id="Path_257" data-name="Path 257" class="cls-1" d="M142.01,189.5l-16.03-69.31-3.16-18.06-14.43,.19-14.43-.19-3.16,18.06-16.03,69.31,7.45,.68,26.17-63.16,26.16,63.16,7.45-.68Z"/>
    <line id="Line_120" data-name="Line 120" class="cls-12" x1="104.42" y1="120.56" x2="105.19" y2="121.73"/>
    <line id="Line_121" data-name="Line 121" class="cls-12" x1="79.15" y1="183.64" x2="78.32" y2="186.32"/>
    <line id="Line_122" data-name="Line 122" class="cls-12" x1="97.59" y1="124.45" x2="80.31" y2="179.9"/>
    <line id="Line_123" data-name="Line 123" class="cls-12" x1="138.17" y1="183.18" x2="138.63" y2="184.76"/>
    <line id="Line_124" data-name="Line 124" class="cls-12" x1="127.35" y1="145.49" x2="137.68" y2="181.45"/>
    <line id="Line_125" data-name="Line 125" class="cls-12" x1="120.6" y1="121.96" x2="126.89" y2="143.89"/>
    <line id="Line_126" data-name="Line 126" class="cls-12" x1="97.72" y1="110.43" x2="103.12" y2="118.59"/>
    <path id="Path_258" data-name="Path 258" class="cls-12" d="M115.98,114.79c-.22,.32-.4,.67-.54,1.04"/>
    <path id="Path_259" data-name="Path 259" class="cls-12" d="M120.48,108s-2.01,2.92-3.49,5.2"/>
    <path id="Rectangle_201" data-name="Rectangle 201" class="cls-9" d="M65.63,2.21h0c.56-.22,1.19,.05,1.41,.61l1.01,2.53c.22,.56-.05,1.19-.61,1.41h0c-.56,.22-1.19-.05-1.41-.61l-1.01-2.53c-.22-.56,.05-1.19,.61-1.41Z"/>
    <path id="Rectangle_202" data-name="Rectangle 202" class="cls-13" d="M63.61,3.11h0c.56-.22,1.19,.04,1.41,.6l1.02,2.53c.22,.56-.04,1.19-.6,1.41h0c-.56,.22-1.19-.04-1.41-.6l-1.02-2.53c-.22-.56,.04-1.19,.6-1.41Z"/>
    <path id="Rectangle_203" data-name="Rectangle 203" class="cls-13" d="M61.83,4.68h0c.56-.22,1.19,.04,1.41,.6l1.02,2.53c.22,.56-.04,1.19-.6,1.41h0c-.56,.22-1.19-.04-1.41-.6l-1.02-2.53c-.22-.56,.04-1.19,.6-1.41Z"/>
    <path id="Rectangle_204" data-name="Rectangle 204" class="cls-4" d="M60.29,6.29h0c.56-.22,1.19,.04,1.41,.6l.74,1.83c.22,.56-.04,1.19-.6,1.41h0c-.56,.22-1.19-.04-1.41-.6l-.74-1.83c-.22-.56,.04-1.19,.6-1.41Z"/>
    <path id="Path_260" data-name="Path 260" class="cls-6" d="M149.51,4.67l-4.1,9.57-25.13,41.38-3.76,2.39-8.04,.31-8.04-.31-3.76-2.39L71.54,14.24l-4.1-9.57-6.34,5.47s2.92,4.79,3.59,5.13,3.41,1.36,3.41,1.36l10.95,35.22,12.99,29.75,1.8,13.93s-1.87,5.44-.93,6.82c1.27,1.91,5.88,2.73,7.9,3.41,4.61,1.57,9.59,1.69,14.26,.33,2.69-.75,7.24-1.19,8.92-3.72,.94-1.4-.93-6.82-.93-6.82l1.8-13.93,12.99-29.75,10.94-35.22s2.74-1.02,3.41-1.36,3.59-5.13,3.59-5.13l-6.3-5.49Z"/>
    <path id="Rectangle_205" data-name="Rectangle 205" class="cls-11" d="M149.54,6.33h0c-.56-.22-.82-.86-.6-1.41l1.02-2.53c.22-.56,.86-.82,1.41-.6h0c.56,.22,.82,.86,.6,1.41l-1.02,2.53c-.22,.56-.86,.82-1.41,.6Z"/>
    <path id="Rectangle_206" data-name="Rectangle 206" class="cls-11" d="M151.5,7.66h0c-.56-.22-.82-.86-.6-1.41l1.02-2.53c.22-.56,.86-.82,1.41-.6h0c.56,.22,.82,.86,.6,1.41l-1.02,2.53c-.22,.56-.86,.82-1.41,.6Z"/>
    <path id="Rectangle_207" data-name="Rectangle 207" class="cls-11" d="M153.28,9.23h0c-.56-.22-.82-.86-.6-1.41l1.02-2.53c.22-.56,.86-.82,1.41-.6h0c.56,.22,.82,.86,.6,1.41l-1.02,2.53c-.22,.56-.86,.82-1.41,.6Z"/>
    <path id="Rectangle_208" data-name="Rectangle 208" class="cls-11" d="M155.09,10.14h0c-.56-.22-.82-.86-.6-1.41l.74-1.83c.22-.56,.86-.82,1.41-.6h0c.56,.22,.82,.86,.6,1.41l-.74,1.83c-.22,.56-.86,.82-1.41,.6Z"/>
    <path id="Path_261" data-name="Path 261" class="cls-6" d="M137.88,51.86l6.43-20.69-7.36-3.01-16.68,27.46-3.76,2.39-8.04,.31-8.04-.31-3.76-2.39-14.35-23.61-8.07,4.39,4.81,15.47,12.99,29.76,1.8,13.93s-1.87,5.44-.93,6.82c1.07,1.6,4.72,2.32,6.4,2.89,5.29,1.81,9.68,2.72,15.11,1.04,2.4-.75,8.08-1.68,9.58-3.93,.94-1.4-.93-6.82-.93-6.82l1.8-13.93,12.99-29.77Z"/>
    <line id="Line_127" data-name="Line 127" class="cls-3" x1="95.21" y1="65.15" x2="94.98" y2="66.7"/>
    <line id="Line_128" data-name="Line 128" class="cls-3" x1="96.37" y1="57.19" x2="95.44" y2="63.57"/>
    <line id="Line_129" data-name="Line 129" class="cls-3" x1="125.73" y1="69.68" x2="125.87" y2="67.69"/>
    <line id="Line_130" data-name="Line 130" class="cls-3" x1="124.89" y1="81.61" x2="125.57" y2="71.81"/>
    <line id="Line_131" data-name="Line 131" class="cls-3" x1="92.06" y1="81.61" x2="92.01" y2="71.45"/>
    <path id="Path_262" data-name="Path 262" class="cls-3" d="M98.55,58.52s-1.4,10.16-.41,16.29"/>
    <path id="Path_263" data-name="Path 263" class="cls-3" d="M116.36,59.37c.86,3.71,1.39,7.49,1.58,11.29"/>
    <path id="Path_264" data-name="Path 264" class="cls-3" d="M132.76,51.85c.04,.6,.12,1.19,.24,1.78"/>
    <path id="Path_265" data-name="Path 265" class="cls-3" d="M134.36,34.23c-.92,4.97-1.49,10-1.7,15.05"/>
    <path id="Path_266" data-name="Path 266" class="cls-3" d="M132.2,38.78s-.97,7.31-.97,10.49"/>
    <path id="Path_267" data-name="Path 267" class="cls-3" d="M86.07,39.18s.97,10.89,1.78,17.03"/>
    <path id="Path_268" data-name="Path 268" class="cls-3" d="M89.3,60.36c0,.87,0,1.74-.06,2.58"/>
    <path id="Path_269" data-name="Path 269" class="cls-3" d="M87.85,45.32c.77,4.46,1.25,8.97,1.42,13.5"/>
    <path id="Path_270" data-name="Path 270" class="cls-6" d="M81.73,30.64l-8.13,4.42c-.41,.23-.61,.7-.49,1.15l1,3.8c.14,.54,.7,.87,1.24,.73,.08-.02,.15-.05,.22-.09l8.92-4.74c.49-.26,.68-.87,.43-1.37l-1.79-3.48c-.26-.5-.88-.7-1.38-.44,0,0-.02,0-.03,.01h0Z"/>
    <path id="Path_271" data-name="Path 271" class="cls-6" d="M137.03,25.87l8.57,3.48c.44,.18,.69,.63,.62,1.09l-.57,3.9c-.08,.56-.6,.94-1.16,.86-.08-.01-.15-.03-.23-.06l-9.4-3.7c-.52-.21-.78-.79-.58-1.31l1.4-3.66c.2-.53,.79-.8,1.32-.6,0,0,.01,0,.02,0h0Z"/>
    <path id="Path_272" data-name="Path 272" class="cls-6" d="M70.86,13.39l-1.55-7.7c-.09-.45-.51-.76-.97-.72-1.17,.15-3.24,.4-3.96,.4-1.03,0-1.37,2.05-.52,2.05,.82,.07,1.62,.23,2.4,.49,0,0-1.2,4.27,1.53,5.81"/>
    <path id="Path_273" data-name="Path 273" class="cls-6" d="M146.09,13.39l1.55-7.7c.09-.45,.51-.76,.97-.72,1.17,.15,3.24,.4,3.96,.4,1.03,0,1.37,2.05,.51,2.05-.81,.07-1.62,.23-2.39,.49,0,0,1.2,4.27-1.53,5.81"/>
    <path id="Path_274" data-name="Path 274" class="cls-1" d="M104.43,65.85l2.64,5.75-2.64,29.22,4.35,4.97,3.73-5.91-3.57-27.98,3.26-6.84-3.88-2.95-3.88,3.73Z"/>
    <path id="Path_275" data-name="Path 275" class="cls-6" d="M101.71,56.13s-1.53-.33-2.18,.65c-.37,.55-.7,1.14-.97,1.74l2.84,13.52,6.76-5.89,6.65,6.87c.73-3.85,1.17-7.75,1.31-11.67,.23-2.91-1.6-5.58-4.39-6.43-.9-.33-10.01,1.2-10.01,1.2Z"/>
    <path id="Path_276" data-name="Path 276" class="cls-6" d="M100.19,52.96l.97,6.54s3.16,6.44,5.78,6.76,4.69-1.64,5.78-4.58l1.09-2.92,.77-6-14.39,.2Z"/>
    <path id="Path_277" data-name="Path 277" class="cls-15" d="M114.59,53.82s-5.62,5.61-7.41,6.38-6.76-6.13-6.76-6.13l14.17-.25Z"/>
    <path id="Path_278" data-name="Path 278" class="cls-1" d="M98.58,47.6c-1.81-1.58-2.87-3.84-2.92-6.24-.1-4.06,.83-7.39,1.25-6.87,.29,.41,.5,.87,.62,1.35,0,0,.21-5.51,2.49-7.07s1.98,2.18,1.98,2.18c0,0,6.03-5.41,10.2-4.68s1.56,2.08,1.56,2.08c0,0,6.03,2.29,7.07,4.68,1.04,2.39-4.26,4.26-4.26,4.26,0,0,2.92,.73,2.49,1.46-.43,.52-1.01,.88-1.66,1.04,0,0-.21,5.52-.83,6.03s-.94,1.36-1.77-.31-2.18-5.61-5.2-6.14-8.32-.73-9.05,1.15,.52,6.34-.41,7.28c-.33,.39-.91,.44-1.3,.12-.11-.09-.19-.2-.25-.33h0Z"/>
    <path id="Path_279" data-name="Path 279" class="cls-6" d="M109.32,34.79s-4.35-.77-6.91,.77c-2.02,1.28-3.38,3.39-3.71,5.76v5s-2.82-2.05-3.33-.13,.13,4.74,1.15,5c.69,.12,1.39-.07,1.93-.51,0,0,.51,3.08,2.82,4.1s5.46,2.57,6.74,2.44,6.34-3.34,6.82-3.85c.49-1.05,.84-2.17,1.03-3.31,0,0,1.11,1.07,1.7,.71,1.63-1.02,1.89-3.01,1.89-4.55s-3.08-.9-3.08-.9c0,0-1.28-7.31-2.44-8.96s-4.6-1.54-4.6-1.54Z"/>
    <path id="Path_280" data-name="Path 280" class="cls-3" d="M106.76,36.71s1.28-2.69,2.56-1.92,.49,3.84,.49,3.84"/>
    <path id="Path_281" data-name="Path 281" class="cls-3" d="M102.92,41.06c1.32,.84,2.81,1.36,4.36,1.54,1.48-.13,2.92-.56,4.23-1.28"/>
    <path id="Path_282" data-name="Path 282" class="cls-3" d="M103.76,40.89s-1.15-.35-1.56,.61"/>
    <path id="Path_283" data-name="Path 283" class="cls-3" d="M110.69,40.95c.53,.11,.99,.43,1.29,.88"/>
    <path id="Path_284" data-name="Path 284" class="cls-1" d="M104.03,41.9s1.15,5.85,3.53,6.04,2.78-5.91,2.78-5.91c-1.01,.28-2.04,.47-3.08,.56-1.14-.19-2.25-.52-3.31-.97l.07,.28Z"/>
    <path id="Path_285" data-name="Path 285" class="cls-6" d="M103.96,41.63l.07,.27s.08,.4,.23,.97c1.9,.83,4.05,.87,5.98,.13,.08-.58,.1-.97,.1-.97-1.01,.28-2.04,.47-3.08,.56-1.13-.2-2.24-.52-3.3-.96Z"/>
    <path id="Path_286" data-name="Path 286" class="cls-6" d="M109.25,46.69c-1.17,.15-2.36,.1-3.51-.15,.36,.73,1.03,1.25,1.82,1.41,.72,.06,1.28-.48,1.69-1.26Z"/>
    <path id="Path_287" data-name="Path 287" class="cls-3" d="M102,38.03c.66-.8,1.68-1.22,2.71-1.09"/>
    <path id="Path_288" data-name="Path 288" class="cls-3" d="M110.35,37.02c.93-.18,1.89,.04,2.65,.61"/>
    <path id="Path_289" data-name="Path 289" class="cls-5" d="M104.44,35.38c-1.12,.07-2.16,.62-2.86,1.5"/>
    <path id="Path_290" data-name="Path 290" class="cls-5" d="M110.83,35.31c1.17,.07,2.25,.67,2.92,1.63"/>
  </g>
</svg>