<?xml version="1.0" encoding="UTF-8"?>
<svg id="_3" data-name=" 3" xmlns="http://www.w3.org/2000/svg" viewBox="0 0 219.08 200.5">
  <defs>
    <style>
      .cls-1, .cls-2, .cls-3, .cls-4 {
        fill: #fff;
      }

      .cls-1, .cls-5 {
        stroke-miterlimit: 10;
      }

      .cls-1, .cls-5, .cls-3, .cls-6, .cls-7, .cls-8 {
        stroke: #263238;
      }

      .cls-5, .cls-8, .cls-9 {
        fill: #263238;
      }

      .cls-10 {
        opacity: .3;
      }

      .cls-10, .cls-11 {
        fill: #004812;
      }

      .cls-10, .cls-4 {
        isolation: isolate;
      }

      .cls-12, .cls-7 {
        fill: #ddb724;
      }

      .cls-3, .cls-13, .cls-6, .cls-7, .cls-8 {
        stroke-linecap: round;
        stroke-linejoin: round;
      }

      .cls-13 {
        stroke: gray;
      }

      .cls-13, .cls-6 {
        fill: none;
      }

      .cls-4 {
        opacity: .7;
      }
    </style>
  </defs>
  <g id="Background_Simple" data-name="Background Simple">
    <g id="Group_210" data-name="Group 210">
      <path id="Path_291" data-name="Path 291" class="cls-12" d="M180.49,182.67c7.54-4.9,13.8-11.52,18.27-19.31,27.31-47.53,21.14-117.62-31.46-147.66C142.99,1.8,107.99-6.98,81.73,7.28c-21.31,11.57-34.37,33.36-45.17,53.18-6.79,12.46-12.39,25.88-20.76,37.54-10.86,15.13-22.8,35.33-10.74,52.9,16.44,23.94,47.49,34.87,75.65,42.06,30.55,7.81,64.9,8.91,93.12-6.31,2.28-1.23,4.5-2.56,6.66-3.99Z"/>
      <path id="Path_292" data-name="Path 292" class="cls-4" d="M180.49,182.67c7.54-4.9,13.8-11.52,18.27-19.31,27.31-47.53,21.14-117.62-31.46-147.66C142.99,1.8,107.99-6.98,81.73,7.28c-21.31,11.57-34.37,33.36-45.17,53.18-6.79,12.46-12.39,25.88-20.76,37.54-10.86,15.13-22.8,35.33-10.74,52.9,16.44,23.94,47.49,34.87,75.65,42.06,30.55,7.81,64.9,8.91,93.12-6.31,2.28-1.23,4.5-2.56,6.66-3.99Z"/>
    </g>
  </g>
  <g id="Plants">
    <g id="Group_211" data-name="Group 211">
      <path id="Path_293" data-name="Path 293" class="cls-11" d="M210.79,169.42s.56-1.35,.59-1.44c.28-1.04,.22-3.22-.79-3.88-.67-.41-1.55-.2-1.97,.47-.03,.04-.05,.09-.07,.14-.31,.82-.23,1.74,.2,2.51,.57,.83,1.26,1.57,2.04,2.2Z"/>
      <path id="Path_294" data-name="Path 294" class="cls-11" d="M189.55,166.23c.93,.38,1.92,.62,2.92,.71,.02,0-.28-1.44-.31-1.52-.34-1.03-1.6-2.81-2.81-2.8-.79,.03-1.41,.69-1.38,1.48,0,.05,0,.1,.01,.15,.2,.86,.77,1.58,1.55,1.98Z"/>
      <path id="Path_295" data-name="Path 295" class="cls-11" d="M189.5,172.42c.99,.12,2,.09,2.98-.09,.17,1.11,.42,2.22,.74,3.3,.18,.63,.38,1.27,.6,1.89-.14-.27-.27-.52-.29-.55-.6-.9-2.28-2.29-3.45-1.96-.75,.23-1.18,1.03-.94,1.79,.02,.05,.03,.1,.06,.15,.42,.77,1.16,1.32,2.02,1.5,.96,.12,1.94,.1,2.89-.07,.08,.24,.16,.48,.25,.72,.41,1.15,.82,2.3,1.18,3.44,.13,.4,.24,.81,.36,1.2-.12-.24-.23-.44-.25-.47-.6-.9-2.28-2.29-3.45-1.96-.75,.23-1.18,1.03-.94,1.79,.02,.05,.03,.1,.06,.15,.42,.77,1.16,1.32,2.02,1.5,.94,.13,1.89,.1,2.81-.06,.1,.41,.21,.83,.29,1.23,.05,.28,.12,.54,.15,.82s.08,.55,.12,.83c.06,.53,.12,1.08,.16,1.59,.03,.36,.06,.7,.08,1.05-.12-.4-.38-1.18-.42-1.24-.45-.98-1.91-2.6-3.11-2.46-.78,.12-1.32,.84-1.2,1.63,0,.05,.02,.1,.03,.15,.3,.83,.94,1.48,1.77,1.79,.96,.27,1.95,.39,2.94,.37,.04,.58,.08,1.13,.1,1.65,.09,1.82,.09,3.34,.08,4.4l.81,.1v-.1c0-1.08-.05-2.61-.17-4.45-.04-.58-.09-1.2-.15-1.83,.59-.15,1.17-.34,1.74-.56,.64,.71,1.38,1.34,2.19,1.85-.28,.5-.56,.98-.83,1.43-.93,1.56-1.77,2.83-2.37,3.71l.89,.12c.56-.88,1.29-2.05,2.09-3.46,.29-.51,.59-1.05,.88-1.61,.93,.35,1.91,.55,2.91,.6,.88-.02,1.7-.43,2.25-1.12,.44-.66,.26-1.55-.4-1.99-.04-.03-.09-.05-.13-.08-1.09-.53-2.99,.54-3.74,1.32-.04,.05-.47,.6-.73,.95,.12-.23,.24-.45,.36-.69,.24-.47,.47-.95,.73-1.46,.12-.25,.23-.51,.34-.76s.21-.54,.32-.81c.24-.63,.45-1.28,.64-1.94,.84,.47,1.75,.8,2.7,.99,.87,.11,1.75-.17,2.4-.77,.53-.58,.49-1.49-.1-2.02-.04-.03-.08-.07-.12-.1-.99-.69-3.04,.08-3.89,.74-.05,.04-.62,.58-.92,.88,.12-.4,.23-.79,.33-1.2,.3-1.17,.57-2.37,.84-3.55,.08-.36,.17-.73,.26-1.09,.87,.48,1.81,.83,2.79,1.04,.87,.11,1.75-.17,2.4-.77,.53-.58,.49-1.49-.1-2.02-.04-.03-.08-.07-.12-.1-.99-.69-3.04,.08-3.89,.74-.06,.05-.87,.83-1.07,1.04,.19-.8,.39-1.6,.61-2.37,.3-1.05,.67-2.08,1.1-3.08,.88,.49,1.82,.84,2.81,1.05,.87,.11,1.75-.17,2.4-.77,.53-.58,.49-1.49-.1-2.02-.04-.03-.08-.07-.12-.1-.99-.69-3.03,.08-3.89,.74-.06,.04-.67,.64-.96,.93-.02-.01-.04-.03-.06-.04,.46-1,1.01-1.95,1.64-2.85,.34-.5,.69-.96,1.05-1.4,.8,.57,1.68,1.01,2.62,1.31,.86,.2,1.76,.02,2.47-.5,.59-.52,.65-1.43,.13-2.02-.03-.04-.07-.07-.11-.11-.91-.79-3.03-.25-3.95,.31-.05,.03-.53,.4-.87,.67,.16-.2,.33-.4,.49-.58,.6-.69,1.19-1.29,1.72-1.81,.3-.3,.58-.55,.85-.8,.97,.13,1.95,.12,2.91-.04,.85-.21,1.57-.79,1.96-1.58,.29-.73-.08-1.56-.81-1.85-.05-.02-.1-.04-.15-.05-1.18-.28-2.8,1.17-3.36,2.09-.05,.08-.66,1.41-.64,1.41h.02c-.26,.23-.54,.47-.83,.75-.54,.51-1.15,1.1-1.76,1.78-.67,.73-1.3,1.49-1.88,2.29-.66,.89-1.23,1.84-1.72,2.84,0,.01,0,.03-.01,.04,.05-.35,.16-1.34,.16-1.41,0-1.08-.64-3.16-1.79-3.54-.76-.22-1.55,.21-1.77,.97-.02,.05-.03,.11-.04,.16-.08,.88,.23,1.74,.86,2.37,.76,.65,1.61,1.18,2.53,1.57-.47,1.02-.88,2.08-1.2,3.16-.2,.63-.38,1.27-.54,1.91,.03-.31,.06-.58,.06-.62,0-1.08-.64-3.16-1.79-3.54-.76-.22-1.55,.21-1.77,.97-.02,.05-.03,.11-.04,.16-.08,.88,.23,1.74,.86,2.37,.74,.63,1.56,1.15,2.46,1.54-.06,.25-.13,.49-.19,.74-.3,1.18-.59,2.37-.91,3.52-.12,.41-.24,.81-.36,1.2,.03-.27,.05-.5,.05-.54,0-1.08-.64-3.16-1.79-3.54-.76-.22-1.55,.21-1.77,.97-.02,.05-.03,.11-.04,.16-.08,.88,.23,1.74,.86,2.37,.71,.62,1.52,1.12,2.38,1.5-.14,.4-.28,.81-.44,1.19-.12,.26-.2,.52-.32,.77s-.24,.51-.35,.76c-.24,.47-.49,.96-.74,1.41-.17,.32-.34,.62-.51,.92,.12-.4,.33-1.2,.34-1.27,.11-.94-.03-1.9-.4-2.78,.02-.1,.02-.21,.02-.32,0-.79-.63-1.43-1.42-1.43-.05,0-.11,0-.16,0-1.2,.16-2.19,2.1-2.38,3.16,0,.06-.06,.76-.08,1.19-.02-.26-.05-.51-.08-.78-.06-.53-.13-1.06-.2-1.62-.05-.27-.09-.54-.14-.82s-.12-.56-.18-.85c-.15-.65-.33-1.31-.53-1.97,.96-.07,1.91-.3,2.8-.66,.79-.39,1.36-1.11,1.57-1.96,.12-.78-.41-1.51-1.19-1.63-.05,0-.1-.01-.16-.02-1.21-.02-2.49,1.74-2.84,2.76-.02,.06-.19,.83-.28,1.25-.12-.4-.24-.79-.38-1.18-.4-1.14-.83-2.28-1.27-3.43-.13-.35-.26-.7-.39-1.05,1-.08,1.98-.3,2.91-.67,.79-.39,1.36-1.11,1.58-1.96,.12-.78-.41-1.51-1.19-1.63-.05,0-.1-.01-.16-.02-1.21-.02-2.48,1.74-2.84,2.76-.03,.08-.27,1.17-.32,1.45-.28-.77-.56-1.54-.8-2.31-.33-1.04-.59-2.1-.78-3.17,1-.08,1.98-.31,2.92-.67,.79-.39,1.36-1.11,1.58-1.96,.12-.78-.41-1.51-1.19-1.63-.05,0-.1-.01-.16-.02-1.21-.02-2.49,1.74-2.84,2.76-.02,.07-.21,.9-.29,1.3h-.07c-.16-1.09-.23-2.18-.2-3.28,0-.6,.05-1.18,.1-1.74,.98,.04,1.96-.08,2.91-.35,.83-.3,1.48-.95,1.78-1.78,.21-.76-.24-1.55-1-1.75-.05-.01-.1-.02-.15-.03-1.2-.16-2.66,1.46-3.13,2.44-.02,.05-.22,.62-.36,1.04,.03-.25,.05-.52,.09-.76,.12-.91,.28-1.73,.43-2.46,.09-.41,.18-.78,.26-1.13,.88-.42,1.69-.97,2.41-1.64,.59-.65,.87-1.53,.76-2.4-.17-.77-.92-1.26-1.69-1.09-.05,.01-.1,.03-.16,.04-1.14,.42-1.69,2.52-1.65,3.6,0,.1,.23,1.54,.25,1.53,0,0,.02,0,.02,0-.09,.33-.18,.69-.28,1.08-.17,.73-.35,1.55-.49,2.46-.16,.98-.26,1.96-.31,2.95-.06,1.11-.01,2.22,.13,3.32,0,.01,0,.03,0,.04-.15-.32-.6-1.2-.64-1.27-.6-.9-2.28-2.29-3.45-1.96-.75,.23-1.18,1.03-.94,1.79,.02,.05,.03,.1,.06,.15,.41,.79,1.16,1.34,2.03,1.53Z"/>
      <path id="Path_296" data-name="Path 296" class="cls-10" d="M189.55,166.23c.93,.38,1.92,.62,2.92,.71,.02,0-.28-1.44-.31-1.52-.34-1.03-1.6-2.81-2.81-2.8-.79,.03-1.41,.69-1.38,1.48,0,.05,0,.1,.01,.15,.2,.86,.77,1.58,1.55,1.98Z"/>
      <path id="Path_297" data-name="Path 297" class="cls-10" d="M210.79,169.42s.56-1.35,.59-1.44c.28-1.04,.22-3.22-.79-3.88-.67-.41-1.55-.2-1.97,.47-.03,.04-.05,.09-.07,.14-.31,.82-.23,1.74,.2,2.51,.57,.83,1.26,1.57,2.04,2.2Z"/>
      <path id="Path_298" data-name="Path 298" class="cls-10" d="M189.5,172.42c.99,.12,2,.09,2.98-.09,.17,1.11,.42,2.22,.74,3.3,.18,.63,.38,1.27,.6,1.89-.14-.27-.27-.52-.29-.55-.6-.9-2.28-2.29-3.45-1.96-.75,.23-1.18,1.03-.94,1.79,.02,.05,.03,.1,.06,.15,.42,.77,1.16,1.32,2.02,1.5,.96,.12,1.94,.1,2.89-.07,.08,.24,.16,.48,.25,.72,.41,1.15,.82,2.3,1.18,3.44,.13,.4,.24,.81,.36,1.2-.12-.24-.23-.44-.25-.47-.6-.9-2.28-2.29-3.45-1.96-.75,.23-1.18,1.03-.94,1.79,.02,.05,.03,.1,.06,.15,.42,.77,1.16,1.32,2.02,1.5,.94,.13,1.89,.1,2.81-.06,.1,.41,.21,.83,.29,1.23,.05,.28,.12,.54,.15,.82s.08,.55,.12,.83c.06,.53,.12,1.08,.16,1.59,.03,.36,.06,.7,.08,1.05-.12-.4-.38-1.18-.42-1.24-.45-.98-1.91-2.6-3.11-2.46-.78,.12-1.32,.84-1.2,1.63,0,.05,.02,.1,.03,.15,.3,.83,.94,1.48,1.77,1.79,.96,.27,1.95,.39,2.94,.37,.04,.58,.08,1.13,.1,1.65,.09,1.82,.09,3.34,.08,4.4l.81,.1v-.1c0-1.08-.05-2.61-.17-4.45-.04-.58-.09-1.2-.15-1.83,.59-.15,1.17-.34,1.74-.56,.64,.71,1.38,1.34,2.19,1.85-.28,.5-.56,.98-.83,1.43-.93,1.56-1.77,2.83-2.37,3.71l.89,.12c.56-.88,1.29-2.05,2.09-3.46,.29-.51,.59-1.05,.88-1.61,.93,.35,1.91,.55,2.91,.6,.88-.02,1.7-.43,2.25-1.12,.44-.66,.26-1.55-.4-1.99-.04-.03-.09-.05-.13-.08-1.09-.53-2.99,.54-3.74,1.32-.04,.05-.47,.6-.73,.95,.12-.23,.24-.45,.36-.69,.24-.47,.47-.95,.73-1.46,.12-.25,.23-.51,.34-.76s.21-.54,.32-.81c.24-.63,.45-1.28,.64-1.94,.84,.47,1.75,.8,2.7,.99,.87,.11,1.75-.17,2.4-.77,.53-.58,.49-1.49-.1-2.02-.04-.03-.08-.07-.12-.1-.99-.69-3.04,.08-3.89,.74-.05,.04-.62,.58-.92,.88,.12-.4,.23-.79,.33-1.2,.3-1.17,.57-2.37,.84-3.55,.08-.36,.17-.73,.26-1.09,.87,.48,1.81,.83,2.79,1.04,.87,.11,1.75-.17,2.4-.77,.53-.58,.49-1.49-.1-2.02-.04-.03-.08-.07-.12-.1-.99-.69-3.04,.08-3.89,.74-.06,.05-.87,.83-1.07,1.04,.19-.8,.39-1.6,.61-2.37,.3-1.05,.67-2.08,1.1-3.08,.88,.49,1.82,.84,2.81,1.05,.87,.11,1.75-.17,2.4-.77,.53-.58,.49-1.49-.1-2.02-.04-.03-.08-.07-.12-.1-.99-.69-3.03,.08-3.89,.74-.06,.04-.67,.64-.96,.93-.02-.01-.04-.03-.06-.04,.46-1,1.01-1.95,1.64-2.85,.34-.5,.69-.96,1.05-1.4,.8,.57,1.68,1.01,2.62,1.31,.86,.2,1.76,.02,2.47-.5,.59-.52,.65-1.43,.13-2.02-.03-.04-.07-.07-.11-.11-.91-.79-3.03-.25-3.95,.31-.05,.03-.53,.4-.87,.67,.16-.2,.33-.4,.49-.58,.6-.69,1.19-1.29,1.72-1.81,.3-.3,.58-.55,.85-.8,.97,.13,1.95,.12,2.91-.04,.85-.21,1.57-.79,1.96-1.58,.29-.73-.08-1.56-.81-1.85-.05-.02-.1-.04-.15-.05-1.18-.28-2.8,1.17-3.36,2.09-.05,.08-.66,1.41-.64,1.41h.02c-.26,.23-.54,.47-.83,.75-.54,.51-1.15,1.1-1.76,1.78-.67,.73-1.3,1.49-1.88,2.29-.66,.89-1.23,1.84-1.72,2.84,0,.01,0,.03-.01,.04,.05-.35,.16-1.34,.16-1.41,0-1.08-.64-3.16-1.79-3.54-.76-.22-1.55,.21-1.77,.97-.02,.05-.03,.11-.04,.16-.08,.88,.23,1.74,.86,2.37,.76,.65,1.61,1.18,2.53,1.57-.47,1.02-.88,2.08-1.2,3.16-.2,.63-.38,1.27-.54,1.91,.03-.31,.06-.58,.06-.62,0-1.08-.64-3.16-1.79-3.54-.76-.22-1.55,.21-1.77,.97-.02,.05-.03,.11-.04,.16-.08,.88,.23,1.74,.86,2.37,.74,.63,1.56,1.15,2.46,1.54-.06,.25-.13,.49-.19,.74-.3,1.18-.59,2.37-.91,3.52-.12,.41-.24,.81-.36,1.2,.03-.27,.05-.5,.05-.54,0-1.08-.64-3.16-1.79-3.54-.76-.22-1.55,.21-1.77,.97-.02,.05-.03,.11-.04,.16-.08,.88,.23,1.74,.86,2.37,.71,.62,1.52,1.12,2.38,1.5-.14,.4-.28,.81-.44,1.19-.12,.26-.2,.52-.32,.77s-.24,.51-.35,.76c-.24,.47-.49,.96-.74,1.41-.17,.32-.34,.62-.51,.92,.12-.4,.33-1.2,.34-1.27,.11-.94-.03-1.9-.4-2.78,.02-.1,.02-.21,.02-.32,0-.79-.63-1.43-1.42-1.43-.05,0-.11,0-.16,0-1.2,.16-2.19,2.1-2.38,3.16,0,.06-.06,.76-.08,1.19-.02-.26-.05-.51-.08-.78-.06-.53-.13-1.06-.2-1.62-.05-.27-.09-.54-.14-.82s-.12-.56-.18-.85c-.15-.65-.33-1.31-.53-1.97,.96-.07,1.91-.3,2.8-.66,.79-.39,1.36-1.11,1.57-1.96,.12-.78-.41-1.51-1.19-1.63-.05,0-.1-.01-.16-.02-1.21-.02-2.49,1.74-2.84,2.76-.02,.06-.19,.83-.28,1.25-.12-.4-.24-.79-.38-1.18-.4-1.14-.83-2.28-1.27-3.43-.13-.35-.26-.7-.39-1.05,1-.08,1.98-.3,2.91-.67,.79-.39,1.36-1.11,1.58-1.96,.12-.78-.41-1.51-1.19-1.63-.05,0-.1-.01-.16-.02-1.21-.02-2.48,1.74-2.84,2.76-.03,.08-.27,1.17-.32,1.45-.28-.77-.56-1.54-.8-2.31-.33-1.04-.59-2.1-.78-3.17,1-.08,1.98-.31,2.92-.67,.79-.39,1.36-1.11,1.58-1.96,.12-.78-.41-1.51-1.19-1.63-.05,0-.1-.01-.16-.02-1.21-.02-2.49,1.74-2.84,2.76-.02,.07-.21,.9-.29,1.3h-.07c-.16-1.09-.23-2.18-.2-3.28,0-.6,.05-1.18,.1-1.74,.98,.04,1.96-.08,2.91-.35,.83-.3,1.48-.95,1.78-1.78,.21-.76-.24-1.55-1-1.75-.05-.01-.1-.02-.15-.03-1.2-.16-2.66,1.46-3.13,2.44-.02,.05-.22,.62-.36,1.04,.03-.25,.05-.52,.09-.76,.12-.91,.28-1.73,.43-2.46,.09-.41,.18-.78,.26-1.13,.88-.42,1.69-.97,2.41-1.64,.59-.65,.87-1.53,.76-2.4-.17-.77-.92-1.26-1.69-1.09-.05,.01-.1,.03-.16,.04-1.14,.42-1.69,2.52-1.65,3.6,0,.1,.23,1.54,.25,1.53,0,0,.02,0,.02,0-.09,.33-.18,.69-.28,1.08-.17,.73-.35,1.55-.49,2.46-.16,.98-.26,1.96-.31,2.95-.06,1.11-.01,2.22,.13,3.32,0,.01,0,.03,0,.04-.15-.32-.6-1.2-.64-1.27-.6-.9-2.28-2.29-3.45-1.96-.75,.23-1.18,1.03-.94,1.79,.02,.05,.03,.1,.06,.15,.41,.79,1.16,1.34,2.03,1.53Z"/>
    </g>
    <g id="Group_212" data-name="Group 212">
      <path id="Path_299" data-name="Path 299" class="cls-11" d="M7.9,174.11s-.46-1.11-.48-1.18c-.23-.86-.18-2.65,.65-3.19,.55-.34,1.28-.16,1.62,.39,.02,.04,.04,.07,.06,.11,.25,.68,.19,1.43-.16,2.06-.47,.68-1.04,1.29-1.69,1.81Z"/>
      <path id="Path_300" data-name="Path 300" class="cls-11" d="M25.34,171.49c-.77,.31-1.58,.51-2.4,.58-.02,0,.23-1.18,.25-1.25,.28-.84,1.31-2.3,2.3-2.3,.65,.02,1.16,.56,1.13,1.21,0,.04,0,.09-.01,.13-.16,.7-.63,1.3-1.27,1.63Z"/>
      <path id="Path_301" data-name="Path 301" class="cls-11" d="M25.39,176.58c-.81,.1-1.64,.08-2.45-.07-.14,.92-.34,1.82-.61,2.71-.15,.52-.32,1.04-.49,1.55,.12-.23,.22-.42,.23-.45,.49-.74,1.87-1.88,2.83-1.61,.62,.2,.97,.86,.77,1.48-.01,.04-.03,.08-.04,.11-.34,.64-.95,1.09-1.66,1.23-.79,.1-1.59,.08-2.38-.06-.07,.2-.13,.4-.2,.59-.33,.95-.67,1.89-.97,2.83-.1,.33-.2,.66-.29,.99,.1-.2,.19-.37,.2-.39,.49-.74,1.87-1.88,2.83-1.61,.62,.2,.97,.86,.77,1.48-.01,.04-.03,.08-.04,.11-.34,.64-.95,1.09-1.66,1.23-.77,.1-1.55,.09-2.31-.04-.09,.34-.17,.68-.24,1.01-.04,.23-.1,.44-.12,.68s-.07,.45-.1,.68c-.05,.44-.1,.88-.13,1.3-.03,.3-.05,.58-.07,.86,.1-.33,.32-.97,.34-1.02,.37-.81,1.57-2.14,2.55-2.02,.64,.1,1.08,.69,.99,1.34,0,.04-.02,.08-.03,.13-.25,.68-.78,1.22-1.45,1.47-.79,.22-1.6,.32-2.42,.3-.03,.47-.06,.93-.08,1.36-.07,1.5-.07,2.74-.06,3.61l-.67,.09v-.08c0-.88,.04-2.15,.14-3.65,.03-.48,.08-.98,.12-1.51-.49-.12-.96-.28-1.43-.46-.53,.59-1.13,1.1-1.8,1.52,.23,.41,.46,.81,.68,1.18,.76,1.29,1.45,2.33,1.94,3.05l-.74,.1c-.46-.72-1.06-1.69-1.72-2.85-.24-.42-.48-.86-.73-1.33-.77,.28-1.57,.45-2.38,.5-.72-.02-1.4-.36-1.85-.92-.36-.54-.21-1.28,.34-1.63,.03-.02,.07-.04,.1-.06,.89-.44,2.46,.44,3.07,1.08,.04,.04,.38,.49,.6,.78-.1-.19-.2-.37-.3-.57-.2-.39-.39-.78-.6-1.2-.09-.2-.19-.42-.28-.63s-.17-.44-.26-.66c-.2-.52-.37-1.05-.53-1.59-.69,.39-1.44,.66-2.22,.82-.72,.09-1.44-.14-1.97-.63-.44-.48-.4-1.22,.07-1.66,.03-.03,.07-.06,.1-.08,.82-.56,2.49,.07,3.2,.61,.04,.03,.51,.48,.76,.73-.1-.32-.19-.65-.28-.98-.25-.96-.46-1.94-.69-2.92-.07-.3-.14-.6-.21-.89-.72,.4-1.49,.69-2.29,.86-.72,.09-1.44-.14-1.97-.63-.44-.48-.4-1.22,.07-1.66,.03-.03,.07-.06,.1-.08,.82-.56,2.49,.07,3.2,.61,.05,.04,.72,.68,.87,.86-.16-.65-.32-1.31-.5-1.94-.24-.86-.54-1.71-.9-2.53-.72,.4-1.5,.69-2.3,.86-.72,.09-1.44-.14-1.97-.63-.44-.48-.4-1.22,.07-1.66,.03-.03,.07-.06,.1-.08,.82-.56,2.49,.07,3.2,.61,.05,.03,.55,.53,.78,.76,.02-.01,.03-.02,.05-.03-.38-.82-.83-1.6-1.35-2.34-.28-.41-.58-.78-.86-1.15-.66,.47-1.38,.83-2.15,1.08-.7,.17-1.44,.02-2.03-.41-.49-.43-.53-1.17-.11-1.65,.03-.03,.06-.07,.1-.1,.75-.65,2.48-.21,3.24,.25,.04,.02,.43,.32,.71,.55-.13-.16-.27-.33-.4-.48-.49-.57-.97-1.06-1.41-1.49-.25-.24-.48-.46-.69-.65-.8,.11-1.6,.1-2.39-.03-.7-.18-1.29-.65-1.61-1.3-.23-.61,.07-1.29,.68-1.52,.04-.01,.08-.03,.12-.04,.96-.23,2.3,.96,2.76,1.72,.04,.07,.54,1.16,.53,1.17h-.02c.21,.19,.44,.39,.68,.62,.44,.42,.94,.9,1.45,1.46,.55,.6,1.07,1.23,1.55,1.88,.54,.73,1.01,1.51,1.41,2.33v.03c-.03-.29-.12-1.1-.12-1.16,0-.89,.53-2.6,1.47-2.91,.62-.18,1.27,.18,1.45,.81,.01,.04,.02,.08,.03,.13,.06,.72-.19,1.43-.7,1.94-.62,.53-1.32,.97-2.08,1.29,.39,.84,.72,1.71,.99,2.59,.16,.52,.31,1.04,.45,1.57-.03-.25-.05-.47-.05-.51,0-.89,.53-2.6,1.47-2.91,.62-.18,1.28,.18,1.46,.8,.01,.04,.02,.08,.03,.13,.06,.72-.19,1.43-.7,1.94-.6,.52-1.28,.95-2.02,1.27,.05,.2,.1,.41,.16,.61,.24,.97,.48,1.94,.75,2.89,.09,.33,.2,.66,.3,.98-.02-.23-.04-.41-.04-.44,0-.89,.53-2.6,1.47-2.91,.62-.18,1.28,.18,1.46,.8,.01,.04,.02,.08,.03,.13,.06,.72-.19,1.43-.7,1.94-.58,.51-1.24,.93-1.96,1.23,.12,.33,.23,.66,.36,.97,.09,.22,.16,.42,.27,.64s.2,.42,.29,.62c.2,.39,.41,.79,.61,1.16,.14,.26,.28,.51,.42,.76-.1-.33-.27-.98-.28-1.04-.09-.77,.02-1.56,.32-2.28-.01-.09-.02-.17-.02-.26,0-.65,.52-1.17,1.17-1.18,.04,0,.09,0,.13,0,.98,.13,1.8,1.73,1.96,2.6,0,.05,.05,.62,.07,.98,.02-.22,.04-.42,.07-.64,.05-.44,.1-.86,.17-1.33,.04-.23,.08-.45,.12-.68s.1-.46,.14-.7c.12-.54,.27-1.08,.44-1.62-.79-.06-1.57-.24-2.3-.54-.65-.32-1.12-.91-1.29-1.61-.1-.64,.34-1.24,.98-1.34,.04,0,.08-.01,.13-.01,.99-.02,2.05,1.43,2.33,2.27,.02,.05,.16,.68,.23,1.02,.1-.32,.2-.65,.31-.97,.32-.94,.68-1.88,1.04-2.81,.12-.29,.22-.58,.32-.86-.82-.06-1.62-.25-2.38-.55-.65-.32-1.12-.91-1.29-1.61-.1-.64,.34-1.24,.98-1.34,.04,0,.08-.01,.13-.01,.99-.02,2.05,1.43,2.33,2.27,.02,.06,.22,.96,.26,1.19,.23-.64,.46-1.27,.65-1.9,.27-.85,.49-1.73,.64-2.61-.82-.06-1.63-.25-2.4-.55-.65-.32-1.12-.91-1.29-1.61-.1-.64,.34-1.24,.98-1.34,.04,0,.08-.01,.13-.01,.99-.02,2.05,1.43,2.33,2.27,.02,.06,.17,.74,.23,1.07h.06c.14-.89,.19-1.79,.16-2.69,0-.5-.04-.97-.09-1.43-.81,.03-1.61-.07-2.39-.29-.68-.25-1.21-.78-1.46-1.46-.18-.62,.18-1.27,.81-1.45,.05-.01,.1-.02,.15-.03,.98-.13,2.19,1.2,2.57,2,.02,.04,.18,.51,.29,.85-.02-.2-.04-.42-.07-.62-.1-.75-.23-1.42-.35-2.02-.07-.34-.15-.64-.22-.93-.72-.35-1.39-.8-1.98-1.35-.49-.53-.72-1.26-.63-1.97,.14-.63,.77-1.04,1.4-.9,.04,0,.08,.02,.12,.03,.93,.34,1.39,2.07,1.36,2.96,0,.08-.19,1.27-.2,1.27,0,0-.01,0-.02,0,.07,.27,.15,.57,.23,.89,.14,.6,.29,1.27,.4,2.02,.13,.8,.22,1.61,.25,2.42,.04,.91,0,1.82-.1,2.72v.03c.12-.26,.5-.99,.53-1.04,.49-.74,1.87-1.88,2.83-1.61,.62,.2,.97,.86,.77,1.48-.01,.04-.03,.08-.04,.11-.35,.64-.96,1.09-1.68,1.24Z"/>
      <path id="Path_302" data-name="Path 302" class="cls-10" d="M25.34,171.49c-.77,.31-1.58,.51-2.4,.58-.02,0,.23-1.18,.25-1.25,.28-.84,1.31-2.3,2.3-2.3,.65,.02,1.16,.56,1.13,1.21,0,.04,0,.09-.01,.13-.16,.7-.63,1.3-1.27,1.63Z"/>
      <path id="Path_303" data-name="Path 303" class="cls-10" d="M7.9,174.11s-.46-1.11-.48-1.18c-.23-.86-.18-2.65,.65-3.19,.55-.34,1.28-.16,1.62,.39,.02,.04,.04,.07,.06,.11,.25,.68,.19,1.43-.16,2.06-.47,.68-1.04,1.29-1.69,1.81Z"/>
      <path id="Path_304" data-name="Path 304" class="cls-10" d="M25.39,176.58c-.81,.1-1.64,.08-2.45-.07-.14,.92-.34,1.82-.61,2.71-.15,.52-.32,1.04-.49,1.55,.12-.23,.22-.42,.23-.45,.49-.74,1.87-1.88,2.83-1.61,.62,.2,.97,.86,.77,1.48-.01,.04-.03,.08-.04,.11-.34,.64-.95,1.09-1.66,1.23-.79,.1-1.59,.08-2.38-.06-.07,.2-.13,.4-.2,.59-.33,.95-.67,1.89-.97,2.83-.1,.33-.2,.66-.29,.99,.1-.2,.19-.37,.2-.39,.49-.74,1.87-1.88,2.83-1.61,.62,.2,.97,.86,.77,1.48-.01,.04-.03,.08-.04,.11-.34,.64-.95,1.09-1.66,1.23-.77,.1-1.55,.09-2.31-.04-.09,.34-.17,.68-.24,1.01-.04,.23-.1,.44-.12,.68s-.07,.45-.1,.68c-.05,.44-.1,.88-.13,1.3-.03,.3-.05,.58-.07,.86,.1-.33,.32-.97,.34-1.02,.37-.81,1.57-2.14,2.55-2.02,.64,.1,1.08,.69,.99,1.34,0,.04-.02,.08-.03,.13-.25,.68-.78,1.22-1.45,1.47-.79,.22-1.6,.32-2.42,.3-.03,.47-.06,.93-.08,1.36-.07,1.5-.07,2.74-.06,3.61l-.67,.09v-.08c0-.88,.04-2.15,.14-3.65,.03-.48,.08-.98,.12-1.51-.49-.12-.96-.28-1.43-.46-.53,.59-1.13,1.1-1.8,1.52,.23,.41,.46,.81,.68,1.18,.76,1.29,1.45,2.33,1.94,3.05l-.74,.1c-.46-.72-1.06-1.69-1.72-2.85-.24-.42-.48-.86-.73-1.33-.77,.28-1.57,.45-2.38,.5-.72-.02-1.4-.36-1.85-.92-.36-.54-.21-1.28,.34-1.63,.03-.02,.07-.04,.1-.06,.89-.44,2.46,.44,3.07,1.08,.04,.04,.38,.49,.6,.78-.1-.19-.2-.37-.3-.57-.2-.39-.39-.78-.6-1.2-.09-.2-.19-.42-.28-.63s-.17-.44-.26-.66c-.2-.52-.37-1.05-.53-1.59-.69,.39-1.44,.66-2.22,.82-.72,.09-1.44-.14-1.97-.63-.44-.48-.4-1.22,.07-1.66,.03-.03,.07-.06,.1-.08,.82-.56,2.49,.07,3.2,.61,.04,.03,.51,.48,.76,.73-.1-.32-.19-.65-.28-.98-.25-.96-.46-1.94-.69-2.92-.07-.3-.14-.6-.21-.89-.72,.4-1.49,.69-2.29,.86-.72,.09-1.44-.14-1.97-.63-.44-.48-.4-1.22,.07-1.66,.03-.03,.07-.06,.1-.08,.82-.56,2.49,.07,3.2,.61,.05,.04,.72,.68,.87,.86-.16-.65-.32-1.31-.5-1.94-.24-.86-.54-1.71-.9-2.53-.72,.4-1.5,.69-2.3,.86-.72,.09-1.44-.14-1.97-.63-.44-.48-.4-1.22,.07-1.66,.03-.03,.07-.06,.1-.08,.82-.56,2.49,.07,3.2,.61,.05,.03,.55,.53,.78,.76,.02-.01,.03-.02,.05-.03-.38-.82-.83-1.6-1.35-2.34-.28-.41-.58-.78-.86-1.15-.66,.47-1.38,.83-2.15,1.08-.7,.17-1.44,.02-2.03-.41-.49-.43-.53-1.17-.11-1.65,.03-.03,.06-.07,.1-.1,.75-.65,2.48-.21,3.24,.25,.04,.02,.43,.32,.71,.55-.13-.16-.27-.33-.4-.48-.49-.57-.97-1.06-1.41-1.49-.25-.24-.48-.46-.69-.65-.8,.11-1.6,.1-2.39-.03-.7-.18-1.29-.65-1.61-1.3-.23-.61,.07-1.29,.68-1.52,.04-.01,.08-.03,.12-.04,.96-.23,2.3,.96,2.76,1.72,.04,.07,.54,1.16,.53,1.17h-.02c.21,.19,.44,.39,.68,.62,.44,.42,.94,.9,1.45,1.46,.55,.6,1.07,1.23,1.55,1.88,.54,.73,1.01,1.51,1.41,2.33v.03c-.03-.29-.12-1.1-.12-1.16,0-.89,.53-2.6,1.47-2.91,.62-.18,1.27,.18,1.45,.81,.01,.04,.02,.08,.03,.13,.06,.72-.19,1.43-.7,1.94-.62,.53-1.32,.97-2.08,1.29,.39,.84,.72,1.71,.99,2.59,.16,.52,.31,1.04,.45,1.57-.03-.25-.05-.47-.05-.51,0-.89,.53-2.6,1.47-2.91,.62-.18,1.28,.18,1.46,.8,.01,.04,.02,.08,.03,.13,.06,.72-.19,1.43-.7,1.94-.6,.52-1.28,.95-2.02,1.27,.05,.2,.1,.41,.16,.61,.24,.97,.48,1.94,.75,2.89,.09,.33,.2,.66,.3,.98-.02-.23-.04-.41-.04-.44,0-.89,.53-2.6,1.47-2.91,.62-.18,1.28,.18,1.46,.8,.01,.04,.02,.08,.03,.13,.06,.72-.19,1.43-.7,1.94-.58,.51-1.24,.93-1.96,1.23,.12,.33,.23,.66,.36,.97,.09,.22,.16,.42,.27,.64s.2,.42,.29,.62c.2,.39,.41,.79,.61,1.16,.14,.26,.28,.51,.42,.76-.1-.33-.27-.98-.28-1.04-.09-.77,.02-1.56,.32-2.28-.01-.09-.02-.17-.02-.26,0-.65,.52-1.17,1.17-1.18,.04,0,.09,0,.13,0,.98,.13,1.8,1.73,1.96,2.6,0,.05,.05,.62,.07,.98,.02-.22,.04-.42,.07-.64,.05-.44,.1-.86,.17-1.33,.04-.23,.08-.45,.12-.68s.1-.46,.14-.7c.12-.54,.27-1.08,.44-1.62-.79-.06-1.57-.24-2.3-.54-.65-.32-1.12-.91-1.29-1.61-.1-.64,.34-1.24,.98-1.34,.04,0,.08-.01,.13-.01,.99-.02,2.05,1.43,2.33,2.27,.02,.05,.16,.68,.23,1.02,.1-.32,.2-.65,.31-.97,.32-.94,.68-1.88,1.04-2.81,.12-.29,.22-.58,.32-.86-.82-.06-1.62-.25-2.38-.55-.65-.32-1.12-.91-1.29-1.61-.1-.64,.34-1.24,.98-1.34,.04,0,.08-.01,.13-.01,.99-.02,2.05,1.43,2.33,2.27,.02,.06,.22,.96,.26,1.19,.23-.64,.46-1.27,.65-1.9,.27-.85,.49-1.73,.64-2.61-.82-.06-1.63-.25-2.4-.55-.65-.32-1.12-.91-1.29-1.61-.1-.64,.34-1.24,.98-1.34,.04,0,.08-.01,.13-.01,.99-.02,2.05,1.43,2.33,2.27,.02,.06,.17,.74,.23,1.07h.06c.14-.89,.19-1.79,.16-2.69,0-.5-.04-.97-.09-1.43-.81,.03-1.61-.07-2.39-.29-.68-.25-1.21-.78-1.46-1.46-.18-.62,.18-1.27,.81-1.45,.05-.01,.1-.02,.15-.03,.98-.13,2.19,1.2,2.57,2,.02,.04,.18,.51,.29,.85-.02-.2-.04-.42-.07-.62-.1-.75-.23-1.42-.35-2.02-.07-.34-.15-.64-.22-.93-.72-.35-1.39-.8-1.98-1.35-.49-.53-.72-1.26-.63-1.97,.14-.63,.77-1.04,1.4-.9,.04,0,.08,.02,.12,.03,.93,.34,1.39,2.07,1.36,2.96,0,.08-.19,1.27-.2,1.27,0,0-.01,0-.02,0,.07,.27,.15,.57,.23,.89,.14,.6,.29,1.27,.4,2.02,.13,.8,.22,1.61,.25,2.42,.04,.91,0,1.82-.1,2.72v.03c.12-.26,.5-.99,.53-1.04,.49-.74,1.87-1.88,2.83-1.61,.62,.2,.97,.86,.77,1.48-.01,.04-.03,.08-.04,.11-.35,.64-.96,1.09-1.68,1.24Z"/>
    </g>
  </g>
  <g id="Character_3" data-name="Character 3">
    <g id="Group_223" data-name="Group 223">
      <ellipse id="Ellipse_57" data-name="Ellipse 57" class="cls-8" cx="122.26" cy="41.92" rx="4.3" ry="4.54"/>
      <g id="Group_213" data-name="Group 213">
        <path id="Path_305" data-name="Path 305" class="cls-3" d="M121.62,147.71s.16,14.33,1.75,22.46,3.19,18.16,3.19,18.16c0,0-1.59,6.22-2.07,6.53s-3.66,2.23-2.71,3.02,10.19,0,10.19,0c.75-.94,1.05-2.17,.8-3.35-.32-2.23-.16-9.71-.16-9.71,0,0,.96-26.12,.96-30.1v-8.12l-12.26-.96,.32,2.07Z"/>
        <path id="Path_306" data-name="Path 306" class="cls-8" d="M132.77,194.53c-.16-1.77-.23-3.54-.2-5.31-.54,1.7-1.64,4.64-2.99,5.31-1.91,.96-5.1,.32-5.1,.32-.48,.32-3.66,2.23-2.71,3.02s10.19,0,10.19,0c.76-.94,1.05-2.17,.8-3.34Z"/>
      </g>
      <g id="Group_214" data-name="Group 214">
        <path id="Path_307" data-name="Path 307" class="cls-3" d="M148.69,147.71s-.16,14.33-1.75,22.46c-1.6,8.12-3.19,18.16-3.19,18.16,0,0,1.59,6.22,2.07,6.53s3.66,2.23,2.71,3.02-10.19,0-10.19,0c-.75-.94-1.05-2.17-.8-3.35,.32-2.23,.16-9.71,.16-9.71,0,0-.96-26.12-.96-30.1v-8.12l12.26-.96-.32,2.07Z"/>
        <path id="Path_308" data-name="Path 308" class="cls-8" d="M137.55,194.53c.16-1.77,.23-3.54,.2-5.31,.54,1.7,1.64,4.64,2.99,5.31,1.91,.96,5.1,.32,5.1,.32,.48,.32,3.66,2.23,2.71,3.02s-10.19,0-10.19,0c-.76-.94-1.05-2.17-.8-3.34Z"/>
      </g>
      <g id="Group_216" data-name="Group 216">
        <path id="Path_309" data-name="Path 309" class="cls-8" d="M120.67,91.97s-4.78,12.42-6.22,21.82c-1.44,9.4-6.05,27.55-5.1,28.82s3.66,1.59,3.66,1.59l-.16,2.55c3.3,1.34,6.8,2.15,10.35,2.39,5.1,.16,9.24-1.28,12.1-.64s11.63,1.28,13.86,0,4.78-2.39,4.94-3.02c.08-.74,.08-1.49,0-2.23l2.39-1.11s-.64-16.56-2.23-26.12c-1.1-6.93-2.8-13.75-5.1-20.39-1.11-2.87-5.26-3.5-5.26-3.5l-23.24-.16Z"/>
        <g id="Group_215" data-name="Group 215">
          <line id="Line_132" data-name="Line 132" class="cls-6" x1="113.02" y1="144.2" x2="114.29" y2="127.48"/>
          <line id="Line_133" data-name="Line 133" class="cls-6" x1="154.11" y1="143.25" x2="151.24" y2="121.43"/>
        </g>
      </g>
      <path id="Path_310" data-name="Path 310" class="cls-7" d="M128.11,50.52l-.72,6.81s-13.5,5.49-13.98,6.22,8.24,29.62,8.24,29.62c0,0,4.3,3.11,12.06,2.99,4.4,.04,8.69-1.39,12.18-4.06,0,0,4.9-28.55,4.06-30.22s-13.38-5.26-13.38-5.26l-.24-5.14-8.24-.96Z"/>
      <g id="Group_217" data-name="Group 217">
        <path id="Path_311" data-name="Path 311" class="cls-3" d="M132.17,73.33l7.99-15.64c-2.04-.64-3.57-1.08-3.57-1.08l-.24-5.14-9.25-1.8,.29,7.65s-1.06,.43-2.59,1.07l7.36,14.94Z"/>
        <path id="Path_312" data-name="Path 312" class="cls-8" d="M136.51,54.8l-.15-3.33-9.25-1.8,.07,1.92c1.02,1.33,3.43,4.24,5.37,4.78,1.29,.35,2.81-.58,3.97-1.57Z"/>
      </g>
      <g id="Group_220" data-name="Group 220">
        <g id="Group_219" data-name="Group 219">
          <path id="Path_313" data-name="Path 313" class="cls-3" d="M124.17,43.35s-.07-.16-.18-.39c-.39-.79-1.32-2.38-1.97-.81-.63,1.57-.25,3.36,.96,4.54,.47,.55,1.24,.75,1.91,.48,1.2,2.09,2.56,4.09,4.06,5.97,1.79,2.03,5.26,2.39,6.69,.84s3.16-2.71,3.87-6.54c.16-.86,.13-2.54,.24-3.51,.37-2.97,.47-5.96,.31-8.95-.24-2.51-1.79-6.22-4.66-7.76s-8.48-.72-11.11,2.63-3.35,6.93-2.27,8.6c.56,.83,1.04,1.71,1.43,2.63l.72,2.27Z"/>
          <g id="Group_218" data-name="Group 218">
            <path id="Path_314" data-name="Path 314" class="cls-3" d="M122.28,41.7l1.89,1.65s-.07-.16-.18-.39c-.34-.69-1.09-1.99-1.71-1.27Z"/>
            <path id="Path_315" data-name="Path 315" class="cls-8" d="M135.4,27.23c-2.87-1.55-8.48-.72-11.11,2.63s-3.35,6.93-2.27,8.6c.56,.83,1.04,1.71,1.43,2.63l.72,2.27c-.02-1.41,.14-2.81,.48-4.18,.48-1.19,2.63-6.81,8.6-6.93s5.85,5.61,6.45,7.05c.1,.22,.22,.42,.38,.6,.1-1.63,.09-3.27-.02-4.9-.23-2.51-1.79-6.21-4.65-7.76Z"/>
          </g>
        </g>
        <path id="Path_316" data-name="Path 316" class="cls-6" d="M135.04,41.68s-.24,2.39,.24,2.63,1.55,.36,1.31,1.19-1.31,1.08-1.31,1.08"/>
        <path id="Path_317" data-name="Path 317" class="cls-6" d="M130.62,47.65s.84,1.79,4.3,1.67"/>
        <path id="Path_318" data-name="Path 318" class="cls-6" d="M127.99,42.87c1.07-.5,2.31-.46,3.35,.12"/>
        <path id="Path_319" data-name="Path 319" class="cls-6" d="M135.87,42.87c.94-.47,2.07-.33,2.87,.36"/>
        <path id="Path_320" data-name="Path 320" class="cls-6" d="M127.75,40.13c1.12-1.27,3-1.52,4.42-.6"/>
        <path id="Path_321" data-name="Path 321" class="cls-6" d="M135.64,40.01s2.39-1.79,3.82,.12"/>
      </g>
      <path id="Path_322" data-name="Path 322" class="cls-7" d="M116.64,62.22s-4.54,1.31-4.66,2.03,2.87,22.57,2.87,22.57c0,0-1.55,1.43-.96,2.27s1.91,2.51,1.91,2.51c-.2,.64-.01,1.34,.48,1.79,.84,.72,3.22,9.79,5.61,14.09,1.55,2.74,3.35,5.34,5.38,7.76,.75,1.45,1.72,2.78,2.87,3.94,1.19,.84,2.03,1.55,2.75,1.19s1.43-3.22,1.55-5.02-3.7-4.06-4.18-4.3c-.6-.43-1.16-.91-1.67-1.43,0,0-3.22-6.81-3.82-10.15s-2.15-8.48-2.15-8.48c.35-.81,.63-1.65,.84-2.51,0-.48-1.31-1.67-1.31-2.15v-3.58l-1.08-12.42"/>
      <path id="Path_323" data-name="Path 323" class="cls-3" d="M130.26,111.08c-.6-.43-1.16-.91-1.67-1.43,0,0-3.22-6.81-3.82-10.15-.26-1.47-.71-3.28-1.13-4.85-2.15-.79-4.56-.34-6.27,1.18,1.14,3.17,2.83,8.62,4.53,11.67,1.55,2.74,3.35,5.34,5.38,7.76,.75,1.45,1.72,2.78,2.87,3.94,1.19,.84,2.03,1.55,2.75,1.19s1.43-3.22,1.55-5.02-3.7-4.06-4.18-4.3Z"/>
      <g id="Group_221" data-name="Group 221">
        <path id="Path_324" data-name="Path 324" class="cls-6" d="M116.88,90.77s2.99-2.03,5.02-1.19"/>
        <path id="Path_325" data-name="Path 325" class="cls-6" d="M114.97,89.58s3.82-2.75,6.22-1.55"/>
      </g>
      <g id="Group_222" data-name="Group 222">
        <path id="Path_326" data-name="Path 326" class="cls-7" d="M145.31,70.82l-.96,16.6s-1.91,2.63-1.67,3.35c.15,.5,.23,1.03,.24,1.55l-1.08,1.31-6.69,17.8c-1.09,.72-2.09,1.56-2.99,2.51-.48,1.45-.88,2.92-1.19,4.42,0,.72-.24,.72,.6,.72s1.79-2.63,1.79-2.63l-.36,3.11c-.7,.21-1.42,.37-2.15,.48-.48,0,.72,1.67,2.63,1.43,1.76-.06,3.27-1.27,3.7-2.99,.6-1.91,1.43-7.64,1.43-7.64,0,0,11.11-14.57,12.18-16.36,.86-1.27,1.32-2.77,1.31-4.3-.14-.84-.06-1.71,.24-2.51,.35-.83,.44-1.75,.24-2.63-.24-.36,.48-12.06,.12-16.13s-1.43-6.09-2.75-7.05c-1.1-.66-2.32-1.11-3.58-1.31"/>
        <path id="Path_327" data-name="Path 327" class="cls-3" d="M141.74,93.93l-6.58,17.51c-1.09,.72-2.09,1.56-2.99,2.51-.48,1.45-.88,2.92-1.19,4.42,0,.72-.24,.72,.6,.72s1.79-2.63,1.79-2.63l-.36,3.11c-.7,.21-1.42,.37-2.15,.48-.48,0,.72,1.67,2.63,1.43,1.76-.06,3.27-1.27,3.7-2.99,.6-1.91,1.43-7.64,1.43-7.64,0,0,7.01-9.19,10.43-13.87-1.98-3.2-5.53-3.26-7.31-3.05Z"/>
        <path id="Path_328" data-name="Path 328" class="cls-6" d="M144.24,91.49s3.35-1.79,5.73,.48"/>
        <path id="Path_329" data-name="Path 329" class="cls-6" d="M150.09,88.98s-3.46-.48-5.61,1.43"/>
      </g>
    </g>
  </g>
  <g id="Character_4" data-name="Character 4">
    <g id="Group_232" data-name="Group 232">
      <g id="Group_224" data-name="Group 224">
        <path id="Path_330" data-name="Path 330" class="cls-3" d="M159.21,176.85l-.96,13.22s-4.46,4.3-5.41,4.94-5.1,1.11-4.46,2.39,3.35,1.11,3.35,1.11h12.42c.52-1.09,.68-2.31,.48-3.5-.32-2.07-.64-5.89-.64-5.89l2.39-11.94-7.17-.32Z"/>
        <path id="Path_331" data-name="Path 331" class="cls-3" d="M151.72,198.51h12.42c.52-1.09,.68-2.31,.48-3.5-.08-.51-.16-1.12-.23-1.75h-4.71s-.32-1.59-.48-3.35c-.08-.85-.49-.91-.89-.76l-.07,.91s-4.46,4.3-5.41,4.94-5.1,1.11-4.46,2.39,3.34,1.12,3.34,1.12Z"/>
      </g>
      <g id="Group_225" data-name="Group 225">
        <path id="Path_332" data-name="Path 332" class="cls-3" d="M181.82,177.49l1.59,17.36s.8,4.78,1.75,4.94,4.78,.8,5.41-1.28-2.55-8.44-2.55-8.44l1.28-12.58h-7.48Z"/>
        <path id="Path_333" data-name="Path 333" class="cls-3" d="M183.41,194.85s.8,4.78,1.75,4.94,4.78,.8,5.41-1.28-2.55-8.44-2.55-8.44c0,0-1.59-1.28-2.39-.32-.55,.72-.98,1.53-1.28,2.39l-1.25-.52,.3,3.23Z"/>
      </g>
      <g id="Group_226" data-name="Group 226">
        <path id="Path_334" data-name="Path 334" class="cls-8" d="M158.25,109.64c-.68,5.33-1,10.71-.96,16.09,0,9.71,.8,49.85,.8,49.85l9.24-.32,4.94-43.32,1.11,1.59,6.53,41.73c1.24,.67,2.59,1.1,3.98,1.28,2.11-.3,4.19-.78,6.22-1.43,0,0-.64-47.78-.48-50.49-.08-3.57-.35-7.13-.8-10.67,0,0-4.46,1.28-12.1,.16s-12.1-2.71-13.38-3.35c-1.66-.55-3.37-.92-5.1-1.11Z"/>
        <line id="Line_134" data-name="Line 134" class="cls-13" x1="169.8" y1="132.34" x2="176.25" y2="129.71"/>
        <path id="Path_335" data-name="Path 335" class="cls-13" d="M161.67,114.9c-.55,2.5-1.61,4.86-3.11,6.93"/>
        <path id="Path_336" data-name="Path 336" class="cls-13" d="M184.13,117.05c.83,2.36,2.32,4.44,4.3,5.97"/>
      </g>
      <path id="Path_337" data-name="Path 337" class="cls-2" d="M176.34,60.3s-14.87,4.6-15.25,5.56-12.72,23.79-11.86,24.47,8.98,.19,9.37,0,3.74-8.73,3.74-8.73c0,0-.19,9.02-.19,9.69,.04,3-.55,5.97-1.73,8.73-1.47,3.5-2.47,7.17-2.97,10.94v1.25s10.17,6.52,17.94,5.47c4.71-.64,9.36-1.67,13.91-3.07-.12-2.93-.48-5.85-1.06-8.73-.77-2.78-2.4-11.8-2.4-12.76s1.25-2.78,1.34-3.07,4.41-15.25,4.41-15.25l3.65,12.28,6.24-.96s-2.02-18.99-3.26-20.05-16.21-4.99-16.21-4.99l-5.67-.78Z"/>
      <g id="Group_227" data-name="Group 227">
        <path id="Path_338" data-name="Path 338" class="cls-12" d="M158.59,90.33c.33-.49,.6-1.02,.81-1.58h-9.77c-.36,.91-.52,1.5-.39,1.59,.85,.67,8.97,.19,9.35,0Z"/>
        <path id="Path_339" data-name="Path 339" class="cls-12" d="M161.1,98.36c-.19,.57-.41,1.12-.68,1.66-.51,1.07-.93,2.17-1.27,3.3h28.49c-.32-1.5-.67-3.29-.97-4.96h-25.58Z"/>
        <path id="Path_340" data-name="Path 340" class="cls-12" d="M188.66,107.97h-30.71c-.23,.98-.4,1.98-.51,2.99v1.25s.45,.29,1.22,.73h30.52c-.09-1.35-.26-3.28-.52-4.96Z"/>
        <path id="Path_341" data-name="Path 341" class="cls-12" d="M187.56,88.75h-25.37c-.02,1.31-.04,2.33-.04,2.54,0,.27,0,1.19-.12,2.42h23.87c-.03-.2-.05-.4-.06-.6,0-.96,1.25-2.78,1.34-3.07,.01-.05,.15-.53,.37-1.29Z"/>
        <path id="Path_342" data-name="Path 342" class="cls-12" d="M188.91,84.1c.48-1.65,.99-3.42,1.43-4.96h-36.12c-.88,1.73-1.73,3.43-2.47,4.96h9.6c.57-1.4,.99-2.49,.99-2.49,0,0-.02,1.07-.05,2.49h26.62Z"/>
        <path id="Path_343" data-name="Path 343" class="cls-12" d="M176.34,60.3s-9.34,2.89-13.4,4.57h32.33c-4.71-1.55-13.26-3.8-13.26-3.8l-5.66-.77Z"/>
        <path id="Path_344" data-name="Path 344" class="cls-12" d="M159.21,69.52c-.74,1.41-1.64,3.13-2.59,4.96h43.42c-.26-1.8-.54-3.54-.81-4.96h-40.02Z"/>
        <path id="Path_345" data-name="Path 345" class="cls-12" d="M192.88,79.14l1.47,4.96h6.89c-.14-1.27-.35-3.03-.59-4.96h-7.77Z"/>
      </g>
      <path id="Path_346" data-name="Path 346" class="cls-6" d="M176.34,60.3s-14.87,4.6-15.25,5.56-12.72,23.79-11.86,24.47,8.98,.19,9.37,0,3.74-8.73,3.74-8.73c0,0-.19,9.02-.19,9.69,.04,3-.55,5.97-1.73,8.73-1.47,3.5-2.47,7.17-2.97,10.94v1.25s10.17,6.52,17.94,5.47c4.71-.64,9.36-1.67,13.91-3.07-.12-2.93-.48-5.85-1.06-8.73-.77-2.78-2.4-11.8-2.4-12.76s1.25-2.78,1.34-3.07,4.41-15.25,4.41-15.25l3.65,12.28,6.24-.96s-2.02-18.99-3.26-20.05-16.21-4.99-16.21-4.99l-5.67-.78Z"/>
      <g id="Group_228" data-name="Group 228">
        <path id="Path_347" data-name="Path 347" class="cls-3" d="M177.59,53.4l-2.21,7.77,2.69,8.83,5.47-7.77,2.39-4.31-8.34-4.51Z"/>
        <path id="Path_348" data-name="Path 348" class="cls-8" d="M177.26,54.56l-.67,2.36,.26,1.35c.56,1.62,1.51,3.08,2.76,4.26,.81,.65,1.75,1.12,2.76,1.36l1.17-1.66,2.15-3.88-8.44-3.79Z"/>
      </g>
      <g id="Group_230" data-name="Group 230">
        <path id="Path_349" data-name="Path 349" class="cls-8" d="M176.56,45.94c-.41-1.45-.61-2.94-.61-4.45-.1-3.03,.51-5.76,1.51-5.26s.81,2.12,.81,2.12c.95-2.56,3.34-4.32,6.07-4.45,4.75-.3,3.44,1.62,3.44,1.62,0,0,7.58-.61,10.21,2.63s2.12,6.37,1.41,6.37h-1.51s2.33,6.78,.61,8.09-4.85-3.34-4.85-3.34c0,0-.41,1.62-1.21,2.02-.49,.24-.99,.45-1.51,.61-1.68-.48-3.28-1.2-4.75-2.12-1.56-1.46-2.94-3.09-4.14-4.85,0,0-2.73,3.34-3.74,3.74-.59,.23-1.16,.5-1.72,.81v-3.53Z"/>
        <g id="Group_229" data-name="Group 229">
          <path id="Path_350" data-name="Path 350" class="cls-3" d="M177.33,47.87s0-3.86-1.34-2.52-1.85,3.69-1.01,4.87l.84,1.18,.84,.67c-.37,1.6-.37,3.27,0,4.87,.67,1.85,1.85,4.37,4.7,4.03,2.69-.15,5.11-1.66,6.43-4.01,1.18-2.35,3.65-6.06,3.65-6.06-2.59-.19-4.97-1.47-6.55-3.53-1.24-1.62-2.2-3.44-2.85-5.37,0,0-2.36,4.87-4.71,5.87Z"/>
          <path id="Path_351" data-name="Path 351" class="cls-6" d="M179.29,49.98c.51,.94,1.58,1.44,2.63,1.21"/>
          <path id="Path_352" data-name="Path 352" class="cls-6" d="M184.55,52.3c.38,1.24,1.7,1.93,2.94,1.55,.03,0,.06-.02,.1-.03"/>
          <path id="Path_353" data-name="Path 353" class="cls-6" d="M180.5,54.93s.3,1.11,2.23,.71"/>
          <path id="Path_354" data-name="Path 354" class="cls-6" d="M179.19,55.44s.2,2.23,3.74,2.23"/>
          <path id="Path_355" data-name="Path 355" class="cls-6" d="M180,48.36c1.09-.08,2.14,.37,2.83,1.21"/>
          <path id="Path_356" data-name="Path 356" class="cls-6" d="M185.35,50.99s1.62-.2,2.83,1.92"/>
        </g>
      </g>
      <path id="Path_357" data-name="Path 357" class="cls-6" d="M176.15,48.13s-1.53,0-1.63,.67c-.08,5.03,.18,10.06,.77,15.06,.77,5.08,1.73,10.26,2.02,10.36s8.73-14.87,9.11-15.44"/>
      <path id="Path_358" data-name="Path 358" class="cls-5" d="M161.62,76.9l1.34,13.72,5.47-.29-1.15-13.81-5.66,.38Z"/>
      <path id="Path_359" data-name="Path 359" class="cls-1" d="M159.36,89.47l1.06-6.14,1.63-2.78,.1,2.4s4.99-3.36,5.08-2.59-3.65,3.74-3.65,3.74v.86s3.45-1.92,3.84-2.02,1.34-.96,1.25-.1-1.34,1.63-1.82,2.02-2.49,1.63-2.49,1.63c0,0,3.84-2.11,3.84-1.44s-.96,1.53-1.25,1.82-1.25,1.63-1.82,2.3-4.6,2.11-4.6,2.11c0,0-9.69,4.03-11.41,4.41s-1.85-3.93-.7-5.37c.95-1.14,2.3-1.86,3.77-2.02,1.53-.38,7.19,1.15,7.19,1.15Z"/>
      <path id="Path_360" data-name="Path 360" class="cls-6" d="M166.85,90.52s.58,4.7,1.92,6.91,4.99,3.26,6.71,1.53,2.69-5.57,2.59-10.36-.77-14.39-.77-14.39"/>
      <path id="Path_361" data-name="Path 361" class="cls-3" d="M156.98,172.08l.64,6.53h10.67l.32-6.37-11.62-.16Z"/>
      <path id="Path_362" data-name="Path 362" class="cls-3" d="M178.96,173.19l.79,5.41,10.99,.16,.32-6.37-12.1,.8Z"/>
      <g id="Group_231" data-name="Group 231">
        <path id="Path_363" data-name="Path 363" class="cls-3" d="M189.1,53.78l-.77,3.26s-4.12,2.4-4.31,3.45,9.31,24.17,10.17,25.71,1.92,4.12,4.51,3.55,3.65-4.31,2.78-6.04-14.3-21.97-14.3-21.97l5.37-4.89s.1-4.41-.1-5.37-.29-1.34-.29-1.34c0,0-2.49,3.07-3.07,3.64Z"/>
        <path id="Path_364" data-name="Path 364" class="cls-6" d="M189.81,53.26v4.17l-.85,1.43"/>
        <path id="Path_365" data-name="Path 365" class="cls-6" d="M190.92,51.9s.13,4.41,.13,4.94c-.08,.47-.25,.91-.52,1.3"/>
        <path id="Path_366" data-name="Path 366" class="cls-6" d="M191.63,51.04s.39,5.01,.39,5.53c-.04,.38-.2,.74-.45,1.04"/>
      </g>
    </g>
  </g>
  <g id="Character_2" data-name="Character 2">
    <g id="Group_237" data-name="Group 237">
      <path id="Path_367" data-name="Path 367" class="cls-3" d="M100.4,187.68l2.75,4.02s9.01,4.97,9.36,5.08,.35,1.04-.23,1.15-2.66,.35-2.66,.35h-18.95s-.46-1.85-.69-2.89c-.05-1.47,.07-2.94,.35-4.39l.12-3.01,9.96-.32Z"/>
      <path id="Path_368" data-name="Path 368" class="cls-8" d="M69.82,98.97l.64,18.79,2.71,62.59-1.11,3.35,1.59,5.1c1.14-1.1,2.84-1.42,4.3-.8,1.4,.64,2.69,1.5,3.82,2.55,.48-.88,.91-1.78,1.28-2.71,.35-1.13,.51-2.32,.48-3.5,0-.48,2.23-2.71,2.23-3.5s-1.91-4.14-1.91-4.14l3.02-59.4,3.5,62.75s-.96,1.11-.96,1.59,1.28,8.12,1.28,8.12c0,0,.16,.16,2.07,.16s4.46-.48,5.26-1.28c.69-.54,1.52-.87,2.39-.96l.32-3.5-.64-2.55,2.07-38.54v-38.85l.16-5.89-32.81-.48,.31,1.12Z"/>
      <path id="Path_369" data-name="Path 369" class="cls-3" d="M75.88,50.4l-11.63,6.22-7.01,26.44-9.24,14.18,3.34,2.71,12.42-12.1,3.5-4.46,1.28,8.12s-2.39,5.73-1.11,6.85c.91,.74,1.93,1.33,3.02,1.75h31.85c.28-.94,.49-1.9,.64-2.87,0-.64-.8-6.05-.8-6.05l.48-11.15,1.75,9.88,1.59,17.36,4.78-.16,.96-23.25-6.69-27.24-13.38-5.58-15.76-.64Z"/>
      <path id="Path_370" data-name="Path 370" class="cls-3" d="M78.78,45.98l-2.27,.24-2.15,4.06,1.55,9.91,7.29-5.14,7.29,5.38,2.51-10.27-2.99-4.3-11.23,.12Z"/>
      <path id="Path_371" data-name="Path 371" class="cls-3" d="M78.06,42.28l-.36,6.09,5.97,7.17,5.38-7.41-.48-5.97s-6.21,1.67-10.51,.12Z"/>
      <path id="Path_372" data-name="Path 372" class="cls-8" d="M88.76,44.47l-.19-2.32s-6.22,1.67-10.51,.12l-.09,1.54c.91,1.68,2.98,4.96,5.37,5.16,2.01,.18,4.12-2.49,5.42-4.5Z"/>
      <g id="Group_234" data-name="Group 234">
        <path id="Path_373" data-name="Path 373" class="cls-3" d="M75.08,32.6s-.84-1.79-1.31-.36,1.43,4.42,1.43,4.42l.36-3.94-.48-.12Z"/>
        <path id="Path_374" data-name="Path 374" class="cls-3" d="M91,32.6s.84-1.79,1.31-.36-1.43,4.42-1.43,4.42l-.36-3.94,.48-.12Z"/>
        <path id="Path_375" data-name="Path 375" class="cls-8" d="M90.36,34.63s.24,.12,.6-.72c.33-1.85,.53-3.73,.6-5.61,0,0,2.39-3.58,1.08-6.09s-5.73-3.58-8.96-4.3-8.12,.6-9.67,2.39-3.11,3.94-2.15,5.14c.94,1.02,1.98,1.94,3.11,2.75,0,0-.36,3.7,.12,4.42l.48,.72,.6-4.9c2.26-.26,4.5-.7,6.69-1.31,2.51-.84,3.7-1.19,3.7-1.19,.49,.97,1.14,1.86,1.91,2.63,.45,.3,.85,.66,1.19,1.08l.72,5.02Z"/>
        <g id="Group_233" data-name="Group 233">
          <path id="Path_376" data-name="Path 376" class="cls-3" d="M75.67,27.47s-.84,10.39-.12,11.94,3.7,7.29,8.36,6.81,6.45-5.14,6.69-7.88-.24-10.15-.24-10.15c0,0-2.27-.96-2.51-1.91-.16-.83-.24-1.67-.24-2.51,0,0-7.05,4.3-11.95,3.7Z"/>
          <path id="Path_377" data-name="Path 377" class="cls-8" d="M83.44,36.42c-1.26,.15-2.46,.65-3.46,1.44-.75,.68-1.65,1.18-2.63,1.43,1.36,1.57,3.3,2.52,5.38,2.63,3.22,0,5.26-1.55,5.61-2.63l.36-1.08c-1.2-.14-2.37-.46-3.46-.96-.57-.34-1.17-.62-1.79-.84Z"/>
          <path id="Path_378" data-name="Path 378" class="cls-3" d="M82.24,33.92c-.12,1.03-.12,2.08,0,3.11,.24,.48,2.03,1.43,2.27,.36,.13-1.15,.13-2.31,0-3.46"/>
          <ellipse id="Ellipse_58" data-name="Ellipse 58" class="cls-9" cx="79.56" cy="32.96" rx=".66" ry=".84"/>
          <ellipse id="Ellipse_59" data-name="Ellipse 59" class="cls-9" cx="86.66" cy="32.96" rx=".66" ry=".84"/>
          <path id="Path_379" data-name="Path 379" class="cls-6" d="M77.58,30.69s.6-1.91,3.58-.84"/>
          <path id="Path_380" data-name="Path 380" class="cls-6" d="M84.63,29.73s1.67-1.55,3.7,.48"/>
        </g>
      </g>
      <path id="Path_381" data-name="Path 381" class="cls-6" d="M64.88,65.37l2.39,18-4.46-13.06"/>
      <line id="Line_135" data-name="Line 135" class="cls-6" x1="83.68" y1="57.25" x2="85.27" y2="90.85"/>
      <line id="Line_136" data-name="Line 136" class="cls-6" x1="102.63" y1="80.02" x2="102.79" y2="63.94"/>
      <line id="Line_137" data-name="Line 137" class="cls-13" x1="84.15" y1="117.77" x2="90.52" y2="113.79"/>
      <path id="Path_382" data-name="Path 382" class="cls-3" d="M74.03,188.27l-1.38,4.39s-3.23,5.2-3.12,5.66,12.82,0,12.82,0c0,0,.92,0,.81-1.96-.21-1.98-.51-3.94-.92-5.89,0,0-1.38-3.58-4.04-4.16s-4.17,1.27-4.17,1.96Z"/>
      <g id="Group_235" data-name="Group 235">
        <path id="Path_383" data-name="Path 383" class="cls-6" d="M111,114.57l-.93,5.87-.53-.26,1.45-5.61Z"/>
        <path id="Path_384" data-name="Path 384" class="cls-3" d="M105.98,107.25l-1.09,5.2,.48,5.37,.79,.09,.29-3.78,.55,6.01,2.34,.44s1.56-5.12,1.67-6.01-.25-7.47-.25-7.47l-4.77,.16Z"/>
        <line id="Line_138" data-name="Line 138" class="cls-6" x1="107.63" y1="120.09" x2="108.5" y2="113.63"/>
        <line id="Line_139" data-name="Line 139" class="cls-6" x1="108.33" y1="120.35" x2="109.9" y2="114.15"/>
      </g>
      <g id="Group_236" data-name="Group 236">
        <path id="Path_385" data-name="Path 385" class="cls-3" d="M48,97.22s-3.82,1.75-4.78,2.07-1.28,1.43-2.39,2.23-2.55,1.75-1.75,2.07c.56,.19,1.16,.25,1.75,.16l1.43-1.75-2.55,5.58-.16,2.07,1.91,.8,4.46-2.39,5.41-8.12-3.34-2.71Z"/>
        <path id="Path_386" data-name="Path 386" class="cls-3" d="M42.27,102s1.87,1.57,3.03,1.24,2.07-2.74,2.07-2.74"/>
        <line id="Line_140" data-name="Line 140" class="cls-6" x1="39.74" y1="108.8" x2="42.4" y2="104.9"/>
        <line id="Line_141" data-name="Line 141" class="cls-6" x1="40.49" y1="109.87" x2="43.56" y2="105.48"/>
        <line id="Line_142" data-name="Line 142" class="cls-6" x1="41.47" y1="110.44" x2="45.05" y2="106.14"/>
      </g>
    </g>
  </g>
  <g id="Character_1" data-name="Character 1">
    <g id="Group_242" data-name="Group 242">
      <path id="Path_387" data-name="Path 387" class="cls-3" d="M53.22,187.36c.24,.86,.56,1.7,.96,2.51,.48,.84,1.19,3.7,2.15,4.18,.89,.67,1.39,1.75,1.31,2.87,0,.96-.24,1.19-.84,1.19h-11.95s-.12-1.55-.12-2.99,.24-3.7,.24-4.3v-3.82c1.78-.21,3.58-.33,5.38-.36,2.51,0,2.87,.72,2.87,.72Z"/>
      <path id="Path_388" data-name="Path 388" class="cls-3" d="M32.31,187l-2.15,5.49s-2.75,2.63-2.75,3.7,.6,1.55,.96,1.55h12.19c.27-1.26,.31-2.55,.12-3.82-.36-1.79-1.08-4.54-1.08-4.54l-4.78-2.51-2.51,.12Z"/>
      <path id="Path_389" data-name="Path 389" class="cls-8" d="M30.05,138.86l2.27,42.28s-1.55,2.63-1.19,3.35c.36,1.05,.64,2.13,.84,3.22l4.42,2.63s3.11-.48,3.22-.96,.48-3.11,.6-4.78-.6-3.22-.48-4.9,2.63-34.04,2.63-34.04l.84-.24,1.79,38.7c-.27,.61-.47,1.25-.6,1.91-.12,.84,1.08,2.51,1.08,2.51,0,0,0,1.43,.72,1.67,.97,.14,1.96-.12,2.75-.72,.48-.48,.24-1.91,1.31-2.15,1.13,.02,2.23,.31,3.22,.84,.06-1.15,.06-2.31,0-3.46-.26-.99-.71-1.92-1.31-2.75l1.55-31.18-.48-11.94H30.05Z"/>
      <path id="Path_390" data-name="Path 390" class="cls-3" d="M60.14,119.39l-.96,22.93s.96,5.49,.96,5.85c-.12,1.25-.57,2.45-1.31,3.46-.3,.32-.8,.34-1.12,.04-.08-.08-.15-.17-.19-.28l.24-1.31-.6-2.87-.84,3.22s-1.08,.12-.84-1.31,.12-3.94,.36-4.78c.16-.67,.24-1.35,.24-2.03,0,0-2.39-12.3-2.39-12.66s-.6-9.44-.6-9.44l7.04-.83Z"/>
      <circle id="Ellipse_60" data-name="Ellipse 60" class="cls-3" cx="21.27" cy="131.15" r="9.02"/>
      <g id="Group_238" data-name="Group 238">
        <path id="Path_391" data-name="Path 391" class="cls-3" d="M17.26,113.3s-3.94,4.9-4.18,5.49-4.18,13.86-3.82,15.17,1.79,4.18,2.15,5.14,4.3,2.99,5.61,2.99c.87-.12,1.69-.47,2.38-1.02,.29-.2,.36-.6,.16-.89-.06-.09-.14-.16-.23-.21-.51-.26-1-.54-1.48-.86-.84-.6-1.55-1.19-1.55-1.19,0,0,1.67,1.31,1.79,.36s-.96-1.67-1.31-2.39c-.67-.98-1.48-1.86-2.39-2.63l-1.43-.96s-.48-3.82,.6-5.61c.64-1.08,1.5-2.01,2.51-2.75l2.39-3.58,2.27-1.91-3.46-5.14Z"/>
        <line id="Line_143" data-name="Line 143" class="cls-6" x1="16.31" y1="137.91" x2="13.2" y2="136.23"/>
      </g>
      <path id="Path_392" data-name="Path 392" class="cls-7" d="M38.88,96.34l-11.71,4.06-11.59,13.38,5.38,6.93,8.12-5.61,.24,24.61c3.71,1.26,7.56,2.06,11.47,2.39,6.22,.48,12.9-2.39,12.9-2.39l.96-17.08,8.24-2.51s-5.73-15.88-6.81-17.8-10.63-5.38-10.63-5.38c-2.14-.59-4.36-.79-6.57-.6Z"/>
      <line id="Line_144" data-name="Line 144" class="cls-6" x1="54.65" y1="122.62" x2="55.01" y2="106.37"/>
      <line id="Line_145" data-name="Line 145" class="cls-6" x1="29.09" y1="115.09" x2="27.78" y2="108.04"/>
      <g id="Group_239" data-name="Group 239">
        <path id="Path_393" data-name="Path 393" class="cls-3" d="M38.17,91.68s.36,5.26,.24,6.22,.48,4.3,2.87,4.66,4.66-3.94,4.9-4.3c.05-1.2-.03-2.4-.24-3.58l-7.76-2.99Z"/>
        <path id="Path_394" data-name="Path 394" class="cls-8" d="M46.24,97.7c-.05-1.02-.15-2.03-.31-3.03l-7.76-2.99s.05,.7,.1,1.64c1.13,1.52,2.68,2.68,4.45,3.35,1.15,.42,2.32,.77,3.52,1.03Z"/>
      </g>
      <g id="Group_241" data-name="Group 241">
        <g id="Group_240" data-name="Group 240">
          <path id="Path_395" data-name="Path 395" class="cls-3" d="M49.16,78.18s-1.31-2.99-5.97-3.82-9.79,1.31-11.59,5.61,2.15,8.72,2.15,8.72c0,0,4.06,3.94,4.9,4.78,1.02,1.25,2.47,2.06,4.06,2.27,2.15,.24,5.38,.6,6.57,0s1.67-2.87,1.91-3.35,1.19-4.18,.48-5.97c-.4-1.03-1.01-1.97-1.79-2.75,.07-1.86-.17-3.72-.72-5.49Z"/>
          <path id="Path_396" data-name="Path 396" class="cls-8" d="M48.68,79.14c.21-.21,.41-.43,.58-.67-.03-.1-.07-.19-.1-.28,0,0-1.31-2.99-5.97-3.82s-9.79,1.31-11.59,5.61,2.15,8.72,2.15,8.72c0,0,.6,.58,1.39,1.35,.16-.26,.38-.48,.64-.64,.84-.48,1.79,1.19,1.79,1.19,.43-.13,.77-.43,.96-.84,.36-.72-1.19-2.99-1.19-2.99,.43-.84,.99-1.61,1.67-2.27,1.21-1.5,2.29-3.09,3.22-4.78l.24,1.79c.68-.12,1.32-.36,1.91-.72,.6-.48,1.67-1.43,1.67-1.43l-.24,1.91c1.03-.62,1.99-1.34,2.87-2.15Z"/>
          <path id="Path_397" data-name="Path 397" class="cls-6" d="M48.92,86.78s2.03,1.55,1.43,2.27c-.36,.43-.88,.69-1.43,.72"/>
          <path id="Path_398" data-name="Path 398" class="cls-6" d="M45.45,91.32c.95,.86,2.32,1.05,3.46,.48"/>
          <path id="Path_399" data-name="Path 399" class="cls-9" d="M45.21,86.93c.07,.46-.13,.87-.46,.92s-.65-.28-.72-.74,.13-.87,.46-.92,.65,.28,.72,.74Z"/>
          <path id="Path_400" data-name="Path 400" class="cls-9" d="M49.51,85.26c.07,.46-.13,.87-.46,.92s-.65-.28-.72-.74,.13-.87,.46-.92,.65,.28,.72,.74Z"/>
          <path id="Path_401" data-name="Path 401" class="cls-6" d="M42.83,85.59c.41-.88,1.3-1.44,2.27-1.43"/>
          <path id="Path_402" data-name="Path 402" class="cls-6" d="M47.72,83.56s1.19-1.08,1.91-.96"/>
        </g>
        <path id="Path_403" data-name="Path 403" class="cls-3" d="M38.88,90.72s-1.55-3.35-3.22-3.11-1.79,2.87-.36,4.3c.9,.83,2.21,1.07,3.34,.6"/>
      </g>
    </g>
  </g>
</svg>