<?xml version="1.0" encoding="UTF-8"?>
<svg id="Layer_1" data-name="Layer 1" xmlns="http://www.w3.org/2000/svg" xmlns:xlink="http://www.w3.org/1999/xlink" viewBox="0 0 217.93 200.5">
  <defs>
    <style>
      .cls-1 {
        fill: #757575;
      }

      .cls-1, .cls-2, .cls-3, .cls-4, .cls-5 {
        stroke-linecap: round;
        stroke-linejoin: round;
      }

      .cls-1, .cls-3, .cls-6, .cls-4, .cls-5 {
        stroke: #263238;
      }

      .cls-7 {
        fill: #bfbfbf;
      }

      .cls-8 {
        clip-path: url(#clippath-2);
      }

      .cls-2 {
        stroke: #fff;
      }

      .cls-2, .cls-6, .cls-9, .cls-4 {
        fill: none;
      }

      .cls-10 {
        clip-path: url(#clippath-1);
      }

      .cls-11, .cls-12 {
        opacity: .3;
      }

      .cls-11, .cls-13, .cls-14 {
        isolation: isolate;
      }

      .cls-15, .cls-5 {
        fill: #ddb724;
      }

      .cls-3, .cls-14 {
        fill: #fff;
      }

      .cls-13, .cls-16 {
        opacity: .2;
      }

      .cls-6 {
        stroke-miterlimit: 10;
      }

      .cls-17 {
        clip-path: url(#clippath);
      }

      .cls-14 {
        opacity: .7;
      }

      .cls-18 {
        clip-path: url(#clippath-3);
      }

      .cls-19 {
        fill: #263238;
      }
    </style>
    <clipPath id="clippath">
      <path class="cls-9" d="M66.33,193.71c25.87,9.15,56.42,8.24,79.81-2.26,13.21-6.05,25.02-14.78,34.68-25.64l-8.71-8.96h-9.58l-4.25-13.61s-67.66-.98-73.84-.61c-6.18,.37-10.78,9.12-10.78,9.12l7.48,11.9-9.91,14.7-4.91,15.35Z"/>
    </clipPath>
    <clipPath id="clippath-1">
      <path class="cls-9" d="M147.11,75.6s-13.07,.58-16.15,10.09c0,0-5.88,3.31-4.08,8.52s3.4,10.88,3.4,10.88c-.55,3.77-.77,7.58-.66,11.39,0,0-2,4.94-1.04,6,0,0-2.23,1.77-2.04,2.26,1.49,3.72,24.36,7.82,30.02,3.67,1.73-1.27-6.69-22.59-5.87-23.67s4.2-10.73,3.8-12.34c0,0,3.8,1.18,3.8-6.72s-5.5-11.14-11.18-10.08Z"/>
    </clipPath>
    <clipPath id="clippath-2">
      <path class="cls-9" d="M147.11,75.6s-13.07,.58-16.15,10.09c0,0-5.88,3.31-4.08,8.52s3.4,10.88,3.4,10.88c-.55,3.77-.77,7.58-.66,11.39,0,0-2,4.94-1.04,6,0,0-2.23,1.77-2.04,2.26,1.49,3.72,24.36,7.82,30.02,3.67,1.73-1.27-6.69-22.59-5.87-23.67s4.2-10.73,3.8-12.34c0,0,3.8,1.18,3.8-6.72s-5.5-11.14-11.18-10.08Z"/>
    </clipPath>
    <clipPath id="clippath-3">
      <path class="cls-9" d="M147.11,75.6s-13.07,.58-16.15,10.09c0,0-5.88,3.31-4.08,8.52s3.4,10.88,3.4,10.88c-.55,3.77-.77,7.58-.66,11.39,0,0-2,4.94-1.04,6,0,0-2.23,1.77-2.04,2.26,1.49,3.72,24.36,7.82,30.02,3.67,1.73-1.27-6.69-22.59-5.87-23.67s4.2-10.73,3.8-12.34c0,0,3.8,1.18,3.8-6.72s-5.5-11.14-11.18-10.08Z"/>
    </clipPath>
  </defs>
  <g id="Component_3_1" data-name="Component 3 1">
    <g id="_4" data-name=" 4">
      <g id="Background_Simple" data-name="Background Simple">
        <g id="Group_244" data-name="Group 244">
          <path id="Path_405" data-name="Path 405" class="cls-15" d="M186.07,18.17c-.1-.09-.19-.17-.28-.26-26.08-23.48-60.71-24.54-85.94,.74-13.15,13.17-36.5,10.65-53.21,15.42C-10.97,50.5-1.01,128.65,27.45,166.43c25.68,34.09,81.31,41.8,118.69,25.02,32.85-14.74,55.97-47.67,64.21-82.1,.82-3.45,1.51-6.94,2.02-10.45,4.33-29.31-3.99-60.44-26.3-80.73Z"/>
          <path id="Path_406" data-name="Path 406" class="cls-14" d="M186.07,18.17c-.1-.09-.19-.17-.28-.26-26.08-23.48-60.71-24.54-85.94,.74-13.15,13.17-36.5,10.65-53.21,15.42C-10.97,50.5-1.01,128.65,27.45,166.43c25.68,34.09,81.31,41.8,118.69,25.02,32.85-14.74,55.97-47.67,64.21-82.1,.82-3.45,1.51-6.94,2.02-10.45,4.33-29.31-3.99-60.44-26.3-80.73Z"/>
        </g>
      </g>
      <g id="Clouds">
        <g id="Group_245" data-name="Group 245">
          <path id="Path_407" data-name="Path 407" class="cls-4" d="M16.79,51.51s1.57-5.46,12.18-5.49c10.6-.03,16.82,9.57,16.82,9.57,0,0,4.44-4.18,9.82-1.39s5.35,6.9,5.35,6.9l44.14,3.54-95.95,.02"/>
          <path id="Path_408" data-name="Path 408" class="cls-4" d="M217.43,87.79s-1.57-5.46-12.18-5.49c-10.6-.03-16.82,9.57-16.82,9.57,0,0-4.44-4.18-9.82-1.39s-5.35,4.37-5.35,4.37h-13.81"/>
          <path id="Path_409" data-name="Path 409" class="cls-4" d="M.5,85.14s1.57-5.46,12.18-5.49,16.82,9.57,16.82,9.57c0,0,4.44-4.18,9.82-1.39s5.35,4.37,5.35,4.37h13.81"/>
          <path id="Path_410" data-name="Path 410" class="cls-4" d="M6.22,127.27l14.97-1.01s-2.13-4.06,2.67-8.86c2.43-2.78,6.49-3.45,9.68-1.6,0,0,4.71-14.6,18.46-12.89,13.75,1.71,15.21,13.71,15.21,13.71,0,0,2.94-2.95,8.93-1.02,5.99,1.93,6.89,9.35,5.41,12.47,0,0,6.82,1.2,7.27,6.46,0,0,.42-4.65,6.84-4.8s8.01,7.06,8.01,7.06h7.2"/>
          <path id="Path_411" data-name="Path 411" class="cls-4" d="M203.01,36.13l-20.88-2.56c-.39-3.5-3.53-6.03-7.03-5.68-1.23-3.82-4.4-6.7-8.32-7.55-6.9-1.76-10.5,5.5-10.5,5.5-2.46-.62-5.06-.23-7.22,1.1-3.31,2.08-1.99,6.04-1.99,6.04l-36.41,3.65s53.48,1.22,87.49,.08"/>
          <path id="Path_412" data-name="Path 412" class="cls-4" d="M182.16,115.83l-35.97-1.62c-3.95-11.96-18.91-6.96-18.91-6.96-5.66-12.41-18.88-6.49-18.88-6.49,0,0-6.73-11.96-19.99-9.46s-15.99,13.09-15.99,13.09l-9.16,.35"/>
          <line id="Line_146" data-name="Line 146" class="cls-4" x1="36.91" y1="106.41" x2="1.47" y2="107.35"/>
        </g>
      </g>
      <g id="Stone">
        <g id="Group_247" data-name="Group 247">
          <path id="Path_413" data-name="Path 413" class="cls-7" d="M66.33,193.71c25.87,9.15,56.42,8.24,79.81-2.26,13.21-6.05,25.02-14.78,34.68-25.64l-8.71-8.96h-9.58l-4.25-13.61s-67.66-.98-73.84-.61c-6.18,.37-10.78,9.12-10.78,9.12l7.48,11.9-9.91,14.7-4.91,15.35Z"/>
          <g class="cls-17">
            <g id="Group_246" data-name="Group 246">
              <path id="Path_414" data-name="Path 414" class="cls-11" d="M91.42,148.55c9.28,1.4,24.05-2.4,24.05-2.4,8.03,2.18,16.36,2.99,24.66,2.4,9.05-.66,13.19-3.49,14.96-5.35-13.47-.19-65.28-.88-70.65-.56-.52,.03-1.03,.12-1.53,.27l4.31,1.29s-5.08,2.95,4.2,4.35Z"/>
              <path id="Path_415" data-name="Path 415" class="cls-11" d="M162.53,156.85s-16.36,8.26-16.77,7.81-10.95-3.9-10.95-3.9l-6.69,2.1,6.69-8.47,17.82-.54,5.64-10.6,4.25,13.61Z"/>
              <path id="Path_416" data-name="Path 416" class="cls-11" d="M70.88,179.47l10.26,6.34,20.52-6.68-20.52-15.47-9.91,14.7-.35,1.11Z"/>
              <path id="Path_417" data-name="Path 417" class="cls-11" d="M85.48,198.55c20.89,3.33,42.85,.9,60.66-7.1,13.21-6.05,25.02-14.78,34.68-25.64l-8.71-8.96-8.4,18.21h-25.02l-17.08,14.83-23.21,1.08-12.93,7.57Z"/>
              <path id="Path_418" data-name="Path 418" class="cls-4" d="M120.28,164.84l-11.21,1.74-10.34-4.56-2.14-7.63-14.46-1.47-8.47-1.16"/>
              <path id="Path_419" data-name="Path 419" class="cls-4" d="M134.82,154.39l17.82-.54,5.64-10.6"/>
              <path id="Path_420" data-name="Path 420" class="cls-4" d="M138.69,175.07l-17.08,14.83-12.28-4.1,1.33-8.56-5.48,.17"/>
              <path id="Path_421" data-name="Path 421" class="cls-4" d="M70.68,179.34l10.47,6.46,.99,5.18"/>
            </g>
          </g>
          <path id="Path_423" data-name="Path 423" class="cls-6" d="M66.33,193.71c25.87,9.15,56.42,8.24,79.81-2.26,13.21-6.05,25.02-14.78,34.68-25.64l-8.71-8.96h-9.58l-4.25-13.61s-67.66-.98-73.84-.61c-6.18,.37-10.78,9.12-10.78,9.12l7.48,11.9-9.91,14.7-4.91,15.35Z"/>
        </g>
      </g>
      <g id="Character">
        <g id="Group_256" data-name="Group 256">
          <path id="Path_424" data-name="Path 424" class="cls-19" d="M155.75,125.94c1.29,11.74-2.14,17.34-8.64,19.87-7.07,2.76-17.44,1.97-25.68-.29-1.54-.43-27.68-9.84-31.82-16.78-3.43-5.75-3.88-11.4,3.47-11.79,3.5-.19,34.67,8.19,34.67,8.19l2.93-1.07,25.07,1.87Z"/>
          <path id="Path_425" data-name="Path 425" class="cls-3" d="M138.11,70.36c.26,.3,.46,.65,.59,1.03,.35,1.07,.55,2.18,.6,3.3,.07,1.16,.08,2.33,.01,3.49l8.43-.32c-.44-2.81,.24-5.68,1.91-7.99,.19-14.02-13.13-1.27-11.53,.49Z"/>
          <g id="Group_251" data-name="Group 251">
            <path id="Path_426" data-name="Path 426" class="cls-15" d="M147.11,75.6s-13.07,.58-16.15,10.09c0,0-5.88,3.31-4.08,8.52s3.4,10.88,3.4,10.88c-.55,3.77-.77,7.58-.66,11.39,0,0-2,4.94-1.04,6,0,0-2.23,1.77-2.04,2.26,1.49,3.72,24.36,7.82,30.02,3.67,1.73-1.27-6.69-22.59-5.87-23.67s4.2-10.73,3.8-12.34c0,0,3.8,1.18,3.8-6.72s-5.5-11.14-11.18-10.08Z"/>
            <g class="cls-10">
              <g id="Group_248" data-name="Group 248">
                <path id="Path_427" data-name="Path 427" class="cls-13" d="M158.28,85.69c0,7.89-3.8,6.71-3.8,6.71,.03,.96-.1,1.92-.4,2.84-.21-.12-.41-.25-.61-.39-5.23-3.75-4.11-14.48-16.02-14.02,0,0,4.34-3.13,8.31-2.03s7.33,5.02,8.5,4.96-.66-1.73-.79-2.6c-.11-.67,2.38,.8,4.42,1.16h0c.27,1.1,.4,2.23,.39,3.37Z"/>
              </g>
            </g>
            <g class="cls-8">
              <g id="Group_249" data-name="Group 249">
                <path id="Path_429" data-name="Path 429" class="cls-13" d="M142.94,101.21s-1.15,13.59-13.94,16.99c.31-.98,.61-1.72,.61-1.72-.11-3.81,.11-7.62,.66-11.39,0,0-1.59-5.68-3.4-10.88-.03-.09-.06-.17-.08-.26,1.75-.48,3.28-1.53,4.36-2.98,2.76-3.63,11.77,10.25,11.77,10.25Z"/>
              </g>
            </g>
            <g class="cls-18">
              <g id="Group_250" data-name="Group 250">
                <path id="Path_431" data-name="Path 431" class="cls-13" d="M137.45,125.77c-3.44,.43-6.92,.34-10.33-.28h0c-.25-.2-.44-.46-.58-.75-.18-.46,1.72-2.01,2-2.24,2.84,1.42,5.82,2.52,8.9,3.27Z"/>
              </g>
            </g>
            <path id="Path_433" data-name="Path 433" class="cls-4" d="M147.11,75.6s-13.07,.58-16.15,10.09c0,0-5.88,3.31-4.08,8.52s3.4,10.88,3.4,10.88c-.55,3.77-.77,7.58-.66,11.39,0,0-2,4.94-1.04,6,0,0-2.23,1.77-2.04,2.26,1.49,3.72,24.36,7.82,30.02,3.67,1.73-1.27-6.69-22.59-5.87-23.67s4.2-10.73,3.8-12.34c0,0,3.8,1.18,3.8-6.72s-5.5-11.14-11.18-10.08Z"/>
          </g>
          <path id="Path_434" data-name="Path 434" class="cls-4" d="M154.49,92.4c-2.6-.87-2.55-9.54-7.38-11.67s-11.41,.13-13.25,2.26"/>
          <path id="Path_435" data-name="Path 435" class="cls-3" d="M97.34,114.6l-7.77,1.06-2.44,2.01-.84,3.07s1.1-.33,1.92-2.23c0,0,.95-.59,1.91-1.25,1.43,.5,2.94,.72,4.45,.65,1.74-.02,2.15,1.85,4.39,1.27,4-1.03-1.62-4.58-1.62-4.58Z"/>
          <path id="Path_436" data-name="Path 436" class="cls-5" d="M140.75,83.97c-5.9-2.14-12.2,12.12-18.2,19.96-.87,1.13-17.61,7.2-23.2,9.2l-3.6,1.07s2.14,4.93,5.2,6.53l2.8-.8s25.74-5.11,28.73-7.05c1.52-.99,14.64-14.28,14.64-18.42"/>
          <g id="Group_252" data-name="Group 252">
            <path id="Path_437" data-name="Path 437" class="cls-1" d="M111.6,143.44c1.55-4.71-3.9-6.59-6.71-5.9s-6.67-.6-9.61-.15-6.01,.58-5.21,5.24,19.86,5.87,21.53,.8Z"/>
            <path id="Path_438" data-name="Path 438" class="cls-4" d="M101.27,138.24l-.36,1.01c-1.82-.57-3.73-.74-5.62-.5-2.14,.57-3.14,.44-3.41,1.3s-.73,2.6,0,2.87,6.87,2,8.2,1.87l.54,1.4"/>
            <line id="Line_147" data-name="Line 147" class="cls-4" x1="98.09" y1="144.53" x2="98.09" y2="145.64"/>
            <line id="Line_148" data-name="Line 148" class="cls-4" x1="95.62" y1="143.96" x2="95.28" y2="145.08"/>
            <line id="Line_149" data-name="Line 149" class="cls-4" x1="92.97" y1="143.24" x2="92.47" y2="144.52"/>
            <line id="Line_150" data-name="Line 150" class="cls-4" x1="91.48" y1="142.01" x2="90.47" y2="142.21"/>
            <line id="Line_151" data-name="Line 151" class="cls-4" x1="91.87" y1="140.04" x2="90.97" y2="139.51"/>
            <line id="Line_152" data-name="Line 152" class="cls-4" x1="93.37" y1="139.16" x2="92.97" y2="138.24"/>
            <line id="Line_153" data-name="Line 153" class="cls-4" x1="95.93" y1="138.24" x2="95.93" y2="137.71"/>
            <line id="Line_154" data-name="Line 154" class="cls-4" x1="98.41" y1="138.7" x2="98.74" y2="137.71"/>
            <path id="Path_439" data-name="Path 439" class="cls-4" d="M104.87,138.2l.4,1.3c.87-.69,2.06-.83,3.06-.34,1.54,.88,1.61,2.21,1.01,3.75s-3.47,1.61-3.47,1.61l-.4,1.12"/>
            <line id="Line_155" data-name="Line 155" class="cls-4" x1="108.07" y1="145.08" x2="107.68" y2="144.2"/>
            <line id="Line_156" data-name="Line 156" class="cls-4" x1="110.67" y1="143.24" x2="109.34" y2="142.9"/>
            <line id="Line_157" data-name="Line 157" class="cls-4" x1="110.67" y1="140.2" x2="109.53" y2="140.44"/>
            <line id="Line_158" data-name="Line 158" class="cls-4" x1="107.87" y1="138.24" x2="107.68" y2="138.87"/>
            <path id="Path_440" data-name="Path 440" class="cls-4" d="M101.67,140.2c-.77,1.19-.92,2.68-.4,4"/>
            <path id="Path_441" data-name="Path 441" class="cls-4" d="M104.87,140.44s.73,2.28,0,3.44"/>
            <path id="Path_442" data-name="Path 442" class="cls-4" d="M104.27,139.51c-.67,.09-1.34-.03-1.94-.34"/>
            <path id="Path_443" data-name="Path 443" class="cls-4" d="M104.53,145.64c-.72-.23-1.49-.23-2.2,0"/>
            <path id="Path_444" data-name="Path 444" class="cls-4" d="M98.74,140.04c-.12,1.06-.17,2.13-.16,3.21"/>
            <path id="Path_445" data-name="Path 445" class="cls-4" d="M95.93,139.77c-.18,.95-.29,1.9-.31,2.87"/>
            <path id="Path_446" data-name="Path 446" class="cls-4" d="M93.37,140.04s-.3,1.54-.4,2.07"/>
            <path id="Path_447" data-name="Path 447" class="cls-4" d="M107.28,140.2s-.04,1.31,0,2.71"/>
          </g>
          <g id="Group_253" data-name="Group 253" class="cls-12">
            <path id="Path_448" data-name="Path 448" class="cls-2" d="M136.55,130.15s-2.53,1.09-2.14,2.11,1.05,2.49,1.05,2.49c0,0-6.29,2.71-8.93,2.55s-11.85-3.57-11.85-3.57v-4.32l-2.8-1.73s-1.65,5.73-1.49,8l2.56,2.03,1.07-2.56"/>
            <path id="Path_449" data-name="Path 449" class="cls-2" d="M140.78,130.81c-1.29,1.89-2.71,3.69-4.23,5.4-3.03,1.21-6.22,2-9.47,2.34-2.3-.04-11.6-3.04-11.6-3.04"/>
            <path id="Path_450" data-name="Path 450" class="cls-2" d="M110.67,128.11c0-.3-5.48-1.9-5.48-1.9,.02,1.85-.2,3.7-.66,5.5l-.76,3s5.14,2.59,6.9,2.59"/>
            <path id="Path_451" data-name="Path 451" class="cls-2" d="M103.3,129.31s-12.7-5.4-13.36-5.7c-.58-.16-1.18-.16-1.76,0"/>
            <path id="Path_452" data-name="Path 452" class="cls-2" d="M104.54,131.71s-6.45-2.37-8.76-4.04c-2.21-1.28-4.61-2.21-7.1-2.77"/>
            <path id="Path_453" data-name="Path 453" class="cls-2" d="M148.38,134.21c1.75,.07,3.5-.09,5.2-.5l.9,3.59s-2.6,1.19-3.9,.91-2.2-2.22-2.2-2.22"/>
            <path id="Path_454" data-name="Path 454" class="cls-2" d="M147.58,136.81s-2.1,4.85-4.6,5.83c2.04,1.05,4.4,1.27,6.6,.61,0,0,3.46-2.82,3.89-5.53"/>
          </g>
          <path id="Path_455" data-name="Path 455" class="cls-19" d="M138.69,71.4c.35,1.07,.55,2.18,.6,3.3,2.79-1.74,2.24-3.3,2.24-3.3h-2.84Z"/>
          <g id="Group_254" data-name="Group 254">
            <path id="Path_456" data-name="Path 456" class="cls-3" d="M149.19,70.21c10.36-11.76,2.62-18.12-3.59-18.6-13.94-1.08-9.37,10.48-10.17,11.17-1.31,1.13-2.59,1.53-2.63,2.09-.07,.87,1.35,1.97,1.35,1.97l-.5,1.87,.48,.19s.15,4.96,1.4,4.96c3.75,0,5.98-1.2,6.45-2.36"/>
            <path id="Path_457" data-name="Path 457" class="cls-4" d="M136.31,58.37c1.08,.08,2.01,.82,2.33,1.86"/>
            <path id="Path_458" data-name="Path 458" class="cls-19" d="M136.46,62.42c-.04,.5,.1,.91,.31,.93s.41-.37,.46-.87-.1-.91-.31-.93-.42,.37-.46,.87Z"/>
            <path id="Path_459" data-name="Path 459" class="cls-4" d="M134.11,68.9s1.15,.09,1.4-.39"/>
            <path id="Path_460" data-name="Path 460" class="cls-19" d="M140.12,50.5c-2.08,.04-4.04,.96-5.42,2.52-1.13,1.51-1.29,3.53-.41,5.2l.79-1.55c1.03,1.37,2.69,2.11,4.4,1.96l-.53-2.33c.7,1.49,1.89,2.69,3.38,3.39l-.32,4.09s1.55-1.68,3.17-.68c3.01,1.87,2,6.85,2,6.85,1.53,.88,3.37,1.03,5.02,.39,2.37-1.17,9.01-9.07,3.44-16.46-5.57-7.39-14.66-4.11-15.52-3.37Z"/>
            <path id="Path_461" data-name="Path 461" class="cls-3" d="M143.5,62.99s2.93-2.6,3.84-.6-.32,4.05-1.76,5.27-4.26,1.41-3.06-.24"/>
            <path id="Path_462" data-name="Path 462" class="cls-19" d="M155.58,57.99s2.68-7.08,9.36-6.07c4.59,.7,1.24,2.75,1.24,2.75,0,0,4.93,.79,6.11,4.62,.6,1.93-3.14,.26-3.14,.26,1.13,1.24,1.84,2.81,2.04,4.47,.32,2.01-1.96,1.8-5.46-1.75,.51,1.26,1.41,2.32,2.56,3.03,2.18,1.56-3.45,2.39-6.37-1.37,.09,.88-.26,1.74-.94,2.31-1.13,.89-.38-2.94-3.84-4.23s-1.57-4.03-1.57-4.03Z"/>
          </g>
          <g id="Group_255" data-name="Group 255" class="cls-16">
            <path id="Path_463" data-name="Path 463" class="cls-2" d="M138.69,51.82s-3.1,1.24-2.38,3.97"/>
            <path id="Path_464" data-name="Path 464" class="cls-2" d="M139.48,52.29c-.07,2.29,1.41,4.34,3.6,5"/>
            <path id="Path_465" data-name="Path 465" class="cls-2" d="M142.24,51.54s9.56-2.03,13.66,5.75"/>
            <path id="Path_466" data-name="Path 466" class="cls-2" d="M144.17,59.95s6.92,2.55,12.12,0"/>
            <path id="Path_467" data-name="Path 467" class="cls-2" d="M149.38,67.9c2.62-1.2,4.87-3.08,6.51-5.44"/>
            <path id="Path_468" data-name="Path 468" class="cls-2" d="M158.28,57.29s4.74-3.26,8.5,.6"/>
            <path id="Path_469" data-name="Path 469" class="cls-2" d="M159.28,59.29s4.01-.18,4.43,3.16"/>
          </g>
          <path id="Path_470" data-name="Path 470" class="cls-4" d="M128.58,122.48c5.82,3.2,12.49,4.5,19.08,3.73"/>
          <path id="Path_471" data-name="Path 471" class="cls-4" d="M147.11,99s-2.37,4.09-5.53,4.44"/>
          <path id="Path_472" data-name="Path 472" class="cls-4" d="M150.68,104.74s-2.77,3.47-4.92,3.33"/>
          <path id="Path_473" data-name="Path 473" class="cls-4" d="M98.41,113.41c.71,2.13,2.08,3.98,3.92,5.27"/>
          <path id="Path_474" data-name="Path 474" class="cls-4" d="M122.54,103.94s3.73,1.95,6.67-.49"/>
        </g>
      </g>
    </g>
  </g>
</svg>