<svg id="Layer_1" data-name="Layer 1" xmlns="http://www.w3.org/2000/svg" viewBox="0 0 200 200"><defs><style>.cls-1{fill:none;stroke:#1a2e35;stroke-miterlimit:10;}.cls-2{fill:#dcb626;}.cls-3{fill:#231f20;}.cls-4{fill:#fff;}.cls-5{fill:#004712;}.cls-6{fill:#414042;}</style></defs><rect class="cls-1" x="5.79" y="18.37" width="188.42" height="170.16"/><path class="cls-2" d="M148.43,39.74A4.87,4.87,0,0,1,147,43.2l-1.29,1.3-6.93,6.92-6.92-6.92-1.3-1.3a4.9,4.9,0,0,1,6.93-6.92l1.29,1.3,1.3-1.3a4.89,4.89,0,0,1,8.35,3.46Z"/><path class="cls-3" d="M138.78,51.62a.16.16,0,0,1-.13-.06l-8.22-8.22a5.09,5.09,0,0,1,3.6-8.69,5,5,0,0,1,3.59,1.49l1.16,1.16,1.16-1.16a5.09,5.09,0,0,1,7.2,7.2l-8.22,8.22A.2.2,0,0,1,138.78,51.62ZM134,35a4.7,4.7,0,0,0-3.33,8l8.08,8.08,8.08-8.08a4.68,4.68,0,0,0,0-6.64,4.71,4.71,0,0,0-6.65,0l-1.29,1.29a.17.17,0,0,1-.14.06h0a.19.19,0,0,1-.13-.05l-1.3-1.3A4.67,4.67,0,0,0,134,35Z"/><path class="cls-2" d="M109.1,32.46a2.73,2.73,0,0,1-.79,1.91l-.72.71-3.82,3.83L100,35.08l-.72-.71a2.71,2.71,0,0,1,1.91-4.62,2.67,2.67,0,0,1,1.91.79l.72.72.71-.72a2.71,2.71,0,0,1,4.62,1.92Z"/><path class="cls-3" d="M103.77,39.1a.24.24,0,0,1-.14-.05L99.09,34.5a2.89,2.89,0,0,1,2-4.94,2.85,2.85,0,0,1,2,.85l.58.57.58-.58a2.89,2.89,0,0,1,4.94,2.06,2.87,2.87,0,0,1-.84,2l-4.54,4.55A.24.24,0,0,1,103.77,39.1ZM101.14,30a2.51,2.51,0,0,0-1.77,4.28l4.4,4.4,4.4-4.4a2.51,2.51,0,1,0-3.55-3.55l-.71.72a.24.24,0,0,1-.14.05h0a.24.24,0,0,1-.14-.05l-.72-.72A2.49,2.49,0,0,0,101.14,30Z"/><ellipse class="cls-3" cx="111.01" cy="60.81" rx="3.51" ry="3.71"/><path class="cls-3" d="M111,64.71a3.91,3.91,0,1,1,3.7-3.9A3.81,3.81,0,0,1,111,64.71Zm0-7.41a3.52,3.52,0,1,0,3.31,3.51A3.42,3.42,0,0,0,111,57.3Z"/><path class="cls-4" d="M110.49,147.24s.13,11.72,1.43,18.35,2.6,14.84,2.6,14.84-1.3,5.07-1.69,5.33-3,1.82-2.21,2.47,8.32,0,8.32,0a3.27,3.27,0,0,0,.65-2.73c-.26-1.82-.13-7.94-.13-7.94s.79-21.34.79-24.59v-6.64l-10-.78Z"/><path class="cls-3" d="M113.23,188.72a6.24,6.24,0,0,1-2.74-.34.53.53,0,0,1-.21-.48c0-.68,1.25-1.54,2.3-2.21l.14-.09a34.52,34.52,0,0,0,1.6-5.18c-.1-.63-1.35-8.47-2.59-14.79-1.27-6.48-1.43-17.9-1.44-18.37l-.26-1.68a.18.18,0,0,1,0-.16.19.19,0,0,1,.16-.06l10,.78a.19.19,0,0,1,.18.19V153c0,3.22-.77,24.39-.78,24.6s-.13,6.12.13,7.9a3.44,3.44,0,0,1-.71,2.9.23.23,0,0,1-.12.06C118.17,188.5,115.4,188.72,113.23,188.72Zm-2.77-42.95.22,1.44v0c0,.12.15,11.77,1.43,18.31s2.59,14.76,2.6,14.85a.09.09,0,0,1,0,.07c-.4,1.55-1.36,5.18-1.77,5.45l-.15.1c-1.73,1.1-2.11,1.65-2.12,1.91,0,0,0,.09.07.15.52.44,5.22.21,8.11,0a3.21,3.21,0,0,0,.55-2.52c-.26-1.82-.14-7.72-.13-8s.78-21.38.78-24.59v-6.46Z"/><path class="cls-3" d="M119.59,185.5c-.12-.86-.15-2.66-.16-4.34-.44,1.39-1.34,3.79-2.44,4.34-1.56.78-4.16.26-4.16.26-.39.26-3,1.82-2.21,2.47s8.32,0,8.32,0A3.27,3.27,0,0,0,119.59,185.5Z"/><path class="cls-3" d="M113.23,188.72a6.24,6.24,0,0,1-2.74-.34.53.53,0,0,1-.21-.48c0-.68,1.25-1.54,2.3-2.21l.14-.09a.2.2,0,0,1,.15,0s2.55.5,4-.24c.76-.38,1.61-1.92,2.35-4.23a.2.2,0,0,1,.38.06,38.2,38.2,0,0,0,.16,4.31,3.44,3.44,0,0,1-.71,2.9.23.23,0,0,1-.12.06C118.17,188.5,115.4,188.72,113.23,188.72Zm-.36-2.75-.08.05c-1.73,1.1-2.11,1.65-2.12,1.91,0,0,0,.09.07.15.52.44,5.22.21,8.11,0a3.21,3.21,0,0,0,.55-2.52h0a31.06,31.06,0,0,1-.16-3.23c-.54,1.46-1.28,2.94-2.16,3.38A7.9,7.9,0,0,1,112.87,186Zm6.07,2.26h0Z"/><path class="cls-4" d="M132.61,147.24s-.13,11.72-1.43,18.35-2.61,14.84-2.61,14.84,1.3,5.07,1.69,5.33,3,1.82,2.22,2.47-8.33,0-8.33,0a3.27,3.27,0,0,1-.65-2.73c.26-1.82.13-7.94.13-7.94s-.78-21.34-.78-24.59v-6.64l10-.78Z"/><path class="cls-3" d="M129.86,188.72c-2.17,0-4.94-.22-5.73-.29a.27.27,0,0,1-.12-.06,3.44,3.44,0,0,1-.71-2.9c.26-1.78.13-7.84.13-7.9s-.78-21.38-.78-24.6v-6.64a.19.19,0,0,1,.18-.19l10-.78a.19.19,0,0,1,.16.06.18.18,0,0,1,.05.16l-.26,1.68c0,.47-.16,11.89-1.43,18.37-1.24,6.32-2.5,14.16-2.6,14.79a32.88,32.88,0,0,0,1.61,5.18l.13.09c1.05.67,2.26,1.53,2.31,2.21a.56.56,0,0,1-.22.48A6.21,6.21,0,0,1,129.86,188.72Zm-5.62-.67c2.9.24,7.59.47,8.11,0a.19.19,0,0,0,.08-.15c0-.26-.4-.81-2.13-1.91l-.14-.1c-.41-.27-1.38-3.9-1.78-5.45v-.07c0-.09,1.32-8.28,2.6-14.85s1.43-18.19,1.43-18.31v0l.23-1.44-9.6.74V153c0,3.21.78,24.37.78,24.59s.13,6.15-.13,8A3.21,3.21,0,0,0,124.24,188.05Z"/><path class="cls-3" d="M123.5,185.5a41.08,41.08,0,0,0,.16-4.34c.44,1.39,1.34,3.79,2.44,4.34,1.56.78,4.16.26,4.16.26.39.26,3,1.82,2.22,2.47s-8.33,0-8.33,0A3.27,3.27,0,0,1,123.5,185.5Z"/><path class="cls-3" d="M129.86,188.72c-2.17,0-4.94-.22-5.73-.29a.27.27,0,0,1-.12-.06,3.44,3.44,0,0,1-.71-2.9h0a37.41,37.41,0,0,0,.17-4.31.19.19,0,0,1,.16-.19.2.2,0,0,1,.22.13c.73,2.31,1.58,3.85,2.34,4.23,1.48.74,4,.24,4,.24a.17.17,0,0,1,.14,0l.14.09c1.05.67,2.26,1.53,2.31,2.21a.56.56,0,0,1-.22.48A6.21,6.21,0,0,1,129.86,188.72Zm-5.62-.67c2.9.24,7.59.47,8.11,0a.19.19,0,0,0,.08-.15c0-.26-.4-.81-2.13-1.91l-.08-.05a7.9,7.9,0,0,1-4.21-.29c-.88-.44-1.62-1.92-2.16-3.38a28.41,28.41,0,0,1-.16,3.23h0A3.21,3.21,0,0,0,124.24,188.05Zm-.74-2.55Z"/><path class="cls-5" d="M109.71,101.7s-3.91,10.15-5.08,17.83-4.94,22.51-4.16,23.55,3,1.3,3,1.3l-.13,2.08a27.2,27.2,0,0,0,8.46,2c4.16.13,7.54-1,9.89-.53s9.5,1.05,11.32,0,3.9-1.95,4-2.47a8.13,8.13,0,0,0,0-1.82l1.95-.91s-.52-13.53-1.82-21.34A98.5,98.5,0,0,0,133,104.69c-.91-2.34-4.3-2.86-4.3-2.86Z"/><path class="cls-3" d="M128.55,148.69a38.45,38.45,0,0,1-6.92-.6,13.76,13.76,0,0,0-4.46.15,33.89,33.89,0,0,1-5.39.37,27.81,27.81,0,0,1-8.53-2,.21.21,0,0,1-.12-.19l.12-1.9a5.06,5.06,0,0,1-2.94-1.35c-.5-.67.41-5.16,1.94-12.45.85-4,1.72-8.2,2.19-11.25,1.16-7.61,5-17.77,5.08-17.87a.2.2,0,0,1,.19-.12h0l19,.13c.18,0,3.54.56,4.48,3a98,98,0,0,1,4.17,16.7c1.29,7.73,1.82,21.23,1.83,21.36a.21.21,0,0,1-.11.19l-1.83.85a7.36,7.36,0,0,1,0,1.75c-.11.43-.94.89-2.51,1.72-.53.28-1.08.57-1.62.87A11.15,11.15,0,0,1,128.55,148.69Zm-8.27-1.12a7.35,7.35,0,0,1,1.44.13c2.34.53,9.42,1,11.18,0,.54-.31,1.09-.6,1.63-.89a8,8,0,0,0,2.31-1.46,8,8,0,0,0,0-1.76.2.2,0,0,1,.11-.2l1.83-.85c-.06-1.41-.59-13.89-1.81-21.19a98.49,98.49,0,0,0-4.15-16.62c-.86-2.21-4.11-2.73-4.15-2.74l-18.83-.12c-.45,1.19-3.93,10.55-5,17.66-.46,3.06-1.34,7.24-2.19,11.27-1.13,5.43-2.42,11.58-2,12.13.72,1,2.84,1.23,2.86,1.23a.18.18,0,0,1,.17.2l-.12,2a27.26,27.26,0,0,0,8.26,1.88,33.27,33.27,0,0,0,5.33-.37A25.75,25.75,0,0,1,120.28,147.57Z"/><path class="cls-3" d="M103.46,144.58h0a.21.21,0,0,1-.18-.21l1-13.67a.21.21,0,0,1,.21-.18.2.2,0,0,1,.17.21l-1,13.67A.19.19,0,0,1,103.46,144.58Z"/><path class="cls-3" d="M137,143.8a.19.19,0,0,1-.19-.17L134.5,125.8a.19.19,0,0,1,.16-.22.19.19,0,0,1,.22.17l2.34,17.83a.18.18,0,0,1-.16.21Z"/><path class="cls-2" d="M115.79,67.84l-.59,5.56s-11,4.49-11.42,5.07,6.74,24.21,6.74,24.21,3.51,2.53,9.86,2.44a16.12,16.12,0,0,0,10-3.32s4-23.33,3.32-24.69-10.93-4.3-10.93-4.3l-.2-4.19Z"/><path class="cls-3" d="M120,105.32c-6.1,0-9.46-2.38-9.61-2.48a.26.26,0,0,1-.07-.11c-2.15-7.12-7.11-23.77-6.71-24.36s9.32-4.26,11.4-5.11l.57-5.44a.25.25,0,0,1,.08-.14.23.23,0,0,1,.14,0l6.73.78a.2.2,0,0,1,.18.19l.19,4c1.54.45,10.23,3,10.91,4.36s-2.89,22.42-3.3,24.81a.17.17,0,0,1-.06.11,16.45,16.45,0,0,1-10.08,3.37Zm-9.32-2.77a17.46,17.46,0,0,0,9.68,2.37,16.25,16.25,0,0,0,9.78-3.22c1.6-9.36,3.8-23.55,3.32-24.5s-6.72-3-10.81-4.2a.19.19,0,0,1-.14-.18l-.18-4L116,68.05l-.56,5.37a.22.22,0,0,1-.12.16c-4.13,1.68-10.78,4.49-11.32,5C103.9,79.62,107.93,93.41,110.69,102.55Zm-6.72-24M115.2,73.4h0Z"/><path class="cls-4" d="M119.11,86.48l6.53-12.78c-1.67-.53-2.92-.89-2.92-.89l-.2-4.19L115,67.15l.23,6.25-2.11.87Z"/><path class="cls-3" d="M119.11,86.67h0a.19.19,0,0,1-.18-.11l-6-12.21a.16.16,0,0,1,0-.15.2.2,0,0,1,.11-.11l2-.82-.23-6.11a.2.2,0,0,1,.07-.16.18.18,0,0,1,.16,0l7.56,1.47a.19.19,0,0,1,.16.18l.19,4.06c.36.1,1.45.42,2.78.84a.24.24,0,0,1,.13.11.2.2,0,0,1,0,.17l-6.53,12.78A.19.19,0,0,1,119.11,86.67Zm-5.75-12.3L119.11,86l6.25-12.22c-1.53-.49-2.68-.81-2.7-.82a.19.19,0,0,1-.14-.18l-.19-4-7.16-1.39.23,6a.21.21,0,0,1-.12.19Z"/><path class="cls-3" d="M122.65,71.34l-.13-2.72L115,67.15l0,1.56c.84,1.09,2.81,3.47,4.39,3.91C120.46,72.91,121.7,72.14,122.65,71.34Z"/><path class="cls-3" d="M119.9,72.88a2,2,0,0,1-.55-.08c-1.58-.44-3.48-2.67-4.48-4a.15.15,0,0,1,0-.11l-.06-1.56a.2.2,0,0,1,.07-.16.18.18,0,0,1,.16,0l7.56,1.47a.19.19,0,0,1,.16.18l.12,2.72a.17.17,0,0,1-.06.15A4.79,4.79,0,0,1,119.9,72.88Zm-4.68-4.24c.8,1,2.73,3.37,4.24,3.79,1,.27,2.15-.48,3-1.18l-.12-2.47-7.16-1.39Z"/><path class="cls-4" d="M112.57,62l-.15-.32c-.31-.64-1.08-1.94-1.61-.65a3.41,3.41,0,0,0,.78,3.7,1.38,1.38,0,0,0,1.56.39A39.23,39.23,0,0,0,116.47,70c1.47,1.66,4.3,2,5.47.69s2.58-2.22,3.16-5.34c.13-.7.11-2.08.2-2.87a40.88,40.88,0,0,0,.25-7.31c-.2-2-1.47-5.07-3.81-6.34s-6.93-.59-9.07,2.14-2.74,5.66-1.86,7A12.76,12.76,0,0,1,112,60.13Z"/><path class="cls-3" d="M119.83,71.65h0a4.77,4.77,0,0,1-3.45-1.54,34.69,34.69,0,0,1-3.26-4.77,1.56,1.56,0,0,1-1.62-.5,3.55,3.55,0,0,1-.82-3.91c.18-.43.42-.66.7-.67a.88.88,0,0,1,.58.27l-.11-.34h0a13,13,0,0,0-1.15-2.1c-1-1.56-.22-4.61,1.86-7.26,2.21-2.81,6.91-3.5,9.32-2.2s3.69,4.21,3.91,6.5a41,41,0,0,1-.25,7.36c0,.33-.06.77-.07,1.24a13.64,13.64,0,0,1-.13,1.63,8.08,8.08,0,0,1-2.65,4.86c-.19.19-.38.38-.56.58A3,3,0,0,1,119.83,71.65Zm-6.68-6.74a.18.18,0,0,1,.17.1,38.26,38.26,0,0,0,3.3,4.84,4.38,4.38,0,0,0,3.16,1.41,2.61,2.61,0,0,0,2-.73l.57-.58a7.78,7.78,0,0,0,2.55-4.66,14.87,14.87,0,0,0,.12-1.58c0-.47,0-.92.07-1.27a40.92,40.92,0,0,0,.25-7.27c-.21-2.19-1.54-5-3.7-6.19s-6.73-.58-8.83,2.09c-2.22,2.83-2.61,5.62-1.84,6.8a12.22,12.22,0,0,1,1.18,2.19l.59,1.86a.18.18,0,0,1-.12.24.19.19,0,0,1-.24-.1s-.06-.13-.14-.31c-.4-.81-.73-1.1-.9-1.1h0c-.11,0-.24.16-.35.43a3.17,3.17,0,0,0,.75,3.51,1.19,1.19,0,0,0,1.33.34A.13.13,0,0,1,113.15,64.91Z"/><path class="cls-4" d="M111,60.63,112.57,62l-.15-.32C112.15,61.1,111.53,60,111,60.63Z"/><path class="cls-3" d="M112.57,62.18a.21.21,0,0,1-.13,0l-1.54-1.35a.2.2,0,0,1,0-.28.59.59,0,0,1,.54-.23c.38,0,.78.49,1.18,1.31l.15.33a.2.2,0,0,1-.07.23A.21.21,0,0,1,112.57,62.18Zm-1.22-1.53.55.49c-.23-.33-.41-.47-.53-.49Z"/><path class="cls-3" d="M121.74,48.81c-2.34-1.27-6.93-.59-9.07,2.14s-2.74,5.66-1.86,7A12.76,12.76,0,0,1,112,60.13l.59,1.85a13.53,13.53,0,0,1,.39-3.41c.39-1,2.15-5.57,7-5.66s4.79,4.58,5.27,5.75a1.88,1.88,0,0,0,.32.49,32.22,32.22,0,0,0,0-4C125.35,53.1,124.08,50.08,121.74,48.81Z"/><path class="cls-3" d="M112.57,62.18a.2.2,0,0,1-.19-.14l-.58-1.85h0a13,13,0,0,0-1.15-2.1c-1-1.56-.22-4.61,1.86-7.26,2.21-2.81,6.91-3.5,9.32-2.2s3.69,4.21,3.91,6.5a30.81,30.81,0,0,1,0,4,.19.19,0,0,1-.13.18.21.21,0,0,1-.21-.06,2.16,2.16,0,0,1-.35-.54,7.33,7.33,0,0,1-.25-1c-.37-1.78-1-4.75-4.83-4.67-2.14,0-5,1-6.83,5.49l0,0a13.65,13.65,0,0,0-.38,3.34.19.19,0,0,1-.16.19Zm6.34-13.8a7.91,7.91,0,0,0-6.09,2.69c-2.22,2.83-2.61,5.62-1.84,6.8a12.22,12.22,0,0,1,1.18,2.19l.25.77a8.44,8.44,0,0,1,.37-2.34l0,0c1.85-4.66,4.93-5.69,7.18-5.74,4.17-.07,4.85,3.21,5.22,5a7.71,7.71,0,0,0,.2.8,26.28,26.28,0,0,0-.05-3.32c-.21-2.19-1.54-5-3.7-6.19A5.83,5.83,0,0,0,118.91,48.38Z"/><path class="cls-3" d="M121.64,64.81a.19.19,0,0,1-.19-.15.2.2,0,0,1,.15-.23s.77-.18.93-.75c.09-.3-.12-.43-.64-.61l-.33-.13c-.45-.23-.38-1.57-.31-2.34a.21.21,0,0,1,.22-.18.19.19,0,0,1,.17.21,4.21,4.21,0,0,0,.1,2,2,2,0,0,0,.28.11c.41.14,1.09.38.89,1.09a1.71,1.71,0,0,1-1.22,1Z"/><path class="cls-3" d="M121.08,67.06c-2.69,0-3.39-1.42-3.42-1.48a.2.2,0,0,1,.1-.26.18.18,0,0,1,.25.09c0,.06.7,1.34,3.33,1.26a.2.2,0,0,1,.21.18.21.21,0,0,1-.19.21Z"/><path class="cls-3" d="M118.42,61.88a.15.15,0,0,1-.09,0,2.8,2.8,0,0,0-2.55-.1.19.19,0,0,1-.18-.34,3.15,3.15,0,0,1,2.92.1.19.19,0,0,1,.07.27A.19.19,0,0,1,118.42,61.88Z"/><path class="cls-3" d="M124.47,62.08a.17.17,0,0,1-.14-.07c-.77-.85-2.1-.25-2.12-.24a.2.2,0,0,1-.16-.36,2.31,2.31,0,0,1,2.57.34.2.2,0,0,1,0,.28A.19.19,0,0,1,124.47,62.08Z"/><path class="cls-3" d="M115.5,59.54a.19.19,0,0,1-.15-.32,3,3,0,0,1,3.86-.53.2.2,0,0,1-.2.34,2.57,2.57,0,0,0-3.36.44A.19.19,0,0,1,115.5,59.54Z"/><path class="cls-3" d="M125.06,59.54a.21.21,0,0,1-.16-.08c-1-1.38-2.77-.11-2.85-.05a.2.2,0,0,1-.23-.32c.73-.54,2.38-1.22,3.4.14a.2.2,0,0,1,0,.27A.19.19,0,0,1,125.06,59.54Z"/><path class="cls-2" d="M106.42,77.4s-3.71,1.07-3.81,1.66S105,97.5,105,97.5s-1.27,1.18-.79,1.86,1.57,2,1.57,2a1.4,1.4,0,0,0,.39,1.46c.68.59,2.63,8,4.58,11.52a43.19,43.19,0,0,0,4.4,6.34,12.91,12.91,0,0,0,2.34,3.22c1,.69,1.66,1.27,2.24,1s1.17-2.64,1.27-4.1-3-3.32-3.41-3.51a9.65,9.65,0,0,1-1.37-1.18s-2.64-5.56-3.12-8.29-1.76-6.93-1.76-6.93a12.48,12.48,0,0,0,.68-2c0-.39-1.07-1.37-1.07-1.76V94.19L110,84"/><path class="cls-3" d="M119.36,125.2a3.33,3.33,0,0,1-1.68-.85l-.34-.24a13,13,0,0,1-2.4-3.27,44,44,0,0,1-4.4-6.36,54.27,54.27,0,0,1-3-7.64A21.47,21.47,0,0,0,106,103a1.59,1.59,0,0,1-.48-1.57c-.23-.3-1.09-1.39-1.5-2s.43-1.74.73-2c-.31-2.24-2.43-17.81-2.33-18.4s2.79-1.48,4-1.82a.2.2,0,1,1,.1.38c-1.68.49-3.56,1.21-3.67,1.51,0,.51,1.38,11.27,2.35,18.38a.22.22,0,0,1-.06.17c-.3.27-1.07,1.15-.76,1.6.48.67,1.55,2,1.56,2a.19.19,0,0,1,0,.18,1.21,1.21,0,0,0,.33,1.25c.33.29.78,1.57,1.62,4a54,54,0,0,0,3,7.57,42.39,42.39,0,0,0,4.37,6.31l0,0a12.94,12.94,0,0,0,2.28,3.15l.34.25c.75.53,1.29.92,1.7.71s1.06-2.31,1.17-3.93c.08-1.22-2.59-3-3.31-3.33a8.66,8.66,0,0,1-1.42-1.21.1.1,0,0,1,0,0c-.11-.23-2.65-5.62-3.14-8.35s-1.74-6.86-1.75-6.9a.19.19,0,0,1,0-.13,11.16,11.16,0,0,0,.67-2,2.67,2.67,0,0,0-.5-.76c-.36-.45-.58-.75-.58-1V94.19l-.87-10.14a.2.2,0,0,1,.17-.21.19.19,0,0,1,.21.18l.88,10.15v2.94a2.67,2.67,0,0,0,.5.76c.36.46.58.76.58,1a10.52,10.52,0,0,1-.67,2.06c.16.55,1.29,4.36,1.74,6.89s2.88,7.76,3.09,8.21a8.58,8.58,0,0,0,1.29,1.11s3.64,2,3.53,3.7c-.09,1.29-.64,3.89-1.38,4.26A.9.9,0,0,1,119.36,125.2Z"/><path class="cls-4" d="M117.55,117.32a9.65,9.65,0,0,1-1.37-1.18s-2.64-5.56-3.12-8.29c-.22-1.2-.58-2.68-.92-4a5.06,5.06,0,0,0-5.13,1c.93,2.59,2.32,7.05,3.7,9.54a43.19,43.19,0,0,0,4.4,6.34,12.91,12.91,0,0,0,2.34,3.22c1,.69,1.66,1.27,2.24,1s1.17-2.64,1.27-4.1S117.94,117.51,117.55,117.32Z"/><path class="cls-3" d="M119.36,125.2a3.33,3.33,0,0,1-1.68-.85l-.34-.24a13,13,0,0,1-2.4-3.27,44,44,0,0,1-4.4-6.36,54.27,54.27,0,0,1-3-7.64c-.24-.7-.47-1.36-.67-1.92a.18.18,0,0,1,0-.21,5.29,5.29,0,0,1,5.32-1,.2.2,0,0,1,.13.14c.42,1.61.74,3,.92,4,.46,2.57,2.88,7.76,3.09,8.21a8.58,8.58,0,0,0,1.29,1.11s3.64,2,3.53,3.7c-.09,1.29-.64,3.89-1.38,4.26A.9.9,0,0,1,119.36,125.2Zm-12.12-20.29c.19.54.41,1.15.63,1.81a55.26,55.26,0,0,0,3,7.57,42.39,42.39,0,0,0,4.37,6.31l0,0a12.94,12.94,0,0,0,2.28,3.15l.34.25c.75.53,1.29.92,1.7.71s1.06-2.31,1.17-3.93c.08-1.22-2.59-3-3.31-3.33a8.66,8.66,0,0,1-1.42-1.21.1.1,0,0,1,0,0c-.11-.23-2.65-5.62-3.14-8.35-.17-1-.47-2.28-.88-3.84A4.86,4.86,0,0,0,107.24,104.91Z"/><path class="cls-3" d="M106.62,100.92a.2.2,0,0,1-.17-.09.2.2,0,0,1,0-.27c.11-.07,2.55-1.71,4.29-1a.18.18,0,0,1,.1.25.19.19,0,0,1-.25.11c-1.54-.64-3.89.94-3.92,1A.19.19,0,0,1,106.62,100.92Z"/><path class="cls-3" d="M105.05,99.94a.18.18,0,0,1-.16-.08.19.19,0,0,1,0-.27c.13-.09,3.24-2.3,5.28-1.28a.19.19,0,0,1,.08.26.21.21,0,0,1-.26.09c-1.83-.92-4.84,1.23-4.87,1.25A.27.27,0,0,1,105.05,99.94Z"/><path class="cls-2" d="M129.84,84.43,129.06,98s-1.56,2.15-1.37,2.74a4.47,4.47,0,0,1,.2,1.26l-.88,1.08-5.46,14.54a14,14,0,0,0-2.44,2,31.32,31.32,0,0,0-1,3.61c0,.58-.19.58.49.58s1.46-2.14,1.46-2.14l-.29,2.54a12.53,12.53,0,0,1-1.76.39c-.39,0,.59,1.36,2.15,1.17a3.24,3.24,0,0,0,3-2.44c.48-1.56,1.17-6.25,1.17-6.25s9.07-11.91,10-13.37a6.19,6.19,0,0,0,1.07-3.51,4,4,0,0,1,.2-2,3.49,3.49,0,0,0,.19-2.15c-.19-.29.4-9.86.1-13.17s-1.17-5-2.24-5.76A8.29,8.29,0,0,0,130.72,76"/><path class="cls-3" d="M119.88,126a2.51,2.51,0,0,1-2-1,.47.47,0,0,1-.11-.48.27.27,0,0,1,.25-.14,10.79,10.79,0,0,0,1.58-.35l.13-1.14c-.3.56-.7,1.1-1.12,1.1s-.53,0-.63-.12-.08-.23-.07-.37a2.07,2.07,0,0,0,0-.29,17.92,17.92,0,0,1,.77-3l.21-.69c.1-.41,1.72-1.6,2.46-2.13L126.83,103l0-.06.83-1a4,4,0,0,0-.18-1.14c-.21-.62,1-2.29,1.36-2.87l.78-13.5a.19.19,0,0,1,.2-.19.21.21,0,0,1,.19.21L129.26,98a.36.36,0,0,1,0,.11,6.46,6.46,0,0,0-1.34,2.55,5,5,0,0,1,.21,1.33.21.21,0,0,1-.05.13l-.86,1-5.45,14.51a.2.2,0,0,1-.07.09,13.83,13.83,0,0,0-2.37,1.94c0,.1-.1.36-.21.7a21.28,21.28,0,0,0-.75,2.86,2.77,2.77,0,0,1,0,.33v.05h.32c.34,0,.93-1,1.28-2a.19.19,0,0,1,.23-.12.2.2,0,0,1,.15.21l-.3,2.54a.18.18,0,0,1-.14.16,13.26,13.26,0,0,1-1.65.39,2.13,2.13,0,0,0,2,.79,3,3,0,0,0,2.86-2.3c.48-1.53,1.16-6.17,1.16-6.22a.36.36,0,0,1,0-.09c.09-.12,9.08-11.91,9.94-13.35a6.13,6.13,0,0,0,1.05-3.38,4.23,4.23,0,0,1,.2-2.14,3.4,3.4,0,0,0,.22-2c-.1-.15-.1-.74,0-4.2.1-3,.23-7.15.06-9.07-.25-2.86-1-4.75-2.17-5.61a7.8,7.8,0,0,0-2.84-1,.2.2,0,0,1-.16-.23.19.19,0,0,1,.22-.16,8.19,8.19,0,0,1,3,1.11c1.3.94,2.06,2.87,2.33,5.9.17,1.94,0,5.92-.06,9.11-.06,2-.12,3.79-.06,4,.32.46-.06,1.86-.18,2.27a3.76,3.76,0,0,0-.19,2,6.44,6.44,0,0,1-1.1,3.64c-.86,1.43-9.26,12.47-9.94,13.35-.08.53-.7,4.74-1.17,6.23A3.41,3.41,0,0,1,120.2,126Z"/><path class="cls-4" d="M126.92,103.3l-5.37,14.31a14,14,0,0,0-2.44,2,31.32,31.32,0,0,0-1,3.61c0,.58-.19.58.49.58s1.46-2.14,1.46-2.14l-.29,2.54a12.53,12.53,0,0,1-1.76.39c-.39,0,.59,1.36,2.15,1.17a3.24,3.24,0,0,0,3-2.44c.48-1.56,1.17-6.25,1.17-6.25s5.72-7.51,8.52-11.33C131.28,103.17,128.38,103.13,126.92,103.3Z"/><path class="cls-3" d="M119.88,126a2.51,2.51,0,0,1-2-1,.47.47,0,0,1-.11-.48.27.27,0,0,1,.25-.14,10.79,10.79,0,0,0,1.58-.35l.13-1.14c-.3.56-.7,1.1-1.12,1.1s-.53,0-.63-.12-.08-.23-.07-.37a2.07,2.07,0,0,0,0-.29,17.92,17.92,0,0,1,.77-3l.21-.69c.1-.41,1.72-1.6,2.46-2.13l5.36-14.25a.2.2,0,0,1,.16-.12c1.59-.19,4.51-.11,6.16,2.57a.2.2,0,0,1,0,.22c-2.65,3.64-8,10.7-8.49,11.3-.08.53-.7,4.74-1.17,6.23A3.41,3.41,0,0,1,120.2,126Zm-1.69-1.2a2.13,2.13,0,0,0,2,.79,3,3,0,0,0,2.86-2.3c.48-1.53,1.16-6.17,1.16-6.22a.36.36,0,0,1,0-.09c.06-.07,5.65-7.41,8.44-11.22a5.68,5.68,0,0,0-5.6-2.3l-5.33,14.2a.2.2,0,0,1-.07.09,13.83,13.83,0,0,0-2.37,1.94c0,.1-.1.36-.21.7a21.28,21.28,0,0,0-.75,2.86,2.77,2.77,0,0,1,0,.33v.05h.32c.34,0,.93-1,1.28-2a.19.19,0,0,1,.23-.12.2.2,0,0,1,.15.21l-.3,2.54a.18.18,0,0,1-.14.16A13.26,13.26,0,0,1,118.19,124.82Zm.11-1.1Zm3.25-6.11Z"/><path class="cls-3" d="M133.65,101.9a.2.2,0,0,1-.14-.06c-1.82-1.73-4.43-.37-4.45-.36a.19.19,0,1,1-.19-.34s2.88-1.51,4.91.42a.2.2,0,0,1,0,.28A.2.2,0,0,1,133.65,101.9Z"/><path class="cls-3" d="M129.16,100.63a.18.18,0,0,1-.15-.07.19.19,0,0,1,0-.27,6.48,6.48,0,0,1,4.74-1.22.19.19,0,1,1-.05.38s-2.76-.35-4.43,1.13A.24.24,0,0,1,129.16,100.63Z"/><path class="cls-4" d="M141.19,171.06l-.78,10.8s-3.64,3.51-4.42,4-4.16.91-3.64,2,2.73.91,2.73.91h10.15a4.81,4.81,0,0,0,.39-2.86c-.26-1.69-.52-4.81-.52-4.81l2-9.76Z"/><path class="cls-3" d="M134.83,189c-.61,0-2.19-.09-2.66-1a.61.61,0,0,1,0-.54c.24-.56,1.33-.88,2.39-1.18a6.86,6.86,0,0,0,1.34-.48c.71-.47,3.89-3.53,4.34-4L141,171a.2.2,0,0,1,.2-.18l5.86.26a.16.16,0,0,1,.14.08.17.17,0,0,1,0,.15l-1.94,9.74c0,.31.27,3.19.51,4.77a5,5,0,0,1-.41,3,.21.21,0,0,1-.17.1h-10.4Zm6.55-17.69-.77,10.61a.22.22,0,0,1-.06.13c-.15.14-3.67,3.53-4.45,4.05a6.36,6.36,0,0,1-1.45.53c-.83.24-2,.57-2.14,1a.24.24,0,0,0,0,.22c.38.75,2,.83,2.55.8h10a4.84,4.84,0,0,0,.32-2.64c-.26-1.68-.52-4.8-.53-4.83a.09.09,0,0,1,0-.05l1.9-9.54Zm-1,10.6h0Z"/><path class="cls-4" d="M135.08,188.75h10.15a4.81,4.81,0,0,0,.39-2.86c-.06-.41-.13-.91-.19-1.43h-3.84s-.26-1.3-.4-2.73c-.06-.69-.39-.75-.72-.62l-.06.75s-3.64,3.51-4.42,4-4.16.91-3.64,2S135.08,188.75,135.08,188.75Z"/><path class="cls-3" d="M134.84,189c-.63,0-2.2-.09-2.67-1a.61.61,0,0,1,0-.54c.24-.56,1.33-.88,2.39-1.18a6.86,6.86,0,0,0,1.34-.48c.71-.47,3.89-3.53,4.34-4l.05-.67a.21.21,0,0,1,.13-.17.66.66,0,0,1,.63,0,.91.91,0,0,1,.36.76,25.24,25.24,0,0,0,.36,2.55h3.68a.21.21,0,0,1,.2.18c.06.57.12,1.05.18,1.42a5,5,0,0,1-.41,3,.21.21,0,0,1-.17.1H134.84Zm5.81-7.69,0,.61a.22.22,0,0,1-.06.13c-.15.14-3.67,3.53-4.45,4.05a6.36,6.36,0,0,1-1.45.53c-.83.24-2,.57-2.14,1a.24.24,0,0,0,0,.22c.38.75,2,.83,2.55.8h10a4.84,4.84,0,0,0,.32-2.64c-.06-.34-.11-.77-.17-1.27h-3.67a.2.2,0,0,1-.2-.15s-.26-1.33-.39-2.76c0-.24-.08-.41-.17-.46A.26.26,0,0,0,140.65,181.26Z"/><path class="cls-4" d="M159.67,171.58l1.3,14.18s.65,3.9,1.43,4,3.91.65,4.43-1-2.08-6.89-2.08-6.89l1-10.28Z"/><path class="cls-3" d="M164.25,190.16a11.83,11.83,0,0,1-1.88-.17c-.85-.15-1.43-3.25-1.59-4.2l-1.3-14.19a.17.17,0,0,1,.05-.15.21.21,0,0,1,.14-.07h6.12a.19.19,0,0,1,.14.07.17.17,0,0,1,0,.15l-1,10.22c.28.58,2.58,5.32,2.07,7C166.81,189.47,166.15,190.16,164.25,190.16Zm-4.36-18.39,1.28,14c.3,1.81.88,3.8,1.27,3.86,3.08.52,4-.21,4.2-.9.49-1.6-2-6.7-2.07-6.76a.36.36,0,0,1,0-.1l1-10.07Z"/><path class="cls-4" d="M161,185.76s.65,3.9,1.43,4,3.91.65,4.43-1-2.08-6.89-2.08-6.89-1.3-1-1.95-.26a6.9,6.9,0,0,0-1.05,2l-1-.43Z"/><path class="cls-3" d="M164.25,190.16a11.83,11.83,0,0,1-1.88-.17c-.85-.15-1.43-3.25-1.59-4.2h0l-.24-2.64a.19.19,0,0,1,.08-.18.21.21,0,0,1,.19,0l.83.35a6.6,6.6,0,0,1,1-1.82c.76-.91,2.16.19,2.22.23a.18.18,0,0,1,0,.07c.11.21,2.63,5.29,2.1,7C166.81,189.47,166.15,190.16,164.25,190.16Zm-3.08-4.42c.3,1.81.88,3.8,1.27,3.86,3.08.52,4-.21,4.2-.9.47-1.53-1.81-6.23-2-6.72-.19-.14-1.17-.82-1.64-.26a6.79,6.79,0,0,0-1,1.89.29.29,0,0,1-.1.12.22.22,0,0,1-.16,0l-.72-.3Z"/><path class="cls-3" d="M140.41,116.14a98.11,98.11,0,0,0-.78,13.15c0,7.93.65,40.73.65,40.73l7.55-.26,4-35.4.92,1.3,5.33,34.1a9.16,9.16,0,0,0,3.25,1,29.83,29.83,0,0,0,5.08-1.17s-.52-39-.39-41.25a83.46,83.46,0,0,0-.65-8.72s-3.65,1-9.89.13-9.89-2.21-10.93-2.73A20.64,20.64,0,0,0,140.41,116.14Z"/><path class="cls-3" d="M161.36,171a9.3,9.3,0,0,1-3.34-1.06.18.18,0,0,1-.1-.14l-5.33-34-.59-.84-4,34.88a.21.21,0,0,1-.19.17l-7.55.26a.24.24,0,0,1-.14-.05.2.2,0,0,1-.06-.14c0-.33-.65-32.88-.65-40.73a99,99,0,0,1,.78-13.17.2.2,0,0,1,.22-.17,20.36,20.36,0,0,1,4.23.93c1.1.55,4.79,1.83,10.87,2.71a25.77,25.77,0,0,0,9.8-.12.2.2,0,0,1,.17,0,.22.22,0,0,1,.08.13,82.62,82.62,0,0,1,.65,8.76c-.12,2.18.39,40.84.39,41.23a.18.18,0,0,1-.13.19A29.37,29.37,0,0,1,161.36,171Zm-3.07-1.36a8.71,8.71,0,0,0,3.07,1,27.74,27.74,0,0,0,4.88-1.12c0-3-.51-39-.39-41.12a77.81,77.81,0,0,0-.62-8.46,27.74,27.74,0,0,1-9.75.08c-6.13-.89-9.87-2.19-11-2.75a18.63,18.63,0,0,0-3.91-.87,101.28,101.28,0,0,0-.75,12.93c0,7.52.59,37.77.65,40.52l7.18-.24,4-35.23a.2.2,0,0,1,.15-.17.18.18,0,0,1,.2.08l.92,1.3,0,.08Z"/><path class="cls-6" d="M149.85,134.88a.18.18,0,0,1-.18-.12.19.19,0,0,1,.1-.25l5.27-2.15a.2.2,0,0,1,.26.11.19.19,0,0,1-.11.25l-5.27,2.15Z"/><path class="cls-6" d="M140.67,126.29l-.11,0a.2.2,0,0,1-.05-.27,15.09,15.09,0,0,0,2.51-5.58.19.19,0,0,1,.22-.16.18.18,0,0,1,.16.22,15.16,15.16,0,0,1-2.56,5.74A.21.21,0,0,1,140.67,126.29Z"/><path class="cls-6" d="M165.07,127.27a.19.19,0,0,1-.12,0,10.69,10.69,0,0,1-3.58-5,.2.2,0,0,1,.38-.11,10.44,10.44,0,0,0,3.44,4.78.2.2,0,0,1,0,.28A.24.24,0,0,1,165.07,127.27Z"/><path class="cls-4" d="M155.19,75.83s-12.14,3.77-12.46,4.55-10.39,19.44-9.69,20,7.34.15,7.66,0,3.05-7.14,3.05-7.14-.15,7.37-.15,7.92a17.52,17.52,0,0,1-1.42,7.13,35.08,35.08,0,0,0-2.43,8.94v1s8.31,5.33,14.66,4.47a71.11,71.11,0,0,0,11.37-2.51,46.25,46.25,0,0,0-.87-7.13c-.62-2.27-2-9.64-2-10.42a8.43,8.43,0,0,1,1.1-2.51c.08-.24,3.61-12.46,3.61-12.46l3,10,5.09-.78s-1.65-15.52-2.67-16.38-13.24-4.08-13.24-4.08Z"/><path class="cls-5" d="M140.7,100.37a6.47,6.47,0,0,0,.65-1.3h-8c-.3.75-.43,1.22-.33,1.3C133.75,100.92,140.38,100.52,140.7,100.37Z"/><path class="cls-5" d="M142.74,106.92a10.21,10.21,0,0,1-.56,1.36,19.63,19.63,0,0,0-1,2.7h23.28c-.26-1.22-.55-2.69-.8-4.06Z"/><path class="cls-5" d="M165.26,114.78H140.17a19.14,19.14,0,0,0-.42,2.44v1s.37.24,1,.6h24.93C165.61,117.73,165.47,116.15,165.26,114.78Z"/><path class="cls-5" d="M164.36,99.07H143.63c0,1.07,0,1.91,0,2.08s0,1-.1,2H163c0-.23-.05-.4-.05-.48a8.43,8.43,0,0,1,1.1-2.51Z"/><path class="cls-5" d="M165.46,95.27c.39-1.35.81-2.79,1.17-4H137.12c-.72,1.41-1.41,2.8-2,4h7.84l.81-2s0,.88,0,2Z"/><path class="cls-5" d="M155.19,75.83s-7.62,2.37-10.94,3.74h26.41c-3.85-1.27-10.84-3.11-10.84-3.11Z"/><path class="cls-5" d="M141.19,83.37c-.6,1.15-1.34,2.55-2.11,4h35.47c-.21-1.47-.43-2.89-.66-4Z"/><path class="cls-5" d="M168.71,91.22l1.2,4h5.64c-.12-1-.29-2.47-.49-4Z"/><path class="cls-3" d="M152.94,123c-6.05,0-13-4.39-13.29-4.59a.2.2,0,0,1-.09-.17v-1a35.66,35.66,0,0,1,2.45-9,17.17,17.17,0,0,0,1.39-7c0-.42.09-4.76.13-6.83-1.59,4-2.51,6.1-2.75,6.22s-7.05.61-7.86,0c-.44-.34.68-3.08,8-17.12.86-1.63,1.53-2.92,1.6-3.09.32-.81,9.72-3.77,12.59-4.66h.08l4.63.63c.52.13,12.3,3.24,13.34,4.12s2.56,14.91,2.73,16.51a.2.2,0,0,1-.16.21l-5.1.78a.19.19,0,0,1-.21-.13l-2.79-9.4c-.73,2.55-3.35,11.62-3.42,11.83a4.64,4.64,0,0,1-.24.45,5.59,5.59,0,0,0-.85,2c0,.75,1.31,8,1.95,10.37a45.37,45.37,0,0,1,.87,7.17.2.2,0,0,1-.13.2,72.4,72.4,0,0,1-11.4,2.52A12.33,12.33,0,0,1,152.94,123Zm-13-4.86c.91.56,8.58,5.18,14.43,4.38a72.23,72.23,0,0,0,11.19-2.46,44,44,0,0,0-.84-6.94c-.6-2.17-2-9.62-2-10.47a5.77,5.77,0,0,1,.9-2.2l.21-.37c.06-.19,2.38-8.23,3.6-12.46a.2.2,0,0,1,.19-.14h0a.19.19,0,0,1,.18.14l2.93,9.87,4.75-.73c-.64-6-1.89-15.48-2.58-16.07s-9.78-3.14-13.17-4L155.21,76c-4.57,1.42-11.92,3.86-12.3,4.43-.07.18-.6,1.2-1.61,3.13-2.45,4.67-8.14,15.54-8.1,16.65.77.42,6.73.13,7.39,0,.32-.41,2-4.5,3-7a.2.2,0,0,1,.22-.12.2.2,0,0,1,.16.2c0,.07-.16,7.37-.16,7.91a17.54,17.54,0,0,1-1.43,7.22,34.86,34.86,0,0,0-2.41,8.85Zm-6.74-17.86Z"/><polygon class="cls-4" points="156.21 70.19 154.41 76.54 156.61 83.75 161.07 77.4 163.03 73.87 156.21 70.19"/><path class="cls-3" d="M156.61,83.94h0a.18.18,0,0,1-.15-.13l-2.2-7.21a.2.2,0,0,1,0-.11L156,70.14a.16.16,0,0,1,.11-.13.2.2,0,0,1,.17,0l6.82,3.68a.22.22,0,0,1,.09.12.2.2,0,0,1,0,.15l-2,3.53-4.47,6.36A.21.21,0,0,1,156.61,83.94Zm-2-7.4,2.07,6.77,4.23-6L162.77,74l-6.44-3.47Z"/><path class="cls-3" d="M155.94,71.14l-.54,1.93.21,1.1a8.68,8.68,0,0,0,2.25,3.48,5.83,5.83,0,0,0,2.26,1.11l.95-1.36,1.76-3.17Z"/><path class="cls-3" d="M160.12,79h-.06a6,6,0,0,1-2.33-1.16,8.85,8.85,0,0,1-2.31-3.56l-.21-1.13a.14.14,0,0,1,0-.09l.55-1.92a.19.19,0,0,1,.1-.13.22.22,0,0,1,.16,0l6.89,3.09a.25.25,0,0,1,.11.12.22.22,0,0,1,0,.16l-1.77,3.17-1,1.37A.21.21,0,0,1,160.12,79Zm-4.32-4.82A8.65,8.65,0,0,0,158,77.5a5.32,5.32,0,0,0,2,1l.87-1.24,1.65-3-6.49-2.91-.47,1.66.2,1.06Z"/><path class="cls-3" d="M155.37,64.09a13.27,13.27,0,0,1-.49-3.63c-.09-2.48.41-4.71,1.24-4.3s.66,1.74.66,1.74a5.57,5.57,0,0,1,4.95-3.64c3.89-.25,2.81,1.32,2.81,1.32s6.2-.49,8.35,2.15,1.73,5.21,1.15,5.21H172.8s1.91,5.53.5,6.61-4-2.73-4-2.73-.33,1.32-1,1.65a8.36,8.36,0,0,1-1.24.5,15.34,15.34,0,0,1-3.88-1.74,24,24,0,0,1-3.39-4s-2.23,2.72-3.05,3a12.45,12.45,0,0,0-1.41.66Z"/><path class="cls-3" d="M172.73,69.93a.86.86,0,0,1-.22,0c-1.18-.19-2.57-1.92-3.11-2.66a2.53,2.53,0,0,1-1,1.4,7.59,7.59,0,0,1-1.27.5h-.11a15.13,15.13,0,0,1-4-1.76,22,22,0,0,1-3.28-3.8c-.56.67-2.23,2.62-3,2.91a15,15,0,0,0-1.38.65.18.18,0,0,1-.2,0,.19.19,0,0,1-.09-.17V64.12a14,14,0,0,1-.5-3.66c-.06-1.88.2-4,.92-4.45a.57.57,0,0,1,.6,0,1.47,1.47,0,0,1,.74,1.09,5.75,5.75,0,0,1,4.78-3c1.73-.11,2.73.11,3.05.67a.8.8,0,0,1,.07.63c1.32-.06,6.27-.14,8.2,2.24,1.71,2.1,1.89,4.27,1.48,5.14-.16.33-.37.38-.48.38h-1c.39,1.21,1.68,5.54.34,6.57A1.12,1.12,0,0,1,172.73,69.93Zm-3.4-3.31a.22.22,0,0,1,.17.09s1.77,2.6,3.08,2.82a.74.74,0,0,0,.6-.14c1.06-.81,0-4.89-.56-6.39a.19.19,0,0,1,0-.18.18.18,0,0,1,.16-.08H174s.07,0,.13-.16c.28-.58.3-2.59-1.43-4.73-2.06-2.53-8.12-2.08-8.18-2.07a.21.21,0,0,1-.19-.1.22.22,0,0,1,0-.21.56.56,0,0,0,.05-.53c-.13-.24-.66-.61-2.68-.48A5.34,5.34,0,0,0,157,58a.2.2,0,0,1-.22.13.21.21,0,0,1-.16-.22s.14-1.19-.55-1.53a.22.22,0,0,0-.22,0c-.42.27-.81,1.88-.74,4.11a12.9,12.9,0,0,0,.49,3.58s0,0,0,.06v2.57c.25-.13.65-.32,1.13-.52a16,16,0,0,0,3-3,.2.2,0,0,1,.16-.07.18.18,0,0,1,.15.08,24.27,24.27,0,0,0,3.35,3.93,14.54,14.54,0,0,0,3.76,1.68,8.27,8.27,0,0,0,1.16-.46c.47-.24.8-1.18.89-1.53a.18.18,0,0,1,.15-.14Z"/><path class="cls-4" d="M156,65.68s0-3.16-1.1-2.06-1.5,3-.82,4l.69,1,.68.54a8.94,8.94,0,0,0,0,4c.55,1.51,1.51,3.57,3.84,3.29a6.38,6.38,0,0,0,5.25-3.27c1-1.92,3-5,3-5a7.4,7.4,0,0,1-5.35-2.88,15.12,15.12,0,0,1-2.33-4.39S157.92,64.85,156,65.68Z"/><path class="cls-3" d="M158.87,76.6c-2.07,0-3-1.82-3.6-3.45a8.6,8.6,0,0,1,0-4l-.59-.47s0,0,0,0l-.69-1c-.74-1-.33-3,.85-4.23.26-.26.51-.35.74-.25.54.22.66,1.45.68,2.13,1.74-1,3.46-4.53,3.48-4.57a.19.19,0,0,1,.19-.11.2.2,0,0,1,.17.15,15.53,15.53,0,0,0,2.3,4.32,7.26,7.26,0,0,0,5.2,2.8.2.2,0,0,1,.16.3s-2,3-3,4.94a6.57,6.57,0,0,1-5.4,3.38Zm-4-8.18.67.53a.21.21,0,0,1,.06.2,8.82,8.82,0,0,0,0,3.87c.58,1.6,1.52,3.41,3.63,3.16a6.19,6.19,0,0,0,5.1-3.17c.78-1.57,2.29-3.91,2.81-4.7A7.46,7.46,0,0,1,162,65.38a18.35,18.35,0,0,1-2.21-4c-.56,1.07-2.12,3.79-3.72,4.48a.25.25,0,0,1-.19,0,.21.21,0,0,1-.08-.16c0-.92-.17-2-.45-2.09-.1,0-.25.1-.32.17-1,1-1.43,2.85-.8,3.72Zm1.29-2.74Z"/><path class="cls-3" d="M159.35,68.62a2.14,2.14,0,0,1-1.92-1.14.19.19,0,0,1,.09-.26.2.2,0,0,1,.26.09,1.76,1.76,0,0,0,1.94.89.19.19,0,0,1,.22.16.19.19,0,0,1-.16.22A2.15,2.15,0,0,1,159.35,68.62Z"/><path class="cls-3" d="M163.66,70.85a2.21,2.21,0,0,1-1.95-1.49.2.2,0,0,1,.13-.25.21.21,0,0,1,.25.13,1.72,1.72,0,0,0,2.23,1.11.19.19,0,0,1,.24.13.18.18,0,0,1-.13.24A2.49,2.49,0,0,1,163.66,70.85Z"/><path class="cls-3" d="M159.77,72.29a1.27,1.27,0,0,1-1.36-.79.19.19,0,1,1,.37-.11s.24.73,1.59.44a.2.2,0,0,1,.23.15.18.18,0,0,1-.15.23A3,3,0,0,1,159.77,72.29Z"/><path class="cls-3" d="M160.58,73.87c-3,0-3.25-2-3.25-2a.2.2,0,0,1,.17-.22.2.2,0,0,1,.21.18c0,.07.21,1.64,2.87,1.64a.19.19,0,0,1,.19.2A.19.19,0,0,1,160.58,73.87Z"/><path class="cls-3" d="M160.49,67.26a.19.19,0,0,1-.15-.07,2.48,2.48,0,0,0-2.14-.92.19.19,0,0,1-.21-.17.19.19,0,0,1,.17-.22A2.91,2.91,0,0,1,160.65,67a.19.19,0,0,1-.16.31Z"/><path class="cls-3" d="M164.87,70a.22.22,0,0,1-.17-.1c-.9-1.59-2.07-1.48-2.12-1.47a.2.2,0,0,1-.21-.17.19.19,0,0,1,.17-.22c.06,0,1.46-.16,2.5,1.67A.18.18,0,0,1,165,70,.17.17,0,0,1,164.87,70Z"/><path class="cls-3" d="M156,87.4l-.06,0c-.44-.14-1.3-5.46-1.78-8.62a94,94,0,0,1-.63-12.36c.1-.7,1.38-.72,1.53-.72a.19.19,0,0,1,.19.2.18.18,0,0,1-.19.19c-.44,0-1.1.13-1.14.39a92.25,92.25,0,0,0,.63,12.24c.62,4.12,1.23,7.29,1.49,8.15.78-1.13,3.93-6.62,5.68-9.68.89-1.54,1.47-2.56,1.56-2.7a.19.19,0,0,1,.27,0,.2.2,0,0,1,.06.27c-.09.13-.73,1.25-1.55,2.67C156.73,86.63,156.22,87.4,156,87.4Zm.13-.34Z"/><polygon class="cls-3" points="143.16 89.39 144.26 100.6 148.73 100.36 147.79 89.08 143.16 89.39"/><path class="cls-3" d="M144.08,100.8,143,89.21l5-.34,1,11.68Zm-.7-11.23,1.06,10.83,4.08-.22-.91-10.89Z"/><path class="cls-4" d="M141.32,99.66l.86-5,1.34-2.27.08,2s4.07-2.74,4.15-2.12-3,3.06-3,3.06V96s2.82-1.57,3.14-1.65,1.09-.78,1-.08-1.09,1.33-1.48,1.65-2,1.33-2,1.33,3.13-1.72,3.13-1.18-.78,1.26-1,1.49-1,1.34-1.49,1.88-3.76,1.73-3.76,1.73-7.91,3.29-9.32,3.6-1.52-3.2-.58-4.38a4.62,4.62,0,0,1,3.08-1.65C136.7,98.41,141.32,99.66,141.32,99.66Z"/><path class="cls-3" d="M132.77,105a1,1,0,0,1-.82-.51,4.58,4.58,0,0,1,.26-4.21,4.64,4.64,0,0,1,3-1.67l.22,0c1.14-.29,4.84.64,5.77.89l.85-4.88,1.67-2.84.09,2.27c1.4-.93,3.51-2.23,4-2a.27.27,0,0,1,.17.23c.08.65-2,2.39-3,3.17v.28c.79-.43,2.61-1.43,2.89-1.5a1.64,1.64,0,0,0,.3-.15c.28-.16.58-.34.81-.19a.48.48,0,0,1,.15.47c-.08.68-.83,1.24-1.34,1.61l0,0a1.26,1.26,0,0,1,.83-.1.3.3,0,0,1,.14.25c0,.58-.67,1.24-1,1.55l-.08.08c-.11.11-.37.46-.65.83s-.59.77-.83,1c-.49.57-3.5,1.66-3.84,1.78s-7.94,3.3-9.35,3.61ZM136,98.86a2.27,2.27,0,0,0-.5,0l-.21,0a3.61,3.61,0,0,0-3,5.29.53.53,0,0,0,.61.31c1.38-.3,9.22-3.56,9.3-3.59a17,17,0,0,0,3.69-1.67l.81-1a9.05,9.05,0,0,1,.69-.86l.08-.09a3.22,3.22,0,0,0,.87-1.18,13.14,13.14,0,0,0-2.84,1.26l-.19-.34s1.64-1,2-1.31l.24-.19c.42-.31,1.12-.82,1.18-1.33a.14.14,0,0,0,0-.09,1.92,1.92,0,0,0-.38.19,1.58,1.58,0,0,1-.4.19c-.19,0-1.73.87-3.08,1.63l-.29.16V95.18l.07-.06a14.73,14.73,0,0,0,2.89-2.8,20.06,20.06,0,0,0-3.84,2.17l-.29.2L143.35,93l-1,1.67-.89,5.19-.21-.05A30.52,30.52,0,0,0,136,98.86Z"/><path class="cls-3" d="M152.61,108.32l-.48,0a4.59,4.59,0,0,1-3.29-2c-1.11-1.82-1.58-5.57-1.6-5.72a.19.19,0,0,1,.17-.22.19.19,0,0,1,.22.17s.48,3.82,1.54,5.56a4.24,4.24,0,0,0,3,1.84,2.55,2.55,0,0,0,2.17-.62c1.37-1.37,2.14-4.48,2.06-8.32s-.62-11.67-.63-11.75A.21.21,0,0,1,156,87a.19.19,0,0,1,.2.18c0,.08.55,7.89.63,11.77s-.71,7.15-2.17,8.61A2.82,2.82,0,0,1,152.61,108.32Z"/><polygon class="cls-4" points="139.37 167.15 139.89 172.49 148.61 172.49 148.87 167.28 139.37 167.15"/><path class="cls-3" d="M148.61,172.68h-8.72a.19.19,0,0,1-.19-.17l-.52-5.34a.17.17,0,0,1,0-.15.25.25,0,0,1,.15-.06l9.49.13a.17.17,0,0,1,.14.06.2.2,0,0,1,.06.14l-.26,5.21A.2.2,0,0,1,148.61,172.68Zm-8.54-.39h8.36l.24-4.81-9.08-.13Z"/><polygon class="cls-4" points="157.33 168.06 157.98 172.49 166.96 172.62 167.22 167.41 157.33 168.06"/><path class="cls-3" d="M167,172.81h0l-9-.13a.19.19,0,0,1-.19-.16l-.65-4.43a.17.17,0,0,1,0-.15.17.17,0,0,1,.14-.07l9.89-.65a.2.2,0,0,1,.15.05.17.17,0,0,1,0,.15l-.26,5.21A.19.19,0,0,1,167,172.81Zm-8.81-.52,8.62.13.24-4.8-9.46.62Z"/><path class="cls-4" d="M165.62,70.5,165,73.17s-3.37,2-3.52,2.82,7.6,19.75,8.3,21,1.57,3.38,3.69,2.9,3-3.52,2.27-4.93S164.05,77,164.05,77l4.39-4a43.36,43.36,0,0,0-.08-4.39c-.15-.78-.23-1.09-.23-1.09S166.09,70,165.62,70.5Z"/><path class="cls-3" d="M172.86,100.16c-1.61,0-2.42-1.52-3-2.66-.08-.14-.15-.28-.23-.41C169,96,161.1,76.9,161.27,76s2.84-2.5,3.55-2.92l.61-2.58a.19.19,0,0,1,0-.09c.46-.46,2.48-2.94,2.5-3a.22.22,0,0,1,.19-.07.23.23,0,0,1,.15.15s.08.33.23,1.1a44.27,44.27,0,0,1,.09,4.44.27.27,0,0,1-.07.14L164.31,77c1.13,1.71,10.92,16.48,11.59,17.83a4,4,0,0,1-.2,3.29,3.33,3.33,0,0,1-2.2,1.93A3,3,0,0,1,172.86,100.16ZM165.8,70.6l-.62,2.61a.18.18,0,0,1-.09.13c-1.27.74-3.33,2.12-3.43,2.69,0,.87,7.41,19.32,8.28,20.87.08.13.15.27.23.42.67,1.23,1.49,2.77,3.24,2.38A2.88,2.88,0,0,0,175.35,98a3.65,3.65,0,0,0,.2-2.95c-.69-1.38-11.55-17.76-11.66-17.92a.21.21,0,0,1,0-.26l4.33-3.94a41.12,41.12,0,0,0-.08-4.26c-.06-.3-.11-.53-.14-.7C167.48,68.63,166.22,70.16,165.8,70.6ZM165,73.17h0Z"/><path class="cls-3" d="M165.51,74.84l-.1,0a.19.19,0,0,1-.07-.27l.66-1.13V70.07a.2.2,0,0,1,.2-.19.19.19,0,0,1,.19.19v3.41a.36.36,0,0,1,0,.1l-.7,1.17A.18.18,0,0,1,165.51,74.84Z"/><path class="cls-3" d="M166.78,74.26l-.11,0a.2.2,0,0,1,0-.28,2.29,2.29,0,0,0,.39-1c0-.42-.1-4-.1-4a.2.2,0,1,1,.39,0c0,.15.1,3.62.1,4a2.65,2.65,0,0,1-.46,1.17A.17.17,0,0,1,166.78,74.26Z"/><path class="cls-3" d="M167.63,73.83a.15.15,0,0,1-.12,0,.18.18,0,0,1,0-.27,1.34,1.34,0,0,0,.32-.72c0-.42-.31-4.47-.32-4.51a.2.2,0,1,1,.39,0c0,.17.32,4.11.32,4.54a1.74,1.74,0,0,1-.42,1A.2.2,0,0,1,167.63,73.83Z"/><path class="cls-4" d="M93.15,179.9l2.24,3.29s7.37,4.06,7.65,4.15.28.85-.19.95-2.17.28-2.17.28H85.2s-.38-1.51-.57-2.36a16.46,16.46,0,0,1,.28-3.59l.1-2.45Z"/><path class="cls-3" d="M85.2,188.77a.19.19,0,0,1-.19-.15s-.38-1.52-.57-2.37a16.47,16.47,0,0,1,.28-3.66l.09-2.43A.19.19,0,0,1,85,180l8.14-.27a.21.21,0,0,1,.17.08L95.53,183c2.92,1.61,7.32,4,7.57,4.12a.61.61,0,0,1,.33.63.72.72,0,0,1-.54.69c-.48.09-2.12.28-2.19.29Zm.15-.39h15.33s1.67-.19,2.13-.28a.32.32,0,0,0,.22-.29.39.39,0,0,0,0-.28c-.29-.1-6.45-3.49-7.68-4.17a.13.13,0,0,1-.07-.06l-2.18-3.2-7.85.26-.09,2.27a16.43,16.43,0,0,0-.29,3.54C85,186.85,85.25,188,85.35,188.38Z"/><path class="cls-3" d="M68.16,107.43l.52,15.35,2.22,51.14L70,176.65l1.3,4.17a3.22,3.22,0,0,1,3.51-.65,11.92,11.92,0,0,1,3.12,2.08A19.57,19.57,0,0,0,79,180a9.14,9.14,0,0,0,.39-2.87c0-.39,1.83-2.21,1.83-2.86a16.72,16.72,0,0,0-1.57-3.38l2.48-48.54L85,173.66s-.78.91-.78,1.3,1,6.64,1,6.64.13.13,1.69.13,3.64-.39,4.3-1a3.82,3.82,0,0,1,2-.79l.26-2.86L92.89,175l1.69-31.49V111.72l.13-4.81-26.81-.39Z"/><path class="cls-3" d="M77.92,182.44a.24.24,0,0,1-.14-.05,11.64,11.64,0,0,0-3.06-2,3,3,0,0,0-3.3.61.19.19,0,0,1-.18.06.2.2,0,0,1-.14-.14l-1.3-4.16a.24.24,0,0,1,0-.12l.9-2.7-2.21-51.1L68,107.46l-.25-.89a.17.17,0,0,1,0-.17.19.19,0,0,1,.16-.08l26.8.39a.2.2,0,0,1,.14.06.16.16,0,0,1,.05.14l-.13,4.82v31.74l-1.69,31.47L93.6,177v.06l-.26,2.86a.19.19,0,0,1-.17.18,3.61,3.61,0,0,0-1.84.72c-.68.69-2.79,1.1-4.43,1.1s-1.78-.14-1.83-.19a.12.12,0,0,1,0-.1c-.11-.64-1-6.27-1-6.67a3.27,3.27,0,0,1,.78-1.37L82.1,126.05l-2.29,44.83a14.87,14.87,0,0,1,1.56,3.43,4.56,4.56,0,0,1-1.12,1.87,5,5,0,0,0-.7,1,8.8,8.8,0,0,1-.4,2.92,18,18,0,0,1-1.06,2.24.18.18,0,0,1-.14.1Zm-4.36-2.75a3,3,0,0,1,1.32.3,12.71,12.71,0,0,1,3,1.94,16.61,16.61,0,0,0,.91-2,8.3,8.3,0,0,0,.38-2.8c0-.22.27-.58.78-1.23a5.27,5.27,0,0,0,1-1.63A14.86,14.86,0,0,0,79.44,171a.36.36,0,0,1,0-.1l2.47-48.54a.2.2,0,0,1,.2-.18h0a.19.19,0,0,1,.19.18l2.86,51.27a.18.18,0,0,1,0,.14,3.23,3.23,0,0,0-.74,1.17c0,.27.61,4,1,6.49a8.77,8.77,0,0,0,1.52.08c1.53,0,3.57-.39,4.16-1a3.69,3.69,0,0,1,1.91-.82l.24-2.67L92.7,175a.13.13,0,0,1,0-.06l1.69-31.49V111.72l.13-4.62-26.35-.39.19.66a.09.09,0,0,1,0,0l.52,15.35,2.21,51.14a.17.17,0,0,1,0,.07l-.89,2.67,1.2,3.83A3.65,3.65,0,0,1,73.56,179.69Zm11.65,1.91Z"/><path class="cls-4" d="M73.11,67.74l-9.5,5.07-5.73,21.6L50.34,106l2.73,2.21,10.15-9.89,2.86-3.65,1,6.64s-2,4.69-.91,5.6a9,9,0,0,0,2.47,1.43h26a16.57,16.57,0,0,0,.52-2.34c0-.53-.65-5-.65-5L95,91.94,96.4,100l1.3,14.18,3.91-.13.78-19L96.92,72.81,86,68.26Z"/><path class="cls-3" d="M97.7,114.39a.19.19,0,0,1-.19-.18L96.21,100l-1.12-6.3-.32,7.33c0,.14.65,4.41.65,4.94a16.39,16.39,0,0,1-.52,2.39.2.2,0,0,1-.19.14H68.62a8.94,8.94,0,0,1-2.54-1.47c-1.08-.94.56-5.08.84-5.76l-1-6.14-2.59,3.29-10.16,9.91a.2.2,0,0,1-.26,0l-2.74-2.21a.21.21,0,0,1,0-.26L57.7,94.33l5.72-21.57a.19.19,0,0,1,.1-.12L73,67.57a.17.17,0,0,1,.1,0L86,68.06l.07,0L97,72.63a.22.22,0,0,1,.11.14L102.58,95v0l-.78,19a.2.2,0,0,1-.19.19l-3.9.13ZM95,91.75a.19.19,0,0,1,.19.16L96.59,100l1.29,14,3.54-.12.77-18.79L96.75,73,86,68.45l-12.8-.51-9.37,5L58.07,94.46a.14.14,0,0,1,0,.06L50.6,106l2.46,2,10-9.77,2.85-3.63a.19.19,0,0,1,.2-.06.18.18,0,0,1,.14.15l1,6.64a.22.22,0,0,1,0,.11c-.73,1.76-1.64,4.77-1,5.37a8.85,8.85,0,0,0,2.38,1.38H94.56A14.31,14.31,0,0,0,95,106c0-.41-.42-3.4-.64-4.92l.38-9.15a.19.19,0,0,1,.19-.18ZM57.88,94.41h0Z"/><polygon class="cls-4" points="75.48 64.13 73.63 64.32 71.87 67.64 73.14 75.74 79.09 71.55 85.05 75.94 87.1 67.54 84.66 64.03 75.48 64.13"/><path class="cls-3" d="M85.05,76.13a.19.19,0,0,1-.12,0l-5.84-4.3L73.25,75.9a.18.18,0,0,1-.19,0,.18.18,0,0,1-.11-.15l-1.27-8.1a.17.17,0,0,1,0-.12l1.76-3.32a.18.18,0,0,1,.15-.1l1.85-.2h0l9.17-.09a.19.19,0,0,1,.17.08l2.44,3.51a.23.23,0,0,1,0,.16L85.24,76a.2.2,0,0,1-.13.14Zm-6-4.78a.17.17,0,0,1,.12,0l5.72,4.22,2-8-2.33-3.35-9.07.09-1.74.19-1.68,3.17,1.22,7.72,5.69-4A.17.17,0,0,1,79.09,71.35Z"/><path class="cls-4" d="M74.9,61.1l-.3,5,4.88,5.86,4.4-6L83.49,61S78.41,62.37,74.9,61.1Z"/><path class="cls-3" d="M79.48,72.13a.19.19,0,0,1-.15-.07l-4.88-5.85a.23.23,0,0,1,0-.14l.29-5a.21.21,0,0,1,.09-.15.21.21,0,0,1,.17,0c3.42,1.23,8.42-.09,8.47-.1a.17.17,0,0,1,.17,0,.16.16,0,0,1,.08.14l.39,4.88A.2.2,0,0,1,84,66l-4.39,6a.18.18,0,0,1-.15.08ZM74.8,66l4.67,5.61,4.21-5.79-.37-4.58c-1,.25-5.11,1.13-8.23.12Z"/><path class="cls-3" d="M83.64,62.9,83.49,61s-5.08,1.36-8.59.09l-.08,1.26c.75,1.37,2.44,4,4.39,4.22C80.84,66.72,82.57,64.55,83.64,62.9Z"/><path class="cls-3" d="M79.36,66.78h-.17c-2-.17-3.7-2.78-4.54-4.32a.18.18,0,0,1,0-.1l.07-1.26a.21.21,0,0,1,.09-.15.21.21,0,0,1,.17,0c3.42,1.23,8.42-.09,8.47-.1a.17.17,0,0,1,.17,0,.16.16,0,0,1,.08.14l.15,1.89a.24.24,0,0,1,0,.12C82.68,64.74,81,66.78,79.36,66.78ZM75,62.31c.66,1.21,2.34,3.91,4.2,4.07,1.57.15,3.3-2.13,4.22-3.53l-.13-1.6c-1,.25-5.11,1.13-8.23.12Z"/><path class="cls-4" d="M72.46,53.2s-.69-1.47-1.08-.29,1.18,3.61,1.18,3.61l.29-3.22Z"/><path class="cls-3" d="M72.56,56.71a.2.2,0,0,1-.17-.09c-.07-.1-1.61-2.53-1.19-3.78.12-.37.31-.57.54-.58.39,0,.72.51.85.77l.31.08a.19.19,0,0,1,.14.2l-.29,3.22a.2.2,0,0,1-.15.18Zm-.79-4.06h0s-.12.07-.2.32c-.24.71.38,2.08.85,2.93l.22-2.46-.23,0a.24.24,0,0,1-.13-.11C72.13,53,71.88,52.65,71.77,52.65Z"/><path class="cls-4" d="M85.47,53.2s.69-1.47,1.08-.29-1.18,3.61-1.18,3.61l-.29-3.22Z"/><path class="cls-3" d="M85.37,56.71h0a.2.2,0,0,1-.15-.18l-.29-3.22a.19.19,0,0,1,.14-.2l.31-.08c.13-.26.46-.79.85-.77.23,0,.42.21.54.58.42,1.25-1.13,3.68-1.19,3.78A.2.2,0,0,1,85.37,56.71Zm-.08-3.27.22,2.46c.47-.85,1.09-2.22.85-2.93-.08-.25-.16-.32-.2-.32s-.36.3-.51.63a.24.24,0,0,1-.13.11Zm.18-.24h0Z"/><path class="cls-3" d="M85,54.86s.19.09.49-.59a32.46,32.46,0,0,0,.49-4.59s1.95-2.92.87-5-4.68-2.93-7.32-3.52-6.63.49-7.9,2S69,46.37,69.82,47.34a16.47,16.47,0,0,0,2.54,2.25s-.29,3,.1,3.61l.39.58.49-4a34.7,34.7,0,0,0,5.46-1.07c2-.68,3-1,3-1a8.3,8.3,0,0,0,1.56,2.15,4.73,4.73,0,0,1,1,.88Z"/><path class="cls-3" d="M85,55.06a.25.25,0,0,1-.12,0,.18.18,0,0,1-.1-.15l-.58-4a5,5,0,0,0-.91-.8A7.86,7.86,0,0,1,81.73,48c-.35.1-1.29.4-2.87.92A33.31,33.31,0,0,1,73.51,50L73,53.81a.19.19,0,0,1-.15.16.18.18,0,0,1-.2-.08l-.39-.58c-.39-.58-.21-2.93-.14-3.63a16,16,0,0,1-2.49-2.22c-.89-1.11.47-3,1.76-4.44s5.46-2.6,8.1-2c3,.68,6.38,1.57,7.45,3.62s-.61,4.73-.86,5.13a29.79,29.79,0,0,1-.5,4.6c-.17.39-.34.62-.53.69Zm-3.15-7.52a.21.21,0,0,1,.17.1,8.13,8.13,0,0,0,1.5,2.08,4.75,4.75,0,0,1,1,.92.36.36,0,0,1,0,.09l.54,3.78a2.32,2.32,0,0,0,.16-.32,29,29,0,0,0,.47-4.51.17.17,0,0,1,0-.1s1.88-2.86.87-4.78S82.4,42,79.44,41.38c-2.7-.59-6.56.56-7.71,1.89-.63.73-2.56,2.95-1.75,3.95a16.87,16.87,0,0,0,2.49,2.21.18.18,0,0,1,.08.18,10.28,10.28,0,0,0,.07,3.48l.1.15.42-3.48a.19.19,0,0,1,.17-.17,35.36,35.36,0,0,0,5.43-1.07c2-.67,3-1,3-1Z"/><path class="cls-4" d="M73,49s-.69,8.49-.1,9.76,3,5.95,6.83,5.56,5.27-4.19,5.46-6.44S85,49.59,85,49.59s-1.85-.78-2-1.56A10.59,10.59,0,0,1,82.7,46S77,49.49,73,49Z"/><path class="cls-3" d="M79.22,64.54c-3.63,0-5.92-4.32-6.55-5.7s0-9.51.08-9.85a.21.21,0,0,1,.07-.14.2.2,0,0,1,.15,0c3.88.47,9.58-3,9.63-3a.18.18,0,0,1,.2,0,.19.19,0,0,1,.1.17,10.42,10.42,0,0,0,.19,2c.12.5,1.25,1.14,1.94,1.43a.19.19,0,0,1,.11.16c0,.25.39,6.1.2,8.33s-1.6,6.2-5.64,6.62Zm-6.1-15.32c-.19,2.48-.55,8.48-.09,9.46.63,1.37,3,5.83,6.63,5.45s5.12-4.27,5.29-6.26-.14-7.29-.19-8.15c-.44-.2-1.86-.89-2.05-1.65a8.89,8.89,0,0,1-.19-1.76C81.31,47,76.66,49.53,73.12,49.22Z"/><path class="cls-3" d="M79.29,56.32a5.71,5.71,0,0,0-2.83,1.17,5,5,0,0,1-2.15,1.17,6.26,6.26,0,0,0,4.39,2.15c2.64,0,4.3-1.27,4.59-2.15l.29-.88A9.3,9.3,0,0,1,80.75,57,8,8,0,0,0,79.29,56.32Z"/><path class="cls-3" d="M78.7,61a6.39,6.39,0,0,1-4.54-2.22.21.21,0,0,1,0-.2.2.2,0,0,1,.16-.12,5.26,5.26,0,0,0,2-1.13,5.73,5.73,0,0,1,2.94-1.21h.06a9,9,0,0,1,1.51.7,9.21,9.21,0,0,0,2.75.76.21.21,0,0,1,.15.09.2.2,0,0,1,0,.17l-.29.87C83.16,59.67,81.47,61,78.7,61Zm-4-2.24a6,6,0,0,0,4,1.85c2.55,0,4.13-1.21,4.41-2l.21-.65a9.14,9.14,0,0,1-2.66-.77,8,8,0,0,0-1.39-.66,5.49,5.49,0,0,0-2.69,1.13A7,7,0,0,1,74.67,58.77Z"/><path class="cls-4" d="M78.31,54.27a11.21,11.21,0,0,0,0,2.54c.2.39,1.66,1.17,1.86.29a13.33,13.33,0,0,0,0-2.83"/><path class="cls-3" d="M79.64,57.7a2,2,0,0,1-1.5-.8,9.81,9.81,0,0,1,0-2.65.2.2,0,0,1,.39,0,9.11,9.11,0,0,0,0,2.43,1.71,1.71,0,0,0,1.23.58.28.28,0,0,0,.26-.24,12.64,12.64,0,0,0,0-2.77.2.2,0,0,1,.39,0,12.71,12.71,0,0,1,0,2.89.66.66,0,0,1-.6.55Z"/><ellipse class="cls-3" cx="76.12" cy="53.49" rx="0.54" ry="0.68"/><ellipse class="cls-3" cx="81.92" cy="53.49" rx="0.54" ry="0.68"/><path class="cls-3" d="M74.51,51.83h-.06a.2.2,0,0,1-.13-.24,1.61,1.61,0,0,1,.81-.88,3,3,0,0,1,2.37.07.2.2,0,1,1-.13.37,2.72,2.72,0,0,0-2.06-.1,1.25,1.25,0,0,0-.62.66A.18.18,0,0,1,74.51,51.83Z"/><path class="cls-3" d="M83.29,51.44a.2.2,0,0,1-.14-.06c-1.5-1.5-2.7-.43-2.75-.38a.2.2,0,0,1-.27-.29,2.32,2.32,0,0,1,3.3.4.2.2,0,0,1,0,.27A.2.2,0,0,1,83.29,51.44Z"/><path class="cls-3" d="M66.08,94.87a.18.18,0,0,1-.18-.13L62.25,84.07a.2.2,0,0,1,.13-.25.18.18,0,0,1,.24.12l3,8.8L63.94,80a.19.19,0,1,1,.38,0l2,14.7a.18.18,0,0,1-.14.21Z"/><path class="cls-3" d="M80.79,101a.21.21,0,0,1-.2-.19l-1.3-27.46a.19.19,0,0,1,.19-.2.2.2,0,0,1,.2.19L81,100.78a.2.2,0,0,1-.19.21Z"/><path class="cls-3" d="M95,92.14h0a.2.2,0,0,1-.2-.2L94.9,78.8a.2.2,0,0,1,.2-.2.19.19,0,0,1,.19.2l-.13,13.14A.19.19,0,0,1,95,92.14Z"/><path class="cls-6" d="M79.87,123a.2.2,0,0,1-.16-.1.18.18,0,0,1,.06-.26L85,119.36a.19.19,0,0,1,.2.33L80,123A.2.2,0,0,1,79.87,123Z"/><path class="cls-4" d="M71.6,180.38,70.47,184s-2.64,4.25-2.55,4.63,10.48,0,10.48,0,.76,0,.66-1.61a47.14,47.14,0,0,0-.75-4.81s-1.14-2.93-3.31-3.4S71.6,179.82,71.6,180.38Z"/><path class="cls-3" d="M71,189c-3.22,0-3.27-.2-3.3-.33-.09-.37,1.34-2.78,2.56-4.75l1.12-3.54a1.89,1.89,0,0,1,.77-1.17,3.28,3.28,0,0,1,2.86-.59c2.25.49,3.4,3.39,3.45,3.52s.67,3.27.77,4.87a2.08,2.08,0,0,1-.37,1.57.68.68,0,0,1-.49.24C74.94,188.92,72.6,189,71,189Zm-2.89-.49c.91.18,6.67.05,10.25-.08.2,0,.54-.32.48-1.4-.1-1.57-.75-4.75-.75-4.78h0S77,179.41,75,179a2.92,2.92,0,0,0-2.54.52,1.51,1.51,0,0,0-.62.89.13.13,0,0,1,0,.06L70.66,184s0,0,0,0A41.7,41.7,0,0,0,68.14,188.48Zm3.46-8.1h0Z"/><path class="cls-3" d="M101.05,125.16l-.09,0-.42-.21a.21.21,0,0,1-.11-.23l1.19-4.58a.19.19,0,0,1,.38.08l-.76,4.8a.18.18,0,0,1-.1.14Zm-.2-.51.05,0,.09-.54Z"/><path class="cls-4" d="M97.7,114.19l-.89,4.25.39,4.38.64.08.24-3.1.45,4.91,1.91.37s1.28-4.18,1.37-4.91-.2-6.11-.2-6.11Z"/><path class="cls-3" d="M100.44,125.27h0l-1.91-.36a.2.2,0,0,1-.16-.18l-.24-2.62-.06.8a.27.27,0,0,1-.07.14.21.21,0,0,1-.15,0l-.64-.07a.2.2,0,0,1-.18-.18l-.39-4.38a.13.13,0,0,1,0-.06l.89-4.25a.19.19,0,0,1,.18-.15l3.91-.13a.19.19,0,0,1,.2.18c0,.22.29,5.41.2,6.14s-1.32,4.77-1.37,5A.19.19,0,0,1,100.44,125.27Zm-1.72-.72,1.59.3c.24-.78,1.23-4.09,1.3-4.71s-.09-4-.19-5.88l-3.56.12L97,118.45l.38,4.2.28,0,.23-2.89a.19.19,0,0,1,.19-.18h0a.19.19,0,0,1,.19.18Z"/><path class="cls-3" d="M99.05,124.88h0a.19.19,0,0,1-.17-.22l.71-5.28a.19.19,0,0,1,.22-.16.19.19,0,0,1,.17.22l-.71,5.28A.21.21,0,0,1,99.05,124.88Z"/><path class="cls-3" d="M99.62,125.09h0a.18.18,0,0,1-.14-.23l1.28-5.07a.2.2,0,0,1,.24-.14.21.21,0,0,1,.14.24l-1.29,5.06A.19.19,0,0,1,99.62,125.09Z"/><path class="cls-4" d="M50.34,106s-3.13,1.43-3.91,1.69-1,1.17-2,1.82-2.08,1.43-1.43,1.69a3.06,3.06,0,0,0,1.43.13l1.17-1.43-2.08,4.55-.13,1.69,1.56.66,3.65-2,4.42-6.63Z"/><path class="cls-3" d="M45,117h-.07l-1.56-.65a.2.2,0,0,1-.12-.2l.13-1.69a.17.17,0,0,1,0-.07l1.46-3.18-.22.26a.15.15,0,0,1-.12.07,3.11,3.11,0,0,1-1.53-.14.43.43,0,0,1-.31-.35c-.05-.41.54-.86,1.51-1.55l.19-.13a4.33,4.33,0,0,0,.9-.92,2.47,2.47,0,0,1,1.1-.93c.76-.25,3.85-1.67,3.89-1.68a.21.21,0,0,1,.2,0l2.73,2.22a.19.19,0,0,1,0,.26L48.81,115a.23.23,0,0,1-.07.07l-3.65,2Zm-1.35-1,1.34.56,3.52-1.89,4.3-6.44-2.5-2c-.57.26-3.11,1.42-3.82,1.65a2.21,2.21,0,0,0-.91.8,4.9,4.9,0,0,1-1,1l-.18.13c-.44.31-1.37,1-1.35,1.18h0s0,0,.06,0a2.92,2.92,0,0,0,1.26.13l1.12-1.37a.2.2,0,0,1,.26,0,.2.2,0,0,1,.07.25l-2.07,4.52Zm-.59-5Z"/><path class="cls-4" d="M45.65,109.9s1.53,1.28,2.48,1,1.7-2.23,1.7-2.23"/><path class="cls-3" d="M47.85,111.14a4.73,4.73,0,0,1-2.32-1.09.19.19,0,0,1,0-.28.2.2,0,0,1,.28,0c.4.34,1.6,1.17,2.3,1s1.37-1.6,1.56-2.12a.21.21,0,0,1,.25-.12.2.2,0,0,1,.12.26c0,.08-.79,2.06-1.82,2.35A1.27,1.27,0,0,1,47.85,111.14Z"/><line class="cls-4" x1="43.59" y1="115.45" x2="45.76" y2="112.27"/><path class="cls-3" d="M43.59,115.65a.15.15,0,0,1-.11,0,.19.19,0,0,1,0-.27l2.17-3.18a.19.19,0,0,1,.32.22l-2.17,3.18A.19.19,0,0,1,43.59,115.65Z"/><line class="cls-4" x1="44.2" y1="116.33" x2="46.71" y2="112.74"/><path class="cls-3" d="M44.2,116.53a.15.15,0,0,1-.11,0,.19.19,0,0,1-.05-.27l2.51-3.59a.19.19,0,0,1,.32.22l-2.51,3.6A.21.21,0,0,1,44.2,116.53Z"/><line class="cls-4" x1="45" y1="116.8" x2="47.93" y2="113.28"/><path class="cls-3" d="M45,117a.17.17,0,0,1-.12,0,.2.2,0,0,1,0-.28l2.93-3.51a.2.2,0,0,1,.27,0,.2.2,0,0,1,0,.28l-2.93,3.51A.18.18,0,0,1,45,117Z"/><path class="cls-3" d="M54.6,179.64a12.52,12.52,0,0,0,.78,2.05c.39.68,1,3,1.76,3.41a2.7,2.7,0,0,1,1.07,2.35c0,.78-.2,1-.68,1H47.77s-.1-1.27-.1-2.44.19-3,.19-3.51v-3.12a40.9,40.9,0,0,1,4.4-.3C54.31,179.05,54.6,179.64,54.6,179.64Z"/><path class="cls-3" d="M57.53,188.62H47.77a.2.2,0,0,1-.2-.18s-.1-1.29-.1-2.46c0-.72.08-1.68.13-2.45,0-.47.07-.88.07-1.06v-3.12a.2.2,0,0,1,.17-.2,43.72,43.72,0,0,1,4.42-.29c2.06,0,2.45.57,2.51.69l0,0a10.89,10.89,0,0,0,.76,2,9.08,9.08,0,0,1,.44,1.06c.32.86.77,2,1.23,2.28a2.87,2.87,0,0,1,1.18,2.52C58.4,188.15,58.25,188.62,57.53,188.62ZM48,188.23h9.58c.29,0,.48,0,.48-.78s-.25-1.82-1-2.17-1-1.47-1.43-2.5a9.83,9.83,0,0,0-.41-1,11.35,11.35,0,0,1-.79-2.06c-.06-.07-.48-.47-2.16-.47a39.84,39.84,0,0,0-4.2.27v2.95c0,.2,0,.59-.07,1.09-.05.77-.13,1.72-.13,2.42C47.86,186.87,47.92,187.84,48,188.23Z"/><path class="cls-3" d="M37.52,179.35l-1.76,4.48s-2.24,2.15-2.24,3,.49,1.27.78,1.27h10a8.56,8.56,0,0,0,.1-3.12c-.29-1.47-.88-3.71-.88-3.71l-3.9-2.05Z"/><path class="cls-3" d="M44.25,188.32h-10c-.39,0-1-.46-1-1.46s1.93-2.8,2.28-3.14l1.74-4.45a.18.18,0,0,1,.17-.12l2.05-.1.1,0,3.9,2.05a.19.19,0,0,1,.1.13s.59,2.26.88,3.72a8.44,8.44,0,0,1-.1,3.2A.19.19,0,0,1,44.25,188.32Zm0-.19h0Zm-6.59-8.6-1.72,4.38a.25.25,0,0,1,0,.07c-.85.8-2.19,2.3-2.19,2.88,0,.81.44,1.07.59,1.07h9.79a8,8,0,0,0,.07-2.89c-.26-1.28-.75-3.19-.85-3.61l-3.78-2Zm-1.9,4.3h0Z"/><path class="cls-4" d="M35.67,140l1.85,34.54s-1.27,2.15-1,2.74a16.73,16.73,0,0,1,.69,2.63l3.61,2.15s2.54-.39,2.63-.78.39-2.54.49-3.91-.49-2.63-.39-4,2.15-27.81,2.15-27.81l.68-.2L47.86,177a7.07,7.07,0,0,0-.48,1.56c-.1.69.87,2.05.87,2.05s0,1.18.59,1.37a3,3,0,0,0,2.24-.59c.4-.39.2-1.56,1.08-1.75a5.74,5.74,0,0,1,2.63.68,25.27,25.27,0,0,0,0-2.83,6.52,6.52,0,0,0-1.07-2.24L55,149.77,54.6,140Z"/><path class="cls-3" d="M40.84,182.27l-.1,0-3.61-2.15A.2.2,0,0,1,37,180a18.42,18.42,0,0,0-.67-2.59c-.31-.62.68-2.39,1-2.86L35.47,140a.25.25,0,0,1,.05-.15.2.2,0,0,1,.15-.06H54.6a.19.19,0,0,1,.19.19l.39,9.76-1.26,25.42A6.38,6.38,0,0,1,55,177.47a26.09,26.09,0,0,1,0,2.86.2.2,0,0,1-.1.16.19.19,0,0,1-.18,0,5.36,5.36,0,0,0-2.51-.67c-.4.09-.52.43-.65.94a1.47,1.47,0,0,1-.33.76,3.21,3.21,0,0,1-2.44.64c-.64-.22-.71-1.21-.72-1.49a4.34,4.34,0,0,1-.88-2.14,7.17,7.17,0,0,1,.49-1.57l-1.45-31.33-.32.09c-.16,2.05-2,26.38-2.14,27.68a7.7,7.7,0,0,0,.2,2,8.16,8.16,0,0,1,.2,2c-.1,1.33-.39,3.52-.5,3.93s-1.58.74-2.79.93Zm-3.44-2.46,3.48,2.06a7.7,7.7,0,0,0,2.41-.64c.08-.34.38-2.45.48-3.85a7.61,7.61,0,0,0-.2-1.95,8.16,8.16,0,0,1-.19-2.05c.09-1.35,2.12-27.55,2.14-27.82a.21.21,0,0,1,.14-.17l.69-.19a.18.18,0,0,1,.16,0,.24.24,0,0,1,.09.15L48.06,177a.15.15,0,0,1,0,.09,7.29,7.29,0,0,0-.47,1.51,4.12,4.12,0,0,0,.84,1.91.15.15,0,0,1,0,.11c0,.27.08,1.06.45,1.18a2.91,2.91,0,0,0,2.05-.53,1.53,1.53,0,0,0,.22-.58c.13-.48.28-1.08.95-1.23a5.13,5.13,0,0,1,2.49.57,23.42,23.42,0,0,0,0-2.51,6.55,6.55,0,0,0-1-2.15.28.28,0,0,1,0-.12l1.27-25.47-.38-9.56H35.87l1.84,34.34a.14.14,0,0,1,0,.11c-.59,1-1.12,2.25-1,2.55A15.94,15.94,0,0,1,37.4,179.81Z"/><path class="cls-4" d="M60.26,124.11l-.78,18.74s.78,4.49.78,4.78a5.76,5.76,0,0,1-1.07,2.83.66.66,0,0,1-1.08-.2l.2-1.07-.49-2.34-.68,2.63s-.88.1-.69-1.07.1-3.22.3-3.9a7.61,7.61,0,0,0,.19-1.66S55,132.79,55,132.5s-.49-7.71-.49-7.71Z"/><path class="cls-3" d="M58.7,150.87h-.15a1,1,0,0,1-.61-.51.17.17,0,0,1,0-.12l.19-1-.31-1.49-.48,1.83a.19.19,0,0,1-.16.15.89.89,0,0,1-.69-.25,1.17,1.17,0,0,1-.21-1.05,17.27,17.27,0,0,0,.14-2.06,9.83,9.83,0,0,1,.16-1.87,7.62,7.62,0,0,0,.19-1.6c-.33-1.65-2-10-2-10.35s-.32-5.13-.48-7.7a.18.18,0,0,1,.17-.2l5.76-.69a.27.27,0,0,1,.15,0,.19.19,0,0,1,.06.16l-.78,18.71c.1.55.78,4.5.78,4.8a5.8,5.8,0,0,1-1.14,3A1,1,0,0,1,58.7,150.87Zm-.38-.64a.44.44,0,0,0,.74.08,5.61,5.61,0,0,0,1-2.68c0-.22-.46-3-.77-4.75a.06.06,0,0,1,0,0l.77-18.51-5.34.63c.07,1.18.47,7.27.47,7.54s1.18,6.33,2,10.31a7,7,0,0,1-.2,1.75,11.09,11.09,0,0,0-.14,1.77,18.33,18.33,0,0,1-.14,2.11.87.87,0,0,0,.1.72.42.42,0,0,0,.24.12l.64-2.48a.19.19,0,0,1,.19-.15.2.2,0,0,1,.19.16l.49,2.34v.07Z"/><circle class="cls-4" cx="28.49" cy="133.72" r="7.37"/><path class="cls-3" d="M28.49,141.28a7.56,7.56,0,1,1,7.57-7.56A7.57,7.57,0,0,1,28.49,141.28Zm0-14.73a7.17,7.17,0,1,0,7.18,7.17A7.18,7.18,0,0,0,28.49,126.55Z"/><path class="cls-4" d="M25.22,119.13s-3.22,4-3.41,4.49S18.39,134.94,18.68,136s1.47,3.42,1.76,4.2S24,142.65,25,142.65a4,4,0,0,0,1.95-.84.52.52,0,0,0-.06-.89,11.67,11.67,0,0,1-1.21-.71c-.68-.49-1.27-1-1.27-1s1.37,1.07,1.47.29-.78-1.37-1.08-1.95a10.44,10.44,0,0,0-1.95-2.15l-1.17-.78s-.39-3.12.49-4.59a7.67,7.67,0,0,1,2.05-2.24l1.95-2.93,1.85-1.56Z"/><path class="cls-3" d="M25,142.85c-1.11,0-4.44-1.69-4.77-2.57-.1-.28-.32-.75-.57-1.31a24.25,24.25,0,0,1-1.19-2.9c-.34-1.22,3.09-12.42,3.13-12.52.2-.5,3.11-4.13,3.44-4.54a.2.2,0,0,1,.16-.07.18.18,0,0,1,.15.08l2.84,4.2a.2.2,0,0,1,0,.26L26.35,125l-1.94,2.9s0,0-.05.06a7.44,7.44,0,0,0-2,2.18c-.76,1.26-.53,3.86-.48,4.38l1.1.73a10.58,10.58,0,0,1,2,2.22,3,3,0,0,0,.41.56,2.06,2.06,0,0,1,.68,1.5.47.47,0,0,1-.29.42l-.07,0,.08.06a10.37,10.37,0,0,0,1.19.69.71.71,0,0,1,.38.59.69.69,0,0,1-.3.64A4.18,4.18,0,0,1,25,142.85Zm.18-23.39c-1.28,1.6-3.09,3.91-3.22,4.23-.23.57-3.38,11.31-3.12,12.27A25.94,25.94,0,0,0,20,138.81c.26.56.48,1.05.58,1.33.26.67,3.38,2.32,4.41,2.32a3.72,3.72,0,0,0,1.83-.81.33.33,0,0,0,.15-.29.34.34,0,0,0-.18-.27,10.11,10.11,0,0,1-1.23-.72c-.68-.49-1.28-1-1.28-1a.19.19,0,0,1,0-.27.2.2,0,0,1,.27,0c.4.31.94.6,1.1.53s.05-.05.05-.11c.06-.43-.27-.82-.59-1.19a3.7,3.7,0,0,1-.46-.65,11.16,11.16,0,0,0-1.89-2.07l-1.17-.78a.16.16,0,0,1-.08-.14c0-.13-.39-3.2.51-4.71a7.76,7.76,0,0,1,2.08-2.28l1.93-2.9,0,0,1.72-1.45Z"/><line class="cls-4" x1="24.44" y1="139.24" x2="21.9" y2="137.87"/><path class="cls-3" d="M24.44,139.43l-.09,0L21.81,138a.19.19,0,1,1,.19-.34l2.53,1.36a.19.19,0,0,1,.08.27A.19.19,0,0,1,24.44,139.43Z"/><path class="cls-2" d="M42.89,105.27l-9.57,3.32-9.46,10.93,4.39,5.66,6.63-4.59.2,20.11a39.58,39.58,0,0,0,9.37,2c5.07.39,10.54-2,10.54-2l.78-14,6.73-2s-4.68-13-5.56-14.54-8.69-4.39-8.69-4.39A15.28,15.28,0,0,0,42.89,105.27Z"/><path class="cls-3" d="M45.61,142.89c-.39,0-.79,0-1.18,0a40,40,0,0,1-9.42-2,.23.23,0,0,1-.13-.18L34.69,121l-6.33,4.38a.2.2,0,0,1-.27,0l-4.39-5.66a.21.21,0,0,1,0-.25l9.47-10.93.08,0,9.56-3.32h0a15.6,15.6,0,0,1,5.46.49c.33.12,7.9,2.88,8.8,4.49s5.39,14,5.58,14.57a.26.26,0,0,1,0,.15.23.23,0,0,1-.12.1l-6.6,2-.78,13.82a.2.2,0,0,1-.11.17A28,28,0,0,1,45.61,142.89Zm-10.34-2.33a40.09,40.09,0,0,0,9.19,1.9c4.57.34,9.54-1.57,10.34-1.89l.77-13.84a.19.19,0,0,1,.14-.17l6.54-2c-.59-1.62-4.68-12.9-5.48-14.32-.69-1.23-6.43-3.53-8.58-4.31a15.45,15.45,0,0,0-5.25-.48l-9.5,3.3-9.33,10.77,4.18,5.39,6.48-4.49a.2.2,0,0,1,.2,0,.18.18,0,0,1,.11.17Z"/><line class="cls-4" x1="55.77" y1="126.74" x2="56.06" y2="113.47"/><path class="cls-3" d="M55.77,126.94h0a.2.2,0,0,1-.19-.2l.3-13.27a.18.18,0,0,1,.2-.19.2.2,0,0,1,.19.19L56,126.75A.19.19,0,0,1,55.77,126.94Z"/><line class="cls-4" x1="34.88" y1="120.59" x2="33.81" y2="114.84"/><path class="cls-3" d="M34.88,120.79a.2.2,0,0,1-.19-.16l-1.07-5.76a.19.19,0,0,1,.16-.22.18.18,0,0,1,.22.15l1.08,5.76a.2.2,0,0,1-.16.23Z"/><path class="cls-4" d="M42.3,101.47s.29,4.29.2,5.07.39,3.52,2.34,3.81,3.81-3.22,4-3.52a13,13,0,0,0-.19-2.92Z"/><path class="cls-3" d="M45.08,110.56l-.27,0c-2.07-.31-2.61-3.16-2.51-4s-.19-5-.19-5a.17.17,0,0,1,.08-.17.19.19,0,0,1,.18,0l6.35,2.44a.22.22,0,0,1,.12.16,9.46,9.46,0,0,1,.16,3.06.71.71,0,0,1-.09.15C47.55,109.4,46.26,110.56,45.08,110.56Zm-2.56-8.8c.06,1,.25,4.13.17,4.81s.4,3.32,2.18,3.58c.74.12,2-.36,3.71-3.25a.93.93,0,0,1,.1-.17,12.87,12.87,0,0,0-.21-2.68Z"/><path class="cls-3" d="M48.89,106.38a24,24,0,0,0-.24-2.47l-6.35-2.44s0,.57.09,1.34A8.12,8.12,0,0,0,46,105.54,21,21,0,0,0,48.89,106.38Z"/><path class="cls-3" d="M48.89,106.58h0a22.82,22.82,0,0,1-2.89-.85,8.4,8.4,0,0,1-3.73-2.81.18.18,0,0,1,0-.1c0-.77-.08-1.34-.08-1.34a.17.17,0,0,1,.08-.17.19.19,0,0,1,.18,0l6.35,2.44a.22.22,0,0,1,.12.16c0,.07.24,1.67.25,2.5a.24.24,0,0,1-.07.16A.28.28,0,0,1,48.89,106.58Zm-6.31-3.85a7.85,7.85,0,0,0,3.51,2.63,23.11,23.11,0,0,0,2.6.78c0-.71-.17-1.75-.22-2.09l-5.95-2.29C42.53,102,42.55,102.33,42.58,102.73Z"/><path class="cls-4" d="M51.28,90.44S50.21,88,46.4,87.32s-8,1.07-9.47,4.58S38.69,99,38.69,99s3.32,3.22,4,3.9A5.21,5.21,0,0,0,46,104.79c1.76.19,4.39.48,5.37,0s1.36-2.35,1.56-2.74,1-3.41.39-4.88a6.47,6.47,0,0,0-1.46-2.24A13.8,13.8,0,0,0,51.28,90.44Z"/><path class="cls-3" d="M49.54,105.25A34.67,34.67,0,0,1,46,105a5.16,5.16,0,0,1-3.32-1.8l-.12-.11c-.67-.68-4-3.87-4-3.9s-3.29-3.76-1.8-7.34c1.43-3.42,5.59-5.44,9.69-4.71,3.86.7,5,3.14,5,3.24h0a13.38,13.38,0,0,1,.6,4.49,6.52,6.52,0,0,1,1.45,2.25c.62,1.54-.18,4.6-.4,5,0,.07-.09.23-.15.41-.25.75-.66,2-1.49,2.41A4.81,4.81,0,0,1,49.54,105.25Zm-4.8-17.89A8.18,8.18,0,0,0,37.11,92c-1.39,3.36,1.7,6.88,1.73,6.92l4,3.89.11.12A4.84,4.84,0,0,0,46,104.59c1.73.19,4.34.48,5.26,0,.69-.34,1.09-1.54,1.3-2.18.07-.2.13-.37.17-.46.2-.39.94-3.35.39-4.72a6.41,6.41,0,0,0-1.41-2.18.17.17,0,0,1-.07-.15,13.47,13.47,0,0,0-.57-4.4c0-.08-1.13-2.36-4.73-3A9.07,9.07,0,0,0,44.74,87.36Z"/><path class="cls-3" d="M50.89,91.22a3.75,3.75,0,0,0,.47-.55,1.55,1.55,0,0,0-.08-.23S50.21,88,46.4,87.32s-8,1.07-9.47,4.58S38.69,99,38.69,99l1.14,1.1a1.61,1.61,0,0,1,.52-.52c.68-.39,1.46,1,1.46,1a1.24,1.24,0,0,0,.78-.68c.3-.59-1-2.44-1-2.44A7,7,0,0,1,43,95.61a26.38,26.38,0,0,0,2.64-3.9l.19,1.46a4.47,4.47,0,0,0,1.57-.58c.48-.39,1.36-1.18,1.36-1.18L48.55,93A14.8,14.8,0,0,0,50.89,91.22Z"/><path class="cls-3" d="M41.81,100.78a.2.2,0,0,1-.17-.09c-.17-.31-.78-1.15-1.19-.91a1.35,1.35,0,0,0-.46.46.16.16,0,0,1-.14.08.18.18,0,0,1-.16,0l-1.14-1.1c-.14-.16-3.29-3.76-1.8-7.34,1.43-3.42,5.59-5.44,9.69-4.71,3.86.7,5,3.14,5,3.24a2.09,2.09,0,0,1,.08.23.21.21,0,0,1,0,.19,4.59,4.59,0,0,1-.49.58,14.67,14.67,0,0,1-2.38,1.78.2.2,0,0,1-.3-.19l.14-1-1,.84a4.49,4.49,0,0,1-1.65.62.2.2,0,0,1-.15,0,.22.22,0,0,1-.08-.13l-.12-.9a22.3,22.3,0,0,1-2.38,3.45,7.23,7.23,0,0,0-1.28,1.7c.32.47,1.23,1.94.93,2.54a1.38,1.38,0,0,1-.92.79Zm-1.2-1.43c.57,0,1.09.7,1.29,1a1.13,1.13,0,0,0,.52-.53c.15-.3-.38-1.4-1-2.24a.19.19,0,0,1,0-.19,7.14,7.14,0,0,1,1.41-1.92,27.22,27.22,0,0,0,2.6-3.86.19.19,0,0,1,.21-.09.18.18,0,0,1,.15.16L46,92.94a3.76,3.76,0,0,0,1.27-.51c.48-.38,1.35-1.15,1.36-1.16a.18.18,0,0,1,.22,0,.2.2,0,0,1,.11.2l-.15,1.15a12.5,12.5,0,0,0,2-1.51c.16-.16.29-.31.4-.44s0-.09,0-.13-1.09-2.35-4.73-3c-3.92-.71-7.9,1.22-9.26,4.47s1.7,6.88,1.73,6.92l1,.93a2,2,0,0,1,.45-.39A.8.8,0,0,1,40.61,99.35Z"/><path class="cls-3" d="M51.08,100.1a.2.2,0,0,1-.19-.19.2.2,0,0,1,.19-.2,1.43,1.43,0,0,0,1-.52.19.19,0,0,0,0-.16c0-.4-.75-1.08-1.18-1.41a.18.18,0,0,1,0-.27.19.19,0,0,1,.27,0c.13.1,1.26,1,1.34,1.68a.63.63,0,0,1-.13.46A1.86,1.86,0,0,1,51.08,100.1Z"/><path class="cls-3" d="M50,102a2.79,2.79,0,0,1-1.83-.72.19.19,0,0,1,.27-.27,2.33,2.33,0,0,0,2.61.35.19.19,0,1,1,.17.35A2.81,2.81,0,0,1,50,102Z"/><path class="cls-3" d="M48.05,97.59a.62.62,0,0,1-.37.75c-.27,0-.53-.23-.59-.6s.11-.71.38-.75S48,97.21,48.05,97.59Z"/><path class="cls-3" d="M51.57,96.22c.06.37-.11.71-.38.75s-.53-.23-.59-.6.11-.71.38-.75S51.51,95.85,51.57,96.22Z"/><path class="cls-3" d="M46.11,96.68H46a.2.2,0,0,1-.1-.26,2.21,2.21,0,0,1,2-1.29.2.2,0,0,1,.2.2.19.19,0,0,1-.2.19,1.82,1.82,0,0,0-1.67,1.06A.2.2,0,0,1,46.11,96.68Z"/><path class="cls-3" d="M50.11,95A.23.23,0,0,1,50,95a.19.19,0,0,1,0-.27c.11-.1,1.06-.94,1.72-.83a.19.19,0,0,1,.16.22.19.19,0,0,1-.22.16c-.36-.06-1,.42-1.4.74A.21.21,0,0,1,50.11,95Z"/><path class="cls-4" d="M42.89,100.69S41.62,98,40.25,98.15s-1.46,2.34-.29,3.51a2.58,2.58,0,0,0,2.73.49"/><path class="cls-3" d="M41.64,102.54a2.51,2.51,0,0,1-1.82-.74A2.92,2.92,0,0,1,39.07,99a1.39,1.39,0,0,1,1.15-1c1.5-.21,2.79,2.53,2.84,2.64a.19.19,0,0,1-.09.26.19.19,0,0,1-.26-.09c-.34-.72-1.42-2.57-2.43-2.43a1,1,0,0,0-.84.76,2.48,2.48,0,0,0,.66,2.42,2.34,2.34,0,0,0,2.51.45.2.2,0,0,1,.16.36A3.23,3.23,0,0,1,41.64,102.54Z"/></svg>