<svg id="Layer_1" data-name="Layer 1" xmlns="http://www.w3.org/2000/svg" viewBox="0 0 200 200"><defs><style>.cls-1{fill:none;stroke:#1a2e35;stroke-miterlimit:10;}.cls-2{fill:#dcb626;}.cls-3,.cls-5,.cls-6{fill:#fff;}.cls-3{opacity:0.4;}.cls-4{fill:#231f20;}.cls-5{opacity:0.5;}.cls-7{fill:#004712;}</style></defs><rect class="cls-1" x="5.79" y="18.37" width="188.42" height="170.16"/><path class="cls-2" d="M121.18,104.53c0-.15-.1-.26-.22-.24l-6.3,1.35c-.22,0-.31-.37-.11-.49l6.35-3.58a.25.25,0,0,0,.12-.25c-.26-4.58-.67-9.61-1.2-14.73,0-.15-.12-.25-.23-.22L114,87.8c-.2,0-.31-.3-.14-.46l5.38-4.89a.31.31,0,0,0,.08-.25c-.29-2.48-.6-5-.94-7.39L118,72.37c0-.15-.15-.23-.26-.17L114.44,74c-.19.1-.35-.22-.21-.42l3.24-4.3a.39.39,0,0,0,0-.24c-.65-4-1.36-7.83-2.13-11.26,0-.16-.18-.23-.29-.14l-4.18,3.43c-.18.14-.38-.14-.26-.37l3.68-6.86a.33.33,0,0,0,0-.24,56.84,56.84,0,0,0-2.07-6.45.18.18,0,0,0-.25-.11l-2.9,1.71c-.15.08-.31-.1-.26-.31l.91-3.66c0-.07.08-.34.15-.57l.24-1A2.81,2.81,0,0,0,108.12,42a3,3,0,0,0-2.2,1.45l1.08,5c0,.21-.11.39-.26.31l-2.61-1.54a.18.18,0,0,0-.25.12A57.55,57.55,0,0,0,101.76,54a.33.33,0,0,0,0,.24l3.44,6.41c.12.23-.08.51-.26.37l-3.88-3.18c-.11-.09-.25,0-.28.14-.78,3.48-1.49,7.35-2.14,11.41a.27.27,0,0,0,0,.23l2.94,3.91c.14.2,0,.52-.21.42l-3-1.65c-.11-.07-.23,0-.26.18-.48,3.27-.92,6.62-1.31,10a.28.28,0,0,0,.08.24l5.06,4.6c.17.16.06.51-.14.46l-5.23-1.34c-.11,0-.21.07-.23.21-.53,5.17-.94,10.24-1.2,14.84a.29.29,0,0,0,.11.26l6,3.38c.2.12.11.54-.11.49l-6-1.27c-.11,0-.21.08-.22.23-.12,2.65-.18,5.11-.18,7.29,0,1.38,0,2.71.08,4a.23.23,0,0,0,.13.23l6.27,2.62c.2.09.17.48,0,.5l-5.93.53a.25.25,0,0,0-.18.28,51.76,51.76,0,0,0,1.94,10.8c0,.12.14.19.24.14L101,129.4c.19-.08.33.22.2.42l-2.82,4a.35.35,0,0,0,0,.3c2.42,5.33,5.88,7.63,9.73,7.63s7.18-2.21,9.59-7.31a.33.33,0,0,0,0-.32l-3-4.3c-.13-.2,0-.5.2-.42l4,1.71a.17.17,0,0,0,.23-.14,51.51,51.51,0,0,0,2-10.91.25.25,0,0,0-.18-.28l-6.29-.56c-.21,0-.25-.41,0-.5l6.56-2.74a.22.22,0,0,0,.12-.18l.1-.46v-.06q.06-1.64.06-3.39C121.37,109.69,121.3,107.21,121.18,104.53Z"/><path class="cls-3" d="M121.18,104.53c0-.15-.1-.26-.22-.24l-6.3,1.35c-.22,0-.31-.37-.11-.49l6.35-3.58a.25.25,0,0,0,.12-.25c-.26-4.58-.67-9.61-1.2-14.73,0-.15-.12-.25-.23-.22L114,87.8c-.2,0-.31-.3-.14-.46l5.38-4.89a.31.31,0,0,0,.08-.25c-.29-2.48-.6-5-.94-7.39L118,72.37c0-.15-.15-.23-.26-.17L114.44,74c-.19.1-.35-.22-.21-.42l3.24-4.3a.39.39,0,0,0,0-.24c-.65-4-1.36-7.83-2.13-11.26,0-.16-.18-.23-.29-.14l-4.18,3.43c-.18.14-.38-.14-.26-.37l3.68-6.86a.33.33,0,0,0,0-.24,56.84,56.84,0,0,0-2.07-6.45.18.18,0,0,0-.25-.11l-2.9,1.71c-.15.08-.31-.1-.26-.31l.91-3.66c0-.07.08-.34.15-.57l.24-1A2.81,2.81,0,0,0,108.12,42a3,3,0,0,0-2.2,1.45l1.08,5c0,.21-.11.39-.26.31l-2.61-1.54a.18.18,0,0,0-.25.12A57.55,57.55,0,0,0,101.76,54a.33.33,0,0,0,0,.24l3.44,6.41c.12.23-.08.51-.26.37l-3.88-3.18c-.11-.09-.25,0-.28.14-.78,3.48-1.49,7.35-2.14,11.41a.27.27,0,0,0,0,.23l2.94,3.91c.14.2,0,.52-.21.42l-3-1.65c-.11-.07-.23,0-.26.18-.48,3.27-.92,6.62-1.31,10a.28.28,0,0,0,.08.24l5.06,4.6c.17.16.06.51-.14.46l-5.23-1.34c-.11,0-.21.07-.23.21-.53,5.17-.94,10.24-1.2,14.84a.29.29,0,0,0,.11.26l6,3.38c.2.12.11.54-.11.49l-6-1.27c-.11,0-.21.08-.22.23-.12,2.65-.18,5.11-.18,7.29,0,1.38,0,2.71.08,4a.23.23,0,0,0,.13.23l6.27,2.62c.2.09.17.48,0,.5l-5.93.53a.25.25,0,0,0-.18.28,51.76,51.76,0,0,0,1.94,10.8c0,.12.14.19.24.14L101,129.4c.19-.08.33.22.2.42l-2.82,4a.35.35,0,0,0,0,.3c2.42,5.33,5.88,7.63,9.73,7.63s7.18-2.21,9.59-7.31a.33.33,0,0,0,0-.32l-3-4.3c-.13-.2,0-.5.2-.42l4,1.71a.17.17,0,0,0,.23-.14,51.51,51.51,0,0,0,2-10.91.25.25,0,0,0-.18-.28l-6.29-.56c-.21,0-.25-.41,0-.5l6.56-2.74a.22.22,0,0,0,.12-.18l.1-.46v-.06q.06-1.64.06-3.39C121.37,109.69,121.3,107.21,121.18,104.53Z"/><polygon class="cls-4" points="108.65 122.61 108.24 99.59 115.32 93.73 108.19 96.62 108.06 89.1 108 89.22 108.04 88.12 107.85 77.3 113.71 71.89 107.97 75.34 107.84 76.48 107.6 63.08 107.47 65.72 106.85 85.75 106.59 85.22 101.99 82.23 106.82 86.93 106.03 112.33 98.77 110.05 105.95 114.98 105.41 132.43 102.68 131.88 105.32 135.19 105.03 144.7 104.67 164.61 109.39 164.61 108.69 124.7 114.4 123.38 108.65 122.61"/><polygon class="cls-5" points="108.65 122.61 108.24 99.59 115.32 93.73 108.19 96.62 108.06 89.1 108 89.22 108.04 88.12 107.85 77.3 113.71 71.89 107.97 75.34 107.84 76.48 107.6 63.08 107.47 65.72 106.85 85.75 106.59 85.22 101.99 82.23 106.82 86.93 106.03 112.33 98.77 110.05 105.95 114.98 105.41 132.43 102.68 131.88 105.32 135.19 105.03 144.7 104.67 164.61 109.39 164.61 108.69 124.7 114.4 123.38 108.65 122.61"/><path class="cls-2" d="M175,121.81c0-.11-.08-.19-.16-.17l-4.49,1c-.16,0-.22-.26-.08-.34l4.53-2.56a.19.19,0,0,0,.08-.18c-.19-3.26-.48-6.84-.86-10.49,0-.11-.08-.18-.16-.16l-4,1c-.15,0-.23-.21-.1-.32l3.83-3.49a.22.22,0,0,0,.06-.18c-.21-1.76-.43-3.52-.68-5.26l-.31-1.74c0-.1-.11-.16-.18-.12l-2.32,1.27c-.13.08-.25-.15-.14-.29l2.3-3.07a.24.24,0,0,0,0-.17c-.47-2.85-1-5.57-1.52-8,0-.11-.13-.16-.2-.1l-3,2.44c-.12.11-.26-.09-.18-.26l2.63-4.89a.25.25,0,0,0,0-.17,41.12,41.12,0,0,0-1.47-4.59c0-.08-.11-.12-.18-.08l-2.07,1.22c-.1.06-.21-.08-.18-.22l.65-2.61s.06-.24.11-.41l.17-.67a2,2,0,0,0-1.48-.91,2.13,2.13,0,0,0-1.57,1l.77,3.57c0,.14-.07.28-.18.22L162.81,81a.14.14,0,0,0-.18.08,43.27,43.27,0,0,0-1.51,4.8.23.23,0,0,0,0,.16l2.45,4.57c.09.17-.05.37-.18.26l-2.77-2.26c-.07-.07-.17,0-.2.1-.55,2.48-1.06,5.23-1.52,8.12a.2.2,0,0,0,0,.17l2.09,2.79c.1.14,0,.37-.15.29l-2.13-1.17c-.08,0-.17,0-.19.13-.34,2.33-.66,4.72-.93,7.1a.22.22,0,0,0,0,.18l3.61,3.28c.12.11,0,.36-.1.32l-3.73-1c-.08,0-.15,0-.16.15-.38,3.68-.67,7.29-.86,10.57a.21.21,0,0,0,.08.18l4.28,2.42c.15.08.08.38-.08.34l-4.23-.91a.16.16,0,0,0-.16.17c-.08,1.89-.13,3.64-.13,5.19,0,1,0,1.93.05,2.84a.19.19,0,0,0,.1.16l4.47,1.87c.14.06.12.34,0,.35l-4.23.38a.17.17,0,0,0-.13.2,37.19,37.19,0,0,0,1.39,7.7c0,.08.1.13.17.1l2.59-1.12c.14-.06.24.16.14.29l-2,2.85a.24.24,0,0,0,0,.22c1.72,3.8,4.19,5.44,6.93,5.44s5.12-1.58,6.84-5.22a.24.24,0,0,0,0-.22l-2.16-3.07c-.1-.13,0-.35.14-.29l2.82,1.22c.07,0,.14,0,.17-.11a36.18,36.18,0,0,0,1.41-7.76.18.18,0,0,0-.12-.21l-4.48-.4c-.15,0-.18-.29,0-.35l4.68-1.95a.18.18,0,0,0,.09-.13l.06-.33a.06.06,0,0,0,0,0c0-.78,0-1.58,0-2.42C175.09,125.48,175,123.72,175,121.81Z"/><path class="cls-3" d="M175,121.81c0-.11-.08-.19-.16-.17l-4.49,1c-.16,0-.22-.26-.08-.34l4.53-2.56a.19.19,0,0,0,.08-.18c-.19-3.26-.48-6.84-.86-10.49,0-.11-.08-.18-.16-.16l-4,1c-.15,0-.23-.21-.1-.32l3.83-3.49a.22.22,0,0,0,.06-.18c-.21-1.76-.43-3.52-.68-5.26l-.31-1.74c0-.1-.11-.16-.18-.12l-2.32,1.27c-.13.08-.25-.15-.14-.29l2.3-3.07a.24.24,0,0,0,0-.17c-.47-2.85-1-5.57-1.52-8,0-.11-.13-.16-.2-.1l-3,2.44c-.12.11-.26-.09-.18-.26l2.63-4.89a.25.25,0,0,0,0-.17,41.12,41.12,0,0,0-1.47-4.59c0-.08-.11-.12-.18-.08l-2.07,1.22c-.1.06-.21-.08-.18-.22l.65-2.61s.06-.24.11-.41l.17-.67a2,2,0,0,0-1.48-.91,2.13,2.13,0,0,0-1.57,1l.77,3.57c0,.14-.07.28-.18.22L162.81,81a.14.14,0,0,0-.18.08,43.27,43.27,0,0,0-1.51,4.8.23.23,0,0,0,0,.16l2.45,4.57c.09.17-.05.37-.18.26l-2.77-2.26c-.07-.07-.17,0-.2.1-.55,2.48-1.06,5.23-1.52,8.12a.2.2,0,0,0,0,.17l2.09,2.79c.1.14,0,.37-.15.29l-2.13-1.17c-.08,0-.17,0-.19.13-.34,2.33-.66,4.72-.93,7.1a.22.22,0,0,0,0,.18l3.61,3.28c.12.11,0,.36-.1.32l-3.73-1c-.08,0-.15,0-.16.15-.38,3.68-.67,7.29-.86,10.57a.21.21,0,0,0,.08.18l4.28,2.42c.15.08.08.38-.08.34l-4.23-.91a.16.16,0,0,0-.16.17c-.08,1.89-.13,3.64-.13,5.19,0,1,0,1.93.05,2.84a.19.19,0,0,0,.1.16l4.47,1.87c.14.06.12.34,0,.35l-4.23.38a.17.17,0,0,0-.13.2,37.19,37.19,0,0,0,1.39,7.7c0,.08.1.13.17.1l2.59-1.12c.14-.06.24.16.14.29l-2,2.85a.24.24,0,0,0,0,.22c1.72,3.8,4.19,5.44,6.93,5.44s5.12-1.58,6.84-5.22a.24.24,0,0,0,0-.22l-2.16-3.07c-.1-.13,0-.35.14-.29l2.82,1.22c.07,0,.14,0,.17-.11a36.18,36.18,0,0,0,1.41-7.76.18.18,0,0,0-.12-.21l-4.48-.4c-.15,0-.18-.29,0-.35l4.68-1.95a.18.18,0,0,0,.09-.13l.06-.33a.06.06,0,0,0,0,0c0-.78,0-1.58,0-2.42C175.09,125.48,175,123.72,175,121.81Z"/><polygon class="cls-4" points="166.03 134.69 165.74 118.29 170.78 114.11 165.7 116.18 165.61 110.82 165.57 110.91 165.6 110.12 165.46 102.41 169.63 98.56 165.54 101.02 165.45 101.83 165.28 92.28 165.19 94.17 164.75 108.44 164.56 108.06 161.28 105.93 164.72 109.27 164.16 127.37 158.99 125.74 164.11 129.26 163.72 141.69 161.78 141.3 163.66 143.65 163.45 150.43 163.19 164.61 166.55 164.61 166.05 136.18 170.13 135.24 166.03 134.69"/><polygon class="cls-5" points="166.03 134.69 165.74 118.29 170.78 114.11 165.7 116.18 165.61 110.82 165.57 110.91 165.6 110.12 165.46 102.41 169.63 98.56 165.54 101.02 165.45 101.83 165.28 92.28 165.19 94.17 164.75 108.44 164.56 108.06 161.28 105.93 164.72 109.27 164.16 127.37 158.99 125.74 164.11 129.26 163.72 141.69 161.78 141.3 163.66 143.65 163.45 150.43 163.19 164.61 166.55 164.61 166.05 136.18 170.13 135.24 166.03 134.69"/><path class="cls-2" d="M87,133.21c0-.08-.06-.14-.12-.13l-3.29.71c-.12,0-.17-.19-.06-.25l3.32-1.88a.12.12,0,0,0,.06-.13c-.14-2.39-.35-5-.63-7.7a.1.1,0,0,0-.11-.11l-2.92.75c-.11,0-.17-.16-.08-.24L86,121.67a.15.15,0,0,0,0-.13c-.15-1.29-.32-2.59-.49-3.86l-.23-1.28c0-.07-.08-.12-.14-.09l-1.7.94c-.1,0-.18-.12-.1-.22L85,114.78a.13.13,0,0,0,0-.12c-.34-2.1-.71-4.09-1.11-5.89,0-.08-.09-.12-.15-.07l-2.19,1.79c-.09.08-.19-.07-.13-.19l1.92-3.59a.16.16,0,0,0,0-.12,29.24,29.24,0,0,0-1.09-3.37c0-.06-.08-.09-.12-.06l-1.52.89c-.08,0-.16,0-.14-.16L81,102s0-.18.08-.3l.12-.49a1.45,1.45,0,0,0-1.08-.67,1.53,1.53,0,0,0-1.15.76l.56,2.61c0,.11-.05.21-.13.16l-1.37-.8s-.1,0-.12.06a29.09,29.09,0,0,0-1.11,3.52.17.17,0,0,0,0,.12l1.8,3.35c.06.12,0,.27-.13.19l-2-1.66c-.06,0-.13,0-.15.07-.41,1.82-.78,3.84-1.12,6a.14.14,0,0,0,0,.13l1.53,2c.08.1,0,.27-.11.22l-1.56-.86c-.06,0-.13,0-.14.09-.25,1.71-.48,3.46-.68,5.21a.16.16,0,0,0,0,.14l2.64,2.4c.09.08,0,.26-.07.24l-2.73-.7c-.06,0-.11,0-.12.11-.28,2.7-.5,5.35-.63,7.75a.14.14,0,0,0,.06.14l3.13,1.77c.11.06.07.28,0,.25l-3.11-.67c-.06,0-.11,0-.11.13-.07,1.38-.1,2.67-.1,3.81,0,.72,0,1.41,0,2.08a.14.14,0,0,0,.07.12l3.28,1.37c.1,0,.09.25,0,.26l-3.1.27a.15.15,0,0,0-.1.15,26.71,26.71,0,0,0,1,5.65.09.09,0,0,0,.12.07l1.91-.82c.09,0,.17.11.1.21l-1.47,2.1a.15.15,0,0,0,0,.16c1.26,2.78,3.07,4,5.08,4s3.75-1.15,5-3.82a.15.15,0,0,0,0-.16l-1.58-2.26c-.07-.1,0-.25.1-.21l2.07.89a.09.09,0,0,0,.12-.07,26.15,26.15,0,0,0,1-5.7c0-.08,0-.15-.09-.15l-3.29-.29c-.11,0-.13-.22,0-.26l3.43-1.44s0,0,.06-.09l0-.24a0,0,0,0,1,0,0c0-.57,0-1.16,0-1.77C87.05,135.91,87,134.61,87,133.21Z"/><path class="cls-3" d="M87,133.21c0-.08-.06-.14-.12-.13l-3.29.71c-.12,0-.17-.19-.06-.25l3.32-1.88a.12.12,0,0,0,.06-.13c-.14-2.39-.35-5-.63-7.7a.1.1,0,0,0-.11-.11l-2.92.75c-.11,0-.17-.16-.08-.24L86,121.67a.15.15,0,0,0,0-.13c-.15-1.29-.32-2.59-.49-3.86l-.23-1.28c0-.07-.08-.12-.14-.09l-1.7.94c-.1,0-.18-.12-.1-.22L85,114.78a.13.13,0,0,0,0-.12c-.34-2.1-.71-4.09-1.11-5.89,0-.08-.09-.12-.15-.07l-2.19,1.79c-.09.08-.19-.07-.13-.19l1.92-3.59a.16.16,0,0,0,0-.12,29.24,29.24,0,0,0-1.09-3.37c0-.06-.08-.09-.12-.06l-1.52.89c-.08,0-.16,0-.14-.16L81,102s0-.18.08-.3l.12-.49a1.45,1.45,0,0,0-1.08-.67,1.53,1.53,0,0,0-1.15.76l.56,2.61c0,.11-.05.21-.13.16l-1.37-.8s-.1,0-.12.06a29.09,29.09,0,0,0-1.11,3.52.17.17,0,0,0,0,.12l1.8,3.35c.06.12,0,.27-.13.19l-2-1.66c-.06,0-.13,0-.15.07-.41,1.82-.78,3.84-1.12,6a.14.14,0,0,0,0,.13l1.53,2c.08.1,0,.27-.11.22l-1.56-.86c-.06,0-.13,0-.14.09-.25,1.71-.48,3.46-.68,5.21a.16.16,0,0,0,0,.14l2.64,2.4c.09.08,0,.26-.07.24l-2.73-.7c-.06,0-.11,0-.12.11-.28,2.7-.5,5.35-.63,7.75a.14.14,0,0,0,.06.14l3.13,1.77c.11.06.07.28,0,.25l-3.11-.67c-.06,0-.11,0-.11.13-.07,1.38-.1,2.67-.1,3.81,0,.72,0,1.41,0,2.08a.14.14,0,0,0,.07.12l3.28,1.37c.1,0,.09.25,0,.26l-3.1.27a.15.15,0,0,0-.1.15,26.71,26.71,0,0,0,1,5.65.09.09,0,0,0,.12.07l1.91-.82c.09,0,.17.11.1.21l-1.47,2.1a.15.15,0,0,0,0,.16c1.26,2.78,3.07,4,5.08,4s3.75-1.15,5-3.82a.15.15,0,0,0,0-.16l-1.58-2.26c-.07-.1,0-.25.1-.21l2.07.89a.09.09,0,0,0,.12-.07,26.15,26.15,0,0,0,1-5.7c0-.08,0-.15-.09-.15l-3.29-.29c-.11,0-.13-.22,0-.26l3.43-1.44s0,0,.06-.09l0-.24a0,0,0,0,1,0,0c0-.57,0-1.16,0-1.77C87.05,135.91,87,134.61,87,133.21Z"/><polygon class="cls-4" points="80.41 142.66 80.19 130.63 83.89 127.56 80.17 129.08 80.1 125.14 80.07 125.21 80.09 124.63 79.99 118.98 83.05 116.15 80.05 117.95 79.98 118.55 79.86 111.55 79.79 112.93 79.47 123.4 79.33 123.12 76.93 121.56 79.45 124.01 79.04 137.29 75.25 136.09 79 138.67 78.71 147.79 77.29 147.5 78.67 149.23 78.52 154.2 78.33 164.61 80.79 164.61 80.43 143.75 83.41 143.06 80.41 142.66"/><polygon class="cls-5" points="80.41 142.66 80.19 130.63 83.89 127.56 80.17 129.08 80.1 125.14 80.07 125.21 80.09 124.63 79.99 118.98 83.05 116.15 80.05 117.95 79.98 118.55 79.86 111.55 79.79 112.93 79.47 123.4 79.33 123.12 76.93 121.56 79.45 124.01 79.04 137.29 75.25 136.09 79 138.67 78.71 147.79 77.29 147.5 78.67 149.23 78.52 154.2 78.33 164.61 80.79 164.61 80.43 143.75 83.41 143.06 80.41 142.66"/><path class="cls-2" d="M41.79,133.21c0-.08,0-.14-.11-.13l-3.3.71c-.11,0-.16-.19-.05-.25l3.32-1.88a.14.14,0,0,0,.06-.13c-.14-2.39-.35-5-.63-7.7,0-.07-.06-.12-.12-.11l-2.92.75c-.1,0-.16-.16-.07-.24l2.81-2.56a.15.15,0,0,0,0-.13c-.15-1.29-.31-2.59-.49-3.86l-.23-1.28c0-.07-.08-.12-.13-.09l-1.7.94c-.1,0-.19-.12-.11-.22l1.69-2.25a.24.24,0,0,0,0-.12c-.34-2.1-.72-4.09-1.12-5.89,0-.08-.09-.12-.15-.07l-2.18,1.79c-.1.08-.2-.07-.14-.19l1.93-3.59a.16.16,0,0,0,0-.12,29.37,29.37,0,0,0-1.08-3.37c0-.06-.08-.09-.13-.06l-1.52.89c-.08,0-.16,0-.13-.16l.47-1.91.08-.3.13-.49a1.45,1.45,0,0,0-1.08-.67,1.55,1.55,0,0,0-1.16.76l.57,2.61c0,.11-.06.21-.14.16l-1.36-.8a.09.09,0,0,0-.13.06,29.09,29.09,0,0,0-1.11,3.52.25.25,0,0,0,0,.12l1.8,3.35c.07.12,0,.27-.13.19l-2-1.66c-.05,0-.13,0-.15.07-.4,1.82-.78,3.84-1.11,6a.18.18,0,0,0,0,.13l1.54,2c.07.1,0,.27-.11.22l-1.57-.86c-.06,0-.12,0-.13.09-.26,1.71-.48,3.46-.69,5.21a.2.2,0,0,0,0,.14l2.65,2.4c.09.08,0,.26-.08.24l-2.73-.7c-.06,0-.11,0-.12.11-.28,2.7-.49,5.35-.63,7.75a.17.17,0,0,0,.06.14l3.14,1.77c.11.06.06.28-.06.25l-3.1-.67c-.06,0-.12,0-.12.13-.06,1.38-.09,2.67-.09,3.81,0,.72,0,1.41,0,2.08a.14.14,0,0,0,.07.12l3.27,1.37c.11,0,.09.25,0,.26l-3.1.27a.13.13,0,0,0-.09.15,27.42,27.42,0,0,0,1,5.65.1.1,0,0,0,.13.07l1.9-.82c.1,0,.17.11.1.21l-1.47,2.1a.18.18,0,0,0,0,.16c1.26,2.78,3.08,4,5.09,4s3.75-1.15,5-3.82a.18.18,0,0,0,0-.16l-1.59-2.26c-.07-.1,0-.25.11-.21l2.07.89a.09.09,0,0,0,.12-.07,27.4,27.4,0,0,0,1-5.7c0-.08,0-.15-.1-.15l-3.28-.29c-.11,0-.13-.22,0-.26l3.43-1.44a.11.11,0,0,0,.07-.09l0-.24v0q0-.86,0-1.77C41.89,135.91,41.85,134.61,41.79,133.21Z"/><path class="cls-3" d="M41.79,133.21c0-.08,0-.14-.11-.13l-3.3.71c-.11,0-.16-.19-.05-.25l3.32-1.88a.14.14,0,0,0,.06-.13c-.14-2.39-.35-5-.63-7.7,0-.07-.06-.12-.12-.11l-2.92.75c-.1,0-.16-.16-.07-.24l2.81-2.56a.15.15,0,0,0,0-.13c-.15-1.29-.31-2.59-.49-3.86l-.23-1.28c0-.07-.08-.12-.13-.09l-1.7.94c-.1,0-.19-.12-.11-.22l1.69-2.25a.24.24,0,0,0,0-.12c-.34-2.1-.72-4.09-1.12-5.89,0-.08-.09-.12-.15-.07l-2.18,1.79c-.1.08-.2-.07-.14-.19l1.93-3.59a.16.16,0,0,0,0-.12,29.37,29.37,0,0,0-1.08-3.37c0-.06-.08-.09-.13-.06l-1.52.89c-.08,0-.16,0-.13-.16l.47-1.91.08-.3.13-.49a1.45,1.45,0,0,0-1.08-.67,1.55,1.55,0,0,0-1.16.76l.57,2.61c0,.11-.06.21-.14.16l-1.36-.8a.09.09,0,0,0-.13.06,29.09,29.09,0,0,0-1.11,3.52.25.25,0,0,0,0,.12l1.8,3.35c.07.12,0,.27-.13.19l-2-1.66c-.05,0-.13,0-.15.07-.4,1.82-.78,3.84-1.11,6a.18.18,0,0,0,0,.13l1.54,2c.07.1,0,.27-.11.22l-1.57-.86c-.06,0-.12,0-.13.09-.26,1.71-.48,3.46-.69,5.21a.2.2,0,0,0,0,.14l2.65,2.4c.09.08,0,.26-.08.24l-2.73-.7c-.06,0-.11,0-.12.11-.28,2.7-.49,5.35-.63,7.75a.17.17,0,0,0,.06.14l3.14,1.77c.11.06.06.28-.06.25l-3.1-.67c-.06,0-.12,0-.12.13-.06,1.38-.09,2.67-.09,3.81,0,.72,0,1.41,0,2.08a.14.14,0,0,0,.07.12l3.27,1.37c.11,0,.09.25,0,.26l-3.1.27a.13.13,0,0,0-.09.15,27.42,27.42,0,0,0,1,5.65.1.1,0,0,0,.13.07l1.9-.82c.1,0,.17.11.1.21l-1.47,2.1a.18.18,0,0,0,0,.16c1.26,2.78,3.08,4,5.09,4s3.75-1.15,5-3.82a.18.18,0,0,0,0-.16l-1.59-2.26c-.07-.1,0-.25.11-.21l2.07.89a.09.09,0,0,0,.12-.07,27.4,27.4,0,0,0,1-5.7c0-.08,0-.15-.1-.15l-3.28-.29c-.11,0-.13-.22,0-.26l3.43-1.44a.11.11,0,0,0,.07-.09l0-.24v0q0-.86,0-1.77C41.89,135.91,41.85,134.61,41.79,133.21Z"/><polygon class="cls-4" points="35.24 142.66 35.03 130.63 38.73 127.56 35 129.08 34.93 125.14 34.9 125.21 34.92 124.63 34.83 118.98 37.89 116.15 34.88 117.95 34.82 118.55 34.7 111.55 34.63 112.93 34.3 123.4 34.16 123.12 31.76 121.56 34.28 124.01 33.87 137.29 30.08 136.09 33.83 138.67 33.55 147.79 32.12 147.5 33.5 149.23 33.35 154.2 33.16 164.61 35.63 164.61 35.26 143.75 38.25 143.06 35.24 142.66"/><polygon class="cls-5" points="35.24 142.66 35.03 130.63 38.73 127.56 35 129.08 34.93 125.14 34.9 125.21 34.92 124.63 34.83 118.98 37.89 116.15 34.88 117.95 34.82 118.55 34.7 111.55 34.63 112.93 34.3 123.4 34.16 123.12 31.76 121.56 34.28 124.01 33.87 137.29 30.08 136.09 33.83 138.67 33.55 147.79 32.12 147.5 33.5 149.23 33.35 154.2 33.16 164.61 35.63 164.61 35.26 143.75 38.25 143.06 35.24 142.66"/><polygon class="cls-6" points="81.77 41.96 66.91 49.12 66.9 49.12 57.16 53.81 57.15 53.81 56.5 54.13 56.5 54.13 54.32 55.18 54.32 55.18 53.93 55.37 52.5 56.05 52.25 56.18 51.27 56.65 51.07 56.75 50.63 56.95 50.69 56.7 55.54 32.16 59.42 30.75 66.24 28.28 66.26 28.27 73.56 25.63 73.58 25.62 78.6 23.8 79.25 27.55 79.25 27.56 79.28 27.67 80.26 33.3 80.26 33.32 81.34 39.52 81.77 41.96"/><path class="cls-4" d="M50.64,57.14a.25.25,0,0,1-.12,0,.2.2,0,0,1-.07-.18l.06-.26,4.85-24.53a.16.16,0,0,1,.11-.14l23.07-8.36a.18.18,0,0,1,.24.14L82,41.93a.19.19,0,0,1-.1.2L56.58,54.29h0L54.4,55.35h0l-3.67,1.77ZM55.7,32.3,50.89,56.63,54.24,55h0l2.16-1h0l.63-.31,24.5-11.79-2.5-14.27v0l-.61-3.5Z"/><polygon class="cls-2" points="66.24 28.28 51.07 56.75 50.63 56.95 50.69 56.7 59.42 30.75 66.24 28.28"/><path class="cls-4" d="M50.64,57.05l-.06,0a.09.09,0,0,1,0-.09l.05-.26,8.74-26s0,0,0,0l6.82-2.48a.09.09,0,0,1,.1,0,.08.08,0,0,1,0,.1L51.15,56.79s0,0,0,0l-.44.21ZM59.5,30.82,50.77,56.73v.06l.24-.11,15-28.23Z"/><polygon class="cls-6" points="73.56 25.63 52.25 56.18 51.27 56.65 66.26 28.27 73.56 25.63"/><path class="cls-4" d="M51.27,56.74a.09.09,0,0,1-.07,0,.08.08,0,0,1,0-.1l15-28.38a.07.07,0,0,1,0,0l7.3-2.65a.09.09,0,0,1,.1,0,.08.08,0,0,1,0,.11L52.32,56.23l0,0-1,.47ZM66.33,28.35,51.48,56.45l.7-.34,21.14-30.3Z"/><polygon class="cls-2" points="79.25 27.55 79.25 27.56 69.98 37.82 69.87 37.95 54.32 55.18 54.32 55.18 53.93 55.37 52.5 56.05 73.58 25.62 78.6 23.8 79.25 27.55"/><path class="cls-4" d="M52.5,56.15a.13.13,0,0,1-.07,0,.09.09,0,0,1,0-.11L73.5,25.57a.1.1,0,0,1,0,0l5-1.82h.07a.12.12,0,0,1,0,.07l.65,3.75h0a.07.07,0,0,1,0,.06L54.39,55.24s0,0,0,0l-1.8.87ZM73.64,25.7,52.78,55.82l1.49-.72L79.16,27.53l-.63-3.61Z"/><polygon class="cls-6" points="80.26 33.3 56.5 54.13 56.5 54.13 54.32 55.18 54.32 55.18 53.93 55.37 69.87 37.95 69.98 37.82 79.28 27.67 80.26 33.3"/><path class="cls-4" d="M53.93,55.46a.07.07,0,0,1-.07,0,.08.08,0,0,1,0-.11l25.35-27.7a.08.08,0,0,1,.09,0,.1.1,0,0,1,.07.08l1,5.63a.08.08,0,0,1,0,.08L56.57,54.2l0,0-2.17,1h0l-.37.18ZM79.22,27.87,54.32,55.08l2.14-1,23.7-20.78Z"/><polygon class="cls-2" points="81.34 39.52 66.91 49.12 66.9 49.12 57.16 53.81 80.26 33.32 81.34 39.52"/><path class="cls-4" d="M57.16,53.9a.07.07,0,0,1-.07,0,.09.09,0,0,1,0-.12L80.2,33.25a.08.08,0,0,1,.09,0,.07.07,0,0,1,.06.07l1.08,6.2a.09.09,0,0,1,0,.09L67,49.19l0,0L57.2,53.89Zm23-20.4L57.72,53.44,66.86,49l14.38-9.56Z"/><line class="cls-6" x1="55.54" y1="32.16" x2="81.77" y2="41.96"/><path class="cls-4" d="M81.77,42.33l-.13,0-26.23-9.8a.38.38,0,0,1-.22-.48.36.36,0,0,1,.47-.21l26.24,9.8a.36.36,0,0,1,.21.47A.35.35,0,0,1,81.77,42.33Z"/><line class="cls-2" x1="78.6" y1="23.8" x2="50.63" y2="56.95"/><path class="cls-4" d="M50.63,57.32a.37.37,0,0,1-.28-.6l28-33.16a.37.37,0,0,1,.56.48l-28,33.15A.37.37,0,0,1,50.63,57.32Z"/><path class="cls-4" d="M62.29,43.3a.19.19,0,0,1-.18-.13.19.19,0,0,1,.12-.23c11-3.42,12.49-14.31,12.5-14.42a.19.19,0,1,1,.37.05c0,.11-1.51,11.23-12.76,14.72Z"/><path class="cls-4" d="M118.85,68.38l-.06,0C85.85,55,70.65,37.77,70.5,37.6a.2.2,0,0,1,0-.26.19.19,0,0,1,.26,0c.15.17,15.3,17.31,48.14,30.66a.18.18,0,0,1,.1.24A.17.17,0,0,1,118.85,68.38Z"/><path class="cls-7" d="M50.63,56.23a47.68,47.68,0,0,1-4.83,5.6A19.47,19.47,0,0,1,41.86,65a7.79,7.79,0,0,0-2.81,2.54c-.68,1.14-.85,3.39.3,4.28s3.3.93,4.81.88a48,48,0,0,0,5.6-.62c1.78-.28,3.56-.6,5.36-.77a9.1,9.1,0,0,1,4,.23,2.46,2.46,0,0,1,1.08.71,3.13,3.13,0,0,1,.37.7,1.87,1.87,0,0,1,.08.32c.09.25.17-1,0,.11a7.87,7.87,0,0,1-1,3c-1.51,2.49-4.26,4-6.83,5.2-3.76,1.7-8.06,3.33-12.23,3.28a15.58,15.58,0,0,1-10.83-4.34,11.23,11.23,0,0,1-2.86-4.8,11.79,11.79,0,0,1-.28-1.34,7.71,7.71,0,0,1-.08-.84c0,.76.05-.2.1-.56a12.36,12.36,0,0,1,.93-3.2c.18-.41-.17-1,0-1.44-1.93,4.53-1.35,10,2.19,13.62a15.1,15.1,0,0,0,7.72,4c3.6.72,7,0,10.41-1.09,4.47-1.45,10.77-3.58,12.44-8.54a9.89,9.89,0,0,0,.36-4.46c-.34-2.16-2.86-2.22-4.59-2.14-3.38.16-6.69,1-10.05,1.33-1.89.19-7.18.84-7.45-2.09v1.26a4.72,4.72,0,0,1,2-3c1.38-1.11,3-1.87,4.28-3.08a44.2,44.2,0,0,0,5.78-6.51c.24-.31-.22-1.13,0-1.44Z"/><path class="cls-2" d="M50.58,57.05a30.94,30.94,0,0,1-4.13,7.44c-.77,1-2.35,2.22-2.5,3.56,0,.34-.15,1.15.09,1.45.38.49,1.67.33,2.18.33,3.82,0,7.63-.54,11.46-.36,2.21.1,6.25.31,6.48,3.26V72a13.89,13.89,0,0,1-1.27,4.38,14.16,14.16,0,0,1-3.18,4.88A10.74,10.74,0,0,1,54,84.15c-2.83.48-5.65-.21-8.46-.54-2.46-.29-5-.45-7.4-.9a9.68,9.68,0,0,1-4.82-2,6.63,6.63,0,0,1-1.88-4.91c0-3.12.69-6.26,1-9.36s.67-6.41-2.06-8.51c.23.17-.24,1.26,0,1.44a4.74,4.74,0,0,1,2.18,3.54,2.67,2.67,0,0,1,0,.48c0-.55,0-.14,0,0,0,.44-.07.88-.11,1.32-.38,3.58-1.06,7.15-1.1,10.76,0,2.25,0,4.74,1.68,6.46,1.79,1.87,4.73,2.22,7.16,2.53,1.76.22,3.53.37,5.29.58a60,60,0,0,0,6.1.72,11.23,11.23,0,0,0,8.48-3.45,16.15,16.15,0,0,0,3.55-6.73c.41-1.5,1-3.62.35-5.14-2-5.06-19.86-.35-20-2.62v1.45c0-.51.53-1,.84-1.32.68-.81,1.37-1.61,2-2.48a31.2,31.2,0,0,0,3.81-7c.16-.42-.16-1,0-1.44Z"/><polygon class="cls-6" points="121.56 72.58 119.3 68.05 118.7 68.41 121.2 73.11 121.56 72.58"/><path class="cls-4" d="M121.2,73.29h0a.19.19,0,0,1-.15-.09l-2.5-4.7a.18.18,0,0,1,.07-.25l.59-.36a.19.19,0,0,1,.15,0,.14.14,0,0,1,.11.09l2.26,4.52a.19.19,0,0,1,0,.19l-.36.53A.18.18,0,0,1,121.2,73.29Zm-2.26-4.81,2.28,4.27.13-.19-2.13-4.25Z"/><path class="cls-4" d="M126.91,73.94c-.83-2.79-2-5.47-4-4.7s-1.73,3.87-1.73,3.87a10.79,10.79,0,0,0,1.31,3.57c1.19,2.26,3.21,3.45,4.4,2.56S127.75,76.74,126.91,73.94Zm-1.42,1.66c-.65.4-1.74-.14-2.39-1.16a4.23,4.23,0,0,1-.71-1.61s-.13-1.39.94-1.74,1.71.86,2.16,2.12S126.13,75.19,125.49,75.6Z"/><path class="cls-4" d="M126,79.72a2.8,2.8,0,0,1-.48,0,5.4,5.4,0,0,1-3.16-2.9A10.62,10.62,0,0,1,121,73.13c0-.14-.23-3.24,1.84-4.06a1.77,1.77,0,0,1,1.51,0c1,.5,1.9,2,2.72,4.78s1.23,4.52-.07,5.5A1.67,1.67,0,0,1,126,79.72Zm-2.4-10.43a1.69,1.69,0,0,0-.6.12c-1.81.72-1.61,3.66-1.61,3.69a11,11,0,0,0,1.29,3.5,5.15,5.15,0,0,0,2.92,2.71,1.43,1.43,0,0,0,1.21-.22c1.07-.8.79-2.23-.06-5.09-.5-1.67-1.3-4-2.53-4.56A1.35,1.35,0,0,0,123.59,69.29ZM125,75.91a2.7,2.7,0,0,1-2.06-1.37,4.27,4.27,0,0,1-.73-1.69,1.84,1.84,0,0,1,1.06-1.94c1.27-.42,2,1.08,2.39,2.24s.69,2.12-.08,2.6h0A1.06,1.06,0,0,1,125,75.91Zm.49-.31Zm-1.81-4.39a1,1,0,0,0-.3.05c-.91.3-.81,1.5-.81,1.56a4.41,4.41,0,0,0,.69,1.52c.58.93,1.58,1.44,2.13,1.1h0c.49-.3.4-.83-.08-2.17S124.29,71.21,123.68,71.21Z"/><path class="cls-6" d="M123.82,98.08l-2.2-1s2.53-8.39,2.76-10.16a37.76,37.76,0,0,1,.88-4.19s.77-.66.77-1.21a14.2,14.2,0,0,0-.33-2s.88-.77.77-1.44a16.51,16.51,0,0,0-.88-3.53c-.44-.88-1-1.32-1.32-1.32a11.17,11.17,0,0,0-1.77.55L124,72.14l.89-.77s0-.77-1.33-.44-2.65,2.43-3,3,.66,5.08,1.11,5.85a17.72,17.72,0,0,1,1,2.65s-3.2,6.4-4.08,8.06-3,4.3-3.87,7.39-1,4.53.22,5.08,5.41,2.43,7.51,2.65,2.87-4.08,2.87-5.08S123.82,98.08,123.82,98.08Z"/><path class="cls-4" d="M122.65,105.78h-.17c-1.92-.2-5.56-1.75-7.56-2.66-1.38-.62-1.19-2.27-.33-5.3A23.27,23.27,0,0,1,117.5,92c.39-.62.73-1.15,1-1.61.83-1.54,3.71-7.31,4-8a16.16,16.16,0,0,0-1-2.54c-.42-.73-1.5-5.37-1.11-6s1.77-2.73,3.1-3.06a1.47,1.47,0,0,1,1.28.1.71.71,0,0,1,.27.52.2.2,0,0,1-.06.14l-.88.77-1,1.08a4.92,4.92,0,0,1,1.11-.3c.46,0,1.06.57,1.48,1.43a16.29,16.29,0,0,1,.9,3.58c.11.63-.52,1.31-.75,1.53a12.52,12.52,0,0,1,.32,1.93,2.19,2.19,0,0,1-.8,1.31,36.68,36.68,0,0,0-.86,4.12c-.21,1.65-2.36,8.84-2.72,10l2.06.93,0,0c.06.06,1.6,1.5,1.6,2.56,0,.69-.43,3.62-1.73,4.79A1.73,1.73,0,0,1,122.65,105.78ZM124.19,71a2.06,2.06,0,0,0-.54.08c-1.23.3-2.51,2.29-2.87,2.89-.25.41.61,4.81,1.11,5.67a19.13,19.13,0,0,1,1,2.69.2.2,0,0,1,0,.13c0,.06-3.21,6.42-4.08,8.06-.26.48-.6,1-1,1.64A22.48,22.48,0,0,0,115,97.91c-.92,3.22-.89,4.41.12,4.87,2,.89,5.58,2.43,7.45,2.63a1.3,1.3,0,0,0,1-.38c1.12-1,1.62-3.67,1.62-4.52s-1-1.87-1.47-2.27l-2.18-1a.18.18,0,0,1-.1-.22c0-.09,2.54-8.4,2.75-10.13a37.22,37.22,0,0,1,.89-4.22.18.18,0,0,1,.06-.09c.2-.17.71-.69.71-1.07a14.48,14.48,0,0,0-.33-2,.19.19,0,0,1,.06-.18c.22-.2.79-.81.71-1.27a17.08,17.08,0,0,0-.86-3.48c-.45-.89-1-1.22-1.16-1.22a10,10,0,0,0-1.7.54.19.19,0,0,1-.22-.07.18.18,0,0,1,0-.23L123.91,72l.82-.72a.34.34,0,0,0-.12-.16A.64.64,0,0,0,124.19,71Z"/><path class="cls-4" d="M122.57,76.21a.17.17,0,0,1-.1,0,.18.18,0,0,1-.06-.25c.44-.69,2.64-1.53,2.89-1.62a.18.18,0,0,1,.24.11.18.18,0,0,1-.11.23,8.29,8.29,0,0,0-2.71,1.48A.18.18,0,0,1,122.57,76.21Z"/><path class="cls-4" d="M123.64,77.88a.19.19,0,0,1-.11-.34c.43-.3,2.33-1.28,2.41-1.32a.17.17,0,0,1,.24.08.18.18,0,0,1-.08.25s-1.95,1-2.35,1.29A.17.17,0,0,1,123.64,77.88Z"/><path class="cls-4" d="M124.05,79.45a.62.62,0,0,1-.39-.12,2.22,2.22,0,0,1-.66-.78.19.19,0,0,1,.08-.25.19.19,0,0,1,.25.09,2,2,0,0,0,.53.64c.21.14.57,0,.69-.12a.18.18,0,0,1,.25,0,.18.18,0,0,1,0,.26A1.47,1.47,0,0,1,124.05,79.45Z"/><path class="cls-4" d="M125.72,79.9a.18.18,0,0,1-.15-.08L125,79a.17.17,0,0,1,0-.18c.2-.39.51-.86.78-.87a.29.29,0,0,1,.25.15.19.19,0,0,1-.06.25.18.18,0,0,1-.2,0,2.64,2.64,0,0,0-.4.56l.48.74a.18.18,0,0,1-.06.25A.17.17,0,0,1,125.72,79.9Z"/><path class="cls-4" d="M121.85,77.58a.24.24,0,0,1-.13,0,6,6,0,0,1-.93-1.93.17.17,0,0,1,.12-.22.18.18,0,0,1,.23.12,5.7,5.7,0,0,0,.84,1.77.17.17,0,0,1,0,.26A.19.19,0,0,1,121.85,77.58Z"/><path class="cls-4" d="M167.34,143.61a3.13,3.13,0,0,1,.64,1.76c.16,1.27.4,1.67.63,1.59s.16-1.27.16-1.27.88,1.43,1.12,1.43.56.16.56-.32a3.86,3.86,0,0,0-.4-1.27s1,1.11,1.28,1.19.4-.64-.08-1.27-2.32-1.92-2.72-2.4a8.83,8.83,0,0,0-1.51-1.2Z"/><path class="cls-4" d="M170.19,147.33h-.3c-.08,0-.27,0-.92-1,0,.71-.22.77-.3.8a.38.38,0,0,1-.31,0c-.16-.1-.4-.4-.57-1.71a3.09,3.09,0,0,0-.58-1.65.14.14,0,0,1-.05-.1l-.32-1.76a.16.16,0,0,1,.07-.18.2.2,0,0,1,.21,0,10,10,0,0,1,1.56,1.23,9.34,9.34,0,0,0,1.1.95,10.92,10.92,0,0,1,1.62,1.46,1.38,1.38,0,0,1,.28,1.41.36.36,0,0,1-.39.15,2,2,0,0,1-.72-.55,2,2,0,0,1,.07.45.57.57,0,0,1-.15.44A.48.48,0,0,1,170.19,147.33Zm-.24-.39h.12a.52.52,0,0,0,.17,0h0s0,0,0-.16a3.79,3.79,0,0,0-.38-1.19.18.18,0,0,1,.3-.2,6.17,6.17,0,0,0,1.19,1.14,1.11,1.11,0,0,0-.28-1,11.06,11.06,0,0,0-1.55-1.39,11.81,11.81,0,0,1-1.16-1,6.39,6.39,0,0,0-1.11-.92l.23,1.28a3.45,3.45,0,0,1,.65,1.81c.14,1.12.32,1.38.38,1.44a3.64,3.64,0,0,0,.05-1.08.2.2,0,0,1,.13-.19.19.19,0,0,1,.21.08,7,7,0,0,0,1,1.36Z"/><path class="cls-6" d="M154.87,122.43l2.24,2.72s2.4,3.6,4.15,5.83a74.72,74.72,0,0,1,4.64,7.59s-1.68,1.76-1.52,2.56a21.45,21.45,0,0,1,.16,3.12c0,.64-.08,1.2.48,1s1-2,1.12-2.24,1,.32,1.2.64a22.5,22.5,0,0,0,2.47,1.44c.48.32,1.44,1.19,1.92,1.19s.8-.08.4-.63-1.36-.88-1.68-1.76-.56-1.2-.8-2-.88-3.36-1.27-4.63-2.4-7.76-2.8-10a10.81,10.81,0,0,0-3.28-5.36,18,18,0,0,1-2.08-2.23Z"/><path class="cls-4" d="M171.73,146.43a3.56,3.56,0,0,1-1.55-.88c-.18-.14-.34-.27-.47-.35s-.53-.3-.91-.5a6.32,6.32,0,0,1-1.61-1,2.14,2.14,0,0,0-.91-.63,3.6,3.6,0,0,0-.16.45c-.3.86-.59,1.65-1,1.83a.54.54,0,0,1-.52,0c-.23-.15-.22-.49-.22-.92v-.21a20.86,20.86,0,0,0-.16-3.08c-.16-.78,1.09-2.21,1.47-2.63a72.18,72.18,0,0,0-4.55-7.44c-1.74-2.22-4.14-5.81-4.16-5.85l-2.23-2.7a.17.17,0,0,1,0-.15.19.19,0,0,1,.1-.13l5.35-2.8a.18.18,0,0,1,.23,0,16.88,16.88,0,0,0,2,2.21,11,11,0,0,1,3.34,5.47c.43,2.38,2.69,9.65,2.79,10,.24.77.56,2,.84,3,.18.7.34,1.31.44,1.63a9.13,9.13,0,0,0,.4,1c.12.26.25.55.39.94a2.5,2.5,0,0,0,1,1.09,3,3,0,0,1,.69.63c.13.18.29.45.18.68S172,146.43,171.73,146.43Zm-5.46-3.7a2.16,2.16,0,0,1,1.21.77,9.33,9.33,0,0,0,1.49.87c.4.21.76.4.95.52s.3.22.48.37a3.85,3.85,0,0,0,1.33.8c.33,0,.39,0,.4-.05h0s0-.08-.15-.3a3,3,0,0,0-.61-.55,2.8,2.8,0,0,1-1.09-1.25c-.14-.38-.26-.65-.38-.92a6.56,6.56,0,0,1-.42-1.09c-.1-.32-.26-.93-.45-1.63-.28-1.05-.59-2.24-.83-3-.1-.31-2.37-7.6-2.8-10a10.73,10.73,0,0,0-3.22-5.25,16.94,16.94,0,0,1-2-2.14l-5,2.62,2.09,2.54s2.42,3.63,4.16,5.84a73.4,73.4,0,0,1,4.65,7.62.17.17,0,0,1,0,.21c-.62.65-1.57,1.88-1.47,2.39a22.13,22.13,0,0,1,.16,3.16v.21c0,.22,0,.57.06.62a.36.36,0,0,0,.17,0c.32-.14.64-1.1.82-1.62a3.35,3.35,0,0,1,.21-.55.32.32,0,0,1,.27-.14Z"/><path class="cls-4" d="M124,155.16a22.15,22.15,0,0,0-.91,4.72c-.08,2.07-.25,5.88,1.16,7.2s2.73,1.08,3.39-.08.67-3.89.67-4.88-.09-2.24-.09-2.57a7.39,7.39,0,0,0-1.73-3.31C125.37,155.16,124.54,154.17,124,155.16Z"/><path class="cls-4" d="M126.07,168.16a2.93,2.93,0,0,1-2-.94c-1.45-1.37-1.3-5.08-1.21-7.29v-.06a21.38,21.38,0,0,1,.92-4.76s0,0,0,0a.9.9,0,0,1,.64-.5c.55-.07,1.13.52,1.86,1.25l.28.29a7.47,7.47,0,0,1,1.79,3.44c0,.12,0,.36,0,.66,0,.54.06,1.27.06,1.91,0,1,0,3.77-.69,5a2,2,0,0,1-1.42,1Zm-1.94-12.92a22.42,22.42,0,0,0-.9,4.65V160c-.08,2-.23,5.74,1.11,7a2.43,2.43,0,0,0,2,.83,1.63,1.63,0,0,0,1.16-.87c.63-1.12.63-3.88.63-4.79,0-.63,0-1.36-.05-1.89,0-.31,0-.56,0-.68a7.27,7.27,0,0,0-1.68-3.18l-.29-.29c-.6-.61-1.18-1.19-1.54-1.14Q124.3,155,124.13,155.24Z"/><path class="cls-6" d="M123.63,152.51s-.17,5.13.33,6.79,2.65,3.23,4.14,2.48,2.49-2.81,2.82-3.72,1.16-4.06,1.16-4.06S125.87,154.58,123.63,152.51Z"/><path class="cls-4" d="M127.27,162.16a3.05,3.05,0,0,1-1.14-.25,4.33,4.33,0,0,1-2.34-2.56c-.5-1.66-.35-6.63-.34-6.84a.18.18,0,0,1,.11-.17.19.19,0,0,1,.2,0c2.14,2,8.24,1.44,8.3,1.44a.23.23,0,0,1,.16.06.17.17,0,0,1,0,.17c0,.13-.83,3.16-1.16,4.07-.11.3-1.11,2.93-2.91,3.83A2,2,0,0,1,127.27,162.16Zm-3.47-9.27a32.12,32.12,0,0,0,.34,6.36,4,4,0,0,0,2.14,2.32,2.09,2.09,0,0,0,1.74.05c1.36-.68,2.35-2.6,2.72-3.62.27-.75.89-3,1.09-3.79C130.66,154.29,126,154.51,123.8,152.89Z"/><path class="cls-4" d="M135.29,157.59a11.72,11.72,0,0,0,5.52-.16c3.27-.8,8.15-.8,8.55-2s.72-1.19-.08-2.39-3-2.4-6.31-1.2-5.12,1.76-6.16,2.79S135.13,156.79,135.29,157.59Z"/><path class="cls-4" d="M137.55,158a9.56,9.56,0,0,1-2.31-.25.23.23,0,0,1-.13-.14c-.16-.83.41-2,1.57-3.12.93-.93,2.45-1.48,5-2.39l1.25-.45c3.14-1.15,5.59-.15,6.53,1.27.66,1,.61,1.24.32,2-.06.16-.14.35-.22.58-.29.88-2.29,1.14-4.81,1.48a35.5,35.5,0,0,0-3.87.64A14.06,14.06,0,0,1,137.55,158Zm-2.09-.58a12,12,0,0,0,5.3-.19c1.2-.29,2.57-.47,3.91-.65,2.11-.28,4.29-.57,4.51-1.22.08-.25.16-.44.23-.61.25-.62.3-.75-.29-1.63-.86-1.3-3.14-2.21-6.09-1.13l-1.26.46c-2.47.89-4,1.43-4.83,2.29A4,4,0,0,0,135.46,157.44Z"/><path class="cls-4" d="M141.76,180.36a3.35,3.35,0,0,0-.58,1.57,9,9,0,0,1-.16,2c-.17.91-1,5.65-.45,6.37,1.39,1.75,9.64,2,10.19-.56.34-1.6-1.74-4.09-2.4-4.58a7.75,7.75,0,0,1-1.63-3.55c0-.66.17-1.24-.41-1.49S142.26,179.86,141.76,180.36Z"/><path class="cls-4" d="M145.75,191.81c-2.24,0-4.59-.49-5.33-1.4-.41-.53-.27-2.72.42-6.52a8.75,8.75,0,0,0,.16-2,3.6,3.6,0,0,1,.61-1.68s0,0,0,0c.57-.57,4.13-.56,4.76-.29s.56.79.54,1.31c0,.11,0,.23,0,.35a7.63,7.63,0,0,0,1.56,3.4c.61.46,2.84,3,2.47,4.76-.18.82-1,1.43-2.47,1.77A12,12,0,0,1,145.75,191.81Zm-3.85-11.33a3.19,3.19,0,0,0-.53,1.45,8.86,8.86,0,0,1-.17,2c-.94,5.17-.61,6.08-.49,6.23.89,1.11,5,1.63,7.68,1,.9-.21,2-.64,2.19-1.48.31-1.47-1.63-3.87-2.33-4.39a7.72,7.72,0,0,1-1.7-3.7c0-.13,0-.25,0-.37,0-.54,0-.81-.32-.95C145.7,180.05,142.37,180.06,141.9,180.48Z"/><path class="cls-6" d="M139.11,152.84a38.69,38.69,0,0,0,.67,6c.49,1.83,1,9.72,1.65,12.53s.5,10.11.5,10.11a4.22,4.22,0,0,1,2.23-.34l1.25.17.91.41a48.43,48.43,0,0,1,1.24-6.87c.74-2.4,2.15-11.2,1.49-13.44a29.28,29.28,0,0,1-1-4.72v-4.47S143.09,149.2,139.11,152.84Z"/><path class="cls-4" d="M146.32,181.87l-.08,0-.88-.4-1.22-.16a4,4,0,0,0-2.13.31.19.19,0,0,1-.18,0,.16.16,0,0,1-.08-.16c0-.07.15-7.29-.5-10.05-.35-1.49-.64-4.3-.93-7a55.18,55.18,0,0,0-.72-5.52,38.28,38.28,0,0,1-.67-6,.18.18,0,0,1,.06-.14c4-3.7,9.11-.72,9.16-.69a.19.19,0,0,1,.09.16v4.47a28.94,28.94,0,0,0,1,4.67c.68,2.3-.73,11.07-1.5,13.55a48.51,48.51,0,0,0-1.23,6.83.19.19,0,0,1-.09.14A.16.16,0,0,1,146.32,181.87Zm-2.67-1,.54,0,1.24.17h0l.68.31a47.4,47.4,0,0,1,1.22-6.65c.74-2.38,2.14-11.14,1.49-13.34a29.72,29.72,0,0,1-1-4.77v-4.36c-.67-.37-5-2.53-8.57.63a38.67,38.67,0,0,0,.65,5.84,55.58,55.58,0,0,1,.74,5.57c.28,2.7.58,5.5.92,7,.6,2.53.53,8.48.51,9.87A4.37,4.37,0,0,1,143.65,180.89Z"/><path class="cls-2" d="M123.47,134.82s-.88,5.59-1.36,9-1.52,8-1.52,8a9.84,9.84,0,0,0,4.88,4.39,16.76,16.76,0,0,0,7.19,1.36c1.68-.16,2.07-1.12,2.07-1.12l.56,1.2a5.62,5.62,0,0,1,2.8-2.32c2.08-.87,5.11-2.47,7.35-2.47a8.73,8.73,0,0,1,4.32,1.44s.24-.56.08-4.56-.32-7.35-1.28-9.35a21,21,0,0,0-1.92-3.27l-.18-.34s.1-.86.1-1.26-3.12-1.36-6.39-1.36-8.15,1.28-10.39,1-5-.64-5-.64S123.71,133.86,123.47,134.82Z"/><path class="cls-4" d="M135.29,157.77h0a.18.18,0,0,1-.16-.1l-.42-.9a2.85,2.85,0,0,1-2,.92,17.24,17.24,0,0,1-7.27-1.36,9.9,9.9,0,0,1-5-4.49.17.17,0,0,1,0-.12c0-.05,1-4.67,1.52-8s1.35-8.89,1.36-9v0a.8.8,0,0,1,.47-.6,1.48,1.48,0,0,1,1.13.15c.31.05,2.83.41,4.91.64a24.23,24.23,0,0,0,5-.47,39.3,39.3,0,0,1,5.39-.57c3,0,6.57.85,6.57,1.54a12.23,12.23,0,0,1-.1,1.23l.16.28h0a21.76,21.76,0,0,1,1.92,3.28c1,2.09,1.15,5.65,1.3,9.42.16,3.93-.07,4.58-.09,4.64a.19.19,0,0,1-.12.1.18.18,0,0,1-.16,0,8.52,8.52,0,0,0-4.21-1.41c-1.77,0-4.12,1.05-6,1.9-.45.2-.87.4-1.27.56a5.54,5.54,0,0,0-2.7,2.23A.18.18,0,0,1,135.29,157.77Zm-14.5-6a9.64,9.64,0,0,0,4.74,4.25,17,17,0,0,0,7.11,1.35c1.53-.15,1.91-1,1.93-1a.18.18,0,0,1,.33,0l.42.88a6.13,6.13,0,0,1,2.7-2.1c.39-.16.82-.35,1.26-.55,1.92-.86,4.31-1.94,6.16-1.94a8.56,8.56,0,0,1,4.19,1.33,27.86,27.86,0,0,0,0-4.25c-.15-3.73-.29-7.26-1.26-9.28a21.49,21.49,0,0,0-1.9-3.24l-.19-.36a.2.2,0,0,1,0-.11s.1-.82.11-1.22c-.25-.31-3-1.2-6.21-1.2a37.55,37.55,0,0,0-5.34.58,24,24,0,0,1-5.07.46c-2.21-.24-4.93-.64-5-.64l-.06,0a1.2,1.2,0,0,0-.84-.15.46.46,0,0,0-.25.35c0,.24-.89,5.68-1.36,8.93S120.91,151.15,120.79,151.73Z"/><path class="cls-4" d="M130.46,144.1a.21.21,0,0,1-.13,0,65.9,65.9,0,0,1-4.56-6,.19.19,0,0,1,.31-.21,63,63,0,0,0,4.51,6,.19.19,0,0,1,0,.26A.21.21,0,0,1,130.46,144.1Z"/><path class="cls-4" d="M132.57,147.34h-.06a6.64,6.64,0,0,1-1.6-.85.19.19,0,0,1,0-.26.19.19,0,0,1,.26,0,6.22,6.22,0,0,0,1.51.8.2.2,0,0,1,.11.24A.18.18,0,0,1,132.57,147.34Z"/><path class="cls-4" d="M129.89,145.66a.15.15,0,0,1-.11,0,22.66,22.66,0,0,1-2-1.9.19.19,0,0,1,0-.26.18.18,0,0,1,.26,0,24.55,24.55,0,0,0,2,1.86.18.18,0,0,1,0,.26A.15.15,0,0,1,129.89,145.66Z"/><path class="cls-4" d="M134.73,156.58h0a.19.19,0,0,1-.12-.23,17.45,17.45,0,0,0,.47-6.08c-.43-3.29-.37-5.24.2-6s5.27-4.62,7.08-4.78a.19.19,0,0,1,0,.37c-1.68.15-6.25,3.91-6.82,4.64s-.54,2.55-.12,5.7a17.71,17.71,0,0,1-.49,6.22A.18.18,0,0,1,134.73,156.58Z"/><path class="cls-4" d="M137.37,141.55a.17.17,0,0,1-.12,0,.19.19,0,0,1,0-.26,10.63,10.63,0,0,1,3.21-2.26l.35-.17a.18.18,0,0,1,.19.31l-.37.19a10.12,10.12,0,0,0-3.1,2.17A.2.2,0,0,1,137.37,141.55Z"/><path class="cls-7" d="M139.17,103.05s-1-.66-2.54-1.76-5.74-2.76-6.84-2.76h-3.21l-2.76-.45s-.66,4.53-1.54,5.75-2.21,2.76-2.21,2.76,4.53,2.65,6,3.31a17.8,17.8,0,0,1,3,1.87s-3,5.52-3.31,10.27a79.27,79.27,0,0,1-2.21,12.14c-.22.78-.33,1.22-.33,1.22s1,1.32,6.07,2,5.52-.45,10.27-1.11,7,.44,7,.44a4,4,0,0,0,.88-2.76c0-1.87,0-6.84.22-8.28s1.88-7.61,1.88-7.61,1.43,3,2.2,4.19a12.92,12.92,0,0,0,1.55,2,15.15,15.15,0,0,0,3.31-1.44c2-1.1,4.09-2.54,4.31-3.2s.77-1.87.77-1.87A10.14,10.14,0,0,1,159,116c-1.1-1.1-3.75-6.4-4.53-7.4s-.11-1.32-1.76-2.32-4.53-1.65-6.41-2.65S139.17,103.05,139.17,103.05Z"/><path class="cls-7" d="M132,137.77a22.13,22.13,0,0,1-2.76-.2c-5.1-.67-6.15-2-6.2-2.06a.21.21,0,0,1,0-.16s.11-.44.34-1.22a79.35,79.35,0,0,0,2.2-12.1c.3-4.32,2.8-9.31,3.26-10.2a17,17,0,0,0-2.82-1.77c-1.43-.65-5.8-3.21-6-3.32a.16.16,0,0,1-.09-.12.19.19,0,0,1,0-.15s1.33-1.56,2.2-2.75,1.51-5.62,1.51-5.66a.2.2,0,0,1,.08-.12.18.18,0,0,1,.13,0l2.76.45h3.18c1.19,0,5.41,1.7,7,2.8,1.32,1,2.25,1.57,2.48,1.72.64,0,5.4-.38,7.21.58a24.49,24.49,0,0,0,3.07,1.25,19.39,19.39,0,0,1,3.34,1.41c1.11.66,1.24,1.06,1.39,1.52a2.47,2.47,0,0,0,.43.84c.32.41.92,1.49,1.62,2.74a33.34,33.34,0,0,0,2.89,4.64,9.87,9.87,0,0,0,2.49,1.73.18.18,0,0,1,.09.24s-.55,1.21-.77,1.86c-.28.84-2.89,2.47-4.39,3.3a15.29,15.29,0,0,1-3.36,1.46.22.22,0,0,1-.17-.05,12.49,12.49,0,0,1-1.57-2c-.6-.94-1.57-2.89-2-3.77-.39,1.48-1.57,6-1.75,7.12-.22,1.42-.22,6.39-.22,8.25a4.21,4.21,0,0,1-.93,2.89.2.2,0,0,1-.22,0s-2.22-1.07-6.84-.43a31.67,31.67,0,0,0-3.69.75A14.6,14.6,0,0,1,132,137.77Zm-8.61-2.42c.27.25,1.61,1.29,5.9,1.85a14.22,14.22,0,0,0,6.49-.35,32.39,32.39,0,0,1,3.72-.75c4.17-.58,6.39.17,6.93.4a4.11,4.11,0,0,0,.75-2.54c0-1.87,0-6.85.23-8.3s1.81-7.39,1.88-7.64a.19.19,0,0,1,.16-.14.2.2,0,0,1,.18.11s1.44,3,2.2,4.17a12.4,12.4,0,0,0,1.45,1.88,16,16,0,0,0,3.16-1.39c2.23-1.24,4.05-2.57,4.22-3.1s.55-1.37.71-1.73a10.08,10.08,0,0,1-2.43-1.72,32.39,32.39,0,0,1-2.95-4.72,30.43,30.43,0,0,0-1.59-2.69,3,3,0,0,1-.49-1c-.13-.41-.24-.73-1.23-1.33a19.52,19.52,0,0,0-3.27-1.37,26,26,0,0,1-3.12-1.27c-1.81-1-7-.54-7.08-.53a.2.2,0,0,1-.11,0s-1-.68-2.55-1.77a20.8,20.8,0,0,0-6.73-2.73h-3.21L124,98.3c-.14.87-.75,4.52-1.55,5.63s-1.71,2.17-2.08,2.61c.87.51,4.51,2.62,5.76,3.19a18,18,0,0,1,3,1.9.17.17,0,0,1,0,.23c0,.06-3,5.54-3.29,10.19a78.79,78.79,0,0,1-2.21,12.19C123.51,134.79,123.41,135.18,123.36,135.35Z"/><path class="cls-4" d="M149.44,118.25h-.07a.18.18,0,0,1-.1-.24s2.11-5.33,3.2-7.42a.18.18,0,0,1,.25-.07.19.19,0,0,1,.08.25c-1.09,2.06-3.17,7.32-3.19,7.37A.18.18,0,0,1,149.44,118.25Z"/><path class="cls-4" d="M150.54,116.48a.19.19,0,0,1-.12,0,.18.18,0,0,1,0-.26,41.05,41.05,0,0,0,3.95-5.37.18.18,0,0,1,.24-.09.2.2,0,0,1,.09.25,39.17,39.17,0,0,1-4,5.45A.2.2,0,0,1,150.54,116.48Z"/><path class="cls-4" d="M145.24,112.84h-.07a.18.18,0,0,1-.1-.24c1-2.5,2.19-7.22,2.2-7.26a.19.19,0,0,1,.22-.14.2.2,0,0,1,.14.23s-1.23,4.78-2.22,7.3A.18.18,0,0,1,145.24,112.84Z"/><path class="cls-4" d="M138,108.76a.18.18,0,0,1-.16-.11,19.25,19.25,0,0,1-1.23-5.14.18.18,0,1,1,.36,0,20,20,0,0,0,1.2,5,.19.19,0,0,1-.09.25Z"/><path class="cls-4" d="M136.41,111.18a.18.18,0,0,1-.17-.11,12.92,12.92,0,0,1-.52-1.76.18.18,0,0,1,.14-.21.18.18,0,0,1,.22.14,12.05,12.05,0,0,0,.5,1.7.17.17,0,0,1-.11.23Z"/><path class="cls-4" d="M135.61,107.68a.18.18,0,0,1-.18-.16,22,22,0,0,1,.14-5.6.18.18,0,0,1,.21-.15.18.18,0,0,1,.15.21,21.83,21.83,0,0,0-.14,5.5.18.18,0,0,1-.16.2Z"/><path class="cls-4" d="M129,112a.18.18,0,0,1-.17-.14l-2.43-8.5a.18.18,0,0,1,.12-.22.19.19,0,0,1,.23.12l2,6.84-.32-4.9a.18.18,0,1,1,.36,0l.45,6.62a.19.19,0,0,1-.16.2Z"/><path class="cls-4" d="M130,132.82a.18.18,0,0,1-.18-.13.19.19,0,0,1,.13-.23,11.22,11.22,0,0,0,2-.91.19.19,0,0,1,.18.33,12,12,0,0,1-2.12.94Z"/><path class="cls-4" d="M134,130.75a.21.21,0,0,1-.16-.08.19.19,0,0,1,.06-.26l1-.68c3.39-2.3,9.77-5.93,9.84-6a.18.18,0,1,1,.18.32c-.06,0-6.44,3.66-9.81,6l-1.05.69Z"/><path class="cls-4" d="M133,134.81a.18.18,0,0,1-.17-.11.18.18,0,0,1,.1-.24c4.08-1.74,6.76-3.68,8.42-6.12a24.61,24.61,0,0,1,3.22-4,.19.19,0,0,1,.26,0,.18.18,0,0,1,0,.26,24.61,24.61,0,0,0-3.17,3.94c-1.7,2.5-4.43,4.48-8.58,6.25Z"/><path class="cls-6" d="M137,85.14s-1.59,2.15-1.59,3.09.1,2.15-.28,2.52-2.33,1-2.33,1.5.93,1.4.93,1.4a27.49,27.49,0,0,0,.47,3.83c.28.84.28,2.15,1.31,2.62s3.27-.38,3.27-.38a4,4,0,0,1-.19,2.25c-.47.74-1.31.65-.75,1.68s1.69,2.43,4.77,2.52,4.11-2.15,4.11-2.8-.56-1.22-.56-2.62a19.73,19.73,0,0,1,.66-3.83s2.52-2.43,2.52-4.58-2.52-7.76-5.89-8.23A12.69,12.69,0,0,0,137,85.14Z"/><path class="cls-4" d="M142.77,106.36h-.2c-3.18-.1-4.33-1.54-4.92-2.62-.44-.82-.08-1.1.26-1.37a2,2,0,0,0,.5-.5,3.44,3.44,0,0,0,.19-1.9c-.6.2-2.3.7-3.2.29a2.61,2.61,0,0,1-1.24-2.07,4.7,4.7,0,0,0-.17-.65,26.06,26.06,0,0,1-.47-3.81c-.24-.25-.94-1-.94-1.48s.56-.68,1.49-1.13a4.63,4.63,0,0,0,.9-.5c.26-.26.25-1.17.23-1.91v-.48c0-1,1.56-3.11,1.62-3.2l.07,0a12.56,12.56,0,0,1,6.56-1c3.49.49,6,6.15,6,8.41,0,2.08-2.21,4.35-2.54,4.68a19.29,19.29,0,0,0-.63,3.73,4.7,4.7,0,0,0,.34,1.74,2.42,2.42,0,0,1,.22.88,3,3,0,0,1-1,1.83A4.39,4.39,0,0,1,142.77,106.36Zm-4-6.82.09,0a.2.2,0,0,1,.09.13,4.1,4.1,0,0,1-.21,2.37,2.23,2.23,0,0,1-.58.6c-.33.25-.46.36-.17.9.55,1,1.62,2.34,4.62,2.43a4,4,0,0,0,3.06-1.06,2.62,2.62,0,0,0,.86-1.56,2.17,2.17,0,0,0-.19-.75,4.82,4.82,0,0,1-.37-1.87,19.52,19.52,0,0,1,.66-3.88.22.22,0,0,1,0-.08s2.47-2.4,2.47-4.45-2.48-7.59-5.73-8a12.45,12.45,0,0,0-6.31,1,8.27,8.27,0,0,0-1.52,2.94v.47c0,.89,0,1.81-.34,2.18a4.15,4.15,0,0,1-1,.57c-.41.2-1.26.61-1.28.8a3.2,3.2,0,0,0,.88,1.27.17.17,0,0,1,0,.12,28.78,28.78,0,0,0,.46,3.78c.07.21.12.45.18.69.16.74.33,1.5,1,1.82.95.43,3.11-.37,3.13-.38Z"/><path class="cls-4" d="M137.9,91.14c-.1.43-.3.75-.45.71s-.2-.41-.1-.84.31-.74.46-.71S138,90.71,137.9,91.14Z"/><path class="cls-4" d="M136.11,95.71a3.07,3.07,0,0,1-1.37-.31.19.19,0,0,1-.08-.25.19.19,0,0,1,.25-.08,2.79,2.79,0,0,0,2.71-.18.19.19,0,0,1,.2.32A3.21,3.21,0,0,1,136.11,95.71Z"/><path class="cls-4" d="M138.75,89.63a.18.18,0,0,1-.17-.11c-.22-.47-.48-.74-.75-.78a.85.85,0,0,0-.63.26.18.18,0,1,1-.27-.24,1.18,1.18,0,0,1,1-.38c.4.06.75.39,1,1a.18.18,0,0,1-.08.25Z"/><path class="cls-4" d="M138.75,99.72l3.18-.84L138.56,102S139.22,100.38,138.75,99.72Z"/><path class="cls-4" d="M138.56,102.15a.17.17,0,0,1-.1,0,.19.19,0,0,1-.07-.22c.17-.42.54-1.6.21-2.07a.18.18,0,0,1,.1-.28l3.18-.84a.18.18,0,0,1,.21.08.2.2,0,0,1,0,.23l-3.36,3.08A.21.21,0,0,1,138.56,102.15Zm.46-2.31a2.78,2.78,0,0,1-.06,1.51l2.29-2.1Z"/><path class="cls-4" d="M148.38,81.22a16,16,0,0,0-4.68-2c-2.52-.56-5.79,1.41-7,2.06a4,4,0,0,1-3.08.19c-.28-.19-1.59,1-.84,2.89s3.73,1.69,3.73,1.69a2.58,2.58,0,0,0,1.22,1.21c.93.47,3.27,0,3.74-.19s-.38,1.41-.09,1.87,1.21-.65,1.21-.65.09,1.87.28,3.08-1.31,1.59-1,2.15,2-.84,2-.84-1.5,1.69-.1,1.5,3.65-2.34,3.65-2.34a7.58,7.58,0,0,1-.1,3.27c-.46,1.41-2.71,1.5-2.71,1.5a2.35,2.35,0,0,0,1.78,1.59c1.5.37,1.87-.75,1.87-.75s.19,1.4,1.21.94.85-3.28.85-3.28a10.17,10.17,0,0,0,2.43-3.55c1.3-2.71.09-7.1-.94-8.78A4,4,0,0,0,148.38,81.22Z"/><path class="cls-4" d="M149,98.69a.79.79,0,0,1-.38-.09,1.26,1.26,0,0,1-.51-.66,1.68,1.68,0,0,1-1.85.47,2.55,2.55,0,0,1-1.91-1.73.17.17,0,0,1,0-.15.15.15,0,0,1,.14-.07s2.12-.11,2.54-1.37a7,7,0,0,0,.14-2.85c-.64.57-2.32,2-3.49,2.15-.4,0-.65,0-.76-.23a.78.78,0,0,1,.07-.67,1.81,1.81,0,0,1-1.08.37.44.44,0,0,1-.29-.22c-.18-.37.11-.65.39-.93a1.45,1.45,0,0,0,.62-1.28c-.13-.85-.22-2-.26-2.67a1.45,1.45,0,0,1-.89.51.39.39,0,0,1-.32-.2c-.18-.3,0-.82.09-1.32,0-.14.09-.31.11-.43-.67.2-2.83.61-3.77.14a2.83,2.83,0,0,1-1.25-1.2c-.6,0-3.09,0-3.79-1.8a2.55,2.55,0,0,1,.52-3c.23-.19.44-.23.59-.14a3.79,3.79,0,0,0,2.89-.19l.32-.18c1.44-.79,4.43-2.43,6.82-1.9a16.53,16.53,0,0,1,4.69,2,4.12,4.12,0,0,1,3.47,1.68c1,1.73,2.27,6.2.94,9a11,11,0,0,1-2.41,3.56c0,.56.08,2.88-1,3.35A1,1,0,0,1,149,98.69Zm-.82-1.39h0a.18.18,0,0,1,.16.16,1.21,1.21,0,0,0,.43.81.59.59,0,0,0,.53,0c.75-.34.78-2.35.73-3.09a.2.2,0,0,1,.07-.16,10.08,10.08,0,0,0,2.38-3.49c1.27-2.64.09-6.94-.93-8.61a3.87,3.87,0,0,0-3.2-1.5.19.19,0,0,1-.1,0,16.46,16.46,0,0,0-4.62-1.94c-2.26-.5-5.16,1.1-6.56,1.87l-.32.17a4.13,4.13,0,0,1-3.27.18,1.18,1.18,0,0,0-.44.43,2.35,2.35,0,0,0-.13,2.25c.69,1.72,3.52,1.57,3.55,1.56a.2.2,0,0,1,.19.12,2.33,2.33,0,0,0,1.12,1.12c.86.43,3.13,0,3.59-.2a.27.27,0,0,1,.3,0c.17.14.09.42,0,.88s-.24.86-.14,1l0,0c.16,0,.6-.35.89-.7a.18.18,0,0,1,.32.11s.1,1.88.28,3.07a1.75,1.75,0,0,1-.72,1.59c-.27.26-.38.39-.32.5s0,0,0,0c.29.06,1.13-.51,1.64-.93a.18.18,0,0,1,.25.27c-.37.41-.72,1-.63,1.14s.11.08.38,0c1.33-.18,3.52-2.27,3.54-2.29a.17.17,0,0,1,.18,0,.19.19,0,0,1,.13.14,7.7,7.7,0,0,1-.1,3.36c-.41,1.23-2,1.53-2.64,1.6a2.22,2.22,0,0,0,1.57,1.25c1.31.32,1.64-.59,1.65-.63A.2.2,0,0,1,148.19,97.3Z"/></svg>