<svg id="Layer_1" data-name="Layer 1" xmlns="http://www.w3.org/2000/svg" viewBox="0 0 200 200"><defs><style>.cls-1{fill:none;stroke:#1a2e35;stroke-miterlimit:10;}.cls-2{fill:#231f20;}.cls-3{fill:#fff;}.cls-4{fill:#dcb626;}.cls-5{fill:#004712;}.cls-6{fill:#414042;}</style></defs><rect class="cls-1" x="5.79" y="19.02" width="188.42" height="170.16"/><rect class="cls-2" x="68.43" y="37.16" width="104.94" height="72"/><path class="cls-2" d="M173.38,109.37H68.43a.22.22,0,0,1-.21-.21v-72a.21.21,0,0,1,.21-.21h105a.21.21,0,0,1,.21.21v72A.21.21,0,0,1,173.38,109.37Zm-104.73-.43H173.17V37.37H68.65Z"/><rect class="cls-3" x="70.1" y="38.9" width="101.61" height="68.52"/><path class="cls-2" d="M171.71,107.63H70.1a.21.21,0,0,1-.21-.21V38.9a.21.21,0,0,1,.21-.22H171.71a.21.21,0,0,1,.21.22v68.52A.21.21,0,0,1,171.71,107.63Zm-101.4-.42H171.5V39.11H70.31Z"/><rect class="cls-4" x="106.49" y="56.25" width="14.93" height="11.97"/><rect class="cls-4" x="121.94" y="68.42" width="14.93" height="11.97"/><rect class="cls-4" x="106.49" y="92.37" width="14.93" height="11.97"/><rect class="cls-4" x="137.58" y="44.47" width="14.93" height="11.97"/><path class="cls-2" d="M75.46,104.55a.21.21,0,0,1-.21-.21V46.21a.21.21,0,0,1,.42,0v58.13A.21.21,0,0,1,75.46,104.55Z"/><path class="cls-2" d="M90.84,104.55a.21.21,0,0,1-.21-.21V46.21a.21.21,0,0,1,.21-.21.21.21,0,0,1,.22.21v58.13A.21.21,0,0,1,90.84,104.55Z"/><path class="cls-2" d="M106.23,104.55a.21.21,0,0,1-.21-.21V46.21a.21.21,0,1,1,.42,0v58.13A.21.21,0,0,1,106.23,104.55Z"/><path class="cls-2" d="M121.62,104.55a.21.21,0,0,1-.22-.21V46.21a.21.21,0,0,1,.22-.21.21.21,0,0,1,.21.21v58.13A.21.21,0,0,1,121.62,104.55Z"/><path class="cls-2" d="M137,104.55a.21.21,0,0,1-.21-.21V46.21A.21.21,0,0,1,137,46a.21.21,0,0,1,.21.21v58.13A.21.21,0,0,1,137,104.55Z"/><path class="cls-2" d="M152.39,104.55a.21.21,0,0,1-.21-.21V46.21a.21.21,0,0,1,.42,0v58.13A.21.21,0,0,1,152.39,104.55Z"/><path class="cls-2" d="M167.77,104.55a.21.21,0,0,1-.21-.21V46.21a.21.21,0,0,1,.21-.21.21.21,0,0,1,.22.21v58.13A.21.21,0,0,1,167.77,104.55Z"/><path class="cls-2" d="M168,56.46H75.85a.21.21,0,1,1,0-.42H168a.21.21,0,1,1,0,.42Z"/><path class="cls-2" d="M168,68.44H75.85a.22.22,0,1,1,0-.43H168a.22.22,0,0,1,0,.43Z"/><path class="cls-2" d="M168,80.41H75.85a.21.21,0,1,1,0-.42H168a.21.21,0,0,1,0,.42Z"/><path class="cls-2" d="M168,92.38H75.85a.21.21,0,0,1-.22-.21.22.22,0,0,1,.22-.21H168a.22.22,0,0,1,.21.21A.21.21,0,0,1,168,92.38Z"/><path class="cls-2" d="M118,58.59h-9.27a.21.21,0,0,1-.21-.21.21.21,0,0,1,.21-.22H118a.22.22,0,0,1,0,.43Z"/><path class="cls-2" d="M118,60.13h-9.27a.21.21,0,0,1,0-.42H118a.21.21,0,0,1,0,.42Z"/><path class="cls-2" d="M118,61.68h-9.27a.21.21,0,0,1-.21-.21.21.21,0,0,1,.21-.22H118a.22.22,0,0,1,0,.43Z"/><path class="cls-2" d="M118,63.22h-9.27a.21.21,0,0,1,0-.42H118a.21.21,0,0,1,0,.42Z"/><path class="cls-2" d="M118,64.77h-9.27a.21.21,0,0,1-.21-.21.21.21,0,0,1,.21-.22H118a.22.22,0,0,1,0,.43Z"/><path class="cls-2" d="M134.17,71.53H124.9a.21.21,0,0,1-.21-.22.21.21,0,0,1,.21-.21h9.27a.21.21,0,0,1,.21.21A.21.21,0,0,1,134.17,71.53Z"/><path class="cls-2" d="M134.17,73.07H124.9a.21.21,0,0,1,0-.42h9.27a.21.21,0,1,1,0,.42Z"/><path class="cls-2" d="M134.17,74.62H124.9a.21.21,0,0,1-.21-.22.21.21,0,0,1,.21-.21h9.27a.21.21,0,0,1,.21.21A.21.21,0,0,1,134.17,74.62Z"/><path class="cls-2" d="M134.17,76.16H124.9a.21.21,0,0,1,0-.42h9.27a.21.21,0,0,1,0,.42Z"/><path class="cls-2" d="M134.17,77.71H124.9a.21.21,0,0,1-.21-.22.21.21,0,0,1,.21-.21h9.27a.21.21,0,0,1,.21.21A.21.21,0,0,1,134.17,77.71Z"/><path class="cls-2" d="M118.33,95.28h-9.27a.21.21,0,0,1,0-.42h9.27a.21.21,0,1,1,0,.42Z"/><path class="cls-2" d="M118.33,96.83h-9.27a.22.22,0,0,1,0-.43h9.27a.22.22,0,1,1,0,.43Z"/><path class="cls-2" d="M118.33,98.37h-9.27a.21.21,0,0,1,0-.42h9.27a.21.21,0,1,1,0,.42Z"/><path class="cls-2" d="M118.33,99.92h-9.27a.22.22,0,0,1,0-.43h9.27a.22.22,0,1,1,0,.43Z"/><path class="cls-2" d="M118.33,101.46h-9.27a.21.21,0,0,1,0-.42h9.27a.21.21,0,1,1,0,.42Z"/><path class="cls-2" d="M149,48h-9.27a.21.21,0,0,1-.21-.22.21.21,0,0,1,.21-.21H149a.21.21,0,0,1,.21.21A.21.21,0,0,1,149,48Z"/><path class="cls-2" d="M149,49.51h-9.27a.21.21,0,0,1,0-.42H149a.21.21,0,1,1,0,.42Z"/><path class="cls-2" d="M149,51.06h-9.27a.21.21,0,0,1-.21-.22.21.21,0,0,1,.21-.21H149a.21.21,0,0,1,.21.21A.21.21,0,0,1,149,51.06Z"/><path class="cls-2" d="M149,52.6h-9.27a.21.21,0,0,1,0-.42H149a.21.21,0,1,1,0,.42Z"/><path class="cls-2" d="M149,54.15h-9.27a.21.21,0,0,1-.21-.22.21.21,0,0,1,.21-.21H149a.21.21,0,0,1,.21.21A.21.21,0,0,1,149,54.15Z"/><path class="cls-3" d="M148.64,115.43s.14,5.78.14,6-.72,4.33-.36,6.28,3.25,4.63,3.25,4.63l.29-17.42Z"/><path class="cls-2" d="M151.67,132.55a.2.2,0,0,1-.14-.06c-.12-.11-2.95-2.74-3.32-4.74a24,24,0,0,1,.3-5.89,4.21,4.21,0,0,0,.06-.44c0-.21-.14-5.93-.15-6a.21.21,0,0,1,.19-.21l3.32-.51a.22.22,0,0,1,.17.05.21.21,0,0,1,.07.17l-.29,17.41a.21.21,0,0,1-.13.19Zm-2.82-16.94c0,1,.14,5.62.14,5.82a4.53,4.53,0,0,1-.06.49,23.48,23.48,0,0,0-.3,5.75c.27,1.46,2.07,3.4,2.84,4.17l.27-16.67Z"/><path class="cls-4" d="M157.36,75.58s-8.48,10.33-8.75,11.48-2.47,29.14-2.47,29.41,3.44,1.59,4.86,1.59h2s-2.39-19.25-1.33-26.41,3.62-9.18,5.57-11.92S159.21,74.87,157.36,75.58Z"/><path class="cls-2" d="M153,118.27h-2c-1.1,0-5.07-1.22-5.07-1.8,0-.19,2.22-28.33,2.48-29.46s7.91-10.5,8.78-11.56a.31.31,0,0,1,.09-.07c.83-.32,1.25-.08,1.45.18.55.72.05,2.41-1.29,4.29-.34.49-.7.94-1.07,1.42a19.06,19.06,0,0,0-4.46,10.41c-1,7,1.3,26.16,1.33,26.35a.22.22,0,0,1-.05.17A.24.24,0,0,1,153,118.27Zm-6.67-1.87a13.87,13.87,0,0,0,4.64,1.45h1.79c-.27-2.24-2.28-19.56-1.3-26.23A19.55,19.55,0,0,1,156,81c.38-.47.73-.92,1.06-1.39,1.33-1.87,1.66-3.32,1.3-3.79-.19-.25-.59-.17-.91-.06-3.39,4.14-8.48,10.54-8.66,11.35C148.55,88.27,146.47,114.87,146.36,116.4Z"/><path class="cls-2" d="M157.8,181s-2.21,3.18-3.45,3.89-5.3,2.38-5.47,2.82-.18,1.51.17,1.59,6.45-.08,10.16-.08,6.18.17,6.62-.27.09-6.18-.35-7.33l-.44-1.15-6.62-.17Z"/><path class="cls-2" d="M149.89,189.56a6.67,6.67,0,0,1-.89,0,.5.5,0,0,1-.31-.27,2.44,2.44,0,0,1,0-1.6c.12-.31.94-.73,3.35-1.85.9-.43,1.76-.82,2.22-1.09,1.18-.67,3.35-3.79,3.37-3.82l0,0,.62-.7a.21.21,0,0,1,.16-.08l6.62.18a.22.22,0,0,1,.2.14l.44,1.14c.43,1.12.87,7,.3,7.56-.38.38-1.59.38-4.28.35l-2.49,0c-1.65,0-3.79,0-5.67.06Zm8.07-8.41c-.16.23-2.26,3.23-3.5,3.94-.47.27-1.34.68-2.25,1.1a19.91,19.91,0,0,0-3.14,1.63,1.76,1.76,0,0,0,0,1.3c.21,0,2.35,0,4.43,0,1.88,0,4-.07,5.67-.07l2.49,0c2,0,3.71.05,4-.22.34-.47,0-6-.4-7.1l-.39-1-6.38-.17Z"/><path class="cls-3" d="M166,188.44H148.76c0,.42.08.83.29.88s6.45-.08,10.16-.08,6.18.17,6.62-.27A1,1,0,0,0,166,188.44Z"/><path class="cls-2" d="M149.89,189.56a6.67,6.67,0,0,1-.89,0c-.4-.1-.45-.73-.45-1.09a.21.21,0,0,1,.21-.21H166a.2.2,0,0,1,.16.07.22.22,0,0,1,.05.17,1.05,1.05,0,0,1-.21.65c-.38.38-1.59.38-4.28.35l-2.49,0c-1.65,0-3.79,0-5.67.06Zm-.91-.91a.77.77,0,0,0,.13.47c.21,0,2.35,0,4.43,0,1.88,0,4-.07,5.67-.07l2.5,0c2,0,3.7.05,4-.22h0a.42.42,0,0,0,0-.17Z"/><path class="cls-3" d="M149.32,114.44l1.15,5.38s-.18,14.05,1.23,20.14a59.89,59.89,0,0,1,1.42,12s1.94,9.62,2.65,12.36,1.5,14.31,1.5,14.31-.71.53-.62.88.35,2.56.35,2.56.36,0,3.18.27a23.66,23.66,0,0,0,4.33.09l1-.8a24.42,24.42,0,0,0,0-2.83c-.09-1.58-.62-2.82-.62-3.88s-.62-24.37-.62-24.37l.27-36.56-15.46-.89Z"/><path class="cls-2" d="M163.07,182.71c-.71,0-1.69,0-2.91-.15-2.74-.26-3.14-.27-3.16-.27a.21.21,0,0,1-.21-.18c-.07-.61-.28-2.26-.35-2.54s.36-.83.61-1c-.09-1.2-.83-11.61-1.49-14.15-.7-2.72-2.63-12.28-2.65-12.38a61.48,61.48,0,0,0-1.41-12c-1.38-5.93-1.25-19.51-1.25-20.17l-1.14-5.36h0l-.26-1.33a.2.2,0,0,1,0-.18.21.21,0,0,1,.18-.07l15.45.88a.22.22,0,0,1,.2.22l-.26,36.56c0,.94.61,23.32.61,24.37a7.78,7.78,0,0,0,.26,1.64,12.38,12.38,0,0,1,.36,2.23,25.18,25.18,0,0,1,0,2.86.17.17,0,0,1-.08.14l-1,.8a.22.22,0,0,1-.11.05S164,182.71,163.07,182.71Zm-5.88-.83c.31,0,1.09.08,3,.26a23.71,23.71,0,0,0,4.22.09l.85-.69a25.18,25.18,0,0,0,0-2.71,14.07,14.07,0,0,0-.35-2.17,8,8,0,0,1-.27-1.73c0-1.05-.61-24.14-.62-24.37l.26-36.36-15-.86.21,1,1.14,5.39a.07.07,0,0,1,0,0c0,.14-.16,14.08,1.23,20.08A61.26,61.26,0,0,1,153.33,152c0,.05,1.94,9.61,2.64,12.31s1.48,13.87,1.51,14.34a.23.23,0,0,1-.09.19c-.3.23-.56.55-.54.66C156.93,179.78,157.13,181.34,157.19,181.88Z"/><path class="cls-2" d="M166.45,180.85a16.77,16.77,0,0,1-1.59,3c-.79,1.06-4.06,2.91-5.39,3.62a2.66,2.66,0,0,0-1.32,2.21s3,.09,12.89-.27l4.24-.17a13.09,13.09,0,0,0-.09-2.48c-.17-1.32-.35-4.68-.35-4.68Z"/><path class="cls-2" d="M159.27,189.9h-1.13a.21.21,0,0,1-.2-.21,2.83,2.83,0,0,1,1.43-2.4c1.64-.87,4.61-2.6,5.32-3.56a16.44,16.44,0,0,0,1.56-2.95.22.22,0,0,1,.23-.13l8.39,1.23a.21.21,0,0,1,.18.2s.18,3.36.35,4.66a12.58,12.58,0,0,1,.09,2.52.21.21,0,0,1-.2.2l-4.24.17C164.45,189.86,160.9,189.9,159.27,189.9Zm-.89-.43c.85,0,4.32,0,12.66-.27l4-.17a13.11,13.11,0,0,0-.1-2.24c-.15-1.16-.3-3.81-.34-4.52l-8.06-1.19A15.74,15.74,0,0,1,165,184c-.94,1.24-5,3.43-5.46,3.68A2.35,2.35,0,0,0,158.38,189.47Z"/><path class="cls-3" d="M171,189.41l4.24-.17a12.08,12.08,0,0,0,0-1.43l-16.91.86a2.86,2.86,0,0,0-.23,1S161.15,189.77,171,189.41Z"/><path class="cls-2" d="M159.27,189.9h-1.13a.21.21,0,0,1-.2-.21,3,3,0,0,1,.25-1.1.23.23,0,0,1,.18-.13l16.91-.86a.22.22,0,0,1,.15.06.21.21,0,0,1,.07.15,10.41,10.41,0,0,1,0,1.45.21.21,0,0,1-.2.2l-4.24.17h0C164.45,189.86,160.9,189.9,159.27,189.9Zm-.89-.43c.86,0,4.33,0,12.66-.27l4-.17c0-.2,0-.56,0-1l-16.55.84A2.73,2.73,0,0,0,158.38,189.47Zm12.66-.06h0Z"/><path class="cls-3" d="M155,120.71l3.36,3.26s1.32,12.72,2.65,20.23,4.76,26.84,4.76,28.43a52.21,52.21,0,0,0,.71,5.65s-.26.09-.35.71-.09,3-.09,3a14.63,14.63,0,0,0,4.15,1.24,34.74,34.74,0,0,0,5-.09,27.26,27.26,0,0,0,.35-2.74,44.24,44.24,0,0,1-.09-5A67.61,67.61,0,0,0,176.43,161,157.31,157.31,0,0,0,174,143.4l.7-15.54a23,23,0,0,0,.89-8.65c-.44-4.77-1.5-6.63-1.5-6.63l-20.67.09"/><path class="cls-2" d="M171.76,183.5c-.56,0-1.12,0-1.62-.06a14.77,14.77,0,0,1-4.22-1.25.21.21,0,0,1-.12-.2c0-.09,0-2.4.09-3a1.22,1.22,0,0,1,.33-.77,50,50,0,0,1-.69-5.56c0-1.44-3-18.23-4.39-26.3l-.37-2.1c-1.26-7.12-2.53-19.08-2.65-20.16l-3.3-3.21a.22.22,0,0,1,0-.3.21.21,0,0,1,.3,0l3.35,3.26a.24.24,0,0,1,.07.13c0,.13,1.34,12.8,2.64,20.21l.38,2.1c1.53,8.7,4.4,24.9,4.4,26.37a51.94,51.94,0,0,0,.7,5.62.22.22,0,0,1-.14.24h0s-.15.09-.21.53-.09,2.33-.09,2.84a14.16,14.16,0,0,0,4,1.16,32.25,32.25,0,0,0,4.74-.08,22,22,0,0,0,.33-2.54c0-.19,0-.58-.05-1.07a26.91,26.91,0,0,1,0-4c0-.15.06-.37.1-.65a64.49,64.49,0,0,0,1-13.7,159.25,159.25,0,0,0-2.47-17.55v-.05l.7-15.54s0,0,0-.06a22.84,22.84,0,0,0,.88-8.56,19.75,19.75,0,0,0-1.42-6.43l-20.54.08h0a.21.21,0,0,1,0-.42l20.67-.09h0a.21.21,0,0,1,.18.11c0,.07,1.09,2,1.53,6.71a23.31,23.31,0,0,1-.89,8.71l-.7,15.49A156.08,156.08,0,0,1,176.64,161a65.24,65.24,0,0,1-1,13.79c0,.28-.08.49-.1.64a28.78,28.78,0,0,0,0,3.91c0,.5,0,.89,0,1.09a25.3,25.3,0,0,1-.36,2.78.19.19,0,0,1-.19.17C175,183.36,173.39,183.5,171.76,183.5Z"/><path class="cls-5" d="M157.36,75.58s-7.07,8.74-7.78,12.63-1.67,25.87-1.67,26.76,1.41,1.23,3.09,1.5a40.66,40.66,0,0,0,7.24.44c2.91-.09,5.92-1.06,6.36-1.59s-.44-16.16,1.06-24.73,3-13.15,2.12-14.83S160.36,73.81,157.36,75.58Z"/><path class="cls-2" d="M157.09,117.14a40.7,40.7,0,0,1-6.13-.46c-1.58-.25-3.27-.61-3.27-1.71s1-23,1.69-26.8,7.52-12.36,7.81-12.72l.06,0c2.29-1.35,6.54-1.53,8.93-.85A2.7,2.7,0,0,1,168,75.66c.65,1.22.15,3.65-.76,8.06-.4,2-.86,4.23-1.33,6.91-1,5.55-1,14-.93,19.54,0,4.09,0,5.06-.18,5.29-.49.59-3.51,1.57-6.52,1.66Zm.41-41.4c-.46.57-7,8.83-7.71,12.51S148.12,114,148.12,115c0,.73,1.47,1.06,2.91,1.29a41.11,41.11,0,0,0,7.2.44c2.88-.09,5.83-1.06,6.2-1.52a45.58,45.58,0,0,0,.09-5c0-5.58-.05-14,.93-19.61.47-2.69.93-4.94,1.34-6.92.85-4.18,1.37-6.7.8-7.78a2.44,2.44,0,0,0-1.53-.9C163.77,74.3,159.7,74.47,157.5,75.74Z"/><path class="cls-4" d="M164.51,75.14s-5.3,9.27-6.27,15.81-.27,28.34-.27,28.34,0,.89,4.07.8,9.53-1.15,11-1.94,3.18-1.42,3.27-1.86-.79-2-.79-3.35-.62-6.8-.62-6.8-.18-24.11-1.5-27.56S166.89,74.17,164.51,75.14Z"/><path class="cls-2" d="M161.49,120.31c-1.88,0-3.1-.23-3.55-.67a.49.49,0,0,1-.18-.35c0-.21-.69-21.9.27-28.37s6.24-15.79,6.29-15.89a.24.24,0,0,1,.11-.09,8.4,8.4,0,0,1,5.88.39,6,6,0,0,1,3.32,3.18c1.32,3.44,1.5,26.64,1.51,27.62,0,.21.62,5.48.62,6.81a7.27,7.27,0,0,0,.52,2.22,2.69,2.69,0,0,1,.27,1.17c-.08.39-.74.72-2,1.32-.45.22-.92.44-1.39.68-1.53.81-7,1.88-11.13,2Zm-3.3-1s.29.66,3.84.59c4-.09,9.49-1.15,10.94-1.92.48-.25,1-.49,1.41-.69.72-.35,1.7-.81,1.75-1a3.47,3.47,0,0,0-.25-1,7.6,7.6,0,0,1-.54-2.36c0-1.3-.62-6.73-.62-6.78,0-.26-.19-24.13-1.49-27.5a5.52,5.52,0,0,0-3.09-2.94,7.92,7.92,0,0,0-5.48-.41c-.47.83-5.3,9.53-6.21,15.67-1,6.44-.27,28.09-.26,28.31Z"/><path class="cls-3" d="M151.62,58.63s-.71,2.82-.45,3.7a5.5,5.5,0,0,1,.27,2.21c-.09.36-2.12,2.65-1.68,3.09a13.76,13.76,0,0,0,1.5,1.15s.44,4.68,1.24,5a14.28,14.28,0,0,0,3.71-.27s1,3.62,1,4.24-3,7.24-1.33,6.71,8.39-10.24,8.39-10.24-.08-12.45-2-15.63S154.44,55.89,151.62,58.63Z"/><path class="cls-2" d="M155.68,84.65a.5.5,0,0,1-.36-.14c-.53-.56.16-2.61,1.12-5.23A15.33,15.33,0,0,0,157,77.7a38.25,38.25,0,0,0-.92-4,12.21,12.21,0,0,1-3.62.23c-.83-.28-1.25-3.8-1.37-5a12,12,0,0,1-1.45-1.12c-.4-.39.21-1.31,1.12-2.55a6.8,6.8,0,0,0,.5-.74A5.26,5.26,0,0,0,151,62.4c-.27-.92.37-3.53.44-3.83a.27.27,0,0,1,.06-.1,9.06,9.06,0,0,1,7.1-2.26,5,5,0,0,1,3.82,2.22c2,3.19,2.06,15.23,2.07,15.74a.28.28,0,0,1,0,.12c-.69,1-6.8,9.79-8.5,10.32A.75.75,0,0,1,155.68,84.65Zm.53-11.4a.2.2,0,0,1,.2.16,41.5,41.5,0,0,1,1,4.29,9.15,9.15,0,0,1-.55,1.72c-.48,1.31-1.61,4.38-1.21,4.79,0,0,.11,0,.16,0,1.31-.41,6.35-7.38,8.24-10.11,0-1-.18-12.48-2-15.45a4.63,4.63,0,0,0-3.51-2,8.6,8.6,0,0,0-6.71,2.11,11.18,11.18,0,0,0-.43,3.53,5.78,5.78,0,0,1,.26,2.32,3.73,3.73,0,0,1-.57.89c-.35.48-1.27,1.75-1.16,2a13.36,13.36,0,0,0,1.47,1.11.22.22,0,0,1,.09.16c.21,2.19.7,4.63,1.1,4.77a13,13,0,0,0,3.6-.28Z"/><path class="cls-2" d="M153.65,64.5c0,.46-.18.84-.4.84s-.4-.38-.4-.84.18-.84.4-.84S153.65,64,153.65,64.5Z"/><path class="cls-2" d="M154.18,63.16a.21.21,0,0,1-.18-.09,1,1,0,0,0-.69-.49,1.25,1.25,0,0,0-.85.27.21.21,0,0,1-.27-.33,1.73,1.73,0,0,1,1.17-.36,1.43,1.43,0,0,1,1,.67.22.22,0,0,1,0,.3Z"/><path class="cls-2" d="M152.5,69.7a.21.21,0,0,1-.21-.2.2.2,0,0,1,.2-.22,5.32,5.32,0,0,0,2.44-.85.21.21,0,0,1,.3,0,.21.21,0,0,1,0,.29,5.49,5.49,0,0,1-2.68.93Z"/><path class="cls-2" d="M154.79,52.18s-4.32,1.68-4.76,3.27-.8,3.44-.8,3.44l3.89.8,3.35.26a5.46,5.46,0,0,0,.89,2.65,31.32,31.32,0,0,1,1.41,3s-.27,5.21-.53,6.71a26.29,26.29,0,0,1-.88,3.27s2.2.44,6.27.88a36,36,0,0,0,9.09-.53,10.42,10.42,0,0,0,1-5.29c-.09-3.54-1.76-8.57-1.94-10.6s.35-3.45-2.83-5.92S160.09,50.77,154.79,52.18Z"/><path class="cls-2" d="M165.92,76.79a19.69,19.69,0,0,1-2.32-.12c-4-.43-6.26-.88-6.29-.88a.21.21,0,0,1-.14-.1.19.19,0,0,1,0-.18,27,27,0,0,0,.87-3.23c.25-1.4.5-6.13.52-6.64a31,31,0,0,0-1.38-2.94,7.1,7.1,0,0,1-.91-2.55l-3.16-.25-3.91-.8a.22.22,0,0,1-.17-.25s.36-1.88.8-3.46,4.72-3.34,4.9-3.41h0c5.24-1.39,11-.6,14.31,2,2.76,2.15,2.81,3.55,2.86,5.16,0,.29,0,.59.05.91a30.31,30.31,0,0,0,.7,3.45,37.84,37.84,0,0,1,1.24,7.16,10.51,10.51,0,0,1-1,5.41.21.21,0,0,1-.14.1A41.06,41.06,0,0,1,165.92,76.79Zm-8.29-1.37c.68.12,2.76.48,6,.83a36.11,36.11,0,0,0,8.93-.51,10.73,10.73,0,0,0,.9-5.1,38.38,38.38,0,0,0-1.23-7.08,30.77,30.77,0,0,1-.71-3.5c0-.33,0-.63,0-.93-.05-1.58-.1-2.82-2.7-4.84-3.21-2.5-8.81-3.27-13.93-1.91-1.18.46-4.29,1.91-4.63,3.12s-.65,2.7-.75,3.22l3.68.76,3.33.26a.21.21,0,0,1,.15.07.24.24,0,0,1,0,.16,5.66,5.66,0,0,0,.86,2.53,32.3,32.3,0,0,1,1.43,3,.19.19,0,0,1,0,.08c0,.22-.27,5.24-.53,6.74A24.2,24.2,0,0,1,157.63,75.42Z"/><path class="cls-3" d="M147,104.6a5,5,0,0,1-.66,0l.19-1.26c.42.06,1.39.06,1.68-.36s.09-3.72-.32-4.25c-.15-.18-.88-.18-1.4-.06l-.29-1.24c.31-.07,1.92-.4,2.66.47s1.19,4.68.39,5.81A2.67,2.67,0,0,1,147,104.6Z"/><path class="cls-2" d="M147,104.82a5.16,5.16,0,0,1-.7,0,.22.22,0,0,1-.17-.25l.19-1.25a.22.22,0,0,1,.25-.18c.47.07,1.27,0,1.47-.27.35-.5,0-3.54-.32-4a2.36,2.36,0,0,0-1.18,0,.23.23,0,0,1-.26-.16L146,97.44a.22.22,0,0,1,.16-.25c.34-.08,2-.43,2.87.53s1.26,4.85.41,6.08A2.88,2.88,0,0,1,147,104.82Zm-.42-.45.42,0a2.46,2.46,0,0,0,2.08-.84c.75-1.07.25-4.81-.38-5.55s-1.75-.53-2.24-.44l.19.82c.46-.07,1.17-.1,1.4.17.47.62.79,3.87.33,4.52-.32.46-1.18.5-1.67.46Z"/><rect class="cls-3" x="139.43" y="96.25" width="7.59" height="9.89"/><path class="cls-2" d="M147,106.35h-7.59a.21.21,0,0,1-.21-.21V96.25a.21.21,0,0,1,.21-.22H147a.22.22,0,0,1,.22.22v9.89A.22.22,0,0,1,147,106.35Zm-7.38-.43h7.17V96.46h-7.17Z"/><path class="cls-4" d="M166.89,80.7a21.09,21.09,0,0,0-1.59,5c-.09,1.67,1.86,13.07,1.86,13.07s-6.36,1.59-8.13,1.59a20.78,20.78,0,0,1-2.91-.18s-2.39-1.59-3.09-2S151.79,98,150.56,97s-2.21-1.06-2.3-.53-.09.88.79,1.32a8.7,8.7,0,0,1,1.59,1.06s-2.12.45-2.73.53-.8,1-.45,1.42,1,1.06,1,1.06-.09,2.12,1.06,2.56a17.4,17.4,0,0,0,4.32.35s3.36.27,3.89.27,7.24,1.67,12,1.67,6.18.27,6.45-.79S176,89.27,175.11,84.5s-2.92-7.42-4.33-7.59"/><path class="cls-2" d="M173.44,107l-1.36,0h-2.36a60.31,60.31,0,0,1-10.62-1.42c-.69-.14-1.28-.26-1.39-.26-.53,0-3.77-.26-3.9-.27a16.86,16.86,0,0,1-4.39-.36c-1.14-.44-1.2-2.24-1.2-2.68a13.33,13.33,0,0,1-.92-1,1.19,1.19,0,0,1-.14-1.16.92.92,0,0,1,.72-.6c.43-.06,1.62-.3,2.28-.43A8.75,8.75,0,0,0,149,98c-1-.5-1-1-.91-1.54a.55.55,0,0,1,.37-.45c.49-.19,1.36.13,2.27.84a3.86,3.86,0,0,0,1.6.81,2.66,2.66,0,0,1,.85.33c.65.4,2.74,1.8,3.06,2a22.89,22.89,0,0,0,2.83.16,62.43,62.43,0,0,0,7.89-1.53c-.27-1.56-1.91-11.34-1.83-12.92a20.72,20.72,0,0,1,1.61-5.11.21.21,0,0,1,.28-.11.22.22,0,0,1,.11.28,20.74,20.74,0,0,0-1.58,5c-.08,1.63,1.84,12.91,1.86,13a.21.21,0,0,1-.16.24c-.26.07-6.4,1.6-8.18,1.6a20.36,20.36,0,0,1-2.94-.18l-.09,0s-2.39-1.6-3.08-2a2.17,2.17,0,0,0-.74-.28,4.43,4.43,0,0,1-1.76-.88c-.87-.69-1.57-.89-1.85-.78a.13.13,0,0,0-.1.12c-.07.43-.12.7.68,1.09a8.81,8.81,0,0,1,1.63,1.09.23.23,0,0,1,.07.22.19.19,0,0,1-.16.15c-.09,0-2.14.45-2.75.53a.55.55,0,0,0-.39.34.8.8,0,0,0,.08.73c.34.43,1,1,1,1a.23.23,0,0,1,.06.16s-.07,2,.92,2.35a17.56,17.56,0,0,0,4.25.34c.05,0,3.37.26,3.89.26.15,0,.56.09,1.47.27a59.79,59.79,0,0,0,10.54,1.41l2.36,0c2.94,0,3.71,0,3.88-.65.27-1.07-.21-16.75-1.06-21.37-.91-4.88-3-7.28-4.15-7.42a.22.22,0,0,1,.05-.43c1.57.2,3.62,2.93,4.51,7.77s1.34,20.44,1.06,21.55C176.16,106.86,175.42,107,173.44,107Z"/><path class="cls-3" d="M162,100a19.41,19.41,0,0,1-2.94.43,20.78,20.78,0,0,1-2.91-.18s-2.39-1.59-3.09-2S151.79,98,150.56,97s-2.21-1.06-2.3-.53-.09.88.79,1.32a8.7,8.7,0,0,1,1.59,1.06s-2.12.45-2.73.53-.8,1-.45,1.42,1,1.06,1,1.06-.09,2.12,1.06,2.56a17.4,17.4,0,0,0,4.32.35s3.36.27,3.89.27c.28,0,2.27.46,4.8.9A11.14,11.14,0,0,1,162,100Z"/><path class="cls-2" d="M162.51,106.2h0c-1.33-.23-2.51-.47-3.37-.64-.69-.14-1.28-.26-1.39-.26-.53,0-3.77-.26-3.9-.27a16.86,16.86,0,0,1-4.39-.36c-1.14-.44-1.2-2.24-1.2-2.68a13.33,13.33,0,0,1-.92-1,1.19,1.19,0,0,1-.14-1.16.92.92,0,0,1,.72-.6c.43-.06,1.62-.3,2.28-.43A8.75,8.75,0,0,0,149,98c-1-.5-1-1-.91-1.54a.55.55,0,0,1,.37-.45c.49-.19,1.36.13,2.27.84a3.86,3.86,0,0,0,1.6.81,2.66,2.66,0,0,1,.85.33c.65.4,2.74,1.8,3.06,2a22.89,22.89,0,0,0,2.83.16,19,19,0,0,0,2.9-.41.19.19,0,0,1,.19,0,.22.22,0,0,1,.06.19,10.86,10.86,0,0,0,.52,5.89.2.2,0,0,1,0,.21A.19.19,0,0,1,162.51,106.2Zm-8.69-1.6c.05,0,3.37.26,3.89.26.15,0,.56.09,1.47.27s1.82.37,3,.58a11.28,11.28,0,0,1-.45-5.47,17.64,17.64,0,0,1-2.69.37,20.36,20.36,0,0,1-2.94-.18l-.09,0s-2.39-1.6-3.08-2a2.17,2.17,0,0,0-.74-.28,4.43,4.43,0,0,1-1.76-.88c-.87-.69-1.57-.89-1.85-.78a.13.13,0,0,0-.1.11c-.07.44-.12.71.68,1.1a8.81,8.81,0,0,1,1.63,1.09.23.23,0,0,1,.07.22.19.19,0,0,1-.16.15c-.09,0-2.14.45-2.75.53a.55.55,0,0,0-.39.34.8.8,0,0,0,.08.73c.34.43,1,1,1,1a.23.23,0,0,1,.06.16s-.07,2,.92,2.35A17.56,17.56,0,0,0,153.82,104.6Z"/><path class="cls-3" d="M82.49,181.72a23.07,23.07,0,0,1-1.69,5.41c-1.27,2.7-1.36,3.72,1.52,4.14s4.31-.25,4.9-1.78.85-5.15,1-6S86.12,180,82.49,181.72Z"/><path class="cls-2" d="M83.86,191.61a11.43,11.43,0,0,1-1.57-.13c-1.37-.2-2.08-.53-2.38-1.1-.39-.73-.06-1.74.69-3.34a23.11,23.11,0,0,0,1.68-5.36.2.2,0,0,1,.12-.16,4.63,4.63,0,0,1,5,.31c.69.54,1.1,1.24,1,1.7,0,.24-.1.72-.17,1.32a24.26,24.26,0,0,1-.85,4.72C86.89,190.94,85.74,191.61,83.86,191.61Zm-1.18-9.75A23.29,23.29,0,0,1,81,187.22c-.68,1.45-1,2.39-.71,3s.87.7,2.07.88c2.6.39,4.09-.14,4.67-1.64a24.34,24.34,0,0,0,.83-4.62c.07-.61.13-1.1.18-1.35s-.2-.77-.85-1.29A4.21,4.21,0,0,0,82.68,181.86Z"/><path class="cls-3" d="M87.22,188.23c-.59,1.1-1.35,2.45-4.4,2.19a3,3,0,0,1-2.74-1.5c-.39,1.4.11,2,2.24,2.35,2.87.42,4.31-.25,4.9-1.78a11.12,11.12,0,0,0,.51-2.19Z"/><path class="cls-2" d="M83.86,191.61a11.43,11.43,0,0,1-1.57-.13c-1.28-.19-2-.5-2.33-1a2,2,0,0,1-.09-1.61.23.23,0,0,1,.19-.15.21.21,0,0,1,.21.12,2.82,2.82,0,0,0,2.57,1.38c2.94.24,3.64-1,4.19-2.08l.52-.94a.21.21,0,0,1,.39.14,11.53,11.53,0,0,1-.52,2.24C86.89,190.94,85.74,191.61,83.86,191.61Zm-3.68-2.13a1.12,1.12,0,0,0,.14.76c.25.39.9.65,2,.82,2.6.39,4.09-.14,4.67-1.64a5.6,5.6,0,0,0,.25-.85c-.58,1.06-1.49,2.32-4.46,2.07A3.58,3.58,0,0,1,80.18,189.48Zm7-1.25h0Z"/><path class="cls-3" d="M106.42,181a16.74,16.74,0,0,0,4.48,2.88c2.7,1.18,4.65,1.86,4.65,2.45A5.23,5.23,0,0,1,115,188a23.33,23.33,0,0,1-5.75.85c-2.88,0-5.25-.26-7.36-.34s-4.57.17-4.73-1.35a26.85,26.85,0,0,1,.16-4.4S104.73,180.45,106.42,181Z"/><path class="cls-2" d="M109.21,189c-1.89,0-3.58-.11-5.07-.21-.8,0-1.57-.1-2.3-.13l-1,0c-1.84,0-3.75,0-3.92-1.52a26.76,26.76,0,0,1,.17-4.45.2.2,0,0,1,.15-.17c.31-.1,7.52-2.3,9.26-1.78l.08.05a17.2,17.2,0,0,0,4.42,2.84l1.52.65c2.26,1,3.26,1.4,3.26,2a5.11,5.11,0,0,1-.62,1.79.22.22,0,0,1-.12.11A23.89,23.89,0,0,1,109.21,189Zm-11.73-6.14a24.86,24.86,0,0,0-.15,4.21c.12,1.1,1.76,1.12,3.5,1.14.34,0,.69,0,1,0,.74,0,1.5.08,2.31.13,1.48.1,3.17.21,5,.21a23,23,0,0,0,5.6-.82,4.46,4.46,0,0,0,.53-1.51c0-.33-1.53-1-3-1.6l-1.53-.66a16.82,16.82,0,0,1-4.5-2.88C105,180.81,100,182.11,97.48,182.89Z"/><path class="cls-3" d="M115,188a6,6,0,0,0,.29-.62,29.41,29.41,0,0,1-4.18.45c-3,.09-4.15-.33-7.61-.76a28.75,28.75,0,0,0-6.35,0,.2.2,0,0,0,0,.07c.16,1.52,2.62,1.27,4.73,1.35s4.48.34,7.36.34A23.33,23.33,0,0,0,115,188Z"/><path class="cls-2" d="M109.21,189c-1.89,0-3.58-.11-5.07-.21-.8,0-1.57-.1-2.3-.13l-1,0c-1.84,0-3.75,0-3.92-1.52v-.05a.25.25,0,0,1,.19-.26,30.4,30.4,0,0,1,6.39,0c1.09.13,1.94.27,2.69.38a22.74,22.74,0,0,0,4.89.38,29.71,29.71,0,0,0,4.16-.45.23.23,0,0,1,.2.08.2.2,0,0,1,0,.21,5.35,5.35,0,0,1-.31.64.22.22,0,0,1-.12.11A24.45,24.45,0,0,1,109.21,189Zm-11.86-1.79c.24,1,1.82,1,3.48,1,.34,0,.69,0,1,0,.74,0,1.5.08,2.31.13,1.48.1,3.17.21,5,.21a23.06,23.06,0,0,0,5.6-.82l.09-.17a29.36,29.36,0,0,1-3.83.4,23.87,23.87,0,0,1-5-.39c-.75-.11-1.6-.25-2.68-.38A29.51,29.51,0,0,0,97.35,187.24ZM115,188Zm-17.84-.84Z"/><path class="cls-2" d="M106.93,114.65s.43,12.79-.35,24.1-1.83,27.93-1.39,30.28S106,179,106,179l.78,1,.44,1.57s-.44.43-3.13,1.22a34.72,34.72,0,0,1-6.62.95s-.17-2.61-.17-3.3.17-2.26.17-2.26S96,159.72,96.23,156,96,137.27,96,137.27l-.44-5.4s-3.48,14-3.65,15.75-2.61,19.49-2.61,20.54-1,11-1,11a5.09,5.09,0,0,1,.7,1.91,15.42,15.42,0,0,1-.61,3.4,6.34,6.34,0,0,0-2.52-1l-3.57-.26s-.7-5.05-.7-6.09v-5.4s-.35-12.44.26-17.22.26-19.58-.08-25.85-1.22-11.83-.61-13.22a17.49,17.49,0,0,0,1-3.13,96.6,96.6,0,0,0,13.49,1.82c7.22.44,10.88-.87,10.88-.87Z"/><path class="cls-2" d="M88.31,184.64a.19.19,0,0,1-.12,0,6.16,6.16,0,0,0-2.42-.92l-3.57-.26a.2.2,0,0,1-.19-.18c0-.21-.7-5.08-.7-6.12v-5.4c0-.11-.34-12.5.26-17.25s.26-19.54-.09-25.8c-.12-2.15-.3-4.23-.46-6.07-.32-3.65-.55-6.29-.13-7.26a18.2,18.2,0,0,0,1-3.08.19.19,0,0,1,.09-.14.22.22,0,0,1,.16,0,98.31,98.31,0,0,0,13.45,1.82c7.09.43,10.76-.84,10.8-.86a.23.23,0,0,1,.27.13l.52,1.39a.17.17,0,0,1,0,.07c0,.13.43,12.93-.35,24.12C106.08,149,105,166.6,105.4,169c.41,2.24.74,9.06.78,9.88l.74.9a.2.2,0,0,1,0,.08l.43,1.56a.23.23,0,0,1,0,.21s-.55.49-3.22,1.27a36.19,36.19,0,0,1-6.67,1,.23.23,0,0,1-.22-.2c0-.11-.17-2.63-.17-3.32s.17-2.22.17-2.29c-.06-.71-1.47-18.38-1.22-22.09s-.25-18.53-.26-18.68l-.33-4.09c-.85,3.48-3.19,13.06-3.33,14.45-.07.68-.48,3.79-1,7.39-.74,5.57-1.65,12.5-1.65,13.13,0,1-.94,9.94-1,10.91a5.18,5.18,0,0,1,.69,1.94,14.85,14.85,0,0,1-.62,3.48.22.22,0,0,1-.13.14ZM82.4,183l3.4.25a6.12,6.12,0,0,1,2.38.84,13.43,13.43,0,0,0,.53-3,4.75,4.75,0,0,0-.67-1.82.31.31,0,0,1,0-.13c0-.1,1-9.92,1-10.94,0-.66.88-7.31,1.66-13.18.48-3.6.89-6.7,1-7.38.18-1.73,3.52-15.2,3.66-15.78a.23.23,0,0,1,.23-.16.21.21,0,0,1,.19.2l.44,5.39c0,.16.52,15,.26,18.74s1.2,21.88,1.22,22.07-.18,1.6-.18,2.28.12,2.45.16,3.08a33.32,33.32,0,0,0,6.36-.94,12.71,12.71,0,0,0,3-1.1l-.39-1.38-.75-.92a.21.21,0,0,1,0-.12c0-.08-.35-7.59-.78-9.89s.52-17.78,1.39-30.34c.75-10.88.37-23.29.35-24l-.44-1.17c-.86.26-4.43,1.2-10.76.82a99.11,99.11,0,0,1-13.31-1.79,18.36,18.36,0,0,1-.93,3c-.38.87-.14,3.6.16,7,.17,1.84.35,3.93.47,6.08.35,6.28.69,21.1.08,25.88s-.26,17.07-.26,17.2v5.4C81.73,178,82.28,182.12,82.4,183Z"/><path class="cls-3" d="M95.53,132.09l-.07,0a.2.2,0,0,1-.13-.27l1.92-5.62a.22.22,0,0,1,.27-.14.21.21,0,0,1,.13.27l-1.92,5.63A.21.21,0,0,1,95.53,132.09Z"/><path class="cls-3" d="M95.38,117a22.56,22.56,0,0,0,4.91-.33,16.12,16.12,0,0,0,4.75-1.23s-2.21-42.67-2.21-43.08a2.58,2.58,0,0,0-2.3-2.74c-2.29-.41-5.32.57-6,3.11S95.38,117,95.38,117Z"/><path class="cls-2" d="M96.14,117.21c-.5,0-.76,0-.79,0a.22.22,0,0,1-.19-.21c-.06-1.7-1.46-41.78-.81-44.32s3.75-3.71,6.22-3.27a2.76,2.76,0,0,1,2.47,3c0,.49,2.19,42.64,2.21,43.07a.21.21,0,0,1-.11.2,16.33,16.33,0,0,1-4.82,1.25A29.08,29.08,0,0,1,96.14,117.21Zm-.56-.44a25.55,25.55,0,0,0,4.68-.34,18,18,0,0,0,4.56-1.15c-.16-3.15-2.2-42.55-2.2-42.95a2.35,2.35,0,0,0-2.12-2.53c-2.29-.41-5.13.6-5.74,3S95.47,113.69,95.58,116.77Z"/><path class="cls-3" d="M105,119.18s-.25,2.54,0,2.7,2.62-.74,4.17-1.39,1-.4,1.55-1.88.34-1.48-1.22-1.07S105,119.18,105,119.18Z"/><path class="cls-2" d="M105,122.1a.46.46,0,0,1-.2,0c-.1-.07-.35-.24-.09-2.9a.19.19,0,0,1,.13-.18c.12,0,3-1.24,4.53-1.65.94-.24,1.37-.34,1.61-.09s.14.62-.14,1.44c-.12.35-.18.61-.23.8-.16.67-.25.7-1.29,1.14l-.14.06A18.61,18.61,0,0,1,105,122.1Zm.07-.36h0Zm0-2.42a11.83,11.83,0,0,0-.06,2.38,24.18,24.18,0,0,0,4-1.41l.15-.06c.93-.39.93-.39,1-.85a8.21,8.21,0,0,1,.24-.84,3.12,3.12,0,0,0,.23-1,3.89,3.89,0,0,0-1.19.21C108.17,118.1,105.72,119.09,105.16,119.32Z"/><path class="cls-4" d="M101.71,77.43l1.83,24.7.95,17.81s.31.57.82.44,4.86-1.14,5.37-1.77a5.91,5.91,0,0,0,.69-2.53c0-.25-1.32-15.79-1.32-15.79l3.41-4.54s-2.59-14.21-3.22-17.06-.64-4.35-1.65-5.62-6.82-4.1-6.82-4.1Z"/><path class="cls-2" d="M105.16,120.61a1.12,1.12,0,0,1-.86-.57.29.29,0,0,1,0-.09l-1-17.81L101.5,77.45v0l.06-8.46a.21.21,0,0,1,.31-.19c.23.11,5.86,2.88,6.89,4.16a7.77,7.77,0,0,1,1.28,3.7c.11.59.24,1.25.4,2,.63,2.81,3.2,16.92,3.23,17.06a.22.22,0,0,1,0,.16l-3.37,4.49c.17,1.93,1.32,15.47,1.32,15.72a6,6,0,0,1-.74,2.66c-.22.28-1,.76-5.29,1.8l-.19,0Zm-.46-.74c.07.1.28.37.56.3l.2,0c4.18-1,4.93-1.49,5.05-1.65a5.8,5.8,0,0,0,.65-2.4c0-.27-.87-10.43-1.32-15.77a.18.18,0,0,1,0-.14l3.35-4.48c-.22-1.22-2.6-14.26-3.2-17-.17-.76-.29-1.43-.4-2a7.5,7.5,0,0,0-1.2-3.51c-.84-1-5.25-3.3-6.45-3.9l-.06,8.11,1.83,24.69Z"/><path class="cls-3" d="M101,67.45s2.34,2.46,2.28,3.73a54.18,54.18,0,0,1-1.58,6.25l-.95-7.33S100.26,68.27,101,67.45Z"/><path class="cls-2" d="M101.71,77.64h0a.2.2,0,0,1-.19-.18l-1-7.33s-.52-1.93.31-2.82a.21.21,0,0,1,.15-.07.2.2,0,0,1,.16.07c.1.1,2.4,2.54,2.33,3.88a53,53,0,0,1-1.59,6.3A.21.21,0,0,1,101.71,77.64ZM101,67.78a3.66,3.66,0,0,0-.06,2.27l.82,6.36a41.77,41.77,0,0,0,1.29-5.24C103.12,70.28,101.75,68.57,101,67.78Z"/><path class="cls-3" d="M93.32,62.19l-.2,5.17s1.7,4.23,2.78,5.49,3,3.41,3,3.41l2.15-4.48.06-2.47,1-2.33A10.45,10.45,0,0,1,98,65c-2-1.58-4.1-3.47-4.29-3.54S93.32,62.19,93.32,62.19Z"/><path class="cls-2" d="M98.93,76.47a.2.2,0,0,1-.16-.07s-2-2.16-3-3.41S93,67.61,92.92,67.44a.28.28,0,0,1,0-.09l.2-5.17v0c.08-.32.21-.72.41-.83a.27.27,0,0,1,.23,0,8.21,8.21,0,0,1,1.32,1.06c.82.69,1.94,1.65,3,2.51a10.29,10.29,0,0,0,4,1.92.19.19,0,0,1,.14.11.19.19,0,0,1,0,.18l-.93,2.3-.06,2.42a.29.29,0,0,1,0,.09l-2.15,4.48a.2.2,0,0,1-.16.12Zm-5.6-9.15a30.58,30.58,0,0,0,2.73,5.39c.85,1,2.28,2.59,2.82,3.18l2-4.16.06-2.42a.22.22,0,0,1,0-.08l.86-2.1a10.72,10.72,0,0,1-4-1.94c-1.11-.87-2.23-1.83-3.06-2.53-.46-.4-.9-.77-1.1-.92a2.43,2.43,0,0,0-.16.48Z"/><path class="cls-2" d="M94.59,64s.54,2,4,4.38a10.78,10.78,0,0,0,2.53,1.31v-.4l1-2.33A10.45,10.45,0,0,1,98,65c-.51-.4-1-.82-1.51-1.23l-.67-.2Z"/><path class="cls-2" d="M101.13,69.92h-.07a10.48,10.48,0,0,1-2.58-1.34c-3.49-2.38-4.07-4.41-4.1-4.49a.22.22,0,0,1,.14-.26l1.21-.43h.14l.66.2.07,0c.56.47,1.06.87,1.51,1.22a10.29,10.29,0,0,0,4,1.92.19.19,0,0,1,.14.11.19.19,0,0,1,0,.18l-.93,2.3v.35a.2.2,0,0,1-.09.17A.25.25,0,0,1,101.13,69.92Zm-6.27-5.77a10.28,10.28,0,0,0,3.86,4.07,10.73,10.73,0,0,0,2.21,1.19v-.1a.22.22,0,0,1,0-.08l.86-2.1a10.72,10.72,0,0,1-4-1.94c-.45-.35-.93-.75-1.49-1.21l-.55-.16Z"/><path class="cls-3" d="M107.32,51.14s-.23,5.3-.38,7.12a13,13,0,0,1-1.06,5.07c-.83,1.66-1.74,4.23-3.18,4.46a8.16,8.16,0,0,1-5.3-1c-1.74-1.06-4-4-4.08-4.62a4.57,4.57,0,0,0-.23-1,71.43,71.43,0,0,1-.91-7.87c0-2.42.23-4.47,4.09-5.83S107.32,51.14,107.32,51.14Z"/><path class="cls-2" d="M101.5,68.09A8.26,8.26,0,0,1,97.29,67c-1.77-1.08-4.1-4.09-4.18-4.77a3.87,3.87,0,0,0-.22-.93s0,0,0,0a69.62,69.62,0,0,1-.91-7.9c0-2.57.31-4.65,4.23-6s10.94,3.45,11.24,3.66a.21.21,0,0,1,.09.18c0,.06-.23,5.32-.38,7.12l0,.39a12.21,12.21,0,0,1-1.05,4.76c-.15.29-.29.61-.45.94C104.88,66,104,67.8,102.73,68A7.81,7.81,0,0,1,101.5,68.09Zm-8.2-6.94a5.49,5.49,0,0,1,.23,1,13.31,13.31,0,0,0,4,4.47,8,8,0,0,0,5.16,1c1.07-.17,1.87-1.88,2.57-3.4.15-.33.3-.65.45-1a11.9,11.9,0,0,0,1-4.61l0-.38c.13-1.64.33-6.2.37-7-.86-.58-7.29-4.77-10.76-3.54-3.66,1.29-4,3.15-4,5.63A68.09,68.09,0,0,0,93.3,61.15Z"/><path class="cls-2" d="M94.68,51.14s2.35.61,1.13,1.67-2.34,2.27-2.34,2.27a6.79,6.79,0,0,1,.23,2.12.84.84,0,0,1-1.44.45c-.53-.6-1-1.06-1-1.06s-1.43-4.54-1.74-5.83-.6-2.64,1.29-3.93a18.61,18.61,0,0,1,2.27-1.44,12.77,12.77,0,0,1,7.57-1.74A9.25,9.25,0,0,1,107,46.53s3.48-.91,3.26,1.59-2.73,4.16-4.09,4-8.55-3.79-10-3.18S93.7,50.92,94.68,51.14Z"/><path class="cls-2" d="M92.83,58.15a.94.94,0,0,1-.73-.36c-.52-.59-1-1-1-1a.22.22,0,0,1-.05-.08c-.06-.19-1.44-4.57-1.74-5.85S88.67,48,90.7,46.65A20.21,20.21,0,0,1,93,45.21a12.88,12.88,0,0,1,7.69-1.77,9.61,9.61,0,0,1,6.41,2.85c.47-.1,2-.37,2.87.34a1.67,1.67,0,0,1,.52,1.51,4.84,4.84,0,0,1-1.8,3.23,3.72,3.72,0,0,1-2.52,1,21,21,0,0,1-3.36-1.21c-2.4-1-5.7-2.34-6.53-2-1.1.47-1.79,1.29-1.76,1.63,0,0,0,.12.22.17h0c.15,0,1.45.39,1.62,1.11A.92.92,0,0,1,96,53c-1,.88-2,1.88-2.25,2.17a6.14,6.14,0,0,1,.2,2.11,1.21,1.21,0,0,1-.85.87A.83.83,0,0,1,92.83,58.15Zm-1.37-1.67c.12.12.52.53,1,1a.51.51,0,0,0,.53.2.8.8,0,0,0,.54-.56,6.47,6.47,0,0,0-.23-2,.24.24,0,0,1,0-.2s1.16-1.23,2.36-2.28c.22-.19.31-.35.27-.5-.08-.36-.85-.68-1.31-.8a.6.6,0,0,1-.54-.55c-.06-.62.87-1.56,2-2,.92-.38,3.53.62,6.86,2a23.44,23.44,0,0,0,3.23,1.19,3.38,3.38,0,0,0,2.21-.88,4.38,4.38,0,0,0,1.65-2.94,1.29,1.29,0,0,0-.37-1.15c-.8-.68-2.6-.22-2.62-.22a.22.22,0,0,1-.22-.07,9.16,9.16,0,0,0-6.21-2.8,12.71,12.71,0,0,0-7.43,1.71l0,0A18.17,18.17,0,0,0,90.94,47c-1.79,1.21-1.49,2.48-1.2,3.71S91.3,56,91.46,56.48Z"/><path class="cls-2" d="M102.62,61.19a.21.21,0,0,1,0-.42,4.06,4.06,0,0,0,1.4-.47,16.12,16.12,0,0,0-.81-3.49.21.21,0,0,1,.14-.27.21.21,0,0,1,.26.14c.73,2.34,1,3.66.71,3.92a4.27,4.27,0,0,1-1.63.59Z"/><path class="cls-2" d="M102.39,62.84a5,5,0,0,1-2.68-.7.2.2,0,0,1-.06-.29.21.21,0,0,1,.29-.07,5.76,5.76,0,0,0,4.07.43.21.21,0,0,1,.11.41A6.52,6.52,0,0,1,102.39,62.84Z"/><path class="cls-2" d="M98.51,59.06a4.41,4.41,0,0,1-2.36-.55c-1.35-.88-1.25-3.32-1.15-3.92s.58-.52,1.57-.5l1,0c1.66,0,4.85.3,4.88.3a.21.21,0,0,1,.19.23s-.09,1-.16,1.53c-.1.7-.45,2.35-1.53,2.6A11.85,11.85,0,0,1,98.51,59.06ZM96,54.51c-.44,0-.6,0-.62.15-.09.51-.18,2.75,1,3.49s3,.54,4.46.2c.84-.19,1.13-1.77,1.2-2.24s.11-1,.14-1.29c-.74-.07-3.24-.29-4.63-.29H96Z"/><path class="cls-2" d="M106.69,59.07a7.64,7.64,0,0,1-2.2-.38c-.83-.28-1.12-1.73-1.22-2.57-.06-.51-.13-1.43-.13-1.47a.19.19,0,0,1,0-.16.21.21,0,0,1,.14-.07c.11,0,2.57-.16,3.88-.09l.78,0c.76,0,1.22,0,1.29.55s.15,2.93-.93,3.73A2.84,2.84,0,0,1,106.69,59.07Zm-3.11-4.24c0,.31.07.89.11,1.24.11,1,.42,2,.94,2.21,1.15.39,2.67.59,3.47,0s.85-2.65.76-3.32c0-.14-.14-.17-.88-.18l-.79,0C106.12,54.7,104.21,54.79,103.58,54.83Z"/><path class="cls-2" d="M91.27,56.8a.23.23,0,0,1-.19-.11.22.22,0,0,1,.1-.29l3.93-2a.22.22,0,0,1,.29.1.21.21,0,0,1-.1.28l-3.93,2A.16.16,0,0,1,91.27,56.8Z"/><path class="cls-2" d="M103.43,54.84h-1a.21.21,0,0,1-.21-.22.21.21,0,0,1,.21-.21h1a.21.21,0,0,1,.21.21A.21.21,0,0,1,103.43,54.84Z"/><path class="cls-3" d="M93.47,58.48s-1.74-2.19-3-1.89-.15,3.48.83,4a2.19,2.19,0,0,0,2-.15"/><path class="cls-2" d="M92.17,61a1.9,1.9,0,0,1-.92-.23,4.4,4.4,0,0,1-1.47-3.49,1,1,0,0,1,.69-.91c1.3-.33,3,1.73,3.16,2a.21.21,0,0,1,0,.3.22.22,0,0,1-.3,0c-.46-.59-1.85-2-2.73-1.82-.08,0-.31.07-.37.55a4,4,0,0,0,1.25,3.07,2,2,0,0,0,1.83-.15.21.21,0,0,1,.23.36A2.78,2.78,0,0,1,92.17,61Z"/><path class="cls-2" d="M99.56,56.65c0,.44-.18.79-.41.79s-.41-.35-.41-.79.18-.79.41-.79S99.56,56.21,99.56,56.65Z"/><ellipse class="cls-2" cx="105.21" cy="56.65" rx="0.41" ry="0.79"/><path class="cls-2" d="M101.2,54.18h-.06A6.92,6.92,0,0,0,97.41,54a.2.2,0,0,1-.26-.14.2.2,0,0,1,.14-.26,7.24,7.24,0,0,1,4,.12.22.22,0,0,1-.07.42Z"/><path class="cls-2" d="M104.3,54.24a.23.23,0,0,1-.19-.11.21.21,0,0,1,.08-.28,3.86,3.86,0,0,1,2.48-.28.2.2,0,0,1,.17.24.21.21,0,0,1-.24.18,3.62,3.62,0,0,0-2.2.22A.19.19,0,0,1,104.3,54.24Z"/><path class="cls-3" d="M97.41,121l.09,1.56a22.38,22.38,0,0,1-8.6-.41c-5-1.15-9.5-4.26-10-4.92s.41-3.44.41-3.44-.65-.16.49.25,5.66,4.34,11.8,5.4S97.49,120.08,97.41,121Z"/><path class="cls-2" d="M94.47,123a24.85,24.85,0,0,1-5.61-.65c-4.88-1.12-9.53-4.21-10.12-5s.07-2.62.31-3.4a.19.19,0,0,1-.12-.26c.07-.21.29-.15.44-.11a.21.21,0,0,1,.14.1h0l.38.14a9.59,9.59,0,0,1,1.53.91,27.48,27.48,0,0,0,10.22,4.48c1.78.31,3,.49,3.88.62,2,.31,2.19.33,2.12,1v.1l.09,1.54a.22.22,0,0,1-.17.22A16.22,16.22,0,0,1,94.47,123Zm-15-8.87c-.33,1.1-.63,2.61-.36,3A24.63,24.63,0,0,0,89,121.92a22.76,22.76,0,0,0,8.33.44L97.2,121v-.15c0-.32,0-.32-1.75-.59-.89-.13-2.11-.31-3.89-.62a27.89,27.89,0,0,1-10.38-4.55,9.63,9.63,0,0,0-1.45-.86Z"/><path class="cls-4" d="M92.74,65.78s3.1,4.29,4.55,6.25a6.13,6.13,0,0,1,.88,5c-.19.63-.44,1.71-.44,1.71v39.91s.57,2.15-.32,2.34a26.89,26.89,0,0,1-12.06-2.59c-4.74-2.46-6.38-4.17-6.38-4.17l1.2-9.73.51-5.43-7.83,0S77.46,77,78,75.76s13-7.52,13-7.52S91.1,66.19,92.74,65.78Z"/><path class="cls-2" d="M96.65,121.24a28.17,28.17,0,0,1-11.4-2.66c-4.71-2.45-6.36-4.14-6.43-4.21a.19.19,0,0,1-.06-.17l1.2-9.73.48-5.19-7.59,0h0a.21.21,0,0,1-.17-.07.23.23,0,0,1,0-.18c.19-.91,4.62-22.18,5.13-23.39S89,69,90.71,68.1a3,3,0,0,1,2-2.53.21.21,0,0,1,.22.08S96,70,97.46,71.9a6.41,6.41,0,0,1,.92,5.18c-.17.57-.4,1.51-.44,1.67v39.87a3.64,3.64,0,0,1,0,2.23.74.74,0,0,1-.47.34A4.77,4.77,0,0,1,96.65,121.24Zm-17.45-7.1a28.56,28.56,0,0,0,6.25,4.06,26.25,26.25,0,0,0,11.92,2.57.29.29,0,0,0,.2-.15,3.38,3.38,0,0,0,0-1.92.13.13,0,0,1,0-.06v-40c0-.05.26-1.09.45-1.72a5.9,5.9,0,0,0-.85-4.8c-1.3-1.76-4-5.42-4.46-6.14-1.36.45-1.54,2.22-1.54,2.24a.21.21,0,0,1-.12.17C86.22,70.86,78.5,75,78.16,75.84s-3.44,15.33-5,23l7.57,0h0a.21.21,0,0,1,.15.07.23.23,0,0,1,.06.16l-.51,5.43Zm11.71-45.9Z"/><path class="cls-2" d="M108.41,83.9a.21.21,0,0,1-.21-.19l-.1-1a.2.2,0,0,1,.19-.23.21.21,0,0,1,.23.19l.1,1a.21.21,0,0,1-.19.23Z"/><path class="cls-2" d="M110.05,100.51a.22.22,0,0,1-.21-.19l-1.49-15a.21.21,0,0,1,.19-.23.22.22,0,0,1,.24.19l1.48,15a.23.23,0,0,1-.19.24Z"/><line class="cls-3" x1="80.68" y1="99.06" x2="82.15" y2="84.96"/><path class="cls-2" d="M80.68,99.27h0a.2.2,0,0,1-.18-.23l1.47-14.1a.2.2,0,0,1,.23-.19.21.21,0,0,1,.19.23l-1.47,14.1A.21.21,0,0,1,80.68,99.27Z"/><path class="cls-3" d="M78.56,96.14a8.93,8.93,0,0,0-3.33,0c-1.91.34-2.81,3.88-2.92,5.12s.67,3.38,2.14,4a3.35,3.35,0,0,0,3.71-.34c1.52-.9,1.35-5.06,1.3-6.47A3.88,3.88,0,0,0,78.56,96.14Z"/><path class="cls-2" d="M76.07,105.88a4.43,4.43,0,0,1-1.71-.42c-1.58-.67-2.38-2.91-2.26-4.22.08-1,.91-4.92,3.1-5.31a9.21,9.21,0,0,1,3.4,0,.2.2,0,0,1,.11.06,4,4,0,0,1,1,2.45c.1,2.45.06,5.8-1.4,6.66A4.28,4.28,0,0,1,76.07,105.88Zm.87-9.68a9.63,9.63,0,0,0-1.67.15c-1.77.31-2.65,3.77-2.75,4.93s.62,3.2,2,3.78a3.14,3.14,0,0,0,3.52-.32c.94-.55,1.34-2.67,1.19-6.28a3.73,3.73,0,0,0-.8-2.13A8.57,8.57,0,0,0,76.94,96.2Z"/><path class="cls-3" d="M82.29,92.06s.57-3.77.62-5A18.77,18.77,0,0,1,83,83.79c.23-.51,1-.06,1.3.28a6.72,6.72,0,0,1,.45,2.76,7.16,7.16,0,0,0,0,1.24,60.48,60.48,0,0,0,4.84-3.89c.51-.67,1.52-1.18,1.86-.73s-.06.85-.45,1.24-2.42,2.7-2.76,3a1.58,1.58,0,0,0-.45.74,2,2,0,0,0,.84-.12c.51-.17,4-1.91,4.34-1.91a.63.63,0,0,1,.51.79,39.94,39.94,0,0,1-4.56,3c-.17.06-.34.45-.06.51s3.77-.51,4.22-.28a.53.53,0,0,1,.11.9c-.22.17-4.39.9-4.39.9l1.92.39c.56.11,1.52.11,1.52.45s-.23.51-.62.51H88.71a10,10,0,0,0-2.87,1c-1,.45-1.46.61-1.46.61s-2.76,5-3.78,6.82a4.84,4.84,0,0,1-4,2.59c-1.47.11-3-2.54-2.71-3.83s2.65-4.17,4.73-5.24A9.27,9.27,0,0,0,82.29,92.06Z"/><path class="cls-2" d="M76.52,104.72a2.34,2.34,0,0,1-1.69-1,4.16,4.16,0,0,1-1.13-3.14c.3-1.39,2.75-4.3,4.84-5.38a8.26,8.26,0,0,0,3.23-2.85l.32-.42c.07-.47.56-3.8.61-4.94,0-.45,0-.93,0-1.41a5.76,5.76,0,0,1,.13-1.93.56.56,0,0,1,.45-.34,1.55,1.55,0,0,1,1.2.58,6.58,6.58,0,0,1,.5,2.91,5.79,5.79,0,0,0,0,.81,50.59,50.59,0,0,0,4.48-3.6,2.37,2.37,0,0,1,1.64-1h0a.69.69,0,0,1,.56.25c.45.6-.06,1.11-.47,1.52-.16.16-.59.64-1,1.14-.89,1-1.53,1.69-1.72,1.86a1.11,1.11,0,0,0-.28.35,2.21,2.21,0,0,0,.47-.1c.19-.06.88-.39,1.61-.73A15.28,15.28,0,0,1,93,86.17a.71.71,0,0,1,.57.32.87.87,0,0,1,.14.74c-.17.49-4.66,3.11-4.7,3.12s0,.06,0,.1h0c.16,0,.69-.06,1.17-.12a9.44,9.44,0,0,1,3.08-.14.7.7,0,0,1,.42.59.79.79,0,0,1-.28.67,26.22,26.22,0,0,1-3.4.74l.84.17.48.07c.62.08,1.21.16,1.21.59s-.31.72-.83.72H88.71a11,11,0,0,0-2.79.94c-.78.35-1.23.53-1.4.6-.33.6-2.79,5.07-3.73,6.74a5.08,5.08,0,0,1-4.17,2.7Zm6.86-21h0c-.06,0-.09,0-.12.1a6.3,6.3,0,0,0-.1,1.74c0,.48,0,1,0,1.44-.05,1.24-.59,4.88-.62,5a.15.15,0,0,1,0,.09l-.35.46a8.75,8.75,0,0,1-3.38,3c-2.11,1.08-4.37,3.94-4.62,5.09a3.85,3.85,0,0,0,1,2.77,1.9,1.9,0,0,0,1.44.8,4.62,4.62,0,0,0,3.83-2.48c1-1.78,3.74-6.76,3.77-6.81a.17.17,0,0,1,.11-.09s.46-.18,1.45-.62a9.17,9.17,0,0,1,3-1h2.93c.4,0,.4-.2.4-.3a2.94,2.94,0,0,0-.83-.16l-.51-.08-1.92-.39a.23.23,0,0,1-.17-.22.21.21,0,0,1,.18-.2c1.92-.34,4.09-.76,4.31-.87a.36.36,0,0,0,.1-.28.31.31,0,0,0-.19-.25,14.7,14.7,0,0,0-2.84.18,8,8,0,0,1-1.33.12.38.38,0,0,1-.32-.36.59.59,0,0,1,.35-.56,43.7,43.7,0,0,0,4.44-2.88.45.45,0,0,0-.09-.33.32.32,0,0,0-.23-.15c-.21,0-1.66.71-2.61,1.16-.78.36-1.45.67-1.66.74a1.92,1.92,0,0,1-1,.12.18.18,0,0,1-.14-.09.25.25,0,0,1,0-.17,1.87,1.87,0,0,1,.52-.84c.19-.16,1-1.07,1.68-1.81.49-.53.91-1,1.07-1.16.46-.46.63-.69.43-1a.26.26,0,0,0-.22-.09,2,2,0,0,0-1.3.82,60.12,60.12,0,0,1-4.88,3.93.25.25,0,0,1-.22,0,.2.2,0,0,1-.12-.17,7.71,7.71,0,0,1,0-1.28,6.78,6.78,0,0,0-.4-2.6A1.3,1.3,0,0,0,83.38,83.77Zm-1.09,8.29h0Z"/><path class="cls-3" d="M115.85,96.79s-1.61-2.09-2.73-2.17S110,98.16,110,99.69s.08,4.43.72,4.83,1.85-.32,2.58-1.29S115.85,96.79,115.85,96.79Z"/><path class="cls-2" d="M111.13,104.85a1,1,0,0,1-.54-.15c-.21-.13-.83-.52-.83-5a8.88,8.88,0,0,1,2.36-4.79,1.42,1.42,0,0,1,1-.49c1.21.08,2.82,2.16,2.89,2.25a.21.21,0,0,1,0,.2c-.07.23-1.87,5.52-2.6,6.5A3.44,3.44,0,0,1,111.13,104.85Zm2-10a1.13,1.13,0,0,0-.67.38,8.44,8.44,0,0,0-2.22,4.48c0,3.14.32,4.46.62,4.65.49.3,1.58-.28,2.3-1.23a47.12,47.12,0,0,0,2.5-6.28c-.48-.61-1.71-1.94-2.51-2Z"/><path class="cls-3" d="M134.31,86.86s.09-1.72-.24-1.62-.55.32-.46,1.11a11.41,11.41,0,0,1-.28,2.51Z"/><path class="cls-2" d="M133.33,89.08h-.07a.23.23,0,0,1-.14-.25,10.61,10.61,0,0,0,.28-2.44c-.09-.77.1-1.2.62-1.35a.25.25,0,0,1,.26.06c.27.2.28,1.08.24,1.79a.31.31,0,0,1,0,.08l-1,2A.22.22,0,0,1,133.33,89.08Zm.71-3.61c-.14.07-.29.23-.22.86a5.59,5.59,0,0,1,0,1.13l.32-.65A6.06,6.06,0,0,0,134,85.47Zm.27,1.39Z"/><path class="cls-3" d="M114.21,96.22s-2.56,4.65-2.47,5.91,1.16,1.67,3.12,1.11,15.59-8,16.24-8.61,2.88-5.25,3.63-6.09.65-2.93.65-3.3-.65-.24-.65.23a14.47,14.47,0,0,1-1.82,3.58c-.23.09-2.33,1.12-2.33,1.12s1.07-2.1,1.45-2.79.69-1.49-.1-1.21-2,2.42-2.51,3.58-1.25,2.7-1.12,3.44l.14.75A57.91,57.91,0,0,1,121,95.15C118.16,95.29,114.35,95.75,114.21,96.22Z"/><path class="cls-2" d="M113.38,103.7a2.14,2.14,0,0,1-1.22-.32,1.58,1.58,0,0,1-.63-1.24c-.1-1.28,2.21-5.52,2.49-6,.44-.85,6.86-1.18,6.92-1.19a54.45,54.45,0,0,0,7.26-1.16l-.1-.54a6.23,6.23,0,0,1,.79-2.76c.12-.28.23-.55.33-.8.47-1.16,1.75-3.39,2.64-3.7.12,0,.47-.17.67.06s.11.64-.32,1.45l-1.15,2.22,1.77-.85a16.91,16.91,0,0,0,1.68-3.38.63.63,0,0,1,.94-.56.44.44,0,0,1,.14.33v.11c0,.62,0,2.5-.71,3.33a27.85,27.85,0,0,0-1.76,3,19.85,19.85,0,0,1-1.88,3.13c-.62.58-14.22,8-16.32,8.66A6,6,0,0,1,113.38,103.7Zm18.83-17.39s-.08,0-.21.06c-.67.23-1.89,2.23-2.38,3.46-.1.25-.22.53-.34.81a6.34,6.34,0,0,0-.77,2.51l.14.75a.21.21,0,0,1-.16.24A58.5,58.5,0,0,1,121,95.36c-3,.15-6.28.62-6.56.94,0,0,0,0,0,0-.7,1.28-2.51,4.81-2.44,5.79a1.17,1.17,0,0,0,.46.92,3,3,0,0,0,2.39,0c1.81-.52,15.45-7.91,16.15-8.56a22.81,22.81,0,0,0,1.8-3,23.65,23.65,0,0,1,1.82-3.06,4.89,4.89,0,0,0,.6-3.05v-.11s0,0-.12,0a.24.24,0,0,0-.1.2A12.55,12.55,0,0,1,133,89.25c-.18.07-1.73.82-2.31,1.11a.23.23,0,0,1-.25,0,.21.21,0,0,1,0-.25s1.07-2.1,1.44-2.79S132.22,86.36,132.21,86.31Zm-18,9.91Z"/><path class="cls-3" d="M133.05,91.28s2.47-2.83,2.79-3.35a3.16,3.16,0,0,0,.65-1.9c-.09-.61-.51.14-.83.65a10.22,10.22,0,0,0-1.35,1.81,2.08,2.08,0,0,1-1.26,1.07Z"/><path class="cls-2" d="M133.05,91.5l-.07,0a.2.2,0,0,1-.14-.2V89.56a.2.2,0,0,1,.16-.2,1.86,1.86,0,0,0,1.11-1,5,5,0,0,1,.92-1.3,4.2,4.2,0,0,0,.45-.55l.09-.14c.35-.57.57-.88.85-.83s.25.17.28.4a3.26,3.26,0,0,1-.68,2.06c-.33.52-2.71,3.26-2.81,3.37A.21.21,0,0,1,133.05,91.5Zm.21-1.79v1c.89-1,2.19-2.55,2.4-2.89a3,3,0,0,0,.63-1.71,6.18,6.18,0,0,0-.36.53l-.09.15a5.36,5.36,0,0,1-.5.61,4.51,4.51,0,0,0-.84,1.18A2.2,2.2,0,0,1,133.26,89.71Z"/><path class="cls-3" d="M132.17,93s1.39-2.89,1.76-3.68a9.2,9.2,0,0,0,.52-3c0-.84-.65-.28-.75.42s-.65,2.79-.65,2.79-3,2.14-3,2.7.09,1.3.09,1.3"/><path class="cls-2" d="M130.12,93.78a.21.21,0,0,1-.21-.19,13.31,13.31,0,0,1-.1-1.33c0-.59,2.09-2.14,3.06-2.83.09-.37.54-2.08.62-2.69s.44-1,.82-1c.11,0,.38.1.35.64a9.26,9.26,0,0,1-.53,3.06l-1.77,3.68-.38-.19s1.39-2.88,1.76-3.67a9.13,9.13,0,0,0,.49-2.9.47.47,0,0,0,0-.17,1,1,0,0,0-.32.63c-.09.7-.63,2.73-.65,2.82a.27.27,0,0,1-.09.12,12.53,12.53,0,0,0-2.93,2.53c0,.53.09,1.26.09,1.27a.21.21,0,0,1-.18.23Z"/><rect class="cls-2" x="32.8" y="136.8" width="4.53" height="8.04"/><path class="cls-2" d="M37.33,145.05H32.8a.21.21,0,0,1-.21-.21v-8a.21.21,0,0,1,.21-.21h4.53a.21.21,0,0,1,.21.21v8A.21.21,0,0,1,37.33,145.05ZM33,144.62h4.11V137H33Z"/><rect class="cls-6" x="23.44" y="104.74" width="22.56" height="34.51" rx="6.24"/><path class="cls-2" d="M39.36,139.46H30.07a6.85,6.85,0,0,1-6.84-6.85V111.37a6.85,6.85,0,0,1,6.84-6.85h9.29a6.85,6.85,0,0,1,6.85,6.85v21.24A6.85,6.85,0,0,1,39.36,139.46ZM30.07,105a6.43,6.43,0,0,0-6.42,6.42v21.24A6.43,6.43,0,0,0,30.07,139h9.29a6.43,6.43,0,0,0,6.42-6.42V111.37A6.43,6.43,0,0,0,39.36,105Z"/><path class="cls-2" d="M28,187A1.92,1.92,0,1,0,26,188.87,1.92,1.92,0,0,0,28,187Z"/><path class="cls-2" d="M26,189.08A2.13,2.13,0,1,1,28.17,187,2.13,2.13,0,0,1,26,189.08Zm0-3.83a1.71,1.71,0,1,0,1.7,1.71A1.71,1.71,0,0,0,26,185.25Z"/><path class="cls-2" d="M65.38,187a1.92,1.92,0,1,0-1.92,1.91A1.92,1.92,0,0,0,65.38,187Z"/><path class="cls-2" d="M63.46,189.08A2.13,2.13,0,1,1,65.59,187,2.12,2.12,0,0,1,63.46,189.08Zm0-3.83A1.71,1.71,0,1,0,65.17,187,1.71,1.71,0,0,0,63.46,185.25Z"/><path class="cls-2" d="M45.68,187c0-1.06-.4-1.92-.89-1.92s-.89.86-.89,1.92.4,1.91.89,1.91S45.68,188,45.68,187Z"/><path class="cls-2" d="M44.79,189.08c-.63,0-1.1-.91-1.1-2.12s.47-2.13,1.1-2.13,1.1.91,1.1,2.13S45.42,189.08,44.79,189.08Zm0-3.83c-.32,0-.68.73-.68,1.71s.36,1.7.68,1.7.68-.73.68-1.7S45.11,185.25,44.79,185.25Z"/><polygon class="cls-2" points="46.53 176.56 46.53 149.1 42.77 149.1 42.77 176.67 24.22 184.01 24.22 185.86 26.92 185.86 26.92 184.3 44.8 180.61 62.68 184.3 62.68 185.86 65.37 185.86 65.37 184.01 46.53 176.56"/><path class="cls-2" d="M65.37,186.07H62.68a.21.21,0,0,1-.21-.21v-1.39L44.8,180.82l-17.67,3.65v1.39a.21.21,0,0,1-.21.21h-2.7a.21.21,0,0,1-.21-.21V184a.21.21,0,0,1,.13-.19l18.42-7.29V149.1a.22.22,0,0,1,.22-.21h3.76a.22.22,0,0,1,.21.21v27.32l18.7,7.4a.21.21,0,0,1,.14.19v1.85A.21.21,0,0,1,65.37,186.07Zm-2.48-.42h2.27v-1.49l-18.7-7.4a.22.22,0,0,1-.14-.2V149.32H43v27.35a.22.22,0,0,1-.14.2l-18.42,7.29v1.49H26.7V184.3a.21.21,0,0,1,.17-.21l17.88-3.69a.14.14,0,0,1,.09,0l17.88,3.69a.21.21,0,0,1,.17.21Z"/><polygon class="cls-2" points="43.85 185.85 45.73 185.85 46.13 176.94 43.45 176.94 43.85 185.85"/><path class="cls-2" d="M45.73,186.06H43.85a.2.2,0,0,1-.21-.2l-.4-8.91a.19.19,0,0,1,.06-.16.19.19,0,0,1,.15-.06h2.69a.22.22,0,0,1,.15.06.23.23,0,0,1,.06.16l-.41,8.91A.2.2,0,0,1,45.73,186.06Zm-1.68-.42h1.48l.38-8.49H43.67Z"/><rect class="cls-2" x="39.87" y="148.06" width="9.56" height="5.68"/><path class="cls-2" d="M49.43,154H39.87a.21.21,0,0,1-.21-.22v-5.67a.21.21,0,0,1,.21-.22h9.56a.21.21,0,0,1,.21.22v5.67A.21.21,0,0,1,49.43,154Zm-9.35-.43h9.14v-5.25H40.08Z"/><rect class="cls-6" x="27.02" y="142.83" width="34.36" height="7.32" rx="2.66"/><path class="cls-2" d="M58.87,150.36H29.53a2.72,2.72,0,0,1-2.72-2.72v-2.3a2.72,2.72,0,0,1,2.72-2.72H58.87a2.72,2.72,0,0,1,2.72,2.72v2.3A2.72,2.72,0,0,1,58.87,150.36ZM29.53,143a2.3,2.3,0,0,0-2.29,2.3v2.3a2.3,2.3,0,0,0,2.29,2.3H58.87a2.3,2.3,0,0,0,2.3-2.3v-2.3a2.3,2.3,0,0,0-2.3-2.3Z"/><path class="cls-3" d="M86.43,163.11l2.93,4.33,3.46-.22s6.61-1.19,7.48-1.41,1.19.55.75,1.41a31.45,31.45,0,0,1-6.39,6,51.85,51.85,0,0,1-8,3.25c-.54.11-1.19-1-2.38-4.33a38.45,38.45,0,0,0-3.36-6.72Z"/><path class="cls-2" d="M86.57,176.65c-.68,0-1.34-1.19-2.5-4.48a37.57,37.57,0,0,0-3.34-6.67.23.23,0,0,1,0-.18.21.21,0,0,1,.12-.14l5.52-2.27a.21.21,0,0,1,.26.08l2.85,4.23,3.35-.21s6.59-1.19,7.44-1.4a.91.91,0,0,1,1,.26,1.37,1.37,0,0,1,0,1.45,31.21,31.21,0,0,1-6.47,6,51.36,51.36,0,0,1-8.08,3.28Zm-5.35-11.17A38.1,38.1,0,0,1,84.47,172c.37,1.07,1.52,4.31,2.14,4.2A52.88,52.88,0,0,0,94.55,173a31.2,31.2,0,0,0,6.31-5.87,1,1,0,0,0,.07-1,.54.54,0,0,0-.58-.11c-.87.22-7.22,1.36-7.49,1.41l-3.49.22a.2.2,0,0,1-.19-.09l-2.83-4.19Z"/><path class="cls-3" d="M101.05,167.22c.44-.86.11-1.62-.75-1.41s-7.48,1.41-7.48,1.41l-3.46.22a9.15,9.15,0,0,0,.54,2.92s-4.88,1.19-5.63,1.74c1.19,3.35,1.84,4.44,2.38,4.33a51.85,51.85,0,0,0,8-3.25A31.45,31.45,0,0,0,101.05,167.22Z"/><path class="cls-2" d="M86.57,176.65c-.68,0-1.34-1.19-2.5-4.48a.22.22,0,0,1,.07-.25,33.63,33.63,0,0,1,5.48-1.71,10.4,10.4,0,0,1-.47-2.76.2.2,0,0,1,.19-.22l3.47-.22s6.59-1.19,7.44-1.4a.91.91,0,0,1,1,.26,1.37,1.37,0,0,1,0,1.45h0a31.21,31.21,0,0,1-6.47,6,51.36,51.36,0,0,1-8.08,3.28Zm-2-4.46c.43,1.2,1.51,4.15,2.09,4A52.88,52.88,0,0,0,94.55,173a31.2,31.2,0,0,0,6.31-5.87h0a1,1,0,0,0,.07-1,.54.54,0,0,0-.58-.11c-.87.22-7.22,1.36-7.49,1.41l-3.28.21a8.88,8.88,0,0,0,.51,2.64.19.19,0,0,1,0,.18.26.26,0,0,1-.14.11A41.9,41.9,0,0,0,84.52,172.19Z"/><path class="cls-3" d="M101.05,167.22a1.38,1.38,0,0,0,.16-1c-2,1.67-6.13,5.08-7.79,5.92s-5.69,2.23-7.92,3c.48,1,.83,1.32,1.15,1.26a51.85,51.85,0,0,0,8-3.25A31.45,31.45,0,0,0,101.05,167.22Z"/><path class="cls-2" d="M86.57,176.65c-.41,0-.79-.43-1.26-1.39a.2.2,0,0,1,0-.17.2.2,0,0,1,.13-.12c2.28-.78,6.33-2.21,7.9-3s6-4.4,7.74-5.89a.21.21,0,0,1,.2,0,.2.2,0,0,1,.14.14,1.62,1.62,0,0,1-.17,1.13,31.21,31.21,0,0,1-6.47,6,51.36,51.36,0,0,1-8.08,3.28Zm-.77-1.36c.45.85.7,1,.81.93A52.88,52.88,0,0,0,94.55,173a31.58,31.58,0,0,0,6.32-5.87,1.6,1.6,0,0,0,.14-.44,64.19,64.19,0,0,1-7.49,5.67C92,173.12,88.12,174.49,85.8,175.29Z"/><path class="cls-4" d="M75.64,127.33s4.77,14,7.54,23.43a94.73,94.73,0,0,0,5,13.21s-2.28,1.3-3.8,2.06-4.11,1.73-4.11,1.73-2.06-3.25-4.23-7.47-5.84-14.51-7.58-17.66-4.11-7.9-4.11-7.9-1.09-5.42,3-6.83S74.45,125.81,75.64,127.33Z"/><path class="cls-2" d="M80.26,168a.22.22,0,0,1-.18-.1s-2.09-3.31-4.23-7.49c-1.09-2.12-2.55-5.74-4-9.24s-2.76-6.85-3.62-8.41c-1.72-3.11-4.1-7.87-4.12-7.92a.08.08,0,0,1,0,0c0-.06-1.07-5.62,3.17-7.07,4.45-1.52,7.26-2.09,8.51-.5a.11.11,0,0,1,0,.06c0,.14,4.8,14.11,7.55,23.44a94.89,94.89,0,0,0,5,13.18.23.23,0,0,1-.09.28s-2.3,1.31-3.8,2.06S80.36,168,80.33,168ZM64.54,134.66c.19.39,2.45,4.89,4.1,7.87.87,1.59,2.22,4.93,3.65,8.47s2.86,7.09,3.93,9.19c1.88,3.67,3.7,6.63,4.13,7.31.59-.22,2.66-1,3.93-1.66s3-1.64,3.61-2A97.57,97.57,0,0,1,83,150.82c-2.67-9.1-7.26-22.6-7.53-23.39-1.1-1.35-3.88-.74-8,.67C63.69,129.39,64.47,134.25,64.54,134.66Z"/><path class="cls-3" d="M59.21,125a14.84,14.84,0,0,1,1.91,1.45c.05.21,0,.37-.46.52s-2.33.52-2.33.52Z"/><path class="cls-2" d="M58.33,127.68a.24.24,0,0,1-.16-.07.2.2,0,0,1,0-.21l.88-2.49a.21.21,0,0,1,.13-.13.19.19,0,0,1,.18,0c1.94,1.29,2,1.49,2,1.57.12.5-.4.7-.6.77-.43.16-2.29.51-2.36.53Zm1-2.37-.67,1.88c.65-.13,1.67-.34,1.93-.44s.35-.22.34-.27S60.06,125.82,59.32,125.31Z"/><path class="cls-3" d="M66.13,172s-.74,4.64-1.25,6.34-1.9,4.77-1.46,5.54,2.75,1.55,3.93,1.65,2.69,2,4.88,2.82,5.09.58,5,0-6.5-7.66-6.81-9.38.81-7.1.81-7.1Z"/><path class="cls-2" d="M75.37,189.08a9.73,9.73,0,0,1-3.21-.53,11.22,11.22,0,0,1-2.92-1.73,4.62,4.62,0,0,0-1.91-1.08c-1.14-.09-3.59-.88-4.09-1.75-.34-.6.12-2,.87-4.05.22-.62.43-1.19.57-1.66.49-1.66,1.24-6.27,1.24-6.31a.22.22,0,0,1,.21-.18l5.13-.13a.21.21,0,0,1,.16.08.24.24,0,0,1,0,.18c0,.05-1.12,5.37-.82,7,.19,1,2.76,4.17,4.63,6.47,1.6,2,2.16,2.66,2.19,2.92a.45.45,0,0,1-.19.39A3.66,3.66,0,0,1,75.37,189.08Zm-9.05-16.87c-.15.87-.78,4.67-1.24,6.19-.14.48-.35,1.06-.57,1.68-.5,1.36-1.17,3.23-.91,3.7.37.64,2.5,1.43,3.77,1.54a4.75,4.75,0,0,1,2.12,1.16,11.23,11.23,0,0,0,2.81,1.67c2.14.78,4.59.5,4.75.21-.07-.19-1.1-1.46-2.1-2.68-2-2.47-4.51-5.54-4.71-6.66-.28-1.54.53-5.81.76-6.93Z"/><path class="cls-3" d="M69.64,180.12l-.17.49a29.9,29.9,0,0,1-5-1c-.59,1.66-1.37,3.68-1,4.28.44.77,2.75,1.55,3.93,1.65s2.69,2,4.88,2.82,5.09.58,5,0-6.5-7.66-6.81-9.38A4.64,4.64,0,0,0,69.64,180.12Z"/><path class="cls-2" d="M75.37,189.08a9.73,9.73,0,0,1-3.21-.53,11.22,11.22,0,0,1-2.92-1.73,4.62,4.62,0,0,0-1.91-1.08c-1.14-.09-3.59-.88-4.09-1.75-.34-.6.12-2,.87-4.05l.14-.41a.21.21,0,0,1,.27-.13,28,28,0,0,0,4.81,1l.11-.33h0a4.94,4.94,0,0,1,.85-1.22.22.22,0,0,1,.22-.05.19.19,0,0,1,.14.16c.19,1,2.76,4.17,4.63,6.47,1.6,2,2.16,2.66,2.19,2.92a.45.45,0,0,1-.19.39A3.66,3.66,0,0,1,75.37,189.08Zm-10.79-9.21-.07.21c-.5,1.36-1.17,3.23-.91,3.7.37.64,2.5,1.43,3.77,1.54a4.75,4.75,0,0,1,2.12,1.16,11.23,11.23,0,0,0,2.81,1.67c2.14.78,4.59.5,4.75.21-.07-.19-1.1-1.46-2.1-2.68-1.81-2.23-4-5-4.59-6.28a3.43,3.43,0,0,0-.52.8l-.17.48a.22.22,0,0,1-.23.14A31,31,0,0,1,64.58,179.87Z"/><path class="cls-3" d="M72.1,187.2c-1.74-.85-3.31-2.3-5.62-3.09-1.5-.51-2.55-.92-3.09-1.15a1.43,1.43,0,0,0,0,.92c.44.77,2.75,1.55,3.93,1.65s2.69,2,4.88,2.82,4.82.6,5,.08A21.72,21.72,0,0,1,72.1,187.2Z"/><path class="cls-2" d="M75.37,189.08a9.78,9.78,0,0,1-3.21-.53,11.22,11.22,0,0,1-2.92-1.73,4.62,4.62,0,0,0-1.91-1.08c-1.14-.09-3.59-.88-4.09-1.75a1.62,1.62,0,0,1-.06-1.07.23.23,0,0,1,.1-.15.25.25,0,0,1,.19,0c.6.25,1.63.66,3.08,1.15a16.11,16.11,0,0,1,3.7,1.94A19.08,19.08,0,0,0,72.19,187h0a21.8,21.8,0,0,0,5.08,1.21.21.21,0,0,1,.15.11.22.22,0,0,1,0,.18C77.3,188.89,76.44,189.08,75.37,189.08Zm-11.81-5.82a1,1,0,0,0,0,.52c.37.64,2.5,1.43,3.77,1.54a4.75,4.75,0,0,1,2.12,1.16,11.23,11.23,0,0,0,2.81,1.67,8.87,8.87,0,0,0,4.29.4A20.38,20.38,0,0,1,72,187.39h0a18.75,18.75,0,0,1-2-1.18,16.11,16.11,0,0,0-3.6-1.9C65.14,183.88,64.19,183.51,63.56,183.26Z"/><path class="cls-4" d="M65,137.11s8.55,1,9.2,5.31-.86,31.3-.86,31.3a18.52,18.52,0,0,1-3.79-.22c-1.74-.32-4.66-1-4.66-1s-.44-9.21-1-12.89-1-14.41-1-14.41-14.3-1.19-15.6-2S65,137.11,65,137.11Z"/><path class="cls-2" d="M72.48,174a16.79,16.79,0,0,1-3-.24c-1.72-.32-4.64-1-4.67-1a.21.21,0,0,1-.16-.2c0-.09-.44-9.24-1-12.87-.49-3.38-.91-12.79-1-14.24-2.14-.18-14.24-1.24-15.51-2.08a.32.32,0,0,1-.15-.33c.19-1.18,13.73-5,17.87-6.11H65c.36,0,8.73,1,9.39,5.49s-.8,30.24-.86,31.34a.21.21,0,0,1-.2.2S73,174,72.48,174Zm-7.4-1.59c.63.14,3,.66,4.49.94a18.9,18.9,0,0,0,3.56.22c.13-2.44,1.46-27,.85-31.07s-8.35-5-9-5.12c-6.41,1.75-16.58,4.8-17.48,5.71,1.39.69,11.55,1.66,15.43,2a.21.21,0,0,1,.19.2c0,.11.44,10.76,1,14.39C64.61,163,65,171.11,65.08,172.36Z"/><path class="cls-4" d="M74.3,134.94s-19.17,7.48-24,9.1a23,23,0,0,1-13.54.11c-3.36-1.08-5-5.39-5-5.39a2.1,2.1,0,0,1-.41-2c.43-1,7.37-7.15,11.59-8.24s11.86-.61,11.86-.61,16.52-3.83,18.79-3.5,4.09,8.42,4.41,9.5"/><path class="cls-2" d="M43.34,145.34a22.28,22.28,0,0,1-6.69-1c-3.3-1.06-4.95-5-5.12-5.49a2.2,2.2,0,0,1-.42-2.16c.44-1,7.44-7.25,11.73-8.35,4.07-1,11.36-.65,11.9-.62,1-.24,16.57-3.82,18.83-3.5,1.9.27,3.35,4.94,4.4,9,.08.31.14.54.18.67a.21.21,0,1,1-.4.12c0-.13-.11-.37-.19-.69-.54-2.08-2.19-8.4-4-8.66-2.21-.33-18.54,3.46-18.71,3.5h-.06c-.07,0-7.65-.46-11.8.6S31.87,136,31.49,136.87a1.92,1.92,0,0,0,.38,1.75.21.21,0,0,1,0,.06s1.65,4.23,4.87,5.27a23,23,0,0,0,13.41-.11c4.81-1.6,23.84-9,24-9.09a.21.21,0,0,1,.28.12.21.21,0,0,1-.12.27c-.19.08-19.23,7.5-24.06,9.1A22,22,0,0,1,43.34,145.34Z"/><path class="cls-2" d="M36.61,139.81h0a.21.21,0,0,1-.16-.26c.06-.25,1.59-6.07,5.62-8.58a.21.21,0,1,1,.22.36c-3.88,2.42-5.41,8.27-5.43,8.32A.2.2,0,0,1,36.61,139.81Z"/><path class="cls-2" d="M35.74,135.81a.23.23,0,0,1-.18-.33c.07-.11,1.7-2.57,3.92-3.13a.23.23,0,0,1,.26.16.21.21,0,0,1-.16.26c-2,.51-3.65,2.92-3.66,2.94A.22.22,0,0,1,35.74,135.81Z"/><path class="cls-5" d="M47.66,91a4.26,4.26,0,0,1,2.75,2c1.07,1.78,2.84,8.42,2.84,8.42s2.83,8.25,2.3,10.2a19.18,19.18,0,0,1-2.66,4.78s.18,6.38.71,7.62a32.86,32.86,0,0,1,1.15,3.9s-1.5,1.07-6.47,1.78-9,1.06-10.72,2.39-5.41,6.38-5.85,6.65-1.15.79-1.51.08-1-2.21-.17-5.4,2.21-15.78,2.74-21.72-.62-12,.09-16.13,7-6.64,8.42-6.91S47.66,91,47.66,91Z"/><path class="cls-2" d="M30.71,139.41a.64.64,0,0,1-.2,0,.79.79,0,0,1-.5-.44c-.45-.91-1-2.47-.19-5.55s2.24-16,2.74-21.68a61.5,61.5,0,0,0,0-8.48,39.24,39.24,0,0,1,.1-7.67c.73-4.24,7-6.79,8.59-7.09,1.44-.27,6,2.08,6.49,2.31a4.47,4.47,0,0,1,2.86,2.13c1.07,1.78,2.79,8.21,2.86,8.48s2.85,8.31,2.31,10.3a18.79,18.79,0,0,1-2.65,4.8c0,.71.21,6.35.69,7.47A31.43,31.43,0,0,1,55,127.9a.21.21,0,0,1-.08.22c-.07,0-1.61,1.1-6.57,1.81l-2.2.3c-3.93.53-7,1-8.42,2.05a40.88,40.88,0,0,0-4.18,4.7,17,17,0,0,1-1.69,2l-.12.07A2,2,0,0,1,30.71,139.41ZM41.52,88.87l-.2,0c-1.49.28-7.57,2.77-8.25,6.74a38.3,38.3,0,0,0-.1,7.58,60.66,60.66,0,0,1,0,8.53c-.51,5.68-1.94,18.5-2.76,21.75-.73,2.95-.26,4.42.16,5.26a.42.42,0,0,0,.23.23c.23.06.59-.16.85-.33l.13-.08a21.18,21.18,0,0,0,1.58-1.86,40.15,40.15,0,0,1,4.25-4.77c1.47-1.16,4.63-1.59,8.62-2.13l2.2-.3c4.09-.59,5.82-1.42,6.26-1.67a32.09,32.09,0,0,0-1.1-3.71c-.54-1.27-.72-7.44-.73-7.7a.33.33,0,0,1,0-.14,19.13,19.13,0,0,0,2.63-4.71c.51-1.87-2.27-10-2.3-10.07s-1.78-6.65-2.82-8.38a4.16,4.16,0,0,0-2.6-1.94l-.06,0C46.28,90.51,42.83,88.87,41.52,88.87Z"/><path class="cls-2" d="M32.71,133.64a.24.24,0,0,1-.14,0,.21.21,0,0,1,0-.3c.11-.13,2.75-3.19,4.08-3.74S46.74,129,47.11,129a.22.22,0,1,1,0,.43c-3.13,0-9.32.11-10.31.52-1.24.52-3.9,3.59-3.93,3.63A.24.24,0,0,1,32.71,133.64Z"/><path class="cls-2" d="M34.66,129.63a.23.23,0,0,1-.19-.1.22.22,0,0,1,.08-.29,10.65,10.65,0,0,1,2.78-1.11,26.92,26.92,0,0,1,4.38,0,.2.2,0,0,1,.2.22.21.21,0,0,1-.23.2,28,28,0,0,0-4.28,0,10.83,10.83,0,0,0-2.64,1A.19.19,0,0,1,34.66,129.63Z"/><path class="cls-2" d="M39.42,118.8a.23.23,0,0,1-.2-.14.22.22,0,0,1,.13-.27,23.77,23.77,0,0,0,7.83-5,.21.21,0,0,1,.3,0,.22.22,0,0,1,0,.3,24.33,24.33,0,0,1-8,5.14Z"/><path class="cls-3" d="M49.17,65.81s1.33,2.84,1.77,3.73.27,2.39.62,3.63,2.4,2,2.4,2.75a6.63,6.63,0,0,1-.8,2.13s-.44,5.49-1.15,6.11-3.64.8-3.64.8l-1.5,5.76,1.5.89a59.69,59.69,0,0,1,0,7.09c-.26,1.86-.09,3.63-2.74,2.92s-6.74-7.8-7.09-8.69,1.15-4.69-.62-10.36S40,71.75,42.61,69.36,46.42,65.37,49.17,65.81Z"/><path class="cls-2" d="M46.66,102a4.34,4.34,0,0,1-1.09-.16c-2.76-.74-6.89-8-7.23-8.82a4.27,4.27,0,0,1,0-1.68,19.42,19.42,0,0,0-.66-8.7c-2-6.47,3.13-11.91,4.76-13.43l.86-.81c2-1.92,3.35-3.19,5.87-2.79a.25.25,0,0,1,.16.12s1.34,2.85,1.77,3.72a5.59,5.59,0,0,1,.38,2,8.81,8.81,0,0,0,.26,1.72,3.71,3.71,0,0,0,1.38,1.57c.55.43,1,.81,1,1.24a6.59,6.59,0,0,1-.8,2.19c-.09,1-.5,5.58-1.22,6.21s-2.95.79-3.61.84l-1.43,5.46,1.37.8a.25.25,0,0,1,.11.17,59.43,59.43,0,0,1,0,7.14c0,.22,0,.44-.08.66-.11,1-.22,1.9-.87,2.34A1.68,1.68,0,0,1,46.66,102ZM48.3,66c-1.8,0-2.94,1.09-4.68,2.74-.27.27-.56.54-.86.82-1.58,1.48-6.59,6.76-4.64,13a19.82,19.82,0,0,1,.67,8.88,4.92,4.92,0,0,0-.06,1.48c.32.8,4.38,7.87,7,8.56a2.15,2.15,0,0,0,1.72,0c.48-.33.57-1.12.68-2,0-.22.05-.45.08-.67a59.23,59.23,0,0,0,0-6.94l-1.41-.83a.21.21,0,0,1-.1-.23l1.51-5.77a.2.2,0,0,1,.19-.15c.79,0,3-.28,3.51-.75s.91-3.88,1.08-6a.29.29,0,0,1,0-.09,6.06,6.06,0,0,0,.77-2c0-.23-.43-.58-.85-.91a4,4,0,0,1-1.53-1.78,9.1,9.1,0,0,1-.27-1.8,5.24,5.24,0,0,0-.34-1.8c-.39-.78-1.48-3.11-1.72-3.62A4.78,4.78,0,0,0,48.3,66Z"/><path class="cls-2" d="M49.17,65.81c-.09-1.59-.26-2.21-3.54-2.57s-10.29-.62-13,4.26S29.85,83,29.85,83,24,88.24,23.56,91.43s1.68,6.2,5.05,7.27l.2,0a10,10,0,0,1,1.84-4.09c1.91-2.3,3.57-2,6-2.68s4-.8,4.33-3.58a41.85,41.85,0,0,0,.66-8.58,5.44,5.44,0,0,1,1.06-2.66s2.75.71,4.52-4.08S49.26,67.41,49.17,65.81Z"/><path class="cls-2" d="M28.81,99h-.1l-.16,0a7.07,7.07,0,0,1-5.2-7.5c.42-3.08,5.59-7.85,6.29-8.49,0-1.13.14-10.84,2.77-15.52C35,62.88,41,62.53,45.65,63c3.31.36,3.63,1,3.73,2.77h0c.09,1.66-.21,2.63-2,7.36-1.6,4.32-4,4.31-4.62,4.23a4.89,4.89,0,0,0-.95,2.41,33.77,33.77,0,0,1-.47,7.29c-.07.45-.13.9-.19,1.34-.35,2.7-1.77,3.06-3.92,3.61l-.56.14c-.57.15-1.08.25-1.58.35a6.16,6.16,0,0,0-4.32,2.27,9.85,9.85,0,0,0-1.8,4,.2.2,0,0,1-.09.13ZM42.59,63.28c-3.84,0-7.89.93-9.81,4.32C30.09,72.37,30.06,82.9,30.06,83a.2.2,0,0,1-.07.16c-.06,0-5.8,5.21-6.22,8.29a6.65,6.65,0,0,0,4.88,7,10.3,10.3,0,0,1,1.83-4,6.66,6.66,0,0,1,4.57-2.42c.49-.09,1-.19,1.55-.34l.56-.14c2.13-.54,3.3-.84,3.61-3.25.06-.45.12-.9.19-1.35a34.23,34.23,0,0,0,.47-7.19A5.57,5.57,0,0,1,42.53,77a.21.21,0,0,1,.22-.08c.11,0,2.6.59,4.27-3.94s2-5.61,1.94-7.18h0c-.08-1.43-.11-2-3.36-2.38A28.88,28.88,0,0,0,42.59,63.28Z"/><path class="cls-3" d="M43.85,78.49S43,74.41,40.66,76s1.15,6.11,1.69,6.2a2.86,2.86,0,0,0,1.41-.44"/><path class="cls-2" d="M42.47,82.43h-.16c-.51-.09-2.15-2.23-2.55-4a2.29,2.29,0,0,1,.78-2.58,1.73,1.73,0,0,1,1.68-.3c1.3.51,1.82,2.82,1.84,2.91a.22.22,0,0,1-.16.26.21.21,0,0,1-.25-.17s-.49-2.18-1.59-2.61a1.33,1.33,0,0,0-1.28.26A1.73,1.73,0,0,0,40.12,78a7.6,7.6,0,0,0,2.27,4,2.77,2.77,0,0,0,1.27-.41.2.2,0,0,1,.29.07.21.21,0,0,1-.08.29A3.4,3.4,0,0,1,42.47,82.43Z"/><polygon class="cls-2" points="48.37 84.96 45.63 84.6 47.58 87.17 48.37 84.96"/><path class="cls-2" d="M47.58,87.39a.2.2,0,0,1-.17-.09l-1.95-2.57a.21.21,0,0,1,0-.23.22.22,0,0,1,.21-.11l2.75.36a.2.2,0,0,1,.15.1.19.19,0,0,1,0,.18l-.79,2.22a.23.23,0,0,1-.17.13ZM46.1,84.88l1.41,1.85.57-1.6Z"/><path class="cls-2" d="M51.29,74.19c.12.6,0,1.13-.27,1.18s-.57-.4-.69-1,0-1.13.27-1.18S51.17,73.59,51.29,74.19Z"/><path class="cls-3" d="M56.89,122.5a4.56,4.56,0,0,0,.67,0l-.2-1.28c-.43.06-1.41.06-1.7-.36-.41-.58-.09-3.79.32-4.33.15-.18.89-.18,1.42-.06l.3-1.26c-.32-.07-2-.4-2.71.48s-1.2,4.75-.39,5.91A2.72,2.72,0,0,0,56.89,122.5Z"/><path class="cls-2" d="M56.88,122.71a2.9,2.9,0,0,1-2.46-1c-.87-1.24-.34-5.29.41-6.17s2.58-.62,2.92-.54a.22.22,0,0,1,.16.25l-.3,1.26a.21.21,0,0,1-.25.16,2.35,2.35,0,0,0-1.22,0c-.35.46-.67,3.56-.31,4.07.2.29,1,.34,1.5.27a.21.21,0,0,1,.24.18l.2,1.27a.18.18,0,0,1,0,.16.19.19,0,0,1-.14.09A5.54,5.54,0,0,1,56.88,122.71Zm-.24-7.46a1.89,1.89,0,0,0-1.48.53c-.65.75-1.15,4.56-.39,5.65a2.49,2.49,0,0,0,2.11.85l.44,0-.14-.86c-.49,0-1.37,0-1.7-.47-.46-.66-.14-4,.33-4.58.24-.28,1-.25,1.43-.17l.2-.85A4.13,4.13,0,0,0,56.64,115.25Z"/><rect class="cls-3" x="56.83" y="114" width="7.72" height="10.06" transform="translate(121.39 238.05) rotate(180)"/><path class="cls-2" d="M64.56,124.27H56.83a.22.22,0,0,1-.21-.22V114a.22.22,0,0,1,.21-.22h7.73a.22.22,0,0,1,.21.22v10A.22.22,0,0,1,64.56,124.27ZM57,123.84h7.3v-9.63H57Z"/><path class="cls-5" d="M34.48,92.75s-4.09-1.28-6,6.63c-.62,2.63-3.14,29.26-2.62,29.45,1.91.67,22-5.58,22-5.58s6.23-.43,6.77-.56A2.26,2.26,0,0,0,56.05,121c0-.55,0-1.65,0-1.65s.94-1.08.61-1.79a1.85,1.85,0,0,0-1-.94H54.37l-.76-.31a2.72,2.72,0,0,0,.79-1.9c-.15-.91-.92-1.41-1.24-.74a4.64,4.64,0,0,1-1,1.72,13.85,13.85,0,0,0-1.88,2.06c-.42.68-1.58,2.41-1.58,2.41l-14.5.79,2.2-16.7"/><path class="cls-2" d="M26.31,129.08a1.52,1.52,0,0,1-.48-.05c-.21-.08-.53-.19.74-14,.6-6.57,1.42-14.29,1.74-15.67.78-3.27,2-5.41,3.69-6.36a3.42,3.42,0,0,1,2.54-.43.22.22,0,0,1,.14.27.21.21,0,0,1-.26.14,3.07,3.07,0,0,0-2.23.39c-1.53.88-2.73,3-3.46,6.09-.67,2.82-2.91,27.49-2.67,29.22,1.93.36,16.32-3.9,21.8-5.61h0c1.73-.11,6.3-.44,6.73-.55a2.08,2.08,0,0,0,1.2-1.43c0-.55,0-1.63,0-1.67a.24.24,0,0,1,0-.14c.24-.27.8-1.08.58-1.56a1.64,1.64,0,0,0-.83-.82H54.29l-.76-.32a.2.2,0,0,1-.12-.15.19.19,0,0,1,.05-.19s.87-.92.74-1.71c-.09-.5-.38-.84-.6-.87,0,0-.15,0-.25.18s-.15.34-.21.49a3.5,3.5,0,0,1-.82,1.29l-.27.27a11.41,11.41,0,0,0-1.58,1.75c-.41.67-1.54,2.35-1.59,2.42a.22.22,0,0,1-.16.09l-14.5.79a.19.19,0,0,1-.16-.06.2.2,0,0,1-.06-.18l2.2-16.7a.21.21,0,0,1,.24-.18.2.2,0,0,1,.18.23l-2.17,16.46,14.14-.78c.24-.36,1.16-1.73,1.52-2.31a11.07,11.07,0,0,1,1.64-1.83l.27-.27a2.9,2.9,0,0,0,.72-1.15c.07-.16.14-.33.23-.51a.65.65,0,0,1,.69-.42,1.38,1.38,0,0,1,1,1.22,2.54,2.54,0,0,1-.65,1.84l.45.19h1.25l.07,0a2.09,2.09,0,0,1,1.11,1c.33.74-.38,1.69-.6,2,0,.26,0,1.11,0,1.56a2.42,2.42,0,0,1-1.52,1.88c-.54.13-6.29.52-6.78.56C45.91,124.09,29.75,129.08,26.31,129.08Z"/><path class="cls-3" d="M56.64,117.59a1.85,1.85,0,0,0-1-.94H54.37l-.76-.31a2.72,2.72,0,0,0,.79-1.9c-.15-.91-.92-1.41-1.24-.74a4.64,4.64,0,0,1-1,1.72,13.85,13.85,0,0,0-1.88,2.06c-.42.67-1.58,2.41-1.58,2.41l-14.5.79,1-7.28L27,113.21c-.75,7.62-1.42,15.52-1.14,15.62,1.91.67,22-5.58,22-5.58s6.23-.43,6.77-.56A2.26,2.26,0,0,0,56.05,121c0-.55,0-1.65,0-1.65S57,118.3,56.64,117.59Z"/><path class="cls-2" d="M26.31,129.08a1.52,1.52,0,0,1-.48-.05c-.24-.09-.53-.19,1-15.84A.2.2,0,0,1,27,113l8.14.18a.21.21,0,0,1,.15.07.22.22,0,0,1,.05.17l-.93,7,14.14-.78c.24-.36,1.16-1.73,1.52-2.31a11.07,11.07,0,0,1,1.64-1.83l.27-.27a2.9,2.9,0,0,0,.72-1.15c.07-.16.14-.33.23-.51a.65.65,0,0,1,.69-.42,1.38,1.38,0,0,1,1,1.22,2.54,2.54,0,0,1-.65,1.84l.45.19h1.25l.07,0a2.09,2.09,0,0,1,1.11,1c.33.74-.38,1.69-.6,2,0,.26,0,1.11,0,1.56a2.42,2.42,0,0,1-1.52,1.88c-.54.13-6.29.52-6.78.56C45.91,124.09,29.75,129.08,26.31,129.08Zm-.25-.43c1.93.36,16.32-3.9,21.8-5.61h0c1.73-.11,6.3-.44,6.73-.55a2.08,2.08,0,0,0,1.2-1.43c0-.55,0-1.63,0-1.67a.24.24,0,0,1,0-.14c.24-.27.8-1.08.58-1.56a1.64,1.64,0,0,0-.83-.82H54.29l-.76-.32a.2.2,0,0,1-.12-.15.19.19,0,0,1,.05-.19s.87-.92.74-1.71c-.09-.5-.38-.84-.6-.87,0,0-.15,0-.25.18s-.15.34-.21.49a3.5,3.5,0,0,1-.82,1.29l-.27.27a11.41,11.41,0,0,0-1.58,1.75c-.41.67-1.58,2.4-1.59,2.42a.22.22,0,0,1-.16.09l-14.5.79a.19.19,0,0,1-.16-.06.2.2,0,0,1-.06-.18l.93-7-7.7-.17C26.23,123.67,26,128,26.06,128.65Z"/><path class="cls-3" d="M56,124.87a4.91,4.91,0,0,0-2.06.87c-.44.54-1.52,3.46-1,3.57S54.59,127,54.59,127,57.62,125.52,56,124.87Z"/><path class="cls-2" d="M53,129.53h-.07a.37.37,0,0,1-.27-.25c-.26-.69.73-3.18,1.12-3.67a4.94,4.94,0,0,1,2.18-.94.24.24,0,0,1,.12,0c.4.16.6.39.62.68,0,.77-1.49,1.61-1.94,1.84C54.33,128.11,53.58,129.53,53,129.53Zm.06-.4Zm2.92-4a4.28,4.28,0,0,0-1.87.78A8,8,0,0,0,53,129.1,6,6,0,0,0,54.39,127a.19.19,0,0,1,.1-.1c.75-.38,1.79-1.08,1.77-1.48C56.26,125.25,56.11,125.15,56,125.09Z"/><path class="cls-3" d="M56.72,124.88a2.21,2.21,0,0,0-1.09.21,9.28,9.28,0,0,0-1.6,3.1c-.16.63,0,1.25.41,1.09s1.87-2.38,2.28-2.64S57.45,124.89,56.72,124.88Z"/><path class="cls-2" d="M54.32,129.52a.45.45,0,0,1-.31-.12,1.37,1.37,0,0,1-.19-1.26c.14-.54,1.12-2.91,1.71-3.24a2.36,2.36,0,0,1,1.2-.23.6.6,0,0,1,.59.49,1.79,1.79,0,0,1-.49,1.66,8.34,8.34,0,0,0-1,1.17c-.72.94-1.09,1.4-1.34,1.49A.51.51,0,0,1,54.32,129.52Zm2.27-4.43a1.86,1.86,0,0,0-.85.18,9.62,9.62,0,0,0-1.51,3,1,1,0,0,0,.06.83s0,0,.08,0a8.56,8.56,0,0,0,1.15-1.35,7.1,7.1,0,0,1,1.09-1.27,1.43,1.43,0,0,0,.31-1.18c-.06-.19-.15-.19-.2-.19h-.13Z"/><path class="cls-3" d="M57.86,124.88a.62.62,0,0,0-1.14,0c-.62.88-1.66,3.57-1.4,3.78s.88-.47,1.3-.93S58.17,126.07,57.86,124.88Z"/><path class="cls-2" d="M55.44,128.91a.39.39,0,0,1-.25-.08c-.5-.4.94-3.48,1.36-4.07a.92.92,0,0,1,.77-.48,1,1,0,0,1,.72.49l0,.06c.32,1.24-.77,2.45-1.23,3l-.06.07C56.28,128.42,55.81,128.91,55.44,128.91Zm1.85-4.21c-.15,0-.3.16-.4.3a11.79,11.79,0,0,0-1.4,3.49,3.8,3.8,0,0,0,1-.9l.07-.08c.41-.46,1.37-1.53,1.13-2.55-.06-.08-.2-.25-.36-.26Z"/><path class="cls-3" d="M59.21,125s-.94-.57-1.35-.1a7.78,7.78,0,0,0-.62,3.21c.1.26.93-.36,1.09-.62S59.21,125,59.21,125Z"/><path class="cls-2" d="M57.34,128.36h0a.32.32,0,0,1-.27-.19,7.53,7.53,0,0,1,.66-3.43c.53-.59,1.57,0,1.62.06a.22.22,0,0,1,.09.25c-.12.37-.74,2.26-.9,2.53A2.14,2.14,0,0,1,57.34,128.36Zm1-3.45a.39.39,0,0,0-.3.11,8.14,8.14,0,0,0-.59,2.9,2.13,2.13,0,0,0,.71-.56c.1-.16.53-1.42.81-2.27A1.49,1.49,0,0,0,58.32,124.91Z"/></svg>