<svg id="Layer_1" data-name="Layer 1" xmlns="http://www.w3.org/2000/svg" viewBox="0 0 200 200"><defs><style>.cls-1{fill:none;stroke:#1a2e35;stroke-miterlimit:10;}.cls-2{fill:#231f20;}.cls-3{fill:#fff;}.cls-4{fill:#414042;}.cls-5{fill:#dcb626;}.cls-6{opacity:0.8;}.cls-7{fill:#004712;}</style></defs><rect class="cls-1" x="5.79" y="18.37" width="188.42" height="170.16"/><path class="cls-2" d="M166.28,184.51l-10.54-72.1-1.31.19-.44,6.25,9.66,66a.75.75,0,0,1-.18.62.78.78,0,0,1-.59.27H144.35v2.66h18.53a3.44,3.44,0,0,0,3.4-3.93Z"/><polygon class="cls-3" points="109.06 48.57 99.6 186.31 149.47 186.31 158.77 48.57 109.06 48.57"/><path class="cls-2" d="M149.64,186.5H99.39l0-.2,9.47-137.92H159v.2Zm-49.84-.38h49.49l9.27-137.36H109.23Z"/><path class="cls-4" d="M143.94,57.12c-.67-1.66-1.91-6.54-5.7-8.22h-8a13.28,13.28,0,0,0-6,3.51C121,56,122.05,63,122.05,63h2.06a117.2,117.2,0,0,0-5,11.19c-2.49,6.48-1.48,9.13,1.93,10.9s17.37,6.08,23.8,1,6.86-7.27,5.28-13.06S144.62,58.79,143.94,57.12Z"/><path class="cls-4" d="M136.24,88.67A40.15,40.15,0,0,1,121,85.28c-3.83-2-4.38-5-2-11.14,2.12-5.53,4.26-9.83,4.82-10.93h-1.91l0-.17c0-.29-1-7.2,2.22-10.76a13.46,13.46,0,0,1,6.1-3.57h8.14c3.34,1.49,4.74,5.4,5.49,7.5.12.33.22.61.31.83h0c.13.33.4,1,.74,1.73A118.11,118.11,0,0,1,150.34,73C152,78.9,151.5,81.07,145,86.24,142.74,88,139.56,88.67,136.24,88.67Zm-14-25.84h2.21l-.15.27a121.31,121.31,0,0,0-5,11.18c-2.59,6.74-1.22,9.08,1.84,10.66s17.19,6.09,23.59,1,6.78-7.14,5.21-12.86a118,118,0,0,0-5.45-14.15c-.36-.81-.62-1.4-.75-1.73s-.2-.52-.32-.85c-.73-2-2.08-5.83-5.25-7.26h-7.94a12.93,12.93,0,0,0-5.9,3.45C121.55,55.67,122.1,61.75,122.22,62.83Z"/><path class="cls-3" d="M120.23,151.33A76.36,76.36,0,0,0,119.17,162c-.12,5.5,1,16.93,1,18.84a17.87,17.87,0,0,1-1.48,5.36h7.58c-.22-2-.67-4.42-.63-5,.06-.95.71-12.51,2.44-17s1.55-10.87,1.55-10.87L133.52,131l9.82,25.13a36.54,36.54,0,0,0,2.58,9.8c1,2.27,2.84,5.66,4.34,8.41l2.23-33.76v0c-.38-5.14-4.52-20.31-4.52-20.31l-.51-6-25.78-1.38a19.66,19.66,0,0,0-4.78,12.83C116.71,134,120.23,151.33,120.23,151.33Z"/><path class="cls-4" d="M126.51,186.36h-8.07l.15-.36a17.35,17.35,0,0,0,1.42-5.19c0-.65-.14-2.46-.31-4.75-.34-4.43-.8-10.49-.72-14.1A77,77,0,0,1,120,151.34c-.18-.89-3.51-17.63-3.33-25.62a20,20,0,0,1,4.84-13l.06-.06,26,1.39.52,6.12c0,.12,4.14,15.22,4.52,20.32v.05L150.41,175l-.31-.57c-1.39-2.55-3.27-6.07-4.36-8.43a37.45,37.45,0,0,1-2.59-9.83l-9.56-24.48-3.74,21.6s.16,6.38-1.56,10.91c-1.48,3.87-2.18,13-2.42,16.78v.22a18.94,18.94,0,0,0,.26,2.23c.13.86.27,1.83.37,2.73ZM119,186h7.09c-.1-.83-.23-1.72-.34-2.51a18.68,18.68,0,0,1-.27-2.31V181c.24-3.77.94-13,2.44-16.9,1.7-4.45,1.55-10.74,1.54-10.8l4-23,10.07,25.81a37,37,0,0,0,2.57,9.74c1,2.17,2.68,5.35,4,7.83l2.18-33.11c-.37-5.06-4.47-20.12-4.51-20.27l-.5-5.83-25.53-1.37a19.79,19.79,0,0,0-4.67,12.65c-.18,8.13,3.29,25.39,3.33,25.57v.07a76.49,76.49,0,0,0-1.06,10.6c-.08,3.59.38,9.64.71,14.06.18,2.3.32,4.12.32,4.79A17.15,17.15,0,0,1,119,186Z"/><path class="cls-5" d="M126.3,186.17c-.22-2-.67-4.42-.63-5,0,0-1.07-2.48-2.78-2.2-1.38.23-2.39,1.86-2.74,2.5a21.79,21.79,0,0,1-1.43,4.7Z"/><path class="cls-4" d="M126.51,186.36h-8.07l.14-.35a20.76,20.76,0,0,0,1.38-4.56l0-.07c.38-.7,1.43-2.36,2.87-2.6,1.84-.3,3,2.21,3,2.32l0,0v.05a18.94,18.94,0,0,0,.26,2.23c.13.86.27,1.83.37,2.73ZM119,186h7.09c-.1-.83-.23-1.72-.34-2.51a18.58,18.58,0,0,1-.27-2.26c-.14-.3-1.13-2.29-2.56-2.05-1.26.21-2.22,1.7-2.59,2.37A20.08,20.08,0,0,1,119,186Z"/><g class="cls-6"><path class="cls-7" d="M152.49,140.56v0c-.38-5.14-4.52-20.31-4.52-20.31l-.51-6-25.78-1.38a19.66,19.66,0,0,0-4.78,12.83c-.19,8.25,3.33,25.61,3.33,25.61A76.36,76.36,0,0,0,119.17,162c-.07,3.24.33,8,.68,11.79a53.13,53.13,0,0,0,6.37.32,45.12,45.12,0,0,1,1.89-10c1.73-4.54,1.55-10.87,1.55-10.87L133.52,131l9.82,25.13a36.54,36.54,0,0,0,2.58,9.8c1,2.27,2.84,5.66,4.34,8.41Z"/><path class="cls-7" d="M150.41,175l-.31-.58c-1.39-2.54-3.27-6.07-4.36-8.42a37.45,37.45,0,0,1-2.59-9.83l-9.56-24.48-3.74,21.6s.16,6.38-1.56,10.91a43.64,43.64,0,0,0-1.88,9.91l0,.17h-.17a53.55,53.55,0,0,1-6.39-.32l-.16,0v-.15c-.39-4.31-.75-8.73-.68-11.82A77,77,0,0,1,120,151.34c-.18-.89-3.51-17.63-3.33-25.62a20,20,0,0,1,4.84-13l.06-.06,26,1.39.52,6.12c0,.12,4.14,15.22,4.52,20.32v.05ZM120,173.59a52.71,52.71,0,0,0,5.91.3h.12a43.2,43.2,0,0,1,1.88-9.84c1.7-4.45,1.55-10.74,1.54-10.8l4-23,10.07,25.81a37,37,0,0,0,2.57,9.74c1,2.17,2.68,5.35,4,7.83l2.18-33.1c-.37-5.07-4.47-20.13-4.51-20.28l-.5-5.83-25.53-1.37a19.79,19.79,0,0,0-4.67,12.65c-.18,8.13,3.29,25.39,3.33,25.57v.07a76.49,76.49,0,0,0-1.06,10.6C119.29,165,119.64,169.34,120,173.59Z"/></g><path class="cls-4" d="M133.71,131l-.38-.06s.84-5.51.87-7.62h.37C134.55,125.48,133.74,130.79,133.71,131Z"/><rect class="cls-4" x="133.89" y="124.22" width="4.44" height="0.38" transform="translate(-45.57 92.85) rotate(-32.57)"/><path class="cls-5" d="M147.46,114.27l.11,2.07a28.54,28.54,0,0,1-12.09,2.31c-7.17-.12-10.65-1.18-12.57-1.78s-3-1.22-2.94-1.54a11.38,11.38,0,0,1,.52-1.59s3.17,1.81,10.14,2.74S147.46,114.27,147.46,114.27Z"/><path class="cls-4" d="M136,118.85h-.52c-7.23-.12-10.74-1.2-12.62-1.78-.52-.16-3.13-1-3.08-1.74a10.73,10.73,0,0,1,.53-1.65l.08-.2.19.1s3.24,1.81,10.08,2.73,16.65-2.18,16.75-2.21l.23-.08.13,2.44-.11.06A28.9,28.9,0,0,1,136,118.85ZM120.59,114a8,8,0,0,0-.43,1.33c0,.16.79.73,2.81,1.35s5.34,1.65,12.52,1.77a29,29,0,0,0,11.88-2.24l-.08-1.7c-1.55.47-10.35,3-16.68,2.15A32.41,32.41,0,0,1,120.59,114Z"/><path class="cls-5" d="M149.91,78.35c-2.37-1.3-3.58-.3-5.66-.07a19.35,19.35,0,0,1-5.25-.54s-7,0-7.46-.53a7.63,7.63,0,0,0-6-1.15c-3.1.53-12.16,10.25-13,11.1s-5.45,4.58-6.53,6.41l-.11,1.7c.47,1.33,2.17,2.7,5.92,2.75,5,.08,12-5,12-5a40.29,40.29,0,0,1-.71,5c-.56,2.61-3.07,14.09-3.08,15.39s3.19,3.75,11.89,4.21,16.07-2.22,16.5-3S147,104.45,147,103.76s3.2-9.18,3.2-9.18a20.21,20.21,0,0,0,5.3,3.26l.85-12.77C153.91,82.15,151.12,79,149.91,78.35Z"/><path class="cls-4" d="M134,117.86c-.65,0-1.31,0-2,0-8.81-.47-12.08-3-12.07-4.4,0-1.15,1.87-9.8,2.77-14L123,98a38.91,38.91,0,0,0,.68-4.62c-1.47,1-7.41,4.93-11.82,4.85-4.61-.07-5.8-2-6.1-2.87v0l.12-1.79,0,0c.81-1.37,3.62-3.85,5.31-5.32.59-.52,1.05-.93,1.24-1.13l.33-.34c6.43-6.74,10.84-10.48,12.75-10.81,3-.52,5.53.55,6.15,1.21.31.29,4,.47,7.32.47h.05a19.83,19.83,0,0,0,5.18.53,10.91,10.91,0,0,0,1.53-.3,5.1,5.1,0,0,1,4.24.4h0c1,.56,3.21,2.83,6.5,6.76l.05.06v.07l-.86,13-.23-.08a19,19,0,0,1-5.16-3.12c-1.27,3.4-3.07,8.4-3.1,8.88,0,.22.24,1.65.5,3.16.73,4.1,1.27,7.27,1,7.79C148.19,115.58,141.64,117.86,134,117.86Zm-9.84-25.28,0,.4a38.22,38.22,0,0,1-.72,5.08l-.31,1.48c-.83,3.82-2.75,12.76-2.76,13.87s2.93,3.55,11.71,4c8.57.45,15.92-2.19,16.32-2.89.25-.45-.57-5.06-1-7.53a31.21,31.21,0,0,1-.51-3.26c0-.7,2.89-8.36,3.22-9.24l.09-.25.21.17a20.72,20.72,0,0,0,5,3.15l.82-12.45c-3.19-3.8-5.39-6.08-6.34-6.61a4.75,4.75,0,0,0-4-.36,13,13,0,0,1-1.58.31,19.3,19.3,0,0,1-5.29-.54c-1.68,0-7.07,0-7.58-.6a7.49,7.49,0,0,0-5.8-1.09c-1,.19-4.07,1.82-12.55,10.71l-.33.34c-.2.2-.67.62-1.26,1.14-1.65,1.45-4.4,3.86-5.21,5.2l-.11,1.62c.58,1.57,2.72,2.54,5.73,2.58,4.84.09,11.86-5,11.93-5Z"/><path class="cls-4" d="M156.07,89.45,142.36,86l6,12.07,1.81-3.5s2.45,3.1,5.3,3.34Z"/><path class="cls-4" d="M148.4,98.5,142,85.72l14.26,3.59-.58,8.82-.2,0c-2.47-.21-4.61-2.46-5.24-3.19Zm1.78-4.27.18.23s2.32,2.91,5,3.25l.54-8.11-13.15-3.31,5.68,11.37Z"/><polygon class="cls-4" points="123.92 92.97 127.68 91.89 123.76 95.86 123.92 92.97"/><path class="cls-4" d="M123.55,96.35l.18-3.52,4.6-1.33Zm.55-3.23L124,95.37l3-3.1Z"/><path class="cls-4" d="M128.81,105.44l-.14-.35c3.11-1.18,13.11-6.43,13.21-6.48l.18.34C142,99,131.93,104.26,128.81,105.44Z"/><rect class="cls-4" x="131.11" y="104.99" width="4.15" height="0.38" transform="translate(-29.43 56.63) rotate(-21.68)"/><path class="cls-3" d="M140.39,69.47s-.8,7.43-.72,8.65,1.33,4.14,1.56,6.43-4.09,4.06-5.65,2.15-3.81-4.83-4-6.28-.22-7-.22-7,2.82,1.23,3.73.23S140.39,69.47,140.39,69.47Z"/><path class="cls-4" d="M137.52,87.7a2.63,2.63,0,0,1-2.09-.88c-1.64-2-3.85-4.88-4.06-6.37s-.23-6.77-.23-7v-.29l.27.11c.75.33,2.85,1,3.52.28a66.89,66.89,0,0,1,5.36-4.24l.34-.25,0,.43c0,.07-.79,7.42-.72,8.61a12.77,12.77,0,0,0,.6,2.39,22.46,22.46,0,0,1,1,4c.11,1.12-.75,2.22-2.19,2.82A4.75,4.75,0,0,1,137.52,87.7Zm-6-14c0,1.14,0,5.42.22,6.65.23,1.57,3.06,5,4,6.19.76.93,2.23.88,3.36.41s2.06-1.35,1.95-2.42a21.48,21.48,0,0,0-.95-4,13,13,0,0,1-.61-2.48c-.07-1.06.51-6.64.68-8.25a60.06,60.06,0,0,0-5,3.93C134.38,74.71,132.27,74,131.52,73.74Z"/><path class="cls-4" d="M135.06,73.68c.91-1,5.33-4.21,5.33-4.21s-.12,1.14-.27,2.6c-1.87,3.1-4.81,6.64-8.66,7.2-.12-2.14-.13-5.82-.13-5.82S134.15,74.68,135.06,73.68Z"/><path class="cls-4" d="M131.28,79.48v-.2c-.12-2.12-.13-5.79-.13-5.82v-.29l.27.11c.75.33,2.85,1,3.52.28h0a66.89,66.89,0,0,1,5.36-4.24l.34-.25,0,.43s-.12,1.13-.27,2.59l0,.08c-1.82,3-4.83,6.71-8.81,7.28Zm.24-5.74c0,.86,0,3.53.12,5.31,3.71-.65,6.55-4.16,8.3-7,.09-.9.17-1.67.22-2.13a60.06,60.06,0,0,0-5,3.93C134.38,74.71,132.27,74,131.52,73.74Z"/><path class="cls-3" d="M133.82,55.75l7.39,5.6s2.36-1.57,2.77,1.08-.91,3.43-1.32,3.73a5,5,0,0,1-1.41.49,7.77,7.77,0,0,1-.95,4,21.4,21.4,0,0,1-5.36,5.4c-.81.3-5-1.37-6.41-2.55s-2.2-2.45-2.11-3.83S124.9,63,124.9,63l1.69-.3L126.05,59l2.39,2.45L135.28,59S133.7,54.67,133.82,55.75Z"/><path class="cls-4" d="M134.69,76.3c-1.35,0-5.05-1.59-6.29-2.63-1.53-1.3-2.26-2.64-2.17-4s-1.5-6.56-1.51-6.61l-.07-.2,1.72-.3-.59-4.13,2.71,2.78L135,58.88c-.41-1.11-.86-2.27-1.12-2.82l-.27-.21v-.08c0-.1,0-.33.16-.38s.19,0,.42.42l7,5.31a2.38,2.38,0,0,1,2-.31,1.89,1.89,0,0,1,1,1.59c.42,2.64-.86,3.53-1.34,3.87l-.06,0a4.19,4.19,0,0,1-1.32.49,7.88,7.88,0,0,1-1,4c-1.1,1.86-4.6,5.17-5.46,5.48A.91.91,0,0,1,134.69,76.3Zm-9.55-13.13c.3,1,1.55,5.28,1.47,6.53s.61,2.47,2,3.68,5.54,2.76,6.22,2.52a21.92,21.92,0,0,0,5.27-5.32,7.61,7.61,0,0,0,.92-3.92v-.17l.16,0a4.54,4.54,0,0,0,1.34-.46l.06,0c.47-.33,1.56-1.09,1.19-3.5a1.56,1.56,0,0,0-.75-1.3c-.72-.32-1.73.34-1.74.34l-.11.08-6.66-5c.22.53.51,1.29.91,2.39l.07.18-7.13,2.56-2.07-2.12.48,3.34ZM134,55.64Z"/><path class="cls-4" d="M130.12,69.16a.81.81,0,0,1-.75-.35c-.32-.54.06-1.16.41-1.71.11-.19.22-.37.31-.54a.79.79,0,0,0-.26-.94l.23-.3a1.15,1.15,0,0,1,.37,1.41q-.15.28-.33.57c-.3.48-.61,1-.41,1.31s1.05.1,1.43-.07l.16.34A3.11,3.11,0,0,1,130.12,69.16Z"/><path class="cls-4" d="M131.6,71.94l0-.38c3.34-.27,3.46-2.75,3.46-2.86l.38,0S135.28,71.64,131.6,71.94Z"/><path class="cls-4" d="M133,64.49c.18.67.6,1.11.93,1s.45-.74.27-1.4-.61-1.11-.94-1S132.82,63.83,133,64.49Z"/><path class="cls-4" d="M127,66.24c.18.66.6,1.11.93,1s.45-.74.27-1.41-.61-1.11-.94-1S126.76,65.57,127,66.24Z"/><path class="cls-4" d="M134,67.17a3.07,3.07,0,0,1-3.09-3.31,3.56,3.56,0,0,1,3.5-3.28,3.05,3.05,0,0,1,3.09,3.31A3.56,3.56,0,0,1,134,67.17Zm.41-6.21a3.18,3.18,0,0,0-3.12,2.93,2.69,2.69,0,0,0,2.71,2.9,3.17,3.17,0,0,0,3.12-2.93,2.68,2.68,0,0,0-2.71-2.9Z"/><path class="cls-4" d="M127.44,69.44a2.42,2.42,0,0,1-1.21-.33,3.19,3.19,0,0,1-1.45-2,3.13,3.13,0,0,1,1.85-3.79,2.36,2.36,0,0,1,1.88.23,3.31,3.31,0,0,1-.4,5.81A2.18,2.18,0,0,1,127.44,69.44Zm-.14-5.86a2.1,2.1,0,0,0-.56.08A2.75,2.75,0,0,0,125.15,67h0a2.77,2.77,0,0,0,1.27,1.78A2.05,2.05,0,0,0,128,69a2.93,2.93,0,0,0,.32-5.12A2,2,0,0,0,127.3,63.58Z"/><path class="cls-4" d="M131.62,61.48l-.31-.23c1-1.37,3.45-1.27,3.56-1.26l0,.38S132.52,60.27,131.62,61.48Z"/><path class="cls-4" d="M125.73,63.84l-.31-.22a4.43,4.43,0,0,1,2.44-1.2l.06.37A4.11,4.11,0,0,0,125.73,63.84Z"/><rect class="cls-4" x="137.16" y="61.76" width="4.14" height="0.38" transform="translate(-11.96 42.9) rotate(-16.81)"/><path class="cls-4" d="M129.63,65.12l-.23-.3a2.65,2.65,0,0,1,1.68-.5l0,.38A2.26,2.26,0,0,0,129.63,65.12Z"/><path class="cls-3" d="M156.3,86l-.45-.2c-1.79-.77-9.95-3.6-9.95-3.6l-3.12-2.6,2.73-7.66c.19-.53-2.84-3.36-2.84-3.36a1.29,1.29,0,0,0-.77-.25c-.37,0-.3.68-.3.68a3.24,3.24,0,0,0-1-.24c-.46,0-.21,1.49-.21,1.49s-.65-.46-.85-.16.22,1.16.22,1.16l-.23,0c-.24,0-.69,0-.5.66a19.68,19.68,0,0,0,1.81,2.76s-1.74,4.29-1.66,5.43,1.67,2.61,1.67,2.61l-1.3,2.22,1.25.76s11.88,10.34,14.75,12Z"/><path class="cls-4" d="M155.69,98.07l-.27-.16c-2.84-1.69-14.29-11.64-14.77-12.07L139.27,85l1.31-2.25A5.2,5.2,0,0,1,139,80.13c-.07-1.1,1.37-4.75,1.64-5.42A17.31,17.31,0,0,1,138.82,72a.62.62,0,0,1,.63-.9c-.14-.33-.29-.83-.1-1.11a.42.42,0,0,1,.28-.18.94.94,0,0,1,.49.1,1.91,1.91,0,0,1,.15-1.19.39.39,0,0,1,.3-.14,3,3,0,0,1,.84.16c0-.27.15-.56.47-.6a1.52,1.52,0,0,1,.9.28c1.18,1.11,3.11,3,2.91,3.59s-2.34,6.58-2.68,7.53L146,82c.57.2,8.21,2.86,9.92,3.59l.46.21.11,0Zm-15.91-13.2,1.09.67c.14.12,11.26,9.78,14.48,11.88l.75-11.32-.33-.15c-1.76-.75-9.85-3.56-9.93-3.59l-.06,0-3.22-2.69.05-.13,2.72-7.65c0-.32-1.43-1.89-2.79-3.16a1,1,0,0,0-.62-.2c-.15,0-.14.38-.13.46l0,.32-.3-.12a3.22,3.22,0,0,0-1-.22,2.29,2.29,0,0,0,0,1.27l.08.45-.38-.27a1,1,0,0,0-.55-.22c-.11.14,0,.62.21,1l.12.25-.5,0c-.13,0-.3,0-.35.11a.47.47,0,0,0,0,.31,19.76,19.76,0,0,0,1.78,2.7l.07.08,0,.1c-.6,1.47-1.71,4.48-1.65,5.35.07,1.06,1.59,2.46,1.61,2.48l.11.1Z"/><path class="cls-4" d="M143.74,72a32.38,32.38,0,0,0-2.28-2.87l.28-.25a29.21,29.21,0,0,1,2.35,3Z"/><rect class="cls-4" x="141.39" y="69.72" width="0.38" height="3.41" transform="translate(-8.23 123.41) rotate(-45.91)"/><path class="cls-4" d="M141.59,73.58c-.08-.15-1.09-1.25-2-2.21l.28-.26a26.71,26.71,0,0,1,2.07,2.34Z"/><path class="cls-5" d="M156.3,86l-.45-.2c-1.79-.77-9.95-3.6-9.95-3.6l-3.12-2.6-2,3.14-1.3,2.22,1.25.76s11.88,10.34,14.75,12Z"/><path class="cls-4" d="M155.69,98.07l-.27-.16c-2.84-1.69-14.29-11.64-14.77-12.07L139.27,85l1.38-2.38,2.09-3.33L146,82c.57.2,8.21,2.86,9.92,3.59l.46.21.11,0Zm-15.91-13.2,1.09.67c.14.12,11.26,9.78,14.48,11.88l.75-11.32-.33-.15c-1.76-.75-9.85-3.56-9.93-3.59l-.06,0-2.95-2.47-1.85,3Z"/><path class="cls-4" d="M113.86,99.29a26.81,26.81,0,0,0-5.16-2l.1-.37A27.82,27.82,0,0,1,114,99Z"/><path class="cls-5" d="M120.23,109.63a31.14,31.14,0,0,0-2.28-3.36c-1.14-1.4-2.49-6-2.49-6s1.31-.69.56-1.56S109.46,94,109.46,94l-2.4-1.6s-.4.17-1,.43l-.54,8.21c3.66,4.09,9.92,10.43,10.21,10.81a25.24,25.24,0,0,0,2.66,2.38c.63.5.9,0,1.6-.37a34.27,34.27,0,0,0,3.45-3.07Z"/><path class="cls-4" d="M118.92,114.65a.93.93,0,0,1-.6-.24,25.16,25.16,0,0,1-2.69-2.41c-.09-.13-.95-1-2-2.15-2.15-2.23-5.75-6-8.16-8.65l-.06-.06.56-8.41.1,0,1-.42.09,0,2.48,1.65c.24.15,5.85,3.79,6.61,4.68a1,1,0,0,1,.25.83,1.62,1.62,0,0,1-.74.94c.24.78,1.42,4.61,2.42,5.83a31.86,31.86,0,0,1,2.26,3.32l3.47,1.27-.21.21a32,32,0,0,1-3.5,3.11,4.87,4.87,0,0,0-.47.28A1.32,1.32,0,0,1,118.92,114.65ZM105.76,101c2.41,2.68,6,6.37,8.1,8.58,1.33,1.38,2,2,2.07,2.18a24.13,24.13,0,0,0,2.63,2.34c.34.28.5.18.88-.08a3.8,3.8,0,0,1,.51-.31,28.26,28.26,0,0,0,3.19-2.83l-3-1.11,0-.06a30.17,30.17,0,0,0-2.26-3.33c-1.15-1.41-2.47-5.92-2.53-6.11l0-.15.14-.07c.16-.09.61-.39.68-.75a.59.59,0,0,0-.17-.52,74.77,74.77,0,0,0-6.53-4.6L107,92.65c-.13.06-.41.17-.75.33Z"/><path class="cls-3" d="M123.49,110.82a17.73,17.73,0,0,1,3.54.41,14.52,14.52,0,0,1,2,4.14c.16,1-.24,3-.47,2.94a.9.9,0,0,1-.66-.87c-.06-.65-.07-1.62-.07-1.62l-1-1.54a25.79,25.79,0,0,1-.07,3,12.93,12.93,0,0,1-1.16,1.26,13.43,13.43,0,0,1-2.25-.45c-.3-.19-.84-.8-.45-1.25s.16,0,.39-.45-.22-2.12-.22-2.12a7.5,7.5,0,0,1-1.71.17,3.66,3.66,0,0,1-1.36-.53Z"/><path class="cls-4" d="M125.71,118.72h-.09a11.72,11.72,0,0,1-2.34-.48,1.57,1.57,0,0,1-.66-.94.74.74,0,0,1,.18-.6,1.19,1.19,0,0,1,.29-.26l.07-.14a4.26,4.26,0,0,0-.19-1.82,7.46,7.46,0,0,1-1.59.14,4,4,0,0,1-1.45-.56l-.21-.14,3.7-3.28h.08a14.79,14.79,0,0,1,3.65.45,14.14,14.14,0,0,1,2.06,4.25,5.71,5.71,0,0,1-.48,3.12.25.25,0,0,1-.25,0l0,0a1.07,1.07,0,0,1-.72-1c0-.57-.07-1.37-.07-1.59l-.57-.91a12.33,12.33,0,0,1-.1,2.38,11.61,11.61,0,0,1-1.2,1.32Zm-2.48-1.93a1.9,1.9,0,0,0-.15.15.34.34,0,0,0-.08.29,1.17,1.17,0,0,0,.49.68,10.78,10.78,0,0,0,2.08.41,10.51,10.51,0,0,0,1.06-1.15,25.69,25.69,0,0,0,.05-2.89v-.68l1.35,2.16v.06s0,1,.07,1.6a.69.69,0,0,0,.44.67,6.81,6.81,0,0,0,.31-2.69,15.25,15.25,0,0,0-1.92-4,15.93,15.93,0,0,0-3.36-.37l-3.2,2.85a3.32,3.32,0,0,0,1,.37,8.14,8.14,0,0,0,1.66-.16l.17,0,.05.17a4.83,4.83,0,0,1,.21,2.26C123.38,116.7,123.34,116.78,123.23,116.79Zm5.41,1.34Z"/><path class="cls-4" d="M123.45,118.25l-.13-.36a1.78,1.78,0,0,0,1-1.13,30.29,30.29,0,0,0-.45-3.38l.38-.07a31.25,31.25,0,0,1,.44,3.5A2.12,2.12,0,0,1,123.45,118.25Z"/><path class="cls-4" d="M124.52,118.57h0l0-.38a5.81,5.81,0,0,0,1.19-1.19,28.22,28.22,0,0,0-.21-3.7l.38,0a19,19,0,0,1,.15,3.92C125.93,117.4,124.93,118.57,124.52,118.57Z"/><polygon class="cls-2" points="110.84 164.02 110.59 163.74 112.65 161.9 112.9 162.18 110.84 164.02"/><rect class="cls-2" x="109.25" y="145.34" width="43.96" height="0.38" transform="translate(-63.58 124.36) rotate(-41.75)"/><rect class="cls-2" x="103.94" y="151.73" width="32.77" height="0.38" transform="translate(-70.6 118.72) rotate(-41.75)"/><rect class="cls-2" x="145.66" y="55.71" width="11.3" height="0.38" transform="translate(1.24 115.06) rotate(-41.79)"/><rect class="cls-2" x="143.89" y="61.64" width="6.78" height="0.38" transform="translate(-3.73 113.88) rotate(-41.79)"/><rect class="cls-2" x="151.04" y="57.18" width="2.46" height="0.38" transform="translate(0.51 116.07) rotate(-41.79)"/><path class="cls-5" d="M108.12,46.82,98.79,188.23h51.68L159.8,46.82Zm40.64,138.39H100.89l8.93-135.37h47.87Z"/><path class="cls-2" d="M150.65,188.42H98.59l9.35-141.79H160ZM99,188h51.3l9.3-141H108.3Zm50-2.64H100.69l9-135.75H157.9ZM101.1,185h47.49l8.9-135H110Z"/><path class="cls-2" d="M79.27,63h2.06S82.8,56,79.86,52.41,70,47.21,66.11,48.88s-5.5,6.58-6.28,8.24S54.52,67.24,52.56,73,50.89,81,57,86.09s20.32.78,23.86-1,4.71-4.42,2.65-10.9A108.8,108.8,0,0,0,79.27,63Z"/><path class="cls-2" d="M65.46,88.67c-3.32,0-6.46-.64-8.6-2.44-6.17-5.17-6.48-7.34-4.48-13.26A128.36,128.36,0,0,1,58.8,58.76c.39-.77.7-1.39.85-1.72s.23-.5.37-.83c.89-2.11,2.55-6,6-7.51,4.09-1.74,11,0,14,3.59s1.58,10.47,1.51,10.76l0,.16H79.56a115.08,115.08,0,0,1,4.11,10.94c2,6.13,1.21,9.15-2.75,11.13A41.94,41.94,0,0,1,65.46,88.67Zm4.23-40.25a9.08,9.08,0,0,0-3.51.63c-3.32,1.41-4.94,5.25-5.81,7.31-.14.33-.26.62-.37.85s-.46.92-.87,1.73a128.15,128.15,0,0,0-6.39,14.15c-1.94,5.72-1.63,7.83,4.36,12.85s20.36.65,23.65-1S85.46,81,83.31,74.27a108.7,108.7,0,0,0-4.22-11.18L79,62.83h2.2c.19-1,1.16-7.16-1.46-10.3C77.63,50,73.35,48.42,69.69,48.42Z"/><path class="cls-3" d="M52.53,114.27l-.9,6s-5.14,15.17-5.85,20.31a111.58,111.58,0,0,0-.8,11.74s-4.68,11.62-5.15,16.28a30,30,0,0,1-3.71,10.52c-.48.72-5.26,1.31-7,.48s-3.94-1.91-4.42-1,0,2.15,1.43,3.23a35.3,35.3,0,0,0,5.38,3.34c1.2.48,5,2.27,6.1,2.87s2.51-.95,3-2.51,1.56-5.38,1.8-5.73,5.49-8.73,7.76-13,4.56-14,4.56-14L65.37,131l2.39,22.27s-.59,6.33.84,10.87,1.32,16.1,1.32,17-1.68,6.93-1.08,7.89c.46.73,4.53.55,6.43.43a1.57,1.57,0,0,0,1.42-1.17,2.83,2.83,0,0,0,0-1.53c-.36-1.2-1.44-4.06-1.32-6s2-13.34,2.27-18.84a75.56,75.56,0,0,0-.36-10.64s4.66-17.36,5-25.61-3.93-12.83-3.93-12.83Z"/><path class="cls-2" d="M72.17,189.8c-2.06,0-3.23-.22-3.49-.64-.41-.65,0-2.89.63-5.75a18.08,18.08,0,0,0,.42-2.24V181c0-3.76-.09-12.91-1.31-16.78-1.39-4.4-.88-10.54-.85-10.93l-2.31-21.6L54.84,152.82c-.12.51-2.36,9.86-4.57,14s-7.55,12.71-7.78,13-.82,2.48-1.25,4l-.51,1.72a4.39,4.39,0,0,1-2.11,2.66,1.34,1.34,0,0,1-1.16,0c-1-.58-4.83-2.36-6.07-2.86A34.76,34.76,0,0,1,26,182c-1.47-1.1-2-2.4-1.49-3.46s2.49-.16,4.38.73l.29.14c1.81.84,6.44.15,6.81-.42a29.46,29.46,0,0,0,3.68-10.43c.47-4.55,4.82-15.48,5.15-16.3a114.14,114.14,0,0,1,.8-11.72c.71-5.1,5.81-20.2,5.86-20.35l.92-6.08,26.11-1.39.07.06s4.34,4.74,4,13c-.34,8-4.78,24.74-5,25.62A77,77,0,0,1,77.87,162c-.15,3.6-1,9.66-1.64,14.09-.33,2.29-.59,4.1-.63,4.76A16.56,16.56,0,0,0,76.68,186l.23.71a3.06,3.06,0,0,1,0,1.64,1.78,1.78,0,0,1-1.59,1.31Q73.49,189.8,72.17,189.8Zm-6.68-59.49L68,153.24v0c0,.07-.57,6.35.83,10.8C70,168,70.12,177.19,70.11,181v.21a19.46,19.46,0,0,1-.42,2.32c-.39,1.83-1,4.9-.69,5.47.21.33,2,.62,6.26.34a1.4,1.4,0,0,0,1.25-1,2.59,2.59,0,0,0,0-1.43c-.05-.19-.13-.43-.22-.71a16.8,16.8,0,0,1-1.1-5.33c0-.67.3-2.48.63-4.78.63-4.42,1.49-10.48,1.64-14.06a77.4,77.4,0,0,0-.35-10.61v-.07c0-.17,4.66-17.43,5-25.56a18.63,18.63,0,0,0-3.82-12.64L52.7,114.45l-.88,5.81c-.06.18-5.15,15.25-5.86,20.31a114,114,0,0,0-.79,11.71l0,.07c0,.12-4.66,11.65-5.13,16.23a30.09,30.09,0,0,1-3.74,10.6c-.57.85-5.53,1.37-7.29.55l-.29-.14c-1.57-.73-3.51-1.64-3.88-.9-.45.89.07,2,1.38,3A36.36,36.36,0,0,0,31.53,185c1.15.46,5,2.25,6.12,2.88a.93.93,0,0,0,.83,0,4,4,0,0,0,1.88-2.41c.14-.44.32-1,.51-1.71a37.74,37.74,0,0,1,1.31-4.08c.22-.33,5.49-8.72,7.76-13s4.51-13.87,4.53-14l0,0Z"/><path class="cls-5" d="M29.07,179.56c-1.79-.84-3.94-1.91-4.42-1s0,2.15,1.43,3.23a35.3,35.3,0,0,0,5.38,3.34c1.2.48,5,2.27,6.1,2.87s2.51-.95,3-2.51c.14-.44.33-1.08.53-1.76a8.62,8.62,0,0,1-4.23-1.94,2.15,2.15,0,0,0,.48-2c-.24-1.44-1.2-.72-1.2-.72C35.64,179.8,30.86,180.39,29.07,179.56Z"/><path class="cls-2" d="M38.06,188.36a1.27,1.27,0,0,1-.6-.15c-1-.58-4.83-2.36-6.07-2.86A34.76,34.76,0,0,1,26,182c-1.47-1.1-2-2.4-1.49-3.46s2.49-.16,4.38.73l.29.14c1.81.84,6.44.15,6.81-.42l0,0a1,1,0,0,1,.89-.17c.31.13.51.46.6,1a2.51,2.51,0,0,1-.39,2,8.51,8.51,0,0,0,4,1.77l.21,0-.08.26c-.19.67-.37,1.28-.5,1.71a4.39,4.39,0,0,1-2.11,2.66A1.64,1.64,0,0,1,38.06,188.36Zm-12.66-10a.58.58,0,0,0-.58.28c-.45.89.07,2,1.38,3A36.36,36.36,0,0,0,31.53,185c1.15.46,5,2.25,6.12,2.88a.93.93,0,0,0,.83,0,4,4,0,0,0,1.88-2.41c.13-.4.29-1,.47-1.56A8.69,8.69,0,0,1,36.71,182l-.16-.15.17-.14a2,2,0,0,0,.41-1.85c-.07-.4-.19-.64-.37-.72a.59.59,0,0,0-.5.11c-.67.83-5.53,1.32-7.27.51l-.29-.14A10.69,10.69,0,0,0,25.4,178.41Z"/><path class="cls-3" d="M29.5,182.8a19.74,19.74,0,0,1-4.79-4.28l-.06.08c-.48,1,0,2.15,1.43,3.23a35.3,35.3,0,0,0,5.38,3.34c1.2.48,5,2.27,6.1,2.87.57.32,1.24,0,1.82-.55C36.87,186.41,31.76,184.16,29.5,182.8Z"/><path class="cls-2" d="M38.06,188.36a1.27,1.27,0,0,1-.6-.15c-1-.58-4.83-2.36-6.07-2.86A34.76,34.76,0,0,1,26,182c-1.47-1.1-2-2.4-1.49-3.46a.7.7,0,0,1,.06-.09l.14-.19.17.16a20.11,20.11,0,0,0,4.75,4.24,106.57,106.57,0,0,0,9.85,4.67l.26.12-.2.19A2.12,2.12,0,0,1,38.06,188.36Zm-13.31-9.49c-.29.87.24,1.9,1.45,2.81A36.36,36.36,0,0,0,31.53,185c1.15.46,5,2.25,6.12,2.88a1.28,1.28,0,0,0,1.38-.33c-2.78-1.21-7.47-3.29-9.62-4.59h0A19.89,19.89,0,0,1,24.75,178.87Z"/><path class="cls-5" d="M75.42,181.47c-.31-.64-1.21-2.27-2.57-2.5-1.7-.28-2.93,2.2-2.93,2.2,0,1-1.68,6.93-1.08,7.89.46.73,4.53.55,6.44.43a1.57,1.57,0,0,0,1.41-1.17,2.83,2.83,0,0,0,0-1.53A24.7,24.7,0,0,1,75.42,181.47Z"/><path class="cls-2" d="M72.17,189.8c-2.06,0-3.23-.22-3.49-.64-.41-.65,0-2.89.63-5.75a18.08,18.08,0,0,0,.42-2.24v0l0,0c0-.11,1.31-2.61,3.13-2.31,1.43.24,2.37,1.9,2.71,2.61l0,.07A20.17,20.17,0,0,0,76.68,186l.23.71a3.06,3.06,0,0,1,0,1.64,1.78,1.78,0,0,1-1.59,1.31Q73.49,189.8,72.17,189.8Zm-2.07-8.58a20,20,0,0,1-.41,2.27c-.39,1.83-1,4.9-.69,5.47.21.33,2,.62,6.26.34a1.4,1.4,0,0,0,1.25-1,2.59,2.59,0,0,0,0-1.43c-.05-.19-.13-.43-.22-.7a20.19,20.19,0,0,1-1.09-4.62c-.33-.67-1.18-2.16-2.42-2.36C71.38,178.92,70.26,180.92,70.1,181.22Z"/><path class="cls-3" d="M68.72,188.08a2,2,0,0,0,.12,1c.46.73,4.53.55,6.44.43a1.57,1.57,0,0,0,1.41-1.17v0A49.62,49.62,0,0,1,68.72,188.08Z"/><path class="cls-2" d="M72.17,189.8c-2.06,0-3.23-.22-3.49-.64a1.92,1.92,0,0,1-.15-1.09v-.2l.2,0a49.23,49.23,0,0,0,7.94.22l.26,0-.06.25a1.77,1.77,0,0,1-1.59,1.34Q73.49,189.8,72.17,189.8Zm-3.27-1.51a1.43,1.43,0,0,0,.1.67c.21.33,2,.62,6.26.34a1.36,1.36,0,0,0,1.16-.8A48.31,48.31,0,0,1,68.9,188.29Z"/><path class="cls-7" d="M52.53,114.27l-.9,6s-5.14,15.17-5.85,20.31a111.58,111.58,0,0,0-.8,11.74s-4.68,11.62-5.15,16.28a21.35,21.35,0,0,1-.94,4.23,26.31,26.31,0,0,0,6.19,2.59c1.71-2.79,3.8-6.29,5-8.61,2.27-4.3,4.56-14,4.56-14L65.37,131l2.39,22.27s-.59,6.33.84,10.87a44.34,44.34,0,0,1,1.23,10,53.56,53.56,0,0,0,6.39-.32c.6-3.77,1.32-8.55,1.46-11.79a75.56,75.56,0,0,0-.36-10.64s4.66-17.36,5-25.61-3.93-12.83-3.93-12.83Z"/><path class="cls-7" d="M45.17,175.6l-.14,0A26.09,26.09,0,0,1,38.8,173l-.13-.08,0-.15a20.5,20.5,0,0,0,.93-4.19c.47-4.55,4.82-15.48,5.15-16.3a114.14,114.14,0,0,1,.8-11.72c.71-5.1,5.81-20.2,5.86-20.35l.92-6.08,26.11-1.39.07.06s4.34,4.74,4,13c-.34,8-4.78,24.74-5,25.62A77,77,0,0,1,77.87,162a118.45,118.45,0,0,1-1.46,11.81l0,.14-.14,0a54.19,54.19,0,0,1-6.42.32h-.18v-.18a42.16,42.16,0,0,0-1.22-9.91c-1.39-4.4-.88-10.54-.85-10.93l-2.31-21.6L54.84,152.82c-.12.51-2.36,9.86-4.57,14-1.26,2.4-3.43,6-5,8.62Zm-6.05-2.9A25.62,25.62,0,0,0,45,175.16c1.58-2.6,3.69-6.12,4.94-8.48,2.23-4.23,4.51-13.87,4.53-14l0,0,11-22.36L68,153.24v0c0,.07-.57,6.35.83,10.8A41.54,41.54,0,0,1,70,173.89h.11a53.27,53.27,0,0,0,5.94-.3A117.17,117.17,0,0,0,77.49,162a77.4,77.4,0,0,0-.35-10.61v-.07c0-.17,4.66-17.43,5-25.56a18.63,18.63,0,0,0-3.82-12.64L52.7,114.45l-.88,5.81c-.06.18-5.15,15.25-5.86,20.31a114,114,0,0,0-.79,11.71l0,.07c0,.12-4.66,11.65-5.13,16.23A20.94,20.94,0,0,1,39.12,172.7Z"/><path class="cls-2" d="M65.19,131c0-.23-.48-5.54-.36-7.68l.38,0c-.12,2.12.35,7.57.35,7.63Z"/><rect class="cls-2" x="63.03" y="122.26" width="0.38" height="4.31" transform="translate(-75.36 108) rotate(-56.31)"/><path class="cls-5" d="M52.53,114.27l-.24,2.07a27.38,27.38,0,0,0,11.94,2.31,41.65,41.65,0,0,0,12.68-1.78c2-.59,3-1.22,3-1.54a11,11,0,0,0-.41-1.59s-3.3,1.81-10.33,2.74S52.53,114.27,52.53,114.27Z"/><path class="cls-2" d="M63.71,118.85a27.72,27.72,0,0,1-11.51-2.34l-.11-.06.28-2.43.22.07c.1,0,9.7,3.13,16.61,2.21s10.22-2.71,10.26-2.73l.2-.11.07.22a10.61,10.61,0,0,1,.42,1.65c0,.73-2.65,1.57-3.18,1.73a42.42,42.42,0,0,1-12.74,1.78ZM52.5,116.23a27.67,27.67,0,0,0,11.72,2.23,41.84,41.84,0,0,0,12.64-1.77c2.08-.63,2.87-1.2,2.91-1.37a8.77,8.77,0,0,0-.34-1.31,34.69,34.69,0,0,1-10.18,2.66c-6.41.85-15.07-1.69-16.55-2.15Z"/><path class="cls-5" d="M63.41,77.74a19.8,19.8,0,0,1-5.29.54c-2.06-.23-3.21-1.23-5.66.07S41.06,90.22,40.75,90.52s-1,4.06,0,5.82,2.07,2.14,4.44,1.61,5.89-3.37,5.89-3.37,2.61,8.49,2.61,9.18-2.61,10.11-2.22,10.87,7.57,3.45,16.3,3,12.09-2.91,12.17-4.21S78.25,100.63,77.87,98a39.54,39.54,0,0,1-.38-5s6.73,5.13,11.71,5,6.5-2.45,6.28-4S90,88,89.2,87.16,80,76.59,77,76.06a7.91,7.91,0,0,0-6,1.15C70.37,77.74,63.41,77.74,63.41,77.74Z"/><path class="cls-2" d="M65.81,117.86c-7.68,0-14.08-2.28-14.51-3.14-.24-.48.29-2.89,1.48-7.79.37-1.52.72-3,.72-3.17,0-.47-1.48-5.46-2.52-8.86-.81.63-3.68,2.76-5.75,3.23-2.44.55-3.61.13-4.64-1.7s-.34-5.68,0-6l.65-.74c2.22-2.56,9-10.34,11.1-11.46a5.17,5.17,0,0,1,4.26-.4,10.49,10.49,0,0,0,1.52.3,20.2,20.2,0,0,0,5.21-.53h0c3.37,0,7-.18,7.36-.48.66-.66,3.24-1.72,6.22-1.2,1.89.33,6.06,4.07,12.05,10.82l.3.34c.18.19.62.6,1.17,1.12,2.51,2.34,5,4.73,5.15,5.87A2.79,2.79,0,0,1,95,96.2c-1.07,1.26-3.11,2-5.75,2-4.43.08-10.12-3.85-11.52-4.86A40.42,40.42,0,0,0,78.06,98c0,.35.13.87.22,1.5.62,4.15,1.91,12.77,1.85,13.92-.09,1.45-3.52,3.92-12.35,4.39C67.11,117.84,66.46,117.86,65.81,117.86ZM51.18,94.26l.08.26c.27.88,2.62,8.55,2.62,9.24,0,.26-.27,1.35-.73,3.26-.6,2.47-1.72,7.06-1.51,7.53.35.7,7.52,3.33,16.12,2.88,8.82-.47,11.93-3,12-4s-1.27-10-1.84-13.84c-.1-.64-.17-1.16-.23-1.51A39.42,39.42,0,0,1,77.3,93v-.38l.3.23c.07.05,6.74,5.1,11.6,5,2.52,0,4.46-.7,5.46-1.87a2.46,2.46,0,0,0,.63-1.89c-.17-1.1-3.34-4-5-5.64-.56-.53-1-.94-1.19-1.15l-.31-.34C80.86,78.05,78,76.42,76.92,76.24A7.8,7.8,0,0,0,71,77.34c-.55.55-5.93.59-7.61.59a19.77,19.77,0,0,1-5.33.54,12.3,12.3,0,0,1-1.56-.31,4.81,4.81,0,0,0-4,.36c-1.36.73-5.06,4.55-11,11.38l-.66.76c-.26.3-.94,3.88,0,5.59s1.93,2,4.23,1.51,5.78-3.3,5.81-3.33Z"/><path class="cls-2" d="M59.5,86,52.67,98.08l-1.59-3.5S48.2,98,45.19,98s.17-8.45.17-8.45Z"/><path class="cls-2" d="M52.65,98.5,51,94.92c-.71.77-3.18,3.22-5.81,3.22h0a1.31,1.31,0,0,1-1.1-.56c-1.26-1.85,1-7.89,1.09-8.15l0-.09,14.66-3.62ZM45.5,89.66c-.28.78-2.17,6.13-1.09,7.7a.91.91,0,0,0,.78.4h0c2.87,0,5.69-3.27,5.72-3.3l.19-.23,1.56,3.43L59.12,86.3Z"/><polygon class="cls-2" points="77.49 92.97 73.8 91.89 77.45 95.86 77.49 92.97"/><path class="cls-2" d="M77.63,96.34l-4.44-4.83,4.49,1.32ZM74.4,92.26l2.87,3.12,0-2.27Z"/><path class="cls-2" d="M71.78,105.44c-3-1.18-12.72-6.44-12.82-6.5l.18-.33c.1,0,9.76,5.3,12.78,6.48Z"/><rect class="cls-2" x="67.22" y="103.15" width="0.38" height="4.06" transform="matrix(0.38, -0.93, 0.93, 0.38, -55.46, 127.76)"/><path class="cls-3" d="M62.56,69.47s.31,7.43.16,8.65-1.61,4.14-2,6.43,3.82,4.06,5.51,2.15,4.13-4.83,4.44-6.28.69-7,.69-7-2.91,1.23-3.75.23A65.05,65.05,0,0,0,62.56,69.47Z"/><path class="cls-2" d="M64.25,87.69a4.46,4.46,0,0,1-1.87-.42,2.75,2.75,0,0,1-1.84-2.75,24.49,24.49,0,0,1,1.23-4,14.56,14.56,0,0,0,.76-2.39c.15-1.19-.15-8.54-.16-8.62v-.4l.32.24a64.09,64.09,0,0,1,5.08,4.24c.62.73,2.76,0,3.53-.28l.29-.12,0,.31c0,.22-.39,5.54-.7,7s-2.71,4.35-4.48,6.36A2.73,2.73,0,0,1,64.25,87.69ZM62.77,69.87c.06,1.59.27,7.2.14,8.28a14.83,14.83,0,0,1-.78,2.47,23.63,23.63,0,0,0-1.22,4,2.44,2.44,0,0,0,1.63,2.34,3.07,3.07,0,0,0,3.56-.35c1-1.14,4.06-4.62,4.39-6.19.26-1.23.58-5.47.67-6.64-.81.3-2.92,1-3.69.07A53.08,53.08,0,0,0,62.77,69.87Z"/><path class="cls-2" d="M67.62,73.68a65.05,65.05,0,0,0-5.06-4.21s0,1.14.1,2.6c1.67,3.1,4.37,6.64,8.19,7.2.26-2.14.52-5.82.52-5.82S68.46,74.68,67.62,73.68Z"/><path class="cls-2" d="M71,79.48l-.2,0c-3.94-.57-6.71-4.28-8.33-7.29l0,0v0c0-1.46-.1-2.6-.1-2.6v-.4l.32.24a64.09,64.09,0,0,1,5.08,4.24h0c.62.73,2.76,0,3.53-.28l.29-.12,0,.31s-.26,3.7-.52,5.82ZM62.85,72c1.55,2.88,4.16,6.39,7.84,7,.2-1.77.4-4.42.47-5.31-.81.3-2.92,1-3.69.07a53.08,53.08,0,0,0-4.7-3.94C62.79,70.32,62.82,71.11,62.85,72Z"/><path class="cls-3" d="M70,55.75l-7.76,5.6S60,59.78,59.43,62.43s.69,3.43,1.08,3.73a4.85,4.85,0,0,0,1.38.49,7.42,7.42,0,0,0,.69,4c1,1.87,4.22,5.11,5,5.4s5.11-1.37,6.58-2.55,2.36-2.45,2.36-3.83,2-6.67,2-6.67l-1.67-.3L77.6,59l-2.55,2.45L68.37,59S70.23,54.67,70,55.75Z"/><path class="cls-2" d="M67.83,76.3a.87.87,0,0,1-.31,0c-.85-.31-4.13-3.62-5.11-5.49a7.54,7.54,0,0,1-.73-4,4.31,4.31,0,0,1-1.28-.49l-.06,0c-.46-.34-1.68-1.23-1.09-3.88a2,2,0,0,1,1.1-1.59,2.31,2.31,0,0,1,1.92.32l7.38-5.32c.26-.46.35-.43.44-.4s.15.29.13.38v.08l-.28.2c-.29.56-.82,1.71-1.31,2.82L75,61.23l2.91-2.8L77,62.57l1.7.3-.08.21c0,.05-2,5.29-2,6.61s-.82,2.69-2.43,4C73,74.71,69.17,76.3,67.83,76.3ZM60.92,61.07a1.26,1.26,0,0,0-.43.08,1.67,1.67,0,0,0-.87,1.32c-.54,2.41.5,3.17,1,3.49l.06.05a4.12,4.12,0,0,0,1.3.45l.17,0,0,.17a7.28,7.28,0,0,0,.66,3.92,19.73,19.73,0,0,0,4.91,5.31c.66.24,4.91-1.34,6.39-2.53s2.29-2.45,2.29-3.68,1.52-5.51,1.9-6.53l-1.64-.29.7-3.32-2.2,2.11-7-2.56.07-.19c.47-1.08.82-1.84,1.07-2.36l-7,5-.11-.08A2.57,2.57,0,0,0,60.92,61.07Z"/><path class="cls-2" d="M72.86,69.16a3.25,3.25,0,0,1-1.14-.28l.16-.34c.3.13,1.19.43,1.44.07s0-.82-.32-1.32c-.1-.19-.21-.38-.29-.57a1.19,1.19,0,0,1,.46-1.4l.22.3a.84.84,0,0,0-.33.95,5.31,5.31,0,0,0,.27.53c.31.56.66,1.18.3,1.72A.86.86,0,0,1,72.86,69.16Z"/><path class="cls-2" d="M71.2,71.94c-3.67-.3-3.61-3.21-3.61-3.24l.38,0c0,.1,0,2.57,3.26,2.84Z"/><path class="cls-2" d="M70.27,64.49c-.22.67-.67,1.11-1,1s-.4-.74-.17-1.4.68-1.11,1-1S70.5,63.83,70.27,64.49Z"/><path class="cls-2" d="M76.22,66.24c-.23.66-.68,1.11-1,1s-.4-.74-.17-1.41.67-1.11,1-1S76.45,65.57,76.22,66.24Z"/><path class="cls-2" d="M69.1,67.17a3.3,3.3,0,1,1,3.29-3.29A3.3,3.3,0,0,1,69.1,67.17Zm0-6.21A2.92,2.92,0,1,0,72,63.88,2.92,2.92,0,0,0,69.1,61Z"/><path class="cls-2" d="M75.53,69.44a2.18,2.18,0,0,1-.67-.1,3.21,3.21,0,1,1,3.47-2.24h0A3.13,3.13,0,0,1,75.53,69.44Zm.52-5.86a2.73,2.73,0,0,0-2.43,2.07,2.32,2.32,0,1,0,3-2A1.77,1.77,0,0,0,76.05,63.58Z"/><path class="cls-2" d="M71.87,61.47c-.82-1.2-3.13-1.1-3.15-1.1l0-.38c.11,0,2.54-.11,3.48,1.26Z"/><path class="cls-2" d="M77.6,63.83c-.48-.75-2.1-1-2.12-1l.07-.37a4.12,4.12,0,0,1,2.37,1.21Z"/><rect class="cls-2" x="64.03" y="59.91" width="0.38" height="4.07" transform="translate(-13.9 105.06) rotate(-72.86)"/><path class="cls-2" d="M73.62,65.12a2.16,2.16,0,0,0-1.39-.42l0-.38a2.57,2.57,0,0,1,1.66.5Z"/><path class="cls-3" d="M60.34,68.56s-3.21,2.83-3.06,3.36,2.22,7.66,2.22,7.66l-3.29,2.6S47.87,85,46,85.78,39.45,89,38.61,91s-.16,5.51,1.15,6.74,3.36,1.07,5.43.23S61.11,85.7,61.11,85.7l1.3-.76-1.15-2.22S63,81.26,63.1,80.11s-1.3-5.43-1.3-5.43a21.52,21.52,0,0,0,2-2.76c.23-.61-.22-.63-.45-.66l-.23,0s.48-.86.3-1.16-.86.16-.86.16.35-1.49-.12-1.49a3.33,3.33,0,0,0-1,.24s.11-.63-.26-.68A1.42,1.42,0,0,0,60.34,68.56Z"/><path class="cls-2" d="M42.25,98.8a3.7,3.7,0,0,1-2.62-.94c-1.41-1.33-2-5-1.2-7,.93-2.19,6.17-4.74,7.53-5.31,1.76-.73,9.6-3.4,10.16-3.59l3.16-2.5c-.27-1-2-7-2.18-7.53S59,69.5,60.22,68.41h0a1.5,1.5,0,0,1,.91-.28.47.47,0,0,1,.32.19.81.81,0,0,1,.12.4,3.06,3.06,0,0,1,.84-.15.34.34,0,0,1,.29.15,1.78,1.78,0,0,1,.09,1.17.81.81,0,0,1,.5-.08.37.37,0,0,1,.26.18c.17.28,0,.77-.17,1.1A.59.59,0,0,1,64,72a20.64,20.64,0,0,1-2,2.73c.23.67,1.42,4.33,1.28,5.42a5.74,5.74,0,0,1-1.79,2.62L62.66,85l-1.45.85c-.55.45-13.88,11.42-16,12.26A8.11,8.11,0,0,1,42.25,98.8ZM60.46,68.71c-1.44,1.27-3,2.84-3,3.17.15.53,2.21,7.64,2.21,7.64l0,.13-3.45,2.71c-.08,0-8.35,2.84-10.17,3.59s-6.53,3.24-7.32,5.11-.07,5.41,1.11,6.52c1.5,1.41,3.92.73,5.23.19,2-.82,15.73-12.1,15.87-12.22l1.17-.69L61,82.67l.11-.1s1.63-1.42,1.77-2.48c.12-.87-.79-3.88-1.29-5.35l0-.1.07-.08a19.88,19.88,0,0,0,2-2.7c.06-.15.07-.26,0-.31s-.2-.09-.3-.1l-.54,0,.14-.25a1.75,1.75,0,0,0,.31-1,.94.94,0,0,0-.59.22l-.41.27.11-.47a2.39,2.39,0,0,0,.06-1.26,3.22,3.22,0,0,0-1,.22l-.32.13L61.2,69a.73.73,0,0,0,0-.42,0,0,0,0,0,0,0A1.09,1.09,0,0,0,60.46,68.71Z"/><path class="cls-2" d="M59.05,72l-.35-.15a34.79,34.79,0,0,1,2.55-3l.28.25A36.79,36.79,0,0,0,59.05,72Z"/><rect class="cls-2" x="59.49" y="71.24" width="3.52" height="0.38" transform="translate(-32.13 59.83) rotate(-42.31)"/><path class="cls-2" d="M61.09,73.6l-.34-.16A30.91,30.91,0,0,1,63,71.1l.27.27C62.27,72.34,61.18,73.44,61.09,73.6Z"/><path class="cls-5" d="M62.41,84.94l-1.15-2.22L59.5,79.58l-3.29,2.6S47.87,85,46,85.78,39.45,89,38.61,91s-.16,5.51,1.15,6.74,3.36,1.07,5.43.23S61.11,85.7,61.11,85.7Z"/><path class="cls-2" d="M42.25,98.8a3.7,3.7,0,0,1-2.62-.94c-1.41-1.33-2-5-1.2-7,.93-2.19,6.17-4.74,7.53-5.31,1.76-.73,9.6-3.4,10.16-3.59l3.44-2.72,1.87,3.33L62.66,85l-1.45.85c-.55.45-13.88,11.42-16,12.26A8.11,8.11,0,0,1,42.25,98.8Zm17.2-18.94-3.18,2.5c-.08,0-8.35,2.84-10.17,3.59s-6.53,3.24-7.32,5.11-.07,5.41,1.11,6.52c1.5,1.41,3.92.73,5.23.19,2-.82,15.73-12.1,15.87-12.22l1.17-.69L61.09,82.8Z"/><path class="cls-2" d="M87.14,99.29,87,99c.23-.11,5.69-2.78,8.32-2.37l-.06.37C92.71,96.57,87.19,99.27,87.14,99.29Z"/><path class="cls-5" d="M91.88,94S85.81,97.79,85,98.67s.46,1.56.46,1.56-1.66,4.64-2.89,6a32.69,32.69,0,0,0-2.5,3.36l-3.34,1.19A30.88,30.88,0,0,0,80,113.89c.67.34.91.87,1.57.37a28.88,28.88,0,0,0,2.82-2.38c.43-.52,12.82-12.25,13.7-14s.71-2.79-.41-3.65a19.63,19.63,0,0,0-3.29-1.79"/><path class="cls-2" d="M81.07,114.65a1.23,1.23,0,0,1-.72-.31,2.46,2.46,0,0,0-.45-.28A29.71,29.71,0,0,1,76.6,111l-.2-.21L80,109.47a34.66,34.66,0,0,1,2.48-3.32c1.08-1.22,2.52-5.05,2.81-5.84a1.55,1.55,0,0,1-.68-.9,1,1,0,0,1,.31-.87,79.17,79.17,0,0,1,6.91-4.67l.2.32c-.06,0-6.06,3.76-6.83,4.61a.6.6,0,0,0-.21.54c0,.35.47.64.62.72l.14.08,0,.15c-.07.2-1.69,4.7-2.93,6.11a33,33,0,0,0-2.48,3.33l0,.06-3.12,1.11a26.4,26.4,0,0,0,3,2.82,3.64,3.64,0,0,1,.5.31c.36.26.51.36.88.08a28.4,28.4,0,0,0,2.78-2.35c.11-.13.79-.8,2.2-2.17C90,106.18,97.27,99.08,97.92,97.78c.81-1.63.71-2.59-.37-3.41a19.2,19.2,0,0,0-3.25-1.76l.15-.35a18.89,18.89,0,0,1,3.33,1.81c1.23.93,1.37,2.09.47,3.88-.67,1.36-7.75,8.23-11.55,11.92-1.16,1.12-2.08,2-2.18,2.13a27.48,27.48,0,0,1-2.84,2.41A1,1,0,0,1,81.07,114.65Z"/><path class="cls-3" d="M76.74,110.82a18.16,18.16,0,0,0-3.57.41,15.52,15.52,0,0,0-2.27,4.14c-.23,1,0,3,.27,2.94a1,1,0,0,0,.72-.87c.1-.65.18-1.62.18-1.62l1.06-1.54a26.91,26.91,0,0,0-.13,3,12.31,12.31,0,0,0,1.08,1.26,13.89,13.89,0,0,0,2.28-.45c.31-.19.89-.8.53-1.25s-.16,0-.36-.45.36-2.12.36-2.12a7.39,7.39,0,0,0,1.7.17,4,4,0,0,0,1.4-.53Z"/><path class="cls-2" d="M74,118.72l-.07-.07a10,10,0,0,1-1.11-1.32,12.17,12.17,0,0,1,0-2.36l-.63.92c0,.21-.08,1-.17,1.58a1.14,1.14,0,0,1-.78,1l0,0a.23.23,0,0,1-.25,0,5.5,5.5,0,0,1-.28-3.12,15.63,15.63,0,0,1,2.33-4.25,15.72,15.72,0,0,1,3.68-.44h.08l3.49,3.29-.21.13a4.29,4.29,0,0,1-1.48.56,7.33,7.33,0,0,1-1.59-.14,4.57,4.57,0,0,0-.32,1.83,1.14,1.14,0,0,1,.06.14.78.78,0,0,1,.28.26.68.68,0,0,1,.14.57,1.62,1.62,0,0,1-.72,1,12.05,12.05,0,0,1-2.36.48Zm-.64-5.14-.05.71a24.19,24.19,0,0,0-.14,2.9,11.2,11.2,0,0,0,1,1.13,12.21,12.21,0,0,0,2.11-.41,1.34,1.34,0,0,0,.55-.7.32.32,0,0,0-.07-.27l-.13-.15c-.11,0-.15-.1-.26-.34a5.17,5.17,0,0,1,.36-2.26l.06-.16.16,0a8,8,0,0,0,1.65.16,3.33,3.33,0,0,0,1.09-.38l-3-2.84a16.12,16.12,0,0,0-3.39.37,15.9,15.9,0,0,0-2.19,4,6.6,6.6,0,0,0,.12,2.67.75.75,0,0,0,.5-.67c.09-.64.17-1.59.17-1.6v-.06Zm-2.27,4.55h0Z"/><path class="cls-2" d="M76.29,118.25a2,2,0,0,1-1.18-1.45,30.3,30.3,0,0,1,.68-3.5l.37.09a28.59,28.59,0,0,0-.67,3.38,1.56,1.56,0,0,0,.94,1.12Z"/><path class="cls-2" d="M75.21,118.57c-.41,0-1.35-1.18-1.46-1.39a19.23,19.23,0,0,1,.41-3.93l.38.06A24.89,24.89,0,0,0,74.1,117a4.63,4.63,0,0,0,1.11,1.17v.38Z"/><path class="cls-3" d="M93,35.53A9.23,9.23,0,0,0,88,52.46l-3.64,4.66,5.8-3.61a9.23,9.23,0,1,0,2.93-18Z"/><path class="cls-2" d="M83.5,57.85l4.17-5.35A9.42,9.42,0,1,1,93,54.18a9.57,9.57,0,0,1-2.91-.46ZM93,35.72a9,9,0,0,0-5,16.58l.17.11-3.11,4,5-3.09.09,0A9,9,0,1,0,93,35.72Z"/><path class="cls-5" d="M92.14,42s-2.33-2.84-4.21-1.32.1,4.46,1.23,5.75a43.27,43.27,0,0,0,4.4,3.79s4.21-4.55,5.13-7S97.45,39,95.84,40.12a9.55,9.55,0,0,0-2.51,2.8Z"/><path class="cls-2" d="M93.58,50.45l-.13-.1A41.45,41.45,0,0,1,89,46.54c-.52-.6-2.21-2.69-2-4.47a2.2,2.2,0,0,1,.84-1.56c1.93-1.55,4.27,1.09,4.47,1.33l1,.8A9.8,9.8,0,0,1,95.73,40a2,2,0,0,1,2.42,0,2.78,2.78,0,0,1,.72,3.27c-.92,2.46-5,6.88-5.17,7.07Zm-4.43-10a1.68,1.68,0,0,0-1.1.4,1.8,1.8,0,0,0-.7,1.29c-.11,1.3.94,3,2,4.19a40.55,40.55,0,0,0,4.23,3.65c.68-.75,4.16-4.65,5-6.82a2.39,2.39,0,0,0-.59-2.83,1.61,1.61,0,0,0-2,0A9.72,9.72,0,0,0,93.49,43l-.11.2L92,42.1S90.58,40.41,89.15,40.41Z"/></svg>