<?xml version="1.0" encoding="UTF-8"?>
<svg id="Layer_1" data-name="Layer 1" xmlns="http://www.w3.org/2000/svg" viewBox="0 0 521.23 315.7">
  <defs>
    <style>
      .cls-1 {
        fill: #fff;
      }

      .cls-2 {
        fill: #dcb626;
      }

      .cls-3 {
        fill: #004712;
      }

      .cls-4 {
        fill: #231f20;
      }
    </style>
  </defs>
  <g id="MAHYA-SITE-4-40">
    <path id="Path_129" data-name="Path 129" class="cls-1" d="M285.04,281.44v-27.09h-79.82v27.09c0,8.84-2.99,17.42-8.48,24.35l-3.48,4.41h103.73l-3.48-4.42c-5.49-6.93-8.48-15.51-8.48-24.35h0Z"/>
    <path id="Path_130" data-name="Path 130" class="cls-4" d="M296.99,310.87h-103.74c-.4,0-.71-.34-.7-.73,0-.12,.04-.24,.1-.34l3.48-4.42c5.37-6.82,8.29-15.26,8.28-23.94v-27.09c0-.37,.29-.68,.66-.69h79.83c.37,.01,.66,.32,.66,.69v27.09c0,8.68,2.91,17.12,8.28,23.94l3.48,4.42c.14,.22,.14,.5,0,.72-.06,.16-.18,.28-.33,.36h0Zm-102.36-1.32h100.98l-2.76-3.34c-5.6-7.07-8.65-15.83-8.64-24.85v-26.35h-78.33v26.43c0,9.02-3.03,17.77-8.61,24.85l-2.62,3.26Z"/>
    <path id="Path_131" data-name="Path 131" class="cls-3" d="M200.33,300.41h89.6c-3.21-5.8-4.9-12.33-4.89-18.97v-27.09h-79.83v27.09c0,6.63-1.68,13.16-4.89,18.97Z"/>
    <rect id="Rectangle_192" data-name="Rectangle 192" class="cls-4" x="84.74" y="22.33" width="320.77" height="240.58" rx="4.57" ry="4.57"/>
    <path id="Path_132" data-name="Path 132" class="cls-4" d="M394.19,263.54H95.98c-6.62,0-11.98-5.37-11.98-11.98h0V33.62c.01-6.61,5.37-11.97,11.98-11.98H394.19c6.61,.02,11.97,5.37,11.98,11.98V251.56c0,6.62-5.36,11.99-11.98,11.99h0ZM95.98,22.99c-5.88,0-10.64,4.75-10.66,10.63V251.56c0,5.89,4.77,10.66,10.66,10.66H394.19c5.89,0,10.66-4.77,10.66-10.66h0V33.62c-.01-5.88-4.78-10.63-10.66-10.63H95.98Z"/>
    <path id="Path_133" data-name="Path 133" class="cls-1" d="M84.74,225.49H405.51v28.19c0,5.08-4.12,9.19-9.2,9.2H93.94c-5.08,0-9.19-4.12-9.19-9.2v-28.19Z"/>
    <path id="Path_134" data-name="Path 134" class="cls-4" d="M394.19,263.54H95.98c-6.62,0-11.98-5.36-11.98-11.98v-26.07c0-.37,.3-.66,.66-.66H405.51c.37,0,.66,.3,.66,.66v26.07c0,6.62-5.37,11.98-11.98,11.98ZM85.4,226.16v25.4c0,5.89,4.77,10.66,10.66,10.66H394.27c5.89,0,10.66-4.77,10.66-10.66h0v-25.4H85.4Z"/>
    <rect id="Rectangle_193" data-name="Rectangle 193" class="cls-1" x="100.87" y="37.29" width="288.49" height="169.95"/>
    <path id="Path_135" data-name="Path 135" class="cls-4" d="M389.36,207.8H100.87c-.37,0-.66-.3-.66-.66V37.29c0-.37,.29-.68,.66-.69H389.36c.38,0,.69,.31,.69,.69h0V207.24c-.07,.33-.36,.56-.69,.55Zm-287.8-1.32H388.72V37.95H101.56V206.47Z"/>
    <path id="Path_136" data-name="Path 136" class="cls-4" d="M251.05,244.19c0-3.26-2.65-5.91-5.91-5.91-3.26,0-5.91,2.65-5.91,5.91,0,3.26,2.65,5.91,5.91,5.91,1.56,0,3.06-.62,4.17-1.72,1.11-1.11,1.74-2.62,1.74-4.19Z"/>
    <path id="Path_137" data-name="Path 137" class="cls-4" d="M245.11,250.76c-3.63-.03-6.55-3-6.52-6.63,.03-3.63,3-6.55,6.63-6.52,3.61,.03,6.52,2.96,6.52,6.57,0,3.63-2.94,6.57-6.57,6.57-.02,0-.04,0-.06,0Zm0-11.82c-2.9,.02-5.23,2.38-5.22,5.27s2.38,5.23,5.27,5.22c2.89-.02,5.22-2.36,5.22-5.25,0-2.9-2.35-5.25-5.25-5.25,0,0-.02,0-.03,0Z"/>
    <rect id="Rectangle_194" data-name="Rectangle 194" class="cls-1" x="193.26" y="310.21" width="103.76" height="4.83"/>
    <path id="Path_138" data-name="Path 138" class="cls-4" d="M297.02,315.7h-103.77c-.37,.01-.67-.27-.69-.64,0,0,0-.02,0-.03v-4.83c.01-.37,.32-.66,.69-.66h103.77c.37,0,.66,.3,.66,.66v4.83c0,.37-.3,.66-.66,.66Zm-103.1-1.32h102.44v-3.51h-102.44v3.51Z"/>
    <rect id="Rectangle_195" data-name="Rectangle 195" class="cls-3" x="103.16" y="49.28" width="283.52" height="14.91"/>
    <path id="Path_139" data-name="Path 139" class="cls-4" d="M386.65,64.82H103.16c-.37,0-.68-.29-.69-.66v-14.88c0-.38,.31-.69,.69-.69H386.65c.38,0,.69,.31,.69,.69h0v14.94c-.04,.35-.34,.61-.69,.61Zm-282.83-1.33H385.99v-13.56H103.82v13.56Z"/>
    <path id="Path_140" data-name="Path 140" class="cls-2" d="M149.93,64.16l-3.4-9.19h-43.37V200.01H386.65V64.16H149.93Z"/>
    <path id="Path_141" data-name="Path 141" class="cls-4" d="M386.65,200.67H103.16c-.37,0-.68-.29-.69-.66V54.96c0-.37,.3-.66,.66-.66,0,0,.02,0,.03,0h43.38c.27,0,.51,.16,.61,.41l3.23,8.78h236.28c.37,0,.68,.29,.69,.66V200.01c-.01,.37-.32,.66-.69,.66Zm-282.83-1.33H385.99V64.82H149.93c-.29,.01-.55-.17-.64-.44l-3.23-8.75h-42.24V199.35Z"/>
    <path id="Path_142" data-name="Path 142" class="cls-4" d="M312.48,132.86H179.45c-.76,.02-1.4-.58-1.42-1.34s.58-1.4,1.34-1.42c.02,0,.05,0,.07,0h133.04c.76,.02,1.36,.66,1.34,1.42-.02,.73-.61,1.32-1.34,1.34Z"/>
    <path id="Path_143" data-name="Path 143" class="cls-4" d="M312.48,145.92H179.45c-.76,.02-1.4-.58-1.42-1.34s.58-1.4,1.34-1.42c.02,0,.05,0,.07,0h133.04c.76,.02,1.36,.66,1.34,1.42-.02,.73-.61,1.32-1.34,1.34Z"/>
    <path id="Path_144" data-name="Path 144" class="cls-4" d="M312.48,159.01H179.45c-.76,.02-1.4-.58-1.42-1.34-.02-.76,.58-1.4,1.34-1.42,.02,0,.05,0,.07,0h133.04c.76,.02,1.36,.66,1.34,1.42-.02,.73-.61,1.32-1.34,1.34Z"/>
    <path id="Path_145" data-name="Path 145" class="cls-4" d="M312.48,172.07H179.45c-.76,.02-1.4-.58-1.42-1.34-.02-.76,.58-1.4,1.34-1.42,.02,0,.05,0,.07,0h133.04c.76,.02,1.36,.66,1.34,1.42-.02,.73-.61,1.32-1.34,1.34Z"/>
    <path id="Path_146" data-name="Path 146" class="cls-1" d="M305.36,96.69h-120.47c-5.22-.02-9.46-4.25-9.47-9.47h0c.02-5.22,4.25-9.44,9.47-9.44h120.47c5.22,0,9.44,4.23,9.44,9.44h0c0,5.22-4.22,9.46-9.44,9.47Z"/>
    <path id="Path_147" data-name="Path 147" class="cls-4" d="M305.36,97.35h-120.47c-5.6-.06-10.09-4.64-10.03-10.23,.05-5.52,4.51-9.98,10.03-10.03h120.47c5.6-.06,10.18,4.44,10.23,10.03,.06,5.6-4.44,10.18-10.03,10.23-.07,0-.13,0-.2,0Zm-120.47-18.91c-4.85-.05-8.82,3.84-8.87,8.69-.05,4.85,3.84,8.82,8.69,8.87,.06,0,.12,0,.19,0h120.47c4.85-.05,8.74-4.02,8.69-8.87-.05-4.78-3.91-8.64-8.69-8.69h-120.47Z"/>
    <path id="Path_148" data-name="Path 148" class="cls-4" d="M305.36,96.69h-16.57v-18.91h16.57c5.22,0,9.44,4.23,9.44,9.44h0c0,5.22-4.22,9.46-9.44,9.47Z"/>
    <path id="Path_149" data-name="Path 149" class="cls-4" d="M305.36,97.35h-16.57c-.37,0-.66-.3-.66-.66h0v-18.91c0-.37,.29-.68,.66-.69h16.57c5.6-.06,10.18,4.44,10.23,10.03,.06,5.6-4.44,10.18-10.03,10.23-.07,0-.13,0-.2,0Zm-15.79-1.35h15.79c4.85-.05,8.74-4.02,8.69-8.87-.05-4.78-3.91-8.64-8.69-8.69h-15.79v17.56Z"/>
    <path id="Path_150" data-name="Path 150" class="cls-1" d="M301.69,80.15c-2.19-2.12-5.69-2.07-7.81,.13s-2.07,5.69,.13,7.81c2.19,2.12,5.69,2.07,7.81-.13,.04-.04,.08-.09,.12-.13,2-2.21,1.89-5.6-.25-7.68Zm-.53,6.96c-1.65,1.76-4.41,1.85-6.17,.2s-1.85-4.41-.2-6.17,4.41-1.85,6.17-.2c0,0,0,0,.01,0,1.75,1.65,1.84,4.4,.19,6.16Z"/>
    <path id="Path_151" data-name="Path 151" class="cls-1" d="M305.78,89.81c-.24-.24-.6-.31-.91-.19l-1.96-1.85c-.2-.21-.54-.21-.74,0,0,0,0,0,0,0l-.19,.19c-.21,.2-.21,.54,0,.74,0,0,0,0,0,0l1.93,1.82c-.11,.34-.01,.72,.25,.97l3.31,3.26c.46,.45,1.2,.45,1.66,0h0c.45-.46,.45-1.2,0-1.66l-3.34-3.28Z"/>
    <path id="Path_152" data-name="Path 152" class="cls-1" d="M340.1,153.68c.8,1.94,2.34,3.48,4.28,4.28,2.01,.4,3.97,1,5.85,1.79,5.22,2.95,18.31,.33,27.81,1.3s22.26-9.47,22.26-9.47l37.61,2.04v-37.3s-39.26,1.63-47.77-1.63-17.98-10.16-22.09-9.83-39.26,4.25-39.26,4.25l11.32,44.51v.05Z"/>
    <path id="Path_153" data-name="Path 153" class="cls-4" d="M359.42,161.88c-3.2,.23-6.41-.3-9.36-1.55-1.16-.6-2.41-1.01-3.7-1.21-.71-.11-1.4-.29-2.07-.52-2.11-.87-3.78-2.55-4.64-4.67h0l-11.49-44.59c-.07-.17-.07-.36,0-.53,.11-.16,.28-.27,.47-.3,.36,0,35.07-3.92,39.29-4.25,2.76-.19,7.04,2.13,12.04,4.78,3.39,1.9,6.9,3.59,10.49,5.08,8.28,3.2,47.11,1.63,47.49,1.6,.19,0,.37,.06,.5,.19,.13,.12,.2,.29,.19,.47v37.3c0,.18-.06,.35-.19,.47-.13,.14-.31,.21-.5,.19l-37.36-2.04c-1.74,1.41-13.45,10.44-22.56,9.47-4.05-.26-8.12-.26-12.18,0-2.2,0-4.41,.12-6.43,.12Zm-18.53-8.45c.72,1.78,2.14,3.2,3.92,3.92,.58,.22,1.18,.38,1.79,.47,1.44,.22,2.83,.68,4.11,1.35,2.98,1.68,8.89,1.44,15.16,1.19,4.12-.28,8.25-.28,12.37,0,9.08,.97,21.65-9.22,21.76-9.33,.15-.06,.32-.06,.47,0l36.92,1.99v-35.9c-5.52,.22-39.32,1.38-47.33-1.71-3.64-1.5-7.19-3.21-10.63-5.14-4.64-2.46-9.03-4.8-11.35-4.64-3.84,.3-33.3,3.59-38.46,4.17l11.27,43.63Z"/>
    <path id="Path_154" data-name="Path 154" class="cls-1" d="M330.52,3.14c-21.69,2.4-37.32,21.94-34.92,43.63s21.94,37.32,43.63,34.92c21.69-2.4,37.32-21.93,34.92-43.62-2.4-21.69-21.93-37.33-43.62-34.93,0,0,0,0-.01,0Zm7.84,70.8c-17.4,1.92-33.07-10.63-34.99-28.03-1.92-17.4,10.63-33.07,28.03-34.99,17.39-1.92,33.05,10.61,34.99,28,1.93,17.4-10.61,33.07-28.01,35.01,0,0-.01,0-.02,0h0Z"/>
    <path id="Path_155" data-name="Path 155" class="cls-4" d="M334.82,82.6c-22.19-.17-40.04-18.29-39.87-40.48,.15-20.26,15.36-37.23,35.48-39.6h0c22.03-2.7,42.08,12.97,44.78,35s-12.97,42.08-35,44.78c-1.79,.22-3.59,.32-5.39,.3Zm-4.23-78.8c-21.33,2.36-36.7,21.56-34.34,42.89,2.36,21.33,21.56,36.7,42.89,34.34,21.33-2.36,36.7-21.56,34.34-42.89-1.13-10.24-6.29-19.62-14.34-26.06-8.04-6.44-18.31-9.42-28.55-8.29h0Zm4.34,71.13c-17.86-.03-32.31-14.54-32.27-32.39,.03-17.86,14.54-32.31,32.39-32.27s32.31,14.54,32.27,32.39c-.03,16.47-12.44,30.28-28.8,32.08h0c-1.22,.09-2.45,.11-3.67,.05l.08,.14Zm.03-63.43c-1.14-.03-2.29,.03-3.42,.19-17.04,1.88-29.33,17.22-27.45,34.27,1.88,17.04,17.22,29.33,34.27,27.45h0c17.08-1.93,29.36-17.33,27.44-34.41-1.77-15.73-15.08-27.63-30.92-27.63l.08,.14Z"/>
    <path id="Path_156" data-name="Path 156" class="cls-1" d="M330.27,.9c-21.69,2.4-37.32,21.94-34.92,43.63,2.4,21.69,21.94,37.32,43.63,34.92,21.69-2.4,37.32-21.93,34.92-43.62-2.4-21.69-21.93-37.33-43.62-34.93,0,0,0,0-.01,0Zm7.84,70.8c-17.4,1.92-33.06-10.64-34.98-28.04-1.92-17.4,10.64-33.06,28.04-34.98,17.36-1.91,32.99,10.57,34.97,27.92,1.98,17.4-10.52,33.1-27.91,35.08-.04,0-.08,0-.11,.01Z"/>
    <path id="Path_157" data-name="Path 157" class="cls-4" d="M334.57,80.34c-22.19-.18-40.03-18.31-39.85-40.5,.16-20.25,15.37-37.21,35.48-39.57h0c22.04-2.53,41.96,13.29,44.49,35.33,2.53,22.04-13.29,41.96-35.33,44.49-.1,.01-.2,.02-.3,.03-1.5,.15-3,.23-4.5,.22ZM330.38,1.57c-21.33,2.36-36.7,21.56-34.34,42.89,2.36,21.33,21.56,36.7,42.89,34.34,21.33-2.36,36.7-21.56,34.34-42.89-1.13-10.24-6.29-19.62-14.34-26.06-8.04-6.44-18.31-9.41-28.55-8.28Zm4.2,70.93c-17-1-29.98-15.59-28.98-32.6s15.59-29.98,32.6-28.98c17,1,29.98,15.59,28.98,32.6-.92,15.61-13.37,28.06-28.98,28.98h-3.62Zm0-63.37c-1.16,0-2.32,.06-3.48,.19-17.04,1.88-29.33,17.22-27.45,34.27,1.88,17.04,17.22,29.33,34.27,27.45h0c17.05-1.77,29.44-17.02,27.67-34.07-1.65-15.87-15.06-27.9-31.01-27.83Z"/>
    <rect id="Rectangle_196" data-name="Rectangle 196" class="cls-2" x="336.49" y="80.17" width="9.55" height="35.23" rx="1.73" ry="1.73" transform="translate(-8.69 38.16) rotate(-6.32)"/>
    <path id="Path_158" data-name="Path 158" class="cls-4" d="M341.84,116.1c-2.29,0-4.22-1.72-4.47-4l-3.04-27.39c-.27-2.47,1.51-4.69,3.98-4.97,0,0,.01,0,.02,0l1.85-.22c1.19-.12,2.38,.23,3.31,.97,.94,.74,1.54,1.84,1.66,3.04l3.04,27.36c.15,1.19-.2,2.39-.97,3.31-.74,.94-1.82,1.54-3.01,1.68h0l-1.88,.19-.49,.03Zm-1.16-35.32h-.36l-1.85,.22c-.84,.08-1.61,.5-2.13,1.16-.54,.66-.79,1.5-.69,2.35l3.04,27.36c.08,.84,.5,1.62,1.16,2.15,.67,.52,1.51,.75,2.35,.66l1.85-.19c.84-.1,1.61-.53,2.15-1.19,.53-.65,.76-1.49,.66-2.32l-3.04-27.39c-.2-1.59-1.55-2.77-3.15-2.76v-.06Z"/>
    <path id="Path_159" data-name="Path 159" class="cls-4" d="M339.78,103.03l3.71-.41c3.67-.41,6.97,2.24,7.38,5.91l5.97,53.98c.52,4.68-2.86,8.9-7.54,9.42h0c-4.68,.52-8.9-2.86-9.42-7.54t0,0l-5.97-54.01c-.39-3.65,2.24-6.93,5.88-7.35Z"/>
    <path id="Path_160" data-name="Path 160" class="cls-4" d="M348.16,172.59c-2.01-.03-3.96-.73-5.52-1.99-1.89-1.49-3.1-3.68-3.34-6.07l-6.02-54.15c-.44-3.98,2.43-7.56,6.41-8.01l3.92-.44c3.97-.42,7.53,2.44,7.98,6.41l6.02,54.15c.53,4.98-3.06,9.46-8.04,10.02h-.28l-1.13,.08Zm-3.87-69.36h-.66l-3.92,.44c-3.23,.38-5.56,3.28-5.22,6.52l6.02,54.15c.46,4.24,4.28,7.31,8.52,6.85,0,0,0,0,0,0h.28c4.24-.46,7.31-4.28,6.85-8.52,0,0,0,0,0,0l-6.02-54.26c-.38-2.95-2.88-5.16-5.85-5.16h0Z"/>
    <path id="Path_161" data-name="Path 161" class="cls-1" d="M345.45,148.15s-9.47,.36-10.8,1.99-1.1,7.35,1.49,8.04c6.54,1.74,20.49,.72,21.04-.44s1.66-8.01-1.21-8.75c-3.48-.55-6.99-.82-10.52-.83Z"/>
    <path id="Path_162" data-name="Path 162" class="cls-4" d="M346.12,159.75c-3.41,.08-6.82-.23-10.16-.94-1.22-.43-2.12-1.49-2.35-2.76-.76-2.12-.57-4.47,.52-6.43,1.46-1.77,9.66-2.18,11.29-2.24h0c3.57,0,7.13,.3,10.66,.86,.81,.23,1.47,.82,1.79,1.6,.81,2.63,.76,5.46-.14,8.06-.47,1.22-5.99,1.85-11.62,1.85Zm-.63-11.04c-4.53,.19-9.61,.88-10.3,1.77-.79,1.61-.9,3.47-.3,5.16,.19,.58,.61,1.57,1.44,1.79,6.71,1.26,13.61,1.19,20.29-.19,.7-2.22,.75-4.6,.14-6.85-.17-.41-.51-.72-.94-.86-3.37-.5-6.78-.74-10.19-.72l-.14-.11Z"/>
    <path id="Path_163" data-name="Path 163" class="cls-1" d="M342.86,134.93s-11.04-.41-12.76,1.57-2.07,9.42,.86,10.55c7.4,2.76,24.1,1.71,24.85,.25s2.4-9.08-.86-10.3c-3.96-1.04-8.01-1.73-12.09-2.07Z"/>
    <path id="Path_164" data-name="Path 164" class="cls-4" d="M344.76,149.48c-4.79,.15-9.57-.47-14.16-1.82-1.24-.61-2.1-1.78-2.29-3.15-.74-2.86-.31-5.9,1.19-8.45,1.82-2.13,11.38-1.85,13.25-1.79h0c4.14,.36,8.24,1.06,12.26,2.1,.91,.37,1.62,1.11,1.93,2.04,.73,3.06,.48,6.28-.72,9.19-.55,1.19-5.72,1.88-11.46,1.88Zm-4.42-13.81c-4.17,0-8.97,.39-9.86,1.38-1.17,2.22-1.48,4.8-.88,7.23,.13,.93,.67,1.75,1.46,2.24,7.29,2.76,22.92,1.55,24.08,.52,.97-2.56,1.18-5.35,.61-8.04-.17-.58-.6-1.04-1.16-1.27-3.9-1.01-7.88-1.69-11.9-2.04l-2.35-.03Z"/>
    <path id="Path_165" data-name="Path 165" class="cls-1" d="M341.12,119.99s-11.79-.44-13.61,1.68-2.21,10.05,.91,11.27c7.93,3.04,25.35,3.04,26.15,1.46s2.98-10.88-.5-12.2c-4.25-1.1-8.58-1.84-12.95-2.21h0Z"/>
    <path id="Path_166" data-name="Path 166" class="cls-4" d="M346.97,136c-6.36,.09-12.7-.78-18.8-2.57-1.31-.64-2.21-1.9-2.4-3.34-.79-3.03-.35-6.26,1.21-8.97,1.96-2.24,12.15-1.99,14.17-1.9h0c4.42,.38,8.8,1.12,13.09,2.24,.89,.37,1.57,1.1,1.88,2.02,.75,3.7,.39,7.54-1.02,11.05-.45,1.16-3.82,1.49-8.12,1.49Zm-8.48-15.49c-4.28,0-9.53,.36-10.49,1.49-1.27,2.39-1.61,5.17-.94,7.79,.22,.91,.69,2.07,1.57,2.4,7.87,3.01,24.08,2.76,25.38,1.71,1.21-3.17,1.52-6.61,.91-9.94-.16-.56-.57-1.02-1.1-1.24-4.18-1.08-8.43-1.81-12.73-2.18l-2.6-.03Z"/>
    <path id="Path_167" data-name="Path 167" class="cls-1" d="M334.35,106.02s-11.79-.44-13.64,1.68-2.29,10.3,.91,11.27c3.2,.97,25.35,3.04,26.15,1.46s3.01-10.88-.5-12.2c-4.24-1.11-8.56-1.85-12.92-2.21h0Z"/>
    <path id="Path_168" data-name="Path 168" class="cls-4" d="M342.86,121.65c-7.21-.15-14.4-.83-21.51-2.04-1.26-.5-2.17-1.62-2.4-2.95-.88-3.16-.45-6.54,1.19-9.39,1.93-2.26,12.12-1.99,14.14-1.9h0c4.43,.38,8.81,1.12,13.12,2.24,.88,.37,1.56,1.11,1.85,2.02,.74,3.7,.4,7.54-.99,11.04-.22,.74-2.38,.99-5.39,.99Zm-11.04-14.99c-4.31,0-9.53,.36-10.52,1.49-1.35,2.54-1.68,5.51-.91,8.28,.22,.77,.69,1.79,1.52,2.04,3.73,1.1,23.5,2.76,25.4,1.71,1.22-3.16,1.54-6.61,.91-9.94-.15-.56-.55-1.01-1.08-1.24-4.19-1.08-8.45-1.81-12.76-2.18l-2.56-.17Z"/>
    <path id="Path_169" data-name="Path 169" class="cls-1" d="M372.95,145.25c-2.11-.6-4.12-1.53-5.94-2.76-9.5-6.54-9.17-21.59-9.17-21.59l-2.29-.66c-1.88-.7-3.64-1.69-5.22-2.93,.75,3.1,1.19,6.28,1.3,9.47-.1,3.63-2.93,6.59-6.54,6.88-2.93,.33-4.25,.66-5.22-3.26s-5.91-19.63-6.24-21.92,3.2-5.8,8.78-6.71c8.53,.72,16.98,3.09,25.6,3.09,2.98,.29,5.83,1.35,8.28,3.07"/>
    <path id="Path_170" data-name="Path 170" class="cls-4" d="M372.96,145.92h-.19c-2.18-.59-4.25-1.52-6.13-2.76-8.78-6.07-9.42-18.86-9.44-21.65l-1.79-.53c-1.43-.48-2.79-1.16-4.03-2.02,.56,2.61,.87,5.26,.94,7.92-.07,3.98-3.16,7.24-7.12,7.54h-.36c-2.98,.33-4.56,.3-5.52-3.84-.41-1.63-1.49-5.3-2.76-9.22-1.66-5.52-3.37-11.38-3.56-12.76-.39-2.76,3.59-6.52,9.3-7.43h.17c3.56,.3,7.15,.88,10.6,1.46,4.93,.94,9.92,1.49,14.94,1.63,3.13,.26,6.14,1.36,8.7,3.18,.31,.21,.39,.63,.19,.94-.2,.3-.62,.38-.92,.18,0,0-.01,0-.02-.01-2.35-1.66-5.09-2.68-7.95-2.96-5.08-.14-10.14-.68-15.13-1.63-3.42-.58-6.96-1.16-10.44-1.44-5.36,.88-8.28,4.36-8.15,5.91s1.96,7.29,3.53,12.59c1.16,3.92,2.26,7.62,2.76,9.28,.8,3.18,1.52,3.09,4.14,2.76h.39c3.27-.25,5.83-2.93,5.94-6.21-.11-3.15-.54-6.28-1.3-9.33-.06-.28,.06-.56,.3-.72,.23-.17,.54-.17,.77,0,1.53,1.15,3.21,2.08,5,2.76l2.29,.66c.29,.07,.49,.34,.47,.64,0,.17-.19,14.77,8.89,21.04,1.73,1.25,3.66,2.18,5.72,2.76,.37,.03,.64,.36,.6,.73-.03,.37-.36,.64-.73,.6-.01,0-.03,0-.04,0l-.05-.08Z"/>
    <path id="Path_171" data-name="Path 171" class="cls-1" d="M381.96,146.06c-1.03,.06-2.06,.06-3.09,0"/>
    <path id="Path_172" data-name="Path 172" class="cls-4" d="M379.8,146.8h-1.05c-.37-.01-.66-.32-.66-.69,0-.37,.3-.66,.66-.66,0,0,.02,0,.03,0,1.02,.07,2.04,.07,3.07,0,.37-.02,.69,.26,.72,.64,.02,.37-.27,.67-.63,.69,0,0,0,0,0,0l-2.13,.03Z"/>
    <path id="Path_173" data-name="Path 173" class="cls-1" d="M388.94,144.79c-2.27,.7-4.62,1.13-6.99,1.27"/>
    <path id="Path_174" data-name="Path 174" class="cls-4" d="M381.96,146.72c-.35,0-.63-.26-.66-.61-.02-.37,.26-.69,.63-.72,2.3-.16,4.58-.57,6.79-1.24,.35-.12,.73,.06,.86,.41,.12,.35-.06,.73-.41,.86-2.33,.71-4.73,1.14-7.15,1.3h-.06Z"/>
    <path id="Path_175" data-name="Path 175" class="cls-4" d="M412.49,141.2h-11.65c-.37,.01-.67-.27-.69-.64-.01-.37,.27-.67,.64-.69,.02,0,.03,0,.05,0h11.76c.37-.01,.67,.27,.69,.64,.01,.37-.27,.67-.64,.69-.02,0-.03,0-.05,0h-.11Z"/>
    <path id="Path_176" data-name="Path 176" class="cls-4" d="M406.61,144.48h-4.91c-.37-.08-.62-.44-.54-.81,.05-.27,.27-.49,.54-.54h4.91c.37,.08,.62,.44,.54,.81-.05,.27-.27,.49-.54,.54Z"/>
    <path id="Path_177" data-name="Path 177" class="cls-4" d="M357.85,121.56c-.37,.01-.67-.27-.69-.64-.01-.37,.27-.67,.64-.69,.02,0,.03,0,.05,0,3.75-.1,7.37-1.41,10.33-3.73,.26-.25,.67-.25,.94,0,.26,.26,.26,.68,0,.94,0,0,0,0,0,0-3.2,2.54-7.15,3.97-11.24,4.06l-.03,.05Z"/>
    <path id="Path_178" data-name="Path 178" class="cls-4" d="M350.17,117.56c-.35-.01-.64-.29-.66-.64-.18-1.73-.54-3.43-1.08-5.08-.11-.35,.09-.72,.44-.83,0,0,0,0,0,0,.36-.11,.74,.09,.86,.44,.57,1.79,.94,3.65,1.1,5.52,.03,.35-.23,.66-.58,.69,0,0-.02,0-.03,0l-.05-.11Z"/>
    <path id="Path_179" data-name="Path 179" class="cls-4" d="M347.72,132.91h0c-.18-.05-.27-.24-.22-.41,0,0,0,0,0,0l.41-1.24c-.11-2.98-.7-5.92-1.77-8.7,0,0,0-.19-.44-.28-1.92,.11-3.76,.82-5.25,2.04-1.08,.88-.5,3.42-.17,4.31,.06,.18-.04,.38-.22,.44-.17,.05-.36-.04-.41-.22,0,0,0,0,0,0,0-.14-1.3-3.67,.39-5.05,1.65-1.35,3.7-2.11,5.83-2.18,.38,.07,.7,.3,.88,.64,1.13,2.95,1.74,6.07,1.79,9.22l-.41,1.24c-.06,.16-.25,.25-.41,.19h0Z"/>
    <path id="Path_180" data-name="Path 180" class="cls-1" d="M520.6,170.44h-112.77v-55.42h112.77"/>
    <path id="Path_181" data-name="Path 181" class="cls-4" d="M520.6,171.13h-112.77c-.37,0-.66-.3-.66-.66v-55.44c0-.37,.3-.66,.66-.66h112.77c.37,.01,.65,.32,.64,.69-.01,.35-.29,.62-.64,.64h-112.1v54.09h112.1c.37,.08,.62,.44,.54,.81-.05,.27-.27,.49-.54,.54Z"/>
    <circle id="Ellipse_57" data-name="Ellipse 57" class="cls-1" cx="416.11" cy="164.2" r="2.54"/>
    <path id="Path_182" data-name="Path 182" class="cls-4" d="M416.11,167.4c-1.77,.01-3.21-1.41-3.22-3.17s1.41-3.21,3.17-3.22c1.77-.01,3.21,1.41,3.22,3.17,0,0,0,.02,0,.02,0,1.76-1.42,3.19-3.18,3.2Zm0-5.05c-1.04-.02-1.89,.81-1.91,1.85s.81,1.89,1.85,1.91,1.89-.81,1.91-1.85c0-.02,0-.04,0-.06,0-1.02-.83-1.85-1.85-1.85h0Z"/>
    <path id="Path_183" data-name="Path 183" class="cls-1" d="M181.08,263.02c-.79,1.95-2.33,3.49-4.28,4.28-2.01,.4-3.97,1-5.85,1.79-5.22,2.95-18.31,.33-27.81,1.32s-22.25-9.5-22.25-9.5l-37.58,2.1v-37.28s39.26,1.63,47.77-1.63,17.97-10.13,22.23-9.83,39.26,4.28,39.26,4.28l-11.46,44.46h-.03Z"/>
    <path id="Path_184" data-name="Path 184" class="cls-4" d="M161.92,271.3c-2.07,0-4.28,0-6.52-.19-4.06-.28-8.14-.28-12.2,0-9.08,.94-20.79-8.09-22.53-9.47l-37.36,2.07c-.18,.02-.37-.04-.5-.17-.14-.13-.22-.31-.22-.5v-37.3c0-.18,.08-.35,.22-.47,.13-.13,.31-.2,.5-.19,.39,0,39.21,1.6,47.49-1.6,3.59-1.48,7.1-3.17,10.49-5.05,5-2.76,9.36-5.02,12.04-4.8,4.22,.33,38.93,4.23,39.29,4.25,.19,.03,.36,.14,.47,.3,.07,.18,.07,.37,0,.55l-11.46,44.48v.14h0c-.81,2.08-2.41,3.75-4.45,4.67-.67,.24-1.37,.42-2.07,.52-1.29,.2-2.54,.61-3.7,1.21-3,1.27-6.25,1.8-9.5,1.54Zm-13.5-1.71c2.32,0,4.69,0,7.04,.19,6.27,.25,12.18,.5,15.16-1.19,1.29-.68,2.68-1.14,4.11-1.35,.61-.09,1.21-.25,1.79-.47,1.79-.71,3.21-2.13,3.92-3.92h0l11.24-43.68c-5.16-.55-34.62-3.87-38.49-4.14-2.29-.17-6.68,2.15-11.32,4.61-3.43,1.93-6.98,3.65-10.63,5.14-8.01,3.09-41.86,1.93-47.33,1.71v35.9l36.94-2.13c.17-.01,.33,.04,.47,.14,0,0,12.65,10.3,21.76,9.36,1.77-.16,3.55-.21,5.33-.17h0Z"/>
    <path id="Path_185" data-name="Path 185" class="cls-1" d="M190.77,112.59c21.69,2.41,37.32,21.94,34.92,43.63s-21.94,37.32-43.63,34.92-37.32-21.94-34.92-43.63c0,0,0-.01,0-.02,2.41-21.68,21.94-37.31,43.63-34.9Zm-7.84,70.77c17.4,1.92,33.07-10.63,34.99-28.03,1.92-17.4-10.63-33.07-28.03-34.99-17.39-1.92-33.05,10.61-34.99,28-1.93,17.4,10.6,33.07,28,35.01,0,0,.02,0,.02,0Z"/>
    <path id="Path_186" data-name="Path 186" class="cls-4" d="M186.44,192.03c-22.17,0-40.14-17.99-40.13-40.17s17.99-40.14,40.17-40.13,40.14,17.99,40.13,40.17c0,.37,0,.74-.02,1.11-.7,21.69-18.45,38.93-40.15,39.02Zm0-79.03c-21.52-.05-39,17.35-39.05,38.87s17.35,39,38.87,39.05c21.52,.05,39-17.35,39.05-38.87,.05-19.85-14.84-36.56-34.56-38.8-1.45-.17-2.91-.25-4.36-.25h.06Zm0,71.21c-1.2,0-2.4-.06-3.59-.19-17.8-1.95-30.64-17.96-28.69-35.76,1.95-17.8,17.96-30.64,35.76-28.69,17.8,1.95,30.64,17.96,28.69,35.76-1.8,16.42-15.65,28.85-32.17,28.88Zm0-63.51c-17.17,.01-31.08,13.94-31.07,31.11s13.94,31.08,31.11,31.07,31.08-13.94,31.07-31.11c-.01-15.82-11.91-29.12-27.63-30.88-1.24-.03-2.4-.11-3.56-.11l.08-.08Z"/>
    <path id="Path_187" data-name="Path 187" class="cls-1" d="M190.99,110.33c21.69,2.4,37.32,21.94,34.92,43.63-2.4,21.69-21.94,37.32-43.63,34.92-21.69-2.4-37.32-21.93-34.92-43.62,2.4-21.69,21.93-37.33,43.62-34.93,0,0,0,0,.01,0Zm-7.84,70.8c-15.88,0-28.75-12.89-28.74-28.77,0-15.88,12.89-28.75,28.77-28.74,15.88,0,28.75,12.89,28.74,28.77,0,15.87-12.87,28.73-28.74,28.74h-.03Z"/>
    <path id="Path_188" data-name="Path 188" class="cls-4" d="M186.71,189.77c-22.33,.14-40.53-17.85-40.67-40.18-.14-22.33,17.85-40.53,40.18-40.67,22.33-.14,40.53,17.85,40.67,40.18,0,.37,0,.75,0,1.12-.47,21.89-18.28,39.42-40.17,39.55Zm0-79.03c-21.61-.04-39.16,17.44-39.2,39.05-.04,21.61,17.44,39.16,39.05,39.2,21.61,.04,39.16-17.44,39.2-39.05,.04-19.93-14.91-36.7-34.72-38.95h0c-1.48-.17-2.96-.25-4.44-.25h.11Zm0,71.24c-1.2,0-2.4-.06-3.59-.19-17.8-1.95-30.64-17.96-28.69-35.76,1.95-17.8,17.96-30.64,35.76-28.69,17.8,1.95,30.64,17.96,28.69,35.76-1.8,16.42-15.65,28.85-32.17,28.88Zm0-63.51c-17.12-.95-31.77,12.15-32.72,29.27-.95,17.12,12.15,31.77,29.27,32.72h0c17.04,1.88,32.38-10.4,34.27-27.45,1.88-17.04-10.4-32.38-27.45-34.27h0c-1.15-.13-2.32-.2-3.48-.19l.11-.08Z"/>
    <rect id="Rectangle_197" data-name="Rectangle 197" class="cls-2" x="162.38" y="202.46" width="35.23" height="9.55" rx="1.73" ry="1.73" transform="translate(-45.8 363.32) rotate(-83.68)"/>
    <path id="Path_189" data-name="Path 189" class="cls-4" d="M179.45,225.52h-.5l-1.88-.19h0c-2.47-.27-4.25-2.5-3.98-4.97,0-.01,0-.02,0-.03l3.04-27.36c.24-2.44,2.42-4.23,4.86-3.99,.04,0,.07,0,.11,.01l1.85,.19c2.47,.26,4.26,2.48,4,4.95,0,0,0,.01,0,.02l-3.04,27.45c-.29,2.25-2.21,3.93-4.47,3.92h0Zm1.16-35.26c-.72,0-1.42,.25-1.99,.69-.66,.52-1.08,1.29-1.16,2.13l-3.04,27.39c-.1,.83,.14,1.67,.66,2.32,.54,.66,1.31,1.08,2.15,1.19h0l1.85,.19c1.73,.2,3.29-1.04,3.51-2.76l3.04-27.36c.09-.84-.16-1.69-.69-2.35-.52-.66-1.29-1.08-2.13-1.16l-1.85-.19-.36-.08Z"/>
    <path id="Path_190" data-name="Path 190" class="cls-4" d="M172.03,281.28h0c-4.68-.52-8.06-4.73-7.54-9.42l5.96-53.9c.41-3.67,3.71-6.31,7.38-5.91l3.71,.41c3.67,.41,6.31,3.71,5.91,7.38l-5.96,53.9c-.52,4.68-4.73,8.06-9.42,7.54,0,0-.02,0-.03,0Z"/>
    <path id="Path_191" data-name="Path 191" class="cls-4" d="M173.1,282.02c-.33,.03-.66,.03-.99,0h-.28c-4.98-.56-8.57-5.04-8.04-10.02l6.02-54.15c.4-3.93,3.91-6.79,7.84-6.39,.05,0,.1,.01,.14,.02l3.92,.41c3.98,.45,6.84,4.03,6.41,8.01l-6.02,54.18c-.56,4.54-4.42,7.96-9,7.95Zm-1.13-1.41h.28c4.24,.47,8.06-2.58,8.53-6.82l6.02-54.17c.35-3.24-1.98-6.15-5.22-6.52l-3.92-.41c-1.55-.2-3.12,.25-4.33,1.24-1.23,.98-2.02,2.41-2.18,3.98l-6.02,54.15c-.45,4.24,2.61,8.05,6.85,8.53v.03Z"/>
    <path id="Path_192" data-name="Path 192" class="cls-1" d="M175.83,257.5s9.47,.36,10.8,1.99,1.1,7.37-1.49,8.04c-6.54,1.74-20.49,.72-21.04-.44s-1.68-8.01,1.21-8.75c3.48-.53,7-.81,10.52-.83Z"/>
    <path id="Path_193" data-name="Path 193" class="cls-4" d="M175.17,269.2c-5.52,0-11.04-.66-11.68-1.77-.9-2.61-.95-5.43-.14-8.06,.32-.78,.98-1.37,1.79-1.6,3.53-.56,7.09-.85,10.66-.86h0c1.63,0,9.83,.47,11.29,2.24,1.08,1.97,1.27,4.31,.53,6.43-.25,1.27-1.14,2.31-2.35,2.76-3.33,.66-6.72,.95-10.11,.85Zm-10.49-2.43c6.69,1.4,13.58,1.47,20.29,.19,.83-.22,1.24-1.21,1.44-1.79,.6-1.69,.49-3.55-.3-5.16-.69-.88-5.77-1.57-10.3-1.77-3.46,.03-6.91,.31-10.33,.83-.43,.13-.78,.46-.94,.88-.61,2.24-.56,4.61,.14,6.82h0Z"/>
    <path id="Path_194" data-name="Path 194" class="cls-1" d="M178.54,244.35s11.04-.41,12.76,1.57,2.07,9.42-.86,10.55c-7.4,2.76-24.1,1.74-24.85,.25s-2.4-9.06,.86-10.3c3.97-1.02,8.01-1.72,12.09-2.07Z"/>
    <path id="Path_195" data-name="Path 195" class="cls-4" d="M176.52,258.91c-5.77,0-11.04-.69-11.51-1.88-1.19-2.91-1.44-6.11-.72-9.17,.31-.94,1.02-1.7,1.93-2.07,4.02-1.04,8.12-1.74,12.26-2.1h0c1.88,0,11.43-.3,13.25,1.79,1.5,2.55,1.92,5.59,1.19,8.45-.2,1.36-1.05,2.54-2.29,3.15-4.58,1.35-9.34,1.96-14.11,1.82Zm2.07-13.81c-4.02,.33-8,1-11.9,2.02-.55,.23-.98,.7-1.16,1.27-.58,2.7-.35,5.52,.66,8.09,1.1,.97,16.73,2.24,24.02-.58,.83-.3,1.24-1.38,1.46-2.24,.6-2.44,.28-5.01-.88-7.23-1.05-1.24-7.76-1.55-12.2-1.38v.06Z"/>
    <path id="Path_196" data-name="Path 196" class="cls-1" d="M180.17,229.42s11.79-.44,13.61,1.68,2.21,10.08-.91,11.27c-7.93,3.04-25.35,3.04-26.15,1.46s-2.98-10.88,.5-12.2c4.25-1.09,8.58-1.83,12.95-2.21Z"/>
    <path id="Path_197" data-name="Path 197" class="cls-4" d="M174.43,245.54c-4.31,0-7.68-.44-8.28-1.41-1.41-3.5-1.77-7.34-1.02-11.04,.31-.9,.99-1.63,1.88-1.98,4.29-1.13,8.67-1.89,13.09-2.26h0c2.02,0,12.2-.33,14.17,1.9,1.57,2.73,2,5.96,1.21,9-.2,1.44-1.1,2.69-2.4,3.34-6.06,1.73-12.34,2.55-18.64,2.46h0Zm5.88-15.44c-4.3,.35-8.56,1.07-12.73,2.15-.53,.23-.94,.68-1.1,1.24-.62,3.37-.29,6.84,.97,10.02,1.24,1.05,17.45,1.24,25.32-1.79,.91-.33,1.35-1.49,1.6-2.4,.64-2.63,.3-5.4-.97-7.79-1.3-1.38-8.75-1.66-13.2-1.44h.11Z"/>
    <path id="Path_198" data-name="Path 198" class="cls-1" d="M186.94,215.44s11.79-.44,13.64,1.68,2.29,10.3-.91,11.27-25.35,3.04-26.15,1.46-3.01-10.88,.5-12.2c4.24-1.09,8.56-1.83,12.92-2.21Z"/>
    <path id="Path_199" data-name="Path 199" class="cls-4" d="M178.35,231.07c-2.93,0-5.08-.25-5.52-.91-1.4-3.51-1.74-7.34-.99-11.04,.29-.91,.97-1.64,1.85-1.99,4.3-1.13,8.69-1.89,13.12-2.26h0c2.02,0,12.2-.33,14.14,1.9,1.64,2.84,2.06,6.23,1.19,9.39-.23,1.34-1.14,2.45-2.4,2.95-7.07,1.18-14.21,1.83-21.37,1.96Zm-4.28-1.6c1.9,.94,21.67-.61,25.4-1.71,.81-.39,1.38-1.16,1.52-2.04,.77-2.78,.44-5.74-.91-8.28-1.19-1.38-8.64-1.63-13.09-1.46-4.31,.37-8.57,1.1-12.76,2.18-.53,.23-.92,.69-1.08,1.24-.66,3.38-.34,6.87,.91,10.08h0Z"/>
    <path id="Path_200" data-name="Path 200" class="cls-1" d="M141.13,255.56c4.65,.19,9.24-1.06,13.14-3.59,9.5-6.54,9.17-21.59,9.17-21.59l2.29-.66c1.88-.7,3.64-1.69,5.22-2.93-.75,3.1-1.19,6.28-1.3,9.47,.1,3.63,2.93,6.59,6.54,6.88,2.93,.33,4.25,.66,5.22-3.26s5.91-19.63,6.21-21.92-3.18-5.8-8.75-6.71c-8.53,.72-16.98,3.09-25.6,3.09-2.98,.29-5.83,1.35-8.28,3.07"/>
    <path id="Path_201" data-name="Path 201" class="cls-4" d="M141.48,256.23h-.36c-.37,.01-.67-.27-.69-.64s.27-.67,.64-.69c.02,0,.03,0,.05,0h.36c4.4,.13,8.73-1.11,12.4-3.53,9.08-6.24,8.89-20.88,8.86-21.01,0-.31,.2-.58,.5-.66l2.29-.66c1.79-.68,3.47-1.61,5-2.76,.23-.17,.54-.17,.77,0,.24,.16,.36,.46,.3,.74-.76,3.05-1.19,6.17-1.3,9.3,.09,3.29,2.66,5.97,5.94,6.21h.39c2.76,.28,3.34,.39,4.14-2.76,.41-1.66,1.52-5.38,2.76-9.3,1.57-5.3,3.34-11.27,3.53-12.56s-2.76-5.02-8.28-5.91c-3.48,.28-7.01,.86-10.44,1.44-4.99,.96-10.05,1.51-15.13,1.66-2.87,.27-5.61,1.28-7.96,2.95-.32,.19-.74,.09-.93-.23-.19-.3-.1-.7,.19-.91,2.56-1.82,5.57-2.91,8.7-3.18,5.02-.14,10.01-.69,14.94-1.63,3.45-.58,7.04-1.16,10.6-1.46h.17c5.72,.91,9.69,4.75,9.31,7.43-.19,1.38-1.9,7.15-3.56,12.73-1.16,3.92-2.24,7.62-2.76,9.28-1.05,4.11-2.76,4.14-5.52,3.81h-.36c-4.02-.3-7.12-3.65-7.12-7.68,.07-2.67,.38-5.32,.94-7.93-1.25,.85-2.6,1.54-4.03,2.04l-1.79,.5c0,2.76-.66,15.6-9.44,21.65-3.88,2.56-8.44,3.87-13.09,3.76h0Z"/>
    <path id="Path_202" data-name="Path 202" class="cls-1" d="M132.34,254.21c1.86,.58,3.78,.97,5.72,1.16"/>
    <path id="Path_203" data-name="Path 203" class="cls-4" d="M138.06,256.06h0c-2-.2-3.97-.59-5.88-1.19-.35-.12-.54-.51-.41-.86s.51-.54,.86-.41c1.8,.55,3.65,.93,5.52,1.13,.36,.04,.62,.37,.58,.74,0,0,0,0,0,.01-.05,.33-.33,.57-.66,.58Z"/>
    <path id="Path_204" data-name="Path 204" class="cls-4" d="M120.55,250.62h-11.76c-.37,.01-.67-.27-.69-.64s.27-.67,.64-.69c.02,0,.03,0,.05,0h11.76c.37,.01,.65,.32,.64,.69-.01,.35-.29,.62-.64,.64Z"/>
    <path id="Path_205" data-name="Path 205" class="cls-4" d="M119.59,253.91h-4.91c-.37-.08-.62-.44-.54-.81,.05-.27,.27-.49,.54-.54h4.92c.37,.08,.62,.44,.54,.81-.05,.27-.27,.49-.54,.54Z"/>
    <path id="Path_206" data-name="Path 206" class="cls-4" d="M163.38,230.99h0c-4.02-.12-7.9-1.54-11.04-4.06-.26-.26-.27-.68-.01-.94,.25-.26,.66-.27,.92-.03,2.91,2.26,6.45,3.56,10.13,3.7,.37-.01,.67,.27,.69,.64,.01,.37-.27,.67-.64,.69-.02,0-.03,0-.05,0h0Z"/>
    <path id="Path_207" data-name="Path 207" class="cls-4" d="M171.11,227.12h0c-.36-.03-.64-.35-.61-.71,0,0,0,0,0,0,.17-1.83,.54-3.63,1.1-5.38,.12-.36,.5-.55,.86-.44,.35,.11,.55,.48,.44,.83,0,0,0,0,0,0-.54,1.65-.9,3.35-1.08,5.08-.03,.37-.34,.65-.71,.64Z"/>
    <path id="Path_208" data-name="Path 208" class="cls-4" d="M173.57,242.34c-.14,0-.25-.09-.3-.22l-.41-1.24c.05-3.15,.66-6.26,1.79-9.19,.18-.34,.51-.57,.88-.63,2.13,.05,4.18,.81,5.83,2.15,1.68,1.38,.44,4.91,.39,5.05-.05,.18-.24,.27-.41,.22,0,0,0,0,0,0-.18-.07-.28-.26-.22-.44,.33-.88,.91-3.42-.17-4.31-1.49-1.21-3.33-1.92-5.25-2.04-.19-.02-.37,.1-.44,.28-1.06,2.78-1.66,5.72-1.77,8.7l.41,1.24c.05,.17-.04,.36-.22,.41,0,0,0,0,0,0l-.11,.02Z"/>
    <path id="Path_209" data-name="Path 209" class="cls-1" d="M.69,279.89H113.46v-55.45H.69"/>
    <path id="Path_210" data-name="Path 210" class="cls-4" d="M113.46,280.55H.69c-.37,.01-.67-.27-.69-.64s.27-.67,.64-.69c.02,0,.03,0,.05,0H112.79v-54.12H.69c-.37-.01-.65-.32-.64-.69,.01-.35,.29-.62,.64-.64H113.46c.37,0,.66,.3,.66,.66v55.45c0,.37-.3,.66-.66,.66h0Z"/>
    <path id="Path_211" data-name="Path 211" class="cls-1" d="M102.63,273.62c-.01,1.4,1.11,2.55,2.51,2.57s2.55-1.11,2.57-2.51-1.11-2.55-2.51-2.57c-.02,0-.04,0-.05,0-1.38,.01-2.5,1.13-2.51,2.51Z"/>
    <path id="Path_212" data-name="Path 212" class="cls-4" d="M105.17,276.83c-1.77,0-3.2-1.43-3.2-3.2,0-1.77,1.43-3.2,3.2-3.2,1.77,0,3.2,1.43,3.2,3.2,0,0,0,.02,0,.02-.01,1.76-1.44,3.18-3.2,3.18Zm0-5.05c-1.04,0-1.88,.84-1.88,1.88s.84,1.88,1.88,1.88,1.88-.84,1.88-1.88c.02-1.02-.8-1.86-1.82-1.88-.02,0-.04,0-.06,0Z"/>
  </g>
</svg>