<?xml version="1.0" encoding="UTF-8"?>
<svg id="logo" xmlns="http://www.w3.org/2000/svg">
  <symbol id="logo" viewBox="0 0 114 100">
    <path id="accent" class="accent" d="M105.67,18.8c-7.67-8.98-19.45-15.33-30.49-16.61-2.63-.33-5.3,.31-7.49,1.8-2.43,1.7-4.64,4.77-3.78,10.25,1.07,6.85,3.35,13.44,3.55,20.43,.28,9.7-2.34,17.24-7.6,24.88-.09,.13-.05,.31,.08,.4,.06,.04,.14,.06,.21,.04,14.88-2.72,20.31,1.94,30.03,1.71,7.64-.18,15.99-4.12,20.4-10.67,4.35-6.45,4.21-14.83,1.44-21.85-1.53-3.79-3.68-7.3-6.36-10.4Z"/>
    <g id="primary">
      <polygon class="primary" points="47.81 95.73 47.81 100 52.11 100 56.4 100 56.4 95.73 52.11 95.73 47.81 95.73"/>
      <path class="primary" d="M49.4,77.45s11.82-13.48,2.09-28.46c-8.11-12.48-21.47-28.64-4.54-38.06-8.47,6.88-6.74,14.77-2.26,22.71,1.48-1.06,2.4-2.73,2.53-4.54,.2-3.14,3.17,3.09-1.12,6.92,3.91,6.26,9.06,12.52,11.79,18.28,16.01-22.61-7.73-44.15,7.87-52.78C53.5-1.26,37.08-1.66,25.35,12.93c-11.73,14.59,2.8,29.31,13.87,40.31,11.07,11.01,10.18,24.2,10.18,24.2Z"/>
      <path class="primary" d="M92.85,86.69c-.1-1.51-.76-2.93-1.86-3.98-.38-.34-.81-.64-1.27-.87-1.56-.8-3.41-.95-5.18-.89-1.99,.06-3.99,.33-5.97,.07v5.07l1.72,.06c.49,.47,.23,1.36-.33,1.74s-1.3,.38-1.99,.37l-2.61-.03c-.45,.04-.91-.06-1.31-.26-.31-.18-.52-.48-.58-.82-.05-.53,.33-1,.86-1.05,.04,0,.07,0,.11,0h2.53l-.02-5.02c-2.18,.73-4.24,.47-6.27-.6s-4.21-2.27-6.49-1.98c-2.93,.38-4.93,3.02-6.59,5.45l3.51,3.06c.91-.99,1.81-1.98,2.72-2.97,.35-.62,1.13-.83,1.75-.49,.05,.03,.1,.06,.14,.09l3.05,1.45c-1.11,1.1-2.26,2.24-3.74,2.76-1.18,.42-2.46,.41-3.71,.39l-5.93-.08c-.33,.08-.65-.12-.73-.45-.02-.1-.02-.2,0-.3v-5.07h-5.1v5.08c.09,.32-.09,.65-.41,.74-.1,.03-.21,.03-.32,0l-3.21,.02c-.18,.02-.36-.02-.51-.13-.12-.12-.18-.29-.17-.46,0-6.04,.38-7.33-.3-14.74-.5-5.37-2.73-10.46-5.98-14.71-.46-.6-.94-1.19-1.43-1.76C22.81,39.7,12.95,30.68,19.23,17.7-1.32,31.21-2.98,44.61,3.08,57.6c5.74,12.33,20.55,16.05,29.34,12.19-2.65-5.6-15.58-9.26-20.6-19.44-3.25,1.15-5.81-2.09-4.02-1.35,1.08,.44,2.31,.37,3.34-.2-1.24-3.17-1.72-6.94-.99-11.51,.76,9.15,3.6,13.87,7.62,17.38,.62-.94,.8-2.1,.49-3.18-.56-1.87,2.51,1.13,.84,4.27,4.23,3.26,9.51,5.67,14.98,10.37,2.9,2.5,5.3,7.37,5.63,11.3,.4,4.82-.05,5,.06,9.84,.03,1.21,.07,2.46,.64,3.52,.69,1.29,2.07,2.12,3.5,2.48s2.92,.33,4.4,.27c.9,.02,1.79-.1,2.65-.37,.28-.13,.58-.23,.88-.29,.43-.03,.86,.04,1.27,.18,2.27,.6,4.64,.57,6.99,.53,1.8-.03,3.63-.07,5.38-.5s3.45-1.32,4.53-2.74c.24,1.34,1.42,2.37,2.71,2.83s2.7,.46,4.07,.46c2.09,0,4.31-.05,6.09-1.14,3.96,2.49,10.53,.11,9.98-5.8Zm-5.55,1.24c-.22,.22-.52,.34-.83,.33-.3,.01-.59-.11-.79-.33-.2-.22-.3-.51-.29-.81v-1.02h1.08c.3-.02,.6,.08,.83,.27,.21,.19,.32,.46,.31,.74,.01,.3-.1,.59-.31,.81Z"/>
    </g>
  </symbol>
</svg>