<svg xmlns="http://www.w3.org/2000/svg" width="264" height="253.236" viewBox="0 0 264 253.236">
  <g id="_6365292" data-name="6365292" transform="translate(-39.398 -44.496)">
    <g id="Background_Simple" transform="translate(39.398 44.496)">
      <g id="Group_164" data-name="Group 164">
        <path id="Path_52" data-name="Path 52" d="M52.853,143.349s-24.722,37.284-7.145,93.519,68.669,70.58,98.985,54.946,34.737-35.935,59.215-50.689,75.02-14.23,94.478-54.805S277.5,88.867,231.793,56.12,86.882,62.124,52.853,143.349Z" transform="translate(-39.398 -44.496)" fill="#e8e8e8"/>
        <path id="Path_53" data-name="Path 53" d="M52.853,143.349s-24.722,37.284-7.145,93.519,68.669,70.58,98.985,54.946,34.737-35.935,59.215-50.689,75.02-14.23,94.478-54.805S277.5,88.867,231.793,56.12,86.882,62.124,52.853,143.349Z" transform="translate(-39.398 -44.496)" fill="#e8e8e8" opacity="0.7"/>
      </g>
    </g>
    <g id="Plant" transform="translate(205.412 199.353)">
      <g id="Group_166" data-name="Group 166">
        <g id="Group_165" data-name="Group 165">
          <path id="Path_54" data-name="Path 54" d="M315.842,332.375c2.18.953,7.518.831,7.518.831.055,0-1.148-3.493-1.246-3.7-1.173-2.449-4.873-6.492-7.884-6.083a3.6,3.6,0,0,0-2.889,4.507C311.848,330.011,313.986,331.562,315.842,332.375Z" transform="translate(-311.234 -307.924)" fill="#004812"/>
          <path id="Path_55" data-name="Path 55" d="M317.975,337.965c2.26.33,7.023-1.05,7.4-1.16a63.79,63.79,0,0,0,2.889,7.988c.653,1.515,1.362,3.023,2.089,4.525-.434-.635-.831-1.2-.892-1.276-1.777-2.052-6.412-4.971-9.21-3.786a3.6,3.6,0,0,0-1.594,5.112c1.032,1.881,3.506,2.809,5.515,3.1,2.034.3,6.12-.8,7.194-1.105.287.574.562,1.148.849,1.722,1.38,2.748,2.767,5.478,4.043,8.2.452.959.861,1.918,1.27,2.883-.385-.568-.715-1.038-.775-1.105-1.777-2.052-6.413-4.977-9.21-3.786a3.6,3.6,0,0,0-1.594,5.112c1.032,1.881,3.506,2.809,5.515,3.1,1.942.281,5.722-.7,7-1.05.391,1,.788,1.991,1.124,2.974.214.678.47,1.313.647,2s.379,1.356.562,2.021c.312,1.3.641,2.638.91,3.909.2.886.366,1.734.544,2.583-.44-.959-1.338-2.822-1.429-2.968-1.441-2.3-5.588-5.887-8.532-5.136a3.6,3.6,0,0,0-2.351,4.806c.739,2.015,3.041,3.31,4.977,3.9,2.131.653,6.858.055,7.451-.024.281,1.411.543,2.791.77,4.092.122.69.226,1.338.336,1.991h1.881c-.14-.751-.281-1.514-.446-2.321-.281-1.435-.611-2.962-.965-4.525A39.923,39.923,0,0,0,348.1,377.8c1.557,1.686,5.539,3.658,6.058,3.909-.544,1.331-1.081,2.626-1.612,3.835-.159.366-.311.708-.47,1.056h1.979c.049-.122.1-.232.147-.354.556-1.35,1.124-2.809,1.692-4.312.574.122,5.252,1.069,7.432.58,1.979-.446,4.373-1.563,5.258-3.518a3.6,3.6,0,0,0-1.985-4.971c-2.883-.965-7.28,2.3-8.892,4.489-.1.128-.971,1.643-1.508,2.608.232-.617.458-1.209.684-1.844.458-1.252.879-2.516,1.344-3.878.2-.666.4-1.337.6-2.009s.36-1.4.544-2.107c.391-1.643.708-3.335.989-5.038,1.1.4,5.02,1.765,7.054,1.618s4.556-.886,5.729-2.681a3.6,3.6,0,0,0-1.209-5.216c-2.7-1.392-7.542,1.179-9.466,3.09-.122.116-1.344,1.649-2,2.5.159-1.026.33-2.052.458-3.1.372-3.011.659-6.077.959-9.13.092-.934.2-1.869.293-2.8.391.147,5.014,1.869,7.292,1.71,2.021-.14,4.562-.886,5.729-2.681a3.6,3.6,0,0,0-1.209-5.216c-2.7-1.392-7.542,1.173-9.466,3.09-.147.147-1.905,2.345-2.327,2.931.22-2.052.452-4.1.763-6.1a62.658,62.658,0,0,1,1.753-8.025c.183.067,5,1.887,7.329,1.722,2.021-.14,4.556-.886,5.728-2.681a3.6,3.6,0,0,0-1.209-5.216c-2.7-1.392-7.542,1.173-9.466,3.09-.153.153-2.046,2.522-2.357,2.974.043-.153.073-.318.122-.47a46.4,46.4,0,0,1,3.182-7.6c.69-1.35,1.429-2.608,2.174-3.811.861.434,4.831,2.357,6.944,2.443,2.028.079,4.629-.379,5.991-2.04a3.594,3.594,0,0,0-.629-5.313c-2.534-1.68-7.628.342-9.747,2.034-.116.092-1.185,1.154-1.954,1.942.342-.537.69-1.1,1.026-1.606,1.27-1.918,2.553-3.591,3.7-5.063.66-.831,1.27-1.576,1.85-2.26,1.069-.018,5.368-.147,7.249-1.032,1.832-.861,3.933-2.467,4.379-4.568a3.6,3.6,0,0,0-3-4.428c-3.023-.324-6.614,3.817-7.72,6.3-.1.214-1.2,3.738-1.148,3.738h.067c-.574.647-1.179,1.35-1.826,2.131-1.185,1.453-2.5,3.1-3.823,5a64.861,64.861,0,0,0-3.964,6.315,46.918,46.918,0,0,0-3.383,7.622c-.012.031-.018.067-.03.1.018-.892-.025-3.383-.049-3.573-.348-2.693-2.6-7.689-5.594-8.238a3.594,3.594,0,0,0-4.147,3.383c-.177,2.137,1.374,4.281,2.889,5.631,1.7,1.521,6.437,3,6.816,3.115a63.163,63.163,0,0,0-2,8.257c-.287,1.625-.531,3.273-.751,4.928-.012-.77-.024-1.46-.043-1.557-.348-2.693-2.6-7.689-5.594-8.238a3.6,3.6,0,0,0-4.147,3.383c-.177,2.138,1.374,4.281,2.889,5.631,1.533,1.368,5.545,2.712,6.608,3.047-.079.635-.165,1.27-.238,1.905-.366,3.047-.715,6.095-1.148,9.069-.153,1.051-.342,2.076-.525,3.1-.012-.684-.024-1.258-.037-1.35-.348-2.693-2.6-7.689-5.594-8.239a3.594,3.594,0,0,0-4.147,3.383c-.177,2.138,1.374,4.281,2.889,5.631,1.466,1.307,5.154,2.577,6.419,2.986-.22,1.05-.44,2.095-.7,3.1-.2.684-.336,1.35-.568,2.028s-.434,1.338-.647,2c-.458,1.252-.922,2.553-1.4,3.768-.324.849-.647,1.649-.977,2.455.165-1.044.446-3.09.446-3.261a13.92,13.92,0,0,0-1.875-6.791,4.29,4.29,0,0,0-.049-.794,3.6,3.6,0,0,0-4.4-3.054c-2.938.782-4.8,5.936-4.941,8.648-.006.159.1,1.905.183,3-.147-.641-.281-1.258-.446-1.918-.305-1.3-.653-2.583-1.02-3.976-.2-.666-.4-1.331-.611-2.009-.189-.672-.476-1.362-.708-2.052-.58-1.588-1.246-3.17-1.954-4.745,1.136-.275,5.161-1.3,6.773-2.541s3.316-3.255,3.3-5.4a3.6,3.6,0,0,0-3.884-3.683c-3.023.33-5.643,5.142-6.193,7.8-.037.165-.214,2.119-.293,3.194-.434-.947-.861-1.893-1.325-2.834-1.35-2.718-2.8-5.429-4.238-8.141-.44-.831-.867-1.661-1.3-2.492.4-.092,5.216-1.209,7.023-2.6,1.606-1.234,3.316-3.255,3.3-5.4a3.6,3.6,0,0,0-3.884-3.683c-3.023.33-5.643,5.142-6.193,7.8-.043.2-.293,3.011-.324,3.725-.953-1.832-1.881-3.664-2.73-5.515a64.381,64.381,0,0,1-2.968-7.658c.189-.043,5.216-1.185,7.066-2.608,1.606-1.234,3.316-3.255,3.3-5.4a3.6,3.6,0,0,0-3.884-3.683c-3.023.33-5.643,5.142-6.193,7.8-.043.208-.311,3.231-.324,3.78-.049-.153-.11-.305-.159-.458a46.147,46.147,0,0,1-1.539-8.092c-.171-1.508-.244-2.962-.293-4.373.959-.116,5.325-.7,7.133-1.8,1.734-1.05,3.652-2.87,3.872-5a3.594,3.594,0,0,0-3.457-4.086c-3.041-.006-6.174,4.489-7.011,7.072-.043.14-.348,1.618-.556,2.7-.012-.641-.031-1.3-.031-1.912.006-2.3.147-4.4.293-6.266.092-1.057.2-2.015.3-2.907.879-.6,4.4-3.084,5.478-4.861,1.057-1.728,1.918-4.226,1.13-6.223a3.6,3.6,0,0,0-4.953-2.034c-2.7,1.4-3.408,6.834-2.962,9.509.036.232,1.057,3.78,1.105,3.75,0,0,.043-.031.055-.037-.122.855-.238,1.777-.342,2.785-.183,1.863-.379,3.97-.428,6.278a63.556,63.556,0,0,0,.177,7.451,46.765,46.765,0,0,0,1.38,8.226c.006.03.024.061.03.1-.476-.751-1.887-2.809-2.009-2.95-1.777-2.052-6.412-4.977-9.21-3.786a3.6,3.6,0,0,0-1.594,5.112C313.5,336.744,315.972,337.672,317.975,337.965Z" transform="translate(-311.522 -298.063)" fill="#004812"/>
          <path id="Path_56" data-name="Path 56" d="M402.442,331.386c.049.031.971-3.548,1-3.78.372-2.687-.482-8.1-3.219-9.423a3.594,3.594,0,0,0-4.892,2.168c-.733,2.015.2,4.489,1.3,6.193C397.923,328.541,402.442,331.38,402.442,331.386Z" transform="translate(-343.871 -305.763)" fill="#004812"/>
        </g>
      </g>
    </g>
    <g id="Question_Mark" transform="translate(47.396 65.916)">
      <g id="Group_167" data-name="Group 167" transform="translate(185.432 47.506)">
        <path id="Path_57" data-name="Path 57" d="M360.269,213.771l1.679-11.927a73.908,73.908,0,0,0,9.124-6.614,35.823,35.823,0,0,0,6.956-7.878,23.114,23.114,0,0,0,3.475-9.375,9.623,9.623,0,0,0-.916-6.406,6.329,6.329,0,0,0-4.855-2.938,6.585,6.585,0,0,0-4.983,1.02,6.19,6.19,0,0,0-2.388,4.354,10.027,10.027,0,0,0-.061,2.48c.079.776.183,1.624.311,2.534l-12.007.892a24.471,24.471,0,0,1-.464-3.847,20.926,20.926,0,0,1,.2-3.756q1.108-7.887,6.614-11.9t14.517-2.742q9.207,1.3,13.576,6.993t3.072,14.9a28.845,28.845,0,0,1-3.676,10.785,35.063,35.063,0,0,1-7.3,8.648,68.716,68.716,0,0,1-10.113,7.194l-1.3,9.2Zm-3.225,19.47,1.759-12.489,12.587,1.777-1.759,12.489Z" transform="translate(-356.125 -157.358)" fill="none" stroke="#000" stroke-miterlimit="10" stroke-width="1"/>
      </g>
      <g id="Group_168" data-name="Group 168" transform="translate(0)">
        <path id="Path_58" data-name="Path 58" d="M85.928,148.135l-2.254-10.828a97.975,97.975,0,0,1-14.37-8.08,44.786,44.786,0,0,1-10.547-9.912,31.275,31.275,0,0,1-5.631-12.6q-2.254-10.828,3.518-17.747t18.462-8.843q12.431-1.887,20.251,2.626a19.822,19.822,0,0,1,9.753,13.8,21.771,21.771,0,0,1,.458,4.434,24.268,24.268,0,0,1-.452,4.568L88.438,105c.134-1.081.232-2.089.305-3.011a10.375,10.375,0,0,0-.208-2.931,7.229,7.229,0,0,0-3.524-5.051,10.406,10.406,0,0,0-6.95-1q-4.663.705-6.584,3.677c-1.276,1.979-1.6,4.519-.953,7.609a25.37,25.37,0,0,0,5.283,10.938,45.993,45.993,0,0,0,10.028,9.02,105.14,105.14,0,0,0,12.972,7.439l2.925,14.034Zm3.884,23.116-3.06-14.694,17.35-2.632,3.06,14.694Z" transform="translate(-52.494 -79.57)" fill="none" stroke="#000" stroke-miterlimit="10" stroke-width="1"/>
      </g>
    </g>
    <g id="Character_1_" transform="translate(95.73 78.48)">
      <g id="Group_174" data-name="Group 174">
        <g id="Group_169" data-name="Group 169" transform="translate(0.587 89.473)">
          <path id="Path_59" data-name="Path 59" d="M180.424,248.1s-39.208.525-40.423,3.31-6.8,36.594-7.145,48.265-.525,19.341.7,20.734,20.215,12.373,20.215,12.373-8.886,31.189-6.1,32.234,19.867,5.4,30.841,5.576,21.778.177,22.651.177,28.923,1.044,38.683-1.222,12.721-2.437,12.721-6.272-2.437-8.538-2.614-9.411,6.62-66.91,2.791-83.118-8.886-22.48-12.721-23.525-31.189-.348-31.189-.348Z" transform="translate(-132.599 -246.648)" fill="#ddb724" stroke="#000" stroke-linecap="round" stroke-linejoin="round" stroke-miterlimit="10" stroke-width="1"/>
          <path id="Path_60" data-name="Path 60" d="M242.5,271.99a36.894,36.894,0,0,1-4.08,2.052" transform="translate(-173.793 -256.513)" fill="none" stroke="#000" stroke-linecap="round" stroke-linejoin="round" stroke-miterlimit="10" stroke-width="1"/>
          <path id="Path_61" data-name="Path 61" d="M260.8,250.42a50.828,50.828,0,0,1-12.685,12.037" transform="translate(-177.569 -248.116)" fill="none" stroke="#000" stroke-linecap="round" stroke-linejoin="round" stroke-miterlimit="10" stroke-width="1"/>
          <path id="Path_62" data-name="Path 62" d="M260.777,261.84s-3.6,5.075-6.767,6.767" transform="translate(-179.862 -252.562)" fill="none" stroke="#000" stroke-linecap="round" stroke-linejoin="round" stroke-miterlimit="10" stroke-width="1"/>
          <line id="Line_82" data-name="Line 82" x1="1.026" y1="3.194" transform="translate(54.971 61.916)" fill="none" stroke="#000" stroke-linecap="round" stroke-linejoin="round" stroke-miterlimit="10" stroke-width="1"/>
          <line id="Line_83" data-name="Line 83" x1="4.538" y1="14.108" transform="translate(57.054 68.371)" fill="none" stroke="#000" stroke-linecap="round" stroke-linejoin="round" stroke-miterlimit="10" stroke-width="1"/>
          <line id="Line_84" data-name="Line 84" y1="7.145" x2="4.525" transform="translate(62.99 75.681)" fill="none" stroke="#000" stroke-linecap="round" stroke-linejoin="round" stroke-miterlimit="10" stroke-width="1"/>
          <line id="Line_85" data-name="Line 85" y1="12.367" x2="10.975" transform="translate(73.268 66.276)" fill="none" stroke="#000" stroke-linecap="round" stroke-linejoin="round" stroke-miterlimit="10" stroke-width="1"/>
          <line id="Line_86" data-name="Line 86" x2="23.629" y2="6.883" transform="translate(44.937 117.24)" fill="none" stroke="#000" stroke-linecap="round" stroke-linejoin="round" stroke-miterlimit="10" stroke-width="1"/>
          <line id="Line_87" data-name="Line 87" x2="4.055" y2="1.185" transform="translate(38.073 115.237)" fill="none" stroke="#000" stroke-linecap="round" stroke-linejoin="round" stroke-miterlimit="10" stroke-width="1"/>
        </g>
        <path id="Path_63" data-name="Path 63" d="M191.742,113.571s-12.312-2.828-14.639.33,2.327,6.156,1.661,6.822-14.975,7.988-13.808,15.14,10.816,14.474,11.146,16.471S164.956,155,163.46,157.988s-3.658,17.137,8.819,21.8,28.117-3.163,32.441-3.163,8.654,8.483,13.643,7.988a12.1,12.1,0,0,0,7.817-4.159s5.161,7.151,12.642,4.159,16.141-13.478,12.477-16.636-7.817-4.159-5.161-6.987,8.153-10.315,7.322-16.807-8.483-6.987-11.481-8.984,3.328-5.325,3.164-10.816-4.159-14.639-24.459-20.795-30.279-3.164-31.281,2A8.565,8.565,0,0,0,191.742,113.571Z" transform="translate(-143.574 -100.142)" fill="#3f3f3f" stroke="#000" stroke-linecap="round" stroke-linejoin="round" stroke-miterlimit="10" stroke-width="1"/>
        <path id="Path_64" data-name="Path 64" d="M211.382,209.431s-4.159,25.955-4.324,26.786,7.322,8.318,17.473,6.987a24.021,24.021,0,0,0,15.3-8.153l-3.163-25.791s-8.654,4.159-13.973,3.994S211.382,209.431,211.382,209.431Z" transform="translate(-160.997 -142.62)" fill="#fff" stroke="#000" stroke-linecap="round" stroke-linejoin="round" stroke-miterlimit="10" stroke-width="1"/>
        <path id="Path_65" data-name="Path 65" d="M211.34,223.464l17.521-3.389L213.05,209.54Z" transform="translate(-162.665 -142.729)" fill="#263238" stroke="#000" stroke-linecap="round" stroke-linejoin="round" stroke-miterlimit="10" stroke-width="1"/>
        <g id="Group_170" data-name="Group 170" transform="translate(36.633 10.017)">
          <path id="Path_66" data-name="Path 66" d="M196.128,171.181s-2.931-3.713-4.3.977,4.495,10.358,4.495,10.358Z" transform="translate(-191.621 -137.27)" fill="#fff" stroke="#000" stroke-linecap="round" stroke-linejoin="round" stroke-miterlimit="10" stroke-width="1"/>
          <path id="Path_67" data-name="Path 67" d="M267.645,171.181s2.931-3.713,4.3.977-4.495,10.358-4.495,10.358Z" transform="translate(-221.14 -137.27)" fill="#fff" stroke="#000" stroke-linecap="round" stroke-linejoin="round" stroke-miterlimit="10" stroke-width="1"/>
          <path id="Path_68" data-name="Path 68" d="M207.513,130.454s-8.391,8.147-9.607,10.578-.727,30.279.611,32.954,14.712,13.13,16.9,13.985,7.176,1.7,11.066-.244,13.253-11.915,14.23-14.468-.244-31.739-.849-34.536-15.323-12.77-21.522-13.252S207.513,130.454,207.513,130.454Z" transform="translate(-193.797 -120.007)" fill="#fff" stroke="#000" stroke-linecap="round" stroke-linejoin="round" stroke-miterlimit="10" stroke-width="1"/>
          <path id="Path_69" data-name="Path 69" d="M224.6,122.007s12.568,11.463,21.607,11.909l9.039.44s-19.842-2.644-26.016-16.1C229.23,118.264,222.4,112.529,224.6,122.007Z" transform="translate(-204.289 -116.544)" fill="#3f3f3f" stroke="#000" stroke-linecap="round" stroke-linejoin="round" stroke-miterlimit="10" stroke-width="1"/>
          <line id="Line_88" data-name="Line 88" x2="0.971" y2="12.281" transform="translate(27.335 28.2)" fill="none" stroke="#000" stroke-linecap="round" stroke-linejoin="round" stroke-miterlimit="10" stroke-width="1"/>
          <path id="Path_70" data-name="Path 70" d="M235.152,187.01s-2.186,3.286-3.768,3.286-3.163-1.826-3.163-1.826" transform="translate(-205.869 -143.975)" fill="none" stroke="#000" stroke-linecap="round" stroke-linejoin="round" stroke-miterlimit="10" stroke-width="1"/>
          <path id="Path_71" data-name="Path 71" d="M217.86,193.58s2.8,4.623,6.443,4.861a25.89,25.89,0,0,0,7.536-.849" transform="translate(-201.836 -146.533)" fill="none" stroke="#000" stroke-linecap="round" stroke-linejoin="round" stroke-miterlimit="10" stroke-width="1"/>
          <path id="Path_72" data-name="Path 72" d="M238.179,155.722s4.257-3.163,5.961-4.257,7.176.971,7.176.971-4.135-2.308-6.321-2.675-6.687,2.8-7.054,4.257S236.475,155.111,238.179,155.722Z" transform="translate(-209.384 -129.464)" fill="#3f3f3f" stroke="#000" stroke-linecap="round" stroke-linejoin="round" stroke-miterlimit="10" stroke-width="1"/>
          <path id="Path_73" data-name="Path 73" d="M216.485,159.323a3.008,3.008,0,0,0-2.675-1.826c-2.064-.122-11.188,2.308-9.607,2.308s8.147-.122,9.851-.122A5.868,5.868,0,0,0,216.485,159.323Z" transform="translate(-196.448 -132.485)" fill="#3f3f3f" stroke="#000" stroke-linecap="round" stroke-linejoin="round" stroke-miterlimit="10" stroke-width="1"/>
          <path id="Path_74" data-name="Path 74" d="M252.638,171.88a25.072,25.072,0,0,1-5.594.611c-2.431-.122-4.623-.849-3.646.244s2.919,2.064,5.961,1.46S253.487,172.973,252.638,171.88Z" transform="translate(-211.685 -138.086)" fill="#3f3f3f"/>
          <path id="Path_75" data-name="Path 75" d="M216.6,171.88a25.072,25.072,0,0,1-5.594.611c-2.431-.122-4.623-.849-3.646.244s2.919,2.064,5.961,1.46S217.447,172.973,216.6,171.88Z" transform="translate(-197.655 -138.086)" fill="#3f3f3f"/>
        </g>
        <g id="Group_171" data-name="Group 171" transform="translate(15.11 63.375)">
          <path id="Path_76" data-name="Path 76" d="M156.38,254.436s3.658-20.129,5.325-22.126,19.8-16.807,20.795-17.8,8.153-11.811,8.483-10.48-.831,7.152-2.993,10.315-5.161,6.987-5.161,6.987,11.146,2.828,11.811,3.493,4.452,8.953,4.66,9.985c.354,1.783-.159,3.695-1.661,3.829-1.368.122-10.315-4.495-10.315-4.495l-7.151,1s-5.161,6.321-8.654,7.487a29.855,29.855,0,0,1-4.825,1.331l.165,12.312Z" transform="translate(-156.38 -203.914)" fill="#fff" stroke="#000" stroke-linecap="round" stroke-linejoin="round" stroke-miterlimit="10" stroke-width="1"/>
          <path id="Path_77" data-name="Path 77" d="M200.58,238.65s9.716,1.3,10.309,1.777,5.625,7.9,5.625,7.9" transform="translate(-173.586 -217.437)" fill="none" stroke="#000" stroke-linecap="round" stroke-linejoin="round" stroke-miterlimit="10" stroke-width="1"/>
          <path id="Path_78" data-name="Path 78" d="M201.67,245.89s9.643,2.211,10.352,2.8,4.5,4.977,4.5,4.977" transform="translate(-174.011 -220.255)" fill="none" stroke="#000" stroke-linecap="round" stroke-linejoin="round" stroke-miterlimit="10" stroke-width="1"/>
        </g>
        <path id="Path_79" data-name="Path 79" d="M198.182,379.463s-13.069-2.437-13.588-2.614-9.759-2.962-10.981-3.487-16.031-3.139-16.727-2.089-1.392,7.145-1.57,7.664-1.57,2.962-1.221,4.354a13.115,13.115,0,0,1,0,3.835s-.177,8.19,1.918,8.367,4.006-7.664,4.006-7.664,2.962,1.741,9.063,2.089,12.025-2.614,12.025-2.614l16.2,3.835Z" transform="translate(-140.358 -205.594)" fill="#fff" stroke="#000" stroke-linecap="round" stroke-linejoin="round" stroke-miterlimit="10" stroke-width="1"/>
        <g id="Group_172" data-name="Group 172" transform="translate(0 110.342)">
          <path id="Path_80" data-name="Path 80" d="M144.263,280.82l17.54,3.206-.672,10.962s3.878,1.857,5.063,12.648,4.556,35.867,3.713,37.724-6.07,9.955-18.218,10.455-18.725-10.626-19.9-14.169,5.063-26.762,5.4-28.783,2.021-15.854,3.542-18.218a18.35,18.35,0,0,1,3.371-3.878Z" transform="translate(-131.638 -280.82)" fill="#ddb724" stroke="#000" stroke-linecap="round" stroke-linejoin="round" stroke-miterlimit="10" stroke-width="1"/>
          <path id="Path_81" data-name="Path 81" d="M170.16,301.5a25.513,25.513,0,0,0,2.931.183" transform="translate(-146.634 -288.87)" fill="none" stroke="#000" stroke-linecap="round" stroke-linejoin="round" stroke-miterlimit="10" stroke-width="1"/>
          <path id="Path_82" data-name="Path 82" d="M152.03,297.11A61,61,0,0,0,159,299.083" transform="translate(-139.576 -287.162)" fill="none" stroke="#000" stroke-linecap="round" stroke-linejoin="round" stroke-miterlimit="10" stroke-width="1"/>
        </g>
        <g id="Group_173" data-name="Group 173" transform="translate(54.337 89.83)">
          <path id="Path_83" data-name="Path 83" d="M275.324,273.248,273.583,318.2s-1.918.177-2.614,1.044a12.668,12.668,0,0,0-1.221,1.918s-17.6.7-25.961,3.139a80.848,80.848,0,0,0-13.943,5.4l-7.664-.177-1.57,20.215,10.278.348s5.051,2.962,28.056,5.051,33.632,2.614,36.069-.177,3.487-7.145,3.835-9.411a152.754,152.754,0,0,0,4.532-36.417c0-20.215-18.993-49.486-23.177-56.106s-8.538-6.1-11.5-5.4" transform="translate(-220.61 -247.233)" fill="#ddb724" stroke="#000" stroke-linecap="round" stroke-linejoin="round" stroke-miterlimit="10" stroke-width="1"/>
          <path id="Path_84" data-name="Path 84" d="M318.044,354.339l-10.694,3.1,10.107-9.411" transform="translate(-254.377 -286.472)" fill="none" stroke="#000" stroke-linecap="round" stroke-linejoin="round" stroke-miterlimit="10" stroke-width="1"/>
          <line id="Line_89" data-name="Line 89" x1="3.377" y2="0.977" transform="translate(67.02 65.919)" fill="none" stroke="#000" stroke-linecap="round" stroke-linejoin="round" stroke-miterlimit="10" stroke-width="1"/>
          <path id="Path_85" data-name="Path 85" d="M301.07,368.29s11.152.873,15.683,2.614" transform="translate(-251.932 -294.359)" fill="none" stroke="#000" stroke-linecap="round" stroke-linejoin="round" stroke-miterlimit="10" stroke-width="1"/>
          <path id="Path_86" data-name="Path 86" d="M329.41,384.55a22.215,22.215,0,0,1,1.515,1.747" transform="translate(-262.964 -300.688)" fill="none" stroke="#000" stroke-linecap="round" stroke-linejoin="round" stroke-miterlimit="10" stroke-width="1"/>
          <path id="Path_87" data-name="Path 87" d="M308.49,372.29a29.623,29.623,0,0,1,10.645,5.515" transform="translate(-254.82 -295.916)" fill="none" stroke="#000" stroke-linecap="round" stroke-linejoin="round" stroke-miterlimit="10" stroke-width="1"/>
          <line id="Line_90" data-name="Line 90" x2="0.177" y2="16.905" transform="translate(9.063 84.387)" fill="none" stroke="#000" stroke-linecap="round" stroke-linejoin="round" stroke-miterlimit="10" stroke-width="1"/>
          <line id="Line_91" data-name="Line 91" x2="7.316" transform="translate(0.702 97.108)" fill="none" stroke="#000" stroke-linecap="round" stroke-linejoin="round" stroke-miterlimit="10" stroke-width="1"/>
          <line id="Line_92" data-name="Line 92" y1="0.171" x2="2.962" transform="translate(2.443 87.001)" fill="none" stroke="#000" stroke-linecap="round" stroke-linejoin="round" stroke-miterlimit="10" stroke-width="1"/>
        </g>
      </g>
    </g>
  </g>
</svg>
